M48
; DRILL file {KiCad (5.1.6)-1} date 05/26/20 13:11:53
; FORMAT={-:-/ absolute / inch / decimal}
; #@! TF.CreationDate,2020-05-26T13:11:53+02:00
; #@! TF.GenerationSoftware,Kicad,Pcbnew,(5.1.6)-1
FMAT,2
INCH
T1C0.0157
T2C0.0300
T3C0.0315
T4C0.0354
T5C0.0394
T6C0.0433
T7C0.0433
%
G90
G05
T1
X6.0993Y-3.5837
X6.294Y-3.5372
X6.2972Y-3.6015
T2
X5.95Y-3.925
X5.95Y-4.025
X6.05Y-3.925
X6.05Y-4.025
X6.15Y-3.925
X6.15Y-4.025
X6.25Y-3.925
X6.25Y-4.025
T3
X5.1Y-3.625
X5.1984Y-3.625
T4
X4.75Y-3.45
X4.85Y-3.45
X6.4Y-3.9
X6.5Y-3.9
X4.75Y-3.9
X4.85Y-3.9
X5.375Y-3.45
X5.475Y-3.45
X6.4Y-3.45
X6.5Y-3.45
X5.775Y-3.45
X5.875Y-3.45
T5
X5.35Y-3.6
X5.45Y-3.6
X5.55Y-3.6
X5.65Y-3.6
X5.75Y-3.6
T6
X5.0441Y-3.8478
X5.0441Y-4.025
X5.3Y-3.8478
X5.3Y-4.025
T7
X5.5339Y-3.975
X5.715Y-3.975
T4
G00X5.4Y-3.9435
M15
G01X5.4Y-4.0065
M16
G05
G00X5.8488Y-3.9435
M15
G01X5.8488Y-4.0065
M16
G05
T0
M30
