%TF.GenerationSoftware,KiCad,Pcbnew,(5.1.6)-1*%
%TF.CreationDate,2020-05-26T13:10:35+02:00*%
%TF.ProjectId,semaforBoard,73656d61-666f-4724-926f-6172642e6b69,rev?*%
%TF.SameCoordinates,Original*%
%TF.FileFunction,Copper,L2,Bot*%
%TF.FilePolarity,Positive*%
%FSLAX46Y46*%
G04 Gerber Fmt 4.6, Leading zero omitted, Abs format (unit mm)*
G04 Created by KiCad (PCBNEW (5.1.6)-1) date 2020-05-26 13:10:35*
%MOMM*%
%LPD*%
G01*
G04 APERTURE LIST*
%TA.AperFunction,SMDPad,CuDef*%
%ADD10R,0.900000X0.800000*%
%TD*%
%TA.AperFunction,ComponentPad*%
%ADD11O,1.900000X3.500000*%
%TD*%
%TA.AperFunction,ComponentPad*%
%ADD12O,1.700000X1.700000*%
%TD*%
%TA.AperFunction,ComponentPad*%
%ADD13R,1.700000X1.700000*%
%TD*%
%TA.AperFunction,ComponentPad*%
%ADD14C,1.524000*%
%TD*%
%TA.AperFunction,SMDPad,CuDef*%
%ADD15R,2.000000X1.500000*%
%TD*%
%TA.AperFunction,SMDPad,CuDef*%
%ADD16R,2.000000X3.800000*%
%TD*%
%TA.AperFunction,ComponentPad*%
%ADD17C,2.000000*%
%TD*%
%TA.AperFunction,ComponentPad*%
%ADD18C,1.800000*%
%TD*%
%TA.AperFunction,ComponentPad*%
%ADD19R,1.800000X1.800000*%
%TD*%
%TA.AperFunction,ComponentPad*%
%ADD20C,1.600000*%
%TD*%
%TA.AperFunction,ComponentPad*%
%ADD21R,1.600000X1.600000*%
%TD*%
%TA.AperFunction,ViaPad*%
%ADD22C,0.800000*%
%TD*%
%TA.AperFunction,Conductor*%
%ADD23C,0.250000*%
%TD*%
G04 APERTURE END LIST*
D10*
%TO.P,Q3,3*%
%TO.N,Net-(Q3-Pad3)*%
X160750000Y-88585000D03*
%TO.P,Q3,2*%
%TO.N,GND*%
X158750000Y-87635000D03*
%TO.P,Q3,1*%
%TO.N,Net-(Q3-Pad1)*%
X158750000Y-89535000D03*
%TD*%
%TO.P,Q2,3*%
%TO.N,Net-(Q2-Pad3)*%
X160750000Y-96205000D03*
%TO.P,Q2,2*%
%TO.N,GND*%
X158750000Y-95255000D03*
%TO.P,Q2,1*%
%TO.N,Net-(Q2-Pad1)*%
X158750000Y-97155000D03*
%TD*%
%TO.P,Q1,3*%
%TO.N,Net-(Q1-Pad3)*%
X160750000Y-92395000D03*
%TO.P,Q1,2*%
%TO.N,GND*%
X158750000Y-91445000D03*
%TO.P,Q1,1*%
%TO.N,Net-(Q1-Pad1)*%
X158750000Y-93345000D03*
%TD*%
D11*
%TO.P,J3,5*%
%TO.N,Net-(J3-Pad5)*%
X137160000Y-100965000D03*
X148560000Y-100965000D03*
%TD*%
D12*
%TO.P,J2,5*%
%TO.N,+5V*%
X146050000Y-91440000D03*
%TO.P,J2,4*%
%TO.N,+3V3*%
X143510000Y-91440000D03*
%TO.P,J2,3*%
%TO.N,Net-(J2-Pad3)*%
X140970000Y-91440000D03*
%TO.P,J2,2*%
%TO.N,Net-(J2-Pad2)*%
X138430000Y-91440000D03*
D13*
%TO.P,J2,1*%
%TO.N,GND*%
X135890000Y-91440000D03*
%TD*%
D14*
%TO.P,U1,8*%
%TO.N,LED-C*%
X151130000Y-99695000D03*
%TO.P,U1,7*%
%TO.N,LED-B*%
X156210000Y-99695000D03*
%TO.P,U1,6*%
%TO.N,LED-A*%
X158750000Y-102235000D03*
%TO.P,U1,5*%
%TO.N,BUTTON*%
X153670000Y-99695000D03*
%TO.P,U1,4*%
%TO.N,RESET*%
X153670000Y-102235000D03*
%TO.P,U1,3*%
%TO.N,+3V3*%
X156210000Y-102235000D03*
%TO.P,U1,2*%
%TO.N,GND*%
X158750000Y-99695000D03*
%TO.P,U1,1*%
%TO.N,+3V3*%
X151130000Y-102235000D03*
%TD*%
D15*
%TO.P,U2,1*%
%TO.N,GND*%
X125680000Y-91045000D03*
%TO.P,U2,3*%
%TO.N,+5V*%
X125680000Y-95645000D03*
%TO.P,U2,2*%
%TO.N,+3V3*%
X125680000Y-93345000D03*
D16*
X119380000Y-93345000D03*
%TD*%
D17*
%TO.P,SW1,1*%
%TO.N,BUTTON*%
X128120000Y-102235000D03*
%TO.P,SW1,2*%
%TO.N,GND*%
X128120000Y-97735000D03*
%TO.P,SW1,1*%
%TO.N,BUTTON*%
X134620000Y-102235000D03*
%TO.P,SW1,2*%
%TO.N,GND*%
X134620000Y-97735000D03*
%TD*%
%TO.P,R9,2*%
%TO.N,Net-(J2-Pad3)*%
%TA.AperFunction,SMDPad,CuDef*%
G36*
G01*
X141883000Y-88275000D02*
X141883000Y-89525000D01*
G75*
G02*
X141633000Y-89775000I-250000J0D01*
G01*
X140708000Y-89775000D01*
G75*
G02*
X140458000Y-89525000I0J250000D01*
G01*
X140458000Y-88275000D01*
G75*
G02*
X140708000Y-88025000I250000J0D01*
G01*
X141633000Y-88025000D01*
G75*
G02*
X141883000Y-88275000I0J-250000D01*
G01*
G37*
%TD.AperFunction*%
%TO.P,R9,1*%
%TO.N,LED-A*%
%TA.AperFunction,SMDPad,CuDef*%
G36*
G01*
X144858000Y-88275000D02*
X144858000Y-89525000D01*
G75*
G02*
X144608000Y-89775000I-250000J0D01*
G01*
X143683000Y-89775000D01*
G75*
G02*
X143433000Y-89525000I0J250000D01*
G01*
X143433000Y-88275000D01*
G75*
G02*
X143683000Y-88025000I250000J0D01*
G01*
X144608000Y-88025000D01*
G75*
G02*
X144858000Y-88275000I0J-250000D01*
G01*
G37*
%TD.AperFunction*%
%TD*%
%TO.P,R8,2*%
%TO.N,Net-(J2-Pad2)*%
%TA.AperFunction,SMDPad,CuDef*%
G36*
G01*
X149215000Y-94892500D02*
X147965000Y-94892500D01*
G75*
G02*
X147715000Y-94642500I0J250000D01*
G01*
X147715000Y-93717500D01*
G75*
G02*
X147965000Y-93467500I250000J0D01*
G01*
X149215000Y-93467500D01*
G75*
G02*
X149465000Y-93717500I0J-250000D01*
G01*
X149465000Y-94642500D01*
G75*
G02*
X149215000Y-94892500I-250000J0D01*
G01*
G37*
%TD.AperFunction*%
%TO.P,R8,1*%
%TO.N,LED-C*%
%TA.AperFunction,SMDPad,CuDef*%
G36*
G01*
X149215000Y-97867500D02*
X147965000Y-97867500D01*
G75*
G02*
X147715000Y-97617500I0J250000D01*
G01*
X147715000Y-96692500D01*
G75*
G02*
X147965000Y-96442500I250000J0D01*
G01*
X149215000Y-96442500D01*
G75*
G02*
X149465000Y-96692500I0J-250000D01*
G01*
X149465000Y-97617500D01*
G75*
G02*
X149215000Y-97867500I-250000J0D01*
G01*
G37*
%TD.AperFunction*%
%TD*%
%TO.P,R7,2*%
%TO.N,Net-(Q3-Pad3)*%
%TA.AperFunction,SMDPad,CuDef*%
G36*
G01*
X154295000Y-89812500D02*
X153045000Y-89812500D01*
G75*
G02*
X152795000Y-89562500I0J250000D01*
G01*
X152795000Y-88637500D01*
G75*
G02*
X153045000Y-88387500I250000J0D01*
G01*
X154295000Y-88387500D01*
G75*
G02*
X154545000Y-88637500I0J-250000D01*
G01*
X154545000Y-89562500D01*
G75*
G02*
X154295000Y-89812500I-250000J0D01*
G01*
G37*
%TD.AperFunction*%
%TO.P,R7,1*%
%TO.N,Net-(D5-Pad1)*%
%TA.AperFunction,SMDPad,CuDef*%
G36*
G01*
X154295000Y-92787500D02*
X153045000Y-92787500D01*
G75*
G02*
X152795000Y-92537500I0J250000D01*
G01*
X152795000Y-91612500D01*
G75*
G02*
X153045000Y-91362500I250000J0D01*
G01*
X154295000Y-91362500D01*
G75*
G02*
X154545000Y-91612500I0J-250000D01*
G01*
X154545000Y-92537500D01*
G75*
G02*
X154295000Y-92787500I-250000J0D01*
G01*
G37*
%TD.AperFunction*%
%TD*%
%TO.P,R6,2*%
%TO.N,Net-(Q2-Pad3)*%
%TA.AperFunction,SMDPad,CuDef*%
G36*
G01*
X153045000Y-96442500D02*
X154295000Y-96442500D01*
G75*
G02*
X154545000Y-96692500I0J-250000D01*
G01*
X154545000Y-97617500D01*
G75*
G02*
X154295000Y-97867500I-250000J0D01*
G01*
X153045000Y-97867500D01*
G75*
G02*
X152795000Y-97617500I0J250000D01*
G01*
X152795000Y-96692500D01*
G75*
G02*
X153045000Y-96442500I250000J0D01*
G01*
G37*
%TD.AperFunction*%
%TO.P,R6,1*%
%TO.N,Net-(D3-Pad1)*%
%TA.AperFunction,SMDPad,CuDef*%
G36*
G01*
X153045000Y-93467500D02*
X154295000Y-93467500D01*
G75*
G02*
X154545000Y-93717500I0J-250000D01*
G01*
X154545000Y-94642500D01*
G75*
G02*
X154295000Y-94892500I-250000J0D01*
G01*
X153045000Y-94892500D01*
G75*
G02*
X152795000Y-94642500I0J250000D01*
G01*
X152795000Y-93717500D01*
G75*
G02*
X153045000Y-93467500I250000J0D01*
G01*
G37*
%TD.AperFunction*%
%TD*%
%TO.P,R5,2*%
%TO.N,Net-(Q1-Pad3)*%
%TA.AperFunction,SMDPad,CuDef*%
G36*
G01*
X156835000Y-89812500D02*
X155585000Y-89812500D01*
G75*
G02*
X155335000Y-89562500I0J250000D01*
G01*
X155335000Y-88637500D01*
G75*
G02*
X155585000Y-88387500I250000J0D01*
G01*
X156835000Y-88387500D01*
G75*
G02*
X157085000Y-88637500I0J-250000D01*
G01*
X157085000Y-89562500D01*
G75*
G02*
X156835000Y-89812500I-250000J0D01*
G01*
G37*
%TD.AperFunction*%
%TO.P,R5,1*%
%TO.N,Net-(D1-Pad1)*%
%TA.AperFunction,SMDPad,CuDef*%
G36*
G01*
X156835000Y-92787500D02*
X155585000Y-92787500D01*
G75*
G02*
X155335000Y-92537500I0J250000D01*
G01*
X155335000Y-91612500D01*
G75*
G02*
X155585000Y-91362500I250000J0D01*
G01*
X156835000Y-91362500D01*
G75*
G02*
X157085000Y-91612500I0J-250000D01*
G01*
X157085000Y-92537500D01*
G75*
G02*
X156835000Y-92787500I-250000J0D01*
G01*
G37*
%TD.AperFunction*%
%TD*%
%TO.P,R4,2*%
%TO.N,+3V3*%
%TA.AperFunction,SMDPad,CuDef*%
G36*
G01*
X151755000Y-94892500D02*
X150505000Y-94892500D01*
G75*
G02*
X150255000Y-94642500I0J250000D01*
G01*
X150255000Y-93717500D01*
G75*
G02*
X150505000Y-93467500I250000J0D01*
G01*
X151755000Y-93467500D01*
G75*
G02*
X152005000Y-93717500I0J-250000D01*
G01*
X152005000Y-94642500D01*
G75*
G02*
X151755000Y-94892500I-250000J0D01*
G01*
G37*
%TD.AperFunction*%
%TO.P,R4,1*%
%TO.N,BUTTON*%
%TA.AperFunction,SMDPad,CuDef*%
G36*
G01*
X151755000Y-97867500D02*
X150505000Y-97867500D01*
G75*
G02*
X150255000Y-97617500I0J250000D01*
G01*
X150255000Y-96692500D01*
G75*
G02*
X150505000Y-96442500I250000J0D01*
G01*
X151755000Y-96442500D01*
G75*
G02*
X152005000Y-96692500I0J-250000D01*
G01*
X152005000Y-97617500D01*
G75*
G02*
X151755000Y-97867500I-250000J0D01*
G01*
G37*
%TD.AperFunction*%
%TD*%
%TO.P,R3,2*%
%TO.N,LED-C*%
%TA.AperFunction,SMDPad,CuDef*%
G36*
G01*
X150505000Y-91362500D02*
X151755000Y-91362500D01*
G75*
G02*
X152005000Y-91612500I0J-250000D01*
G01*
X152005000Y-92537500D01*
G75*
G02*
X151755000Y-92787500I-250000J0D01*
G01*
X150505000Y-92787500D01*
G75*
G02*
X150255000Y-92537500I0J250000D01*
G01*
X150255000Y-91612500D01*
G75*
G02*
X150505000Y-91362500I250000J0D01*
G01*
G37*
%TD.AperFunction*%
%TO.P,R3,1*%
%TO.N,Net-(Q3-Pad1)*%
%TA.AperFunction,SMDPad,CuDef*%
G36*
G01*
X150505000Y-88387500D02*
X151755000Y-88387500D01*
G75*
G02*
X152005000Y-88637500I0J-250000D01*
G01*
X152005000Y-89562500D01*
G75*
G02*
X151755000Y-89812500I-250000J0D01*
G01*
X150505000Y-89812500D01*
G75*
G02*
X150255000Y-89562500I0J250000D01*
G01*
X150255000Y-88637500D01*
G75*
G02*
X150505000Y-88387500I250000J0D01*
G01*
G37*
%TD.AperFunction*%
%TD*%
%TO.P,R2,2*%
%TO.N,LED-B*%
%TA.AperFunction,SMDPad,CuDef*%
G36*
G01*
X155585000Y-96442500D02*
X156835000Y-96442500D01*
G75*
G02*
X157085000Y-96692500I0J-250000D01*
G01*
X157085000Y-97617500D01*
G75*
G02*
X156835000Y-97867500I-250000J0D01*
G01*
X155585000Y-97867500D01*
G75*
G02*
X155335000Y-97617500I0J250000D01*
G01*
X155335000Y-96692500D01*
G75*
G02*
X155585000Y-96442500I250000J0D01*
G01*
G37*
%TD.AperFunction*%
%TO.P,R2,1*%
%TO.N,Net-(Q2-Pad1)*%
%TA.AperFunction,SMDPad,CuDef*%
G36*
G01*
X155585000Y-93467500D02*
X156835000Y-93467500D01*
G75*
G02*
X157085000Y-93717500I0J-250000D01*
G01*
X157085000Y-94642500D01*
G75*
G02*
X156835000Y-94892500I-250000J0D01*
G01*
X155585000Y-94892500D01*
G75*
G02*
X155335000Y-94642500I0J250000D01*
G01*
X155335000Y-93717500D01*
G75*
G02*
X155585000Y-93467500I250000J0D01*
G01*
G37*
%TD.AperFunction*%
%TD*%
%TO.P,R1,2*%
%TO.N,LED-A*%
%TA.AperFunction,SMDPad,CuDef*%
G36*
G01*
X161935000Y-94537500D02*
X163185000Y-94537500D01*
G75*
G02*
X163435000Y-94787500I0J-250000D01*
G01*
X163435000Y-95712500D01*
G75*
G02*
X163185000Y-95962500I-250000J0D01*
G01*
X161935000Y-95962500D01*
G75*
G02*
X161685000Y-95712500I0J250000D01*
G01*
X161685000Y-94787500D01*
G75*
G02*
X161935000Y-94537500I250000J0D01*
G01*
G37*
%TD.AperFunction*%
%TO.P,R1,1*%
%TO.N,Net-(Q1-Pad1)*%
%TA.AperFunction,SMDPad,CuDef*%
G36*
G01*
X161935000Y-91562500D02*
X163185000Y-91562500D01*
G75*
G02*
X163435000Y-91812500I0J-250000D01*
G01*
X163435000Y-92737500D01*
G75*
G02*
X163185000Y-92987500I-250000J0D01*
G01*
X161935000Y-92987500D01*
G75*
G02*
X161685000Y-92737500I0J250000D01*
G01*
X161685000Y-91812500D01*
G75*
G02*
X161935000Y-91562500I250000J0D01*
G01*
G37*
%TD.AperFunction*%
%TD*%
%TO.P,J1,2*%
%TO.N,GND*%
%TA.AperFunction,SMDPad,CuDef*%
G36*
G01*
X143433000Y-86985000D02*
X143433000Y-85735000D01*
G75*
G02*
X143683000Y-85485000I250000J0D01*
G01*
X144608000Y-85485000D01*
G75*
G02*
X144858000Y-85735000I0J-250000D01*
G01*
X144858000Y-86985000D01*
G75*
G02*
X144608000Y-87235000I-250000J0D01*
G01*
X143683000Y-87235000D01*
G75*
G02*
X143433000Y-86985000I0J250000D01*
G01*
G37*
%TD.AperFunction*%
%TO.P,J1,1*%
%TO.N,RESET*%
%TA.AperFunction,SMDPad,CuDef*%
G36*
G01*
X140458000Y-86985000D02*
X140458000Y-85735000D01*
G75*
G02*
X140708000Y-85485000I250000J0D01*
G01*
X141633000Y-85485000D01*
G75*
G02*
X141883000Y-85735000I0J-250000D01*
G01*
X141883000Y-86985000D01*
G75*
G02*
X141633000Y-87235000I-250000J0D01*
G01*
X140708000Y-87235000D01*
G75*
G02*
X140458000Y-86985000I0J250000D01*
G01*
G37*
%TD.AperFunction*%
%TD*%
D18*
%TO.P,D6,2*%
%TO.N,+5V*%
X165100000Y-99060000D03*
D19*
%TO.P,D6,1*%
%TO.N,Net-(D5-Pad1)*%
X162560000Y-99060000D03*
%TD*%
D18*
%TO.P,D5,2*%
%TO.N,+5V*%
X165100000Y-87630000D03*
D19*
%TO.P,D5,1*%
%TO.N,Net-(D5-Pad1)*%
X162560000Y-87630000D03*
%TD*%
D18*
%TO.P,D4,2*%
%TO.N,+5V*%
X149225000Y-87630000D03*
D19*
%TO.P,D4,1*%
%TO.N,Net-(D3-Pad1)*%
X146685000Y-87630000D03*
%TD*%
D18*
%TO.P,D3,2*%
%TO.N,+5V*%
X139065000Y-87630000D03*
D19*
%TO.P,D3,1*%
%TO.N,Net-(D3-Pad1)*%
X136525000Y-87630000D03*
%TD*%
D18*
%TO.P,D2,2*%
%TO.N,+5V*%
X123190000Y-99060000D03*
D19*
%TO.P,D2,1*%
%TO.N,Net-(D1-Pad1)*%
X120650000Y-99060000D03*
%TD*%
D18*
%TO.P,D1,2*%
%TO.N,+5V*%
X123190000Y-87630000D03*
D19*
%TO.P,D1,1*%
%TO.N,Net-(D1-Pad1)*%
X120650000Y-87630000D03*
%TD*%
D20*
%TO.P,C1,2*%
%TO.N,GND*%
X132040000Y-92075000D03*
D21*
%TO.P,C1,1*%
%TO.N,+3V3*%
X129540000Y-92075000D03*
%TD*%
D22*
%TO.N,GND*%
X159868800Y-89845600D03*
X159947700Y-91479100D03*
%TO.N,Net-(D1-Pad1)*%
X154922800Y-91024900D03*
%TD*%
D23*
%TO.N,GND*%
X159868800Y-89845600D02*
X159868800Y-88753800D01*
X159868800Y-88753800D02*
X158750000Y-87635000D01*
X159525300Y-91445000D02*
X159913600Y-91445000D01*
X159913600Y-91445000D02*
X159947700Y-91479100D01*
X158750000Y-95255000D02*
X158750000Y-95980300D01*
X158750000Y-99695000D02*
X159525400Y-98919600D01*
X159525400Y-98919600D02*
X159525400Y-96574400D01*
X159525400Y-96574400D02*
X158931300Y-95980300D01*
X158931300Y-95980300D02*
X158750000Y-95980300D01*
X158750000Y-91445000D02*
X159525300Y-91445000D01*
X158750000Y-87635000D02*
X158750000Y-86909700D01*
X144145500Y-86360000D02*
X158200300Y-86360000D01*
X158200300Y-86360000D02*
X158750000Y-86909700D01*
X132040000Y-96445000D02*
X129410000Y-96445000D01*
X129410000Y-96445000D02*
X128120000Y-97735000D01*
X134620000Y-97735000D02*
X133330000Y-96445000D01*
X133330000Y-96445000D02*
X132040000Y-96445000D01*
X132040000Y-96445000D02*
X132040000Y-92075000D01*
X127005300Y-91045000D02*
X127100700Y-90949600D01*
X127100700Y-90949600D02*
X130914600Y-90949600D01*
X130914600Y-90949600D02*
X132040000Y-92075000D01*
X125680000Y-91045000D02*
X127005300Y-91045000D01*
%TO.N,+3V3*%
X143510000Y-91440000D02*
X144685300Y-91440000D01*
X144685300Y-91440000D02*
X144685300Y-91807400D01*
X144685300Y-91807400D02*
X145493200Y-92615300D01*
X145493200Y-92615300D02*
X149565300Y-92615300D01*
X149565300Y-92615300D02*
X151130000Y-94180000D01*
X155416800Y-102074700D02*
X154940000Y-101598000D01*
X154940000Y-101598000D02*
X154940000Y-99384700D01*
X154940000Y-99384700D02*
X154030500Y-98475200D01*
X154030500Y-98475200D02*
X153089000Y-98475200D01*
X153089000Y-98475200D02*
X152400000Y-97786200D01*
X152400000Y-97786200D02*
X152400000Y-95466300D01*
X152400000Y-95466300D02*
X152018300Y-95084600D01*
X152018300Y-95084600D02*
X152018300Y-95068300D01*
X152018300Y-95068300D02*
X151130000Y-94180000D01*
X119380000Y-93345000D02*
X119380000Y-91119700D01*
X125854900Y-93345000D02*
X125711300Y-93345000D01*
X125711300Y-93345000D02*
X124351000Y-91984700D01*
X124351000Y-91984700D02*
X124351000Y-89838600D01*
X124351000Y-89838600D02*
X124470000Y-89719600D01*
X124470000Y-89719600D02*
X124470000Y-87161400D01*
X124470000Y-87161400D02*
X123663100Y-86354500D01*
X123663100Y-86354500D02*
X122725400Y-86354500D01*
X122725400Y-86354500D02*
X121875400Y-87204500D01*
X121875400Y-87204500D02*
X121875400Y-88707100D01*
X121875400Y-88707100D02*
X119462800Y-91119700D01*
X119462800Y-91119700D02*
X119380000Y-91119700D01*
X125854900Y-93345000D02*
X125680000Y-93345000D01*
X128414700Y-92075000D02*
X127144700Y-93345000D01*
X127144700Y-93345000D02*
X125854900Y-93345000D01*
X155416800Y-102074700D02*
X155577000Y-102235000D01*
X155577000Y-102235000D02*
X156210000Y-102235000D01*
X151130000Y-102235000D02*
X152221500Y-103326500D01*
X152221500Y-103326500D02*
X154165000Y-103326500D01*
X154165000Y-103326500D02*
X155416800Y-102074700D01*
X129540000Y-92075000D02*
X128414700Y-92075000D01*
%TO.N,+5V*%
X125680000Y-95645000D02*
X125680000Y-94569700D01*
X123190000Y-87630000D02*
X123190000Y-93155000D01*
X123190000Y-93155000D02*
X124604700Y-94569700D01*
X124604700Y-94569700D02*
X125680000Y-94569700D01*
X125680000Y-95645000D02*
X125680000Y-96720300D01*
X123190000Y-99060000D02*
X125529700Y-96720300D01*
X125529700Y-96720300D02*
X125680000Y-96720300D01*
%TO.N,Net-(D1-Pad1)*%
X156210000Y-92075000D02*
X155159900Y-91024900D01*
X155159900Y-91024900D02*
X154922800Y-91024900D01*
%TO.N,Net-(D3-Pad1)*%
X146685000Y-87630000D02*
X147910300Y-87630000D01*
X147910300Y-87630000D02*
X147910300Y-88089500D01*
X147910300Y-88089500D02*
X150521900Y-90701100D01*
X150521900Y-90701100D02*
X151687500Y-90701100D01*
X151687500Y-90701100D02*
X152468700Y-91482300D01*
X152468700Y-91482300D02*
X152468700Y-92978700D01*
X152468700Y-92978700D02*
X153670000Y-94180000D01*
%TO.N,Net-(D5-Pad1)*%
X163785300Y-94070400D02*
X163785300Y-95972500D01*
X163785300Y-95972500D02*
X162560000Y-97197800D01*
X162560000Y-97197800D02*
X162560000Y-97834700D01*
X162560000Y-88855300D02*
X163785300Y-90080600D01*
X163785300Y-90080600D02*
X163785300Y-94070400D01*
X163785300Y-94070400D02*
X158160300Y-94070400D01*
X158160300Y-94070400D02*
X157217400Y-93127500D01*
X157217400Y-93127500D02*
X154722500Y-93127500D01*
X154722500Y-93127500D02*
X153670000Y-92075000D01*
X162560000Y-99060000D02*
X162560000Y-97834700D01*
X162560000Y-87630000D02*
X162560000Y-88855300D01*
%TO.N,RESET*%
X153670000Y-102235000D02*
X152296400Y-100861400D01*
X152296400Y-100861400D02*
X150747800Y-100861400D01*
X150747800Y-100861400D02*
X149939000Y-100052600D01*
X149939000Y-100052600D02*
X149939000Y-99710700D01*
X149939000Y-99710700D02*
X148521900Y-98293600D01*
X148521900Y-98293600D02*
X143582900Y-98293600D01*
X143582900Y-98293600D02*
X137236600Y-91947300D01*
X137236600Y-91947300D02*
X137236600Y-90778400D01*
X137236600Y-90778400D02*
X137750400Y-90264600D01*
X137750400Y-90264600D02*
X137750400Y-87192100D01*
X137750400Y-87192100D02*
X138582500Y-86360000D01*
X138582500Y-86360000D02*
X141170500Y-86360000D01*
%TO.N,Net-(J2-Pad3)*%
X141170500Y-88900000D02*
X140970000Y-89100500D01*
X140970000Y-89100500D02*
X140970000Y-91440000D01*
%TO.N,Net-(J2-Pad2)*%
X138430000Y-91440000D02*
X139605300Y-91440000D01*
X148590000Y-94180000D02*
X141978000Y-94180000D01*
X141978000Y-94180000D02*
X139605300Y-91807300D01*
X139605300Y-91807300D02*
X139605300Y-91440000D01*
%TO.N,Net-(Q1-Pad1)*%
X162560000Y-92275000D02*
X161490000Y-93345000D01*
X161490000Y-93345000D02*
X158750000Y-93345000D01*
%TO.N,Net-(Q2-Pad1)*%
X156210000Y-94180000D02*
X158750000Y-96720000D01*
X158750000Y-96720000D02*
X158750000Y-97155000D01*
%TO.N,Net-(Q3-Pad1)*%
X158750000Y-88809700D02*
X158569600Y-88809700D01*
X158569600Y-88809700D02*
X157368700Y-87608800D01*
X157368700Y-87608800D02*
X152621200Y-87608800D01*
X152621200Y-87608800D02*
X151130000Y-89100000D01*
X158750000Y-89535000D02*
X158750000Y-88809700D01*
%TO.N,LED-A*%
X161334600Y-100316800D02*
X159416400Y-102235000D01*
X159416400Y-102235000D02*
X158750000Y-102235000D01*
X162560000Y-95250000D02*
X162560000Y-96124600D01*
X162560000Y-96124600D02*
X161334600Y-97350000D01*
X161334600Y-97350000D02*
X161334600Y-100316800D01*
X161334600Y-100316800D02*
X163593600Y-100316800D01*
X163593600Y-100316800D02*
X163785300Y-100125100D01*
X163785300Y-100125100D02*
X163785300Y-96927700D01*
X163785300Y-96927700D02*
X164235700Y-96477300D01*
X164235700Y-96477300D02*
X164235700Y-89421700D01*
X164235700Y-89421700D02*
X163785400Y-88971400D01*
X163785400Y-88971400D02*
X163785400Y-86543700D01*
X163785400Y-86543700D02*
X162374500Y-85132800D01*
X162374500Y-85132800D02*
X143469400Y-85132800D01*
X143469400Y-85132800D02*
X143100200Y-85502000D01*
X143100200Y-85502000D02*
X143100200Y-87854700D01*
X143100200Y-87854700D02*
X144145500Y-88900000D01*
%TO.N,LED-B*%
X156210000Y-97155000D02*
X156210000Y-99695000D01*
%TO.N,LED-C*%
X151130000Y-92075000D02*
X149319600Y-90264600D01*
X149319600Y-90264600D02*
X142963800Y-90264600D01*
X142963800Y-90264600D02*
X142277700Y-90950700D01*
X142277700Y-90950700D02*
X142277700Y-91892600D01*
X142277700Y-91892600D02*
X143488500Y-93103400D01*
X143488500Y-93103400D02*
X149416500Y-93103400D01*
X149416500Y-93103400D02*
X149804600Y-93491500D01*
X149804600Y-93491500D02*
X149804600Y-95940400D01*
X149804600Y-95940400D02*
X148590000Y-97155000D01*
X151130000Y-99695000D02*
X148590000Y-97155000D01*
%TO.N,BUTTON*%
X151130000Y-97155000D02*
X153670000Y-99695000D01*
%TO.N,Net-(Q1-Pad3)*%
X156210000Y-89100000D02*
X157900500Y-90790500D01*
X157900500Y-90790500D02*
X157900500Y-91930700D01*
X157900500Y-91930700D02*
X158364800Y-92395000D01*
X158364800Y-92395000D02*
X160750000Y-92395000D01*
%TO.N,Net-(Q2-Pad3)*%
X153670000Y-97155000D02*
X154724300Y-96100700D01*
X154724300Y-96100700D02*
X157056900Y-96100700D01*
X157056900Y-96100700D02*
X157662600Y-96706400D01*
X157662600Y-96706400D02*
X157662600Y-100209900D01*
X157662600Y-100209900D02*
X158282500Y-100829800D01*
X158282500Y-100829800D02*
X159157500Y-100829800D01*
X159157500Y-100829800D02*
X160750000Y-99237300D01*
X160750000Y-99237300D02*
X160750000Y-96205000D01*
%TO.N,Net-(Q3-Pad3)*%
X153670000Y-89100000D02*
X154710900Y-88059100D01*
X154710900Y-88059100D02*
X157073600Y-88059100D01*
X157073600Y-88059100D02*
X157974700Y-88960200D01*
X157974700Y-88960200D02*
X157974700Y-90069800D01*
X157974700Y-90069800D02*
X158475800Y-90570900D01*
X158475800Y-90570900D02*
X160169300Y-90570900D01*
X160169300Y-90570900D02*
X160750000Y-89990200D01*
X160750000Y-89990200D02*
X160750000Y-89310300D01*
X160750000Y-88585000D02*
X160750000Y-89310300D01*
%TD*%
M02*
