%TF.GenerationSoftware,KiCad,Pcbnew,(5.1.6)-1*%
%TF.CreationDate,2020-05-26T13:10:35+02:00*%
%TF.ProjectId,semaforBoard,73656d61-666f-4724-926f-6172642e6b69,rev?*%
%TF.SameCoordinates,Original*%
%TF.FileFunction,Legend,Bot*%
%TF.FilePolarity,Positive*%
%FSLAX46Y46*%
G04 Gerber Fmt 4.6, Leading zero omitted, Abs format (unit mm)*
G04 Created by KiCad (PCBNEW (5.1.6)-1) date 2020-05-26 13:10:35*
%MOMM*%
%LPD*%
G01*
G04 APERTURE LIST*
%ADD10C,0.300000*%
%ADD11C,0.010000*%
%ADD12C,0.120000*%
%ADD13C,0.150000*%
G04 APERTURE END LIST*
D10*
X166783857Y-100111666D02*
X166712428Y-99911666D01*
X166712428Y-99578333D01*
X166783857Y-99445000D01*
X166855285Y-99378333D01*
X166998142Y-99311666D01*
X167141000Y-99311666D01*
X167283857Y-99378333D01*
X167355285Y-99445000D01*
X167426714Y-99578333D01*
X167498142Y-99845000D01*
X167569571Y-99978333D01*
X167641000Y-100045000D01*
X167783857Y-100111666D01*
X167926714Y-100111666D01*
X168069571Y-100045000D01*
X168141000Y-99978333D01*
X168212428Y-99845000D01*
X168212428Y-99511666D01*
X168141000Y-99311666D01*
X166783857Y-98178333D02*
X166712428Y-98311666D01*
X166712428Y-98578333D01*
X166783857Y-98711666D01*
X166926714Y-98778333D01*
X167498142Y-98778333D01*
X167641000Y-98711666D01*
X167712428Y-98578333D01*
X167712428Y-98311666D01*
X167641000Y-98178333D01*
X167498142Y-98111666D01*
X167355285Y-98111666D01*
X167212428Y-98778333D01*
X166712428Y-97511666D02*
X167712428Y-97511666D01*
X167569571Y-97511666D02*
X167641000Y-97445000D01*
X167712428Y-97311666D01*
X167712428Y-97111666D01*
X167641000Y-96978333D01*
X167498142Y-96911666D01*
X166712428Y-96911666D01*
X167498142Y-96911666D02*
X167641000Y-96845000D01*
X167712428Y-96711666D01*
X167712428Y-96511666D01*
X167641000Y-96378333D01*
X167498142Y-96311666D01*
X166712428Y-96311666D01*
X166712428Y-95045000D02*
X167498142Y-95045000D01*
X167641000Y-95111666D01*
X167712428Y-95245000D01*
X167712428Y-95511666D01*
X167641000Y-95645000D01*
X166783857Y-95045000D02*
X166712428Y-95178333D01*
X166712428Y-95511666D01*
X166783857Y-95645000D01*
X166926714Y-95711666D01*
X167069571Y-95711666D01*
X167212428Y-95645000D01*
X167283857Y-95511666D01*
X167283857Y-95178333D01*
X167355285Y-95045000D01*
X167712428Y-94578333D02*
X167712428Y-94045000D01*
X166712428Y-94378333D02*
X167998142Y-94378333D01*
X168141000Y-94311666D01*
X168212428Y-94178333D01*
X168212428Y-94045000D01*
X166712428Y-93378333D02*
X166783857Y-93511666D01*
X166855285Y-93578333D01*
X166998142Y-93645000D01*
X167426714Y-93645000D01*
X167569571Y-93578333D01*
X167641000Y-93511666D01*
X167712428Y-93378333D01*
X167712428Y-93178333D01*
X167641000Y-93045000D01*
X167569571Y-92978333D01*
X167426714Y-92911666D01*
X166998142Y-92911666D01*
X166855285Y-92978333D01*
X166783857Y-93045000D01*
X166712428Y-93178333D01*
X166712428Y-93378333D01*
X166712428Y-92311666D02*
X167712428Y-92311666D01*
X167426714Y-92311666D02*
X167569571Y-92245000D01*
X167641000Y-92178333D01*
X167712428Y-92045000D01*
X167712428Y-91911666D01*
X167712428Y-90511666D02*
X166712428Y-90178333D01*
X167712428Y-89845000D01*
X168212428Y-89045000D02*
X168212428Y-88911666D01*
X168141000Y-88778333D01*
X168069571Y-88711666D01*
X167926714Y-88645000D01*
X167641000Y-88578333D01*
X167283857Y-88578333D01*
X166998142Y-88645000D01*
X166855285Y-88711666D01*
X166783857Y-88778333D01*
X166712428Y-88911666D01*
X166712428Y-89045000D01*
X166783857Y-89178333D01*
X166855285Y-89245000D01*
X166998142Y-89311666D01*
X167283857Y-89378333D01*
X167641000Y-89378333D01*
X167926714Y-89311666D01*
X168069571Y-89245000D01*
X168141000Y-89178333D01*
X168212428Y-89045000D01*
X166855285Y-87978333D02*
X166783857Y-87911666D01*
X166712428Y-87978333D01*
X166783857Y-88045000D01*
X166855285Y-87978333D01*
X166712428Y-87978333D01*
X166712428Y-86578333D02*
X166712428Y-87378333D01*
X166712428Y-86978333D02*
X168212428Y-86978333D01*
X167998142Y-87111666D01*
X167855285Y-87245000D01*
X167783857Y-87378333D01*
X165662428Y-96145000D02*
X165662428Y-96011666D01*
X165591000Y-95878333D01*
X165519571Y-95811666D01*
X165376714Y-95745000D01*
X165091000Y-95678333D01*
X164733857Y-95678333D01*
X164448142Y-95745000D01*
X164305285Y-95811666D01*
X164233857Y-95878333D01*
X164162428Y-96011666D01*
X164162428Y-96145000D01*
X164233857Y-96278333D01*
X164305285Y-96345000D01*
X164448142Y-96411666D01*
X164733857Y-96478333D01*
X165091000Y-96478333D01*
X165376714Y-96411666D01*
X165519571Y-96345000D01*
X165591000Y-96278333D01*
X165662428Y-96145000D01*
X165662428Y-94411666D02*
X165662428Y-95078333D01*
X164948142Y-95145000D01*
X165019571Y-95078333D01*
X165091000Y-94945000D01*
X165091000Y-94611666D01*
X165019571Y-94478333D01*
X164948142Y-94411666D01*
X164805285Y-94345000D01*
X164448142Y-94345000D01*
X164305285Y-94411666D01*
X164233857Y-94478333D01*
X164162428Y-94611666D01*
X164162428Y-94945000D01*
X164233857Y-95078333D01*
X164305285Y-95145000D01*
X165733857Y-92745000D02*
X163805285Y-93945000D01*
X165519571Y-92345000D02*
X165591000Y-92278333D01*
X165662428Y-92145000D01*
X165662428Y-91811666D01*
X165591000Y-91678333D01*
X165519571Y-91611666D01*
X165376714Y-91545000D01*
X165233857Y-91545000D01*
X165019571Y-91611666D01*
X164162428Y-92411666D01*
X164162428Y-91545000D01*
X165662428Y-90678333D02*
X165662428Y-90545000D01*
X165591000Y-90411666D01*
X165519571Y-90345000D01*
X165376714Y-90278333D01*
X165091000Y-90211666D01*
X164733857Y-90211666D01*
X164448142Y-90278333D01*
X164305285Y-90345000D01*
X164233857Y-90411666D01*
X164162428Y-90545000D01*
X164162428Y-90678333D01*
X164233857Y-90811666D01*
X164305285Y-90878333D01*
X164448142Y-90945000D01*
X164733857Y-91011666D01*
X165091000Y-91011666D01*
X165376714Y-90945000D01*
X165519571Y-90878333D01*
X165591000Y-90811666D01*
X165662428Y-90678333D01*
X125751000Y-101492857D02*
X125551000Y-101564285D01*
X125484333Y-101635714D01*
X125417666Y-101778571D01*
X125417666Y-101992857D01*
X125484333Y-102135714D01*
X125551000Y-102207142D01*
X125684333Y-102278571D01*
X126217666Y-102278571D01*
X126217666Y-100778571D01*
X125751000Y-100778571D01*
X125617666Y-100850000D01*
X125551000Y-100921428D01*
X125484333Y-101064285D01*
X125484333Y-101207142D01*
X125551000Y-101350000D01*
X125617666Y-101421428D01*
X125751000Y-101492857D01*
X126217666Y-101492857D01*
X124617666Y-102278571D02*
X124751000Y-102207142D01*
X124817666Y-102135714D01*
X124884333Y-101992857D01*
X124884333Y-101564285D01*
X124817666Y-101421428D01*
X124751000Y-101350000D01*
X124617666Y-101278571D01*
X124417666Y-101278571D01*
X124284333Y-101350000D01*
X124217666Y-101421428D01*
X124151000Y-101564285D01*
X124151000Y-101992857D01*
X124217666Y-102135714D01*
X124284333Y-102207142D01*
X124417666Y-102278571D01*
X124617666Y-102278571D01*
X123351000Y-102278571D02*
X123484333Y-102207142D01*
X123551000Y-102135714D01*
X123617666Y-101992857D01*
X123617666Y-101564285D01*
X123551000Y-101421428D01*
X123484333Y-101350000D01*
X123351000Y-101278571D01*
X123151000Y-101278571D01*
X123017666Y-101350000D01*
X122951000Y-101421428D01*
X122884333Y-101564285D01*
X122884333Y-101992857D01*
X122951000Y-102135714D01*
X123017666Y-102207142D01*
X123151000Y-102278571D01*
X123351000Y-102278571D01*
X122484333Y-101278571D02*
X121951000Y-101278571D01*
X122284333Y-100778571D02*
X122284333Y-102064285D01*
X122217666Y-102207142D01*
X122084333Y-102278571D01*
X121951000Y-102278571D01*
X146891428Y-95008666D02*
X146891428Y-95675333D01*
X146177142Y-95742000D01*
X146248571Y-95675333D01*
X146320000Y-95542000D01*
X146320000Y-95208666D01*
X146248571Y-95075333D01*
X146177142Y-95008666D01*
X146034285Y-94942000D01*
X145677142Y-94942000D01*
X145534285Y-95008666D01*
X145462857Y-95075333D01*
X145391428Y-95208666D01*
X145391428Y-95542000D01*
X145462857Y-95675333D01*
X145534285Y-95742000D01*
X146891428Y-94542000D02*
X145391428Y-94075333D01*
X146891428Y-93608666D01*
X144341428Y-96475333D02*
X144341428Y-95608666D01*
X143770000Y-96075333D01*
X143770000Y-95875333D01*
X143698571Y-95742000D01*
X143627142Y-95675333D01*
X143484285Y-95608666D01*
X143127142Y-95608666D01*
X142984285Y-95675333D01*
X142912857Y-95742000D01*
X142841428Y-95875333D01*
X142841428Y-96275333D01*
X142912857Y-96408666D01*
X142984285Y-96475333D01*
X144341428Y-95208666D02*
X142841428Y-94742000D01*
X144341428Y-94275333D01*
X144341428Y-93942000D02*
X144341428Y-93075333D01*
X143770000Y-93542000D01*
X143770000Y-93342000D01*
X143698571Y-93208666D01*
X143627142Y-93142000D01*
X143484285Y-93075333D01*
X143127142Y-93075333D01*
X142984285Y-93142000D01*
X142912857Y-93208666D01*
X142841428Y-93342000D01*
X142841428Y-93742000D01*
X142912857Y-93875333D01*
X142984285Y-93942000D01*
X141791428Y-95808666D02*
X141791428Y-95008666D01*
X140291428Y-95408666D02*
X141791428Y-95408666D01*
X141791428Y-94675333D02*
X140291428Y-93742000D01*
X141791428Y-93742000D02*
X140291428Y-94675333D01*
X137741428Y-94975333D02*
X138455714Y-95442000D01*
X137741428Y-95775333D02*
X139241428Y-95775333D01*
X139241428Y-95242000D01*
X139170000Y-95108666D01*
X139098571Y-95042000D01*
X138955714Y-94975333D01*
X138741428Y-94975333D01*
X138598571Y-95042000D01*
X138527142Y-95108666D01*
X138455714Y-95242000D01*
X138455714Y-95775333D01*
X139241428Y-94508666D02*
X137741428Y-93575333D01*
X139241428Y-93575333D02*
X137741428Y-94508666D01*
X136620000Y-95808666D02*
X136691428Y-95942000D01*
X136691428Y-96142000D01*
X136620000Y-96342000D01*
X136477142Y-96475333D01*
X136334285Y-96542000D01*
X136048571Y-96608666D01*
X135834285Y-96608666D01*
X135548571Y-96542000D01*
X135405714Y-96475333D01*
X135262857Y-96342000D01*
X135191428Y-96142000D01*
X135191428Y-96008666D01*
X135262857Y-95808666D01*
X135334285Y-95742000D01*
X135834285Y-95742000D01*
X135834285Y-96008666D01*
X135191428Y-95142000D02*
X136691428Y-95142000D01*
X135191428Y-94342000D01*
X136691428Y-94342000D01*
X135191428Y-93675333D02*
X136691428Y-93675333D01*
X136691428Y-93342000D01*
X136620000Y-93142000D01*
X136477142Y-93008666D01*
X136334285Y-92942000D01*
X136048571Y-92875333D01*
X135834285Y-92875333D01*
X135548571Y-92942000D01*
X135405714Y-93008666D01*
X135262857Y-93142000D01*
X135191428Y-93342000D01*
X135191428Y-93675333D01*
D11*
%TO.C,G1*%
G36*
X135060454Y-84512913D02*
G01*
X134981924Y-84565562D01*
X134931246Y-84640854D01*
X134909156Y-84728600D01*
X134916392Y-84818610D01*
X134953688Y-84900693D01*
X135021783Y-84964658D01*
X135121412Y-85000316D01*
X135129366Y-85001460D01*
X135204782Y-85003215D01*
X135266192Y-84991602D01*
X135267700Y-84990970D01*
X135354137Y-84928886D01*
X135406902Y-84840305D01*
X135423384Y-84738843D01*
X135400973Y-84638116D01*
X135349673Y-84563527D01*
X135287346Y-84514889D01*
X135215870Y-84495212D01*
X135166100Y-84493100D01*
X135060454Y-84512913D01*
G37*
X135060454Y-84512913D02*
X134981924Y-84565562D01*
X134931246Y-84640854D01*
X134909156Y-84728600D01*
X134916392Y-84818610D01*
X134953688Y-84900693D01*
X135021783Y-84964658D01*
X135121412Y-85000316D01*
X135129366Y-85001460D01*
X135204782Y-85003215D01*
X135266192Y-84991602D01*
X135267700Y-84990970D01*
X135354137Y-84928886D01*
X135406902Y-84840305D01*
X135423384Y-84738843D01*
X135400973Y-84638116D01*
X135349673Y-84563527D01*
X135287346Y-84514889D01*
X135215870Y-84495212D01*
X135166100Y-84493100D01*
X135060454Y-84512913D01*
G36*
X126555845Y-82850530D02*
G01*
X126517532Y-82904528D01*
X126475487Y-82975354D01*
X126395473Y-83120620D01*
X126742187Y-83304475D01*
X126862635Y-83367868D01*
X126967025Y-83421905D01*
X127047260Y-83462465D01*
X127095244Y-83485428D01*
X127104945Y-83489065D01*
X127126405Y-83469951D01*
X127164995Y-83419853D01*
X127198598Y-83370491D01*
X127239275Y-83302474D01*
X127262979Y-83251881D01*
X127265588Y-83233999D01*
X127239906Y-83214067D01*
X127179627Y-83174917D01*
X127094201Y-83122115D01*
X126993078Y-83061231D01*
X126885709Y-82997833D01*
X126781544Y-82937487D01*
X126690034Y-82885763D01*
X126620628Y-82848229D01*
X126582778Y-82830452D01*
X126579462Y-82829744D01*
X126555845Y-82850530D01*
G37*
X126555845Y-82850530D02*
X126517532Y-82904528D01*
X126475487Y-82975354D01*
X126395473Y-83120620D01*
X126742187Y-83304475D01*
X126862635Y-83367868D01*
X126967025Y-83421905D01*
X127047260Y-83462465D01*
X127095244Y-83485428D01*
X127104945Y-83489065D01*
X127126405Y-83469951D01*
X127164995Y-83419853D01*
X127198598Y-83370491D01*
X127239275Y-83302474D01*
X127262979Y-83251881D01*
X127265588Y-83233999D01*
X127239906Y-83214067D01*
X127179627Y-83174917D01*
X127094201Y-83122115D01*
X126993078Y-83061231D01*
X126885709Y-82997833D01*
X126781544Y-82937487D01*
X126690034Y-82885763D01*
X126620628Y-82848229D01*
X126582778Y-82830452D01*
X126579462Y-82829744D01*
X126555845Y-82850530D01*
G36*
X120062337Y-84683600D02*
G01*
X119969283Y-84905345D01*
X119882021Y-85113697D01*
X119802581Y-85303778D01*
X119732994Y-85470709D01*
X119675291Y-85609614D01*
X119631503Y-85715614D01*
X119603660Y-85783831D01*
X119594038Y-85808494D01*
X119591096Y-85829289D01*
X119604601Y-85842051D01*
X119643217Y-85848208D01*
X119715603Y-85849190D01*
X119824843Y-85846594D01*
X120070507Y-85839300D01*
X120185322Y-85565619D01*
X120300138Y-85291939D01*
X120696382Y-85298919D01*
X121092627Y-85305900D01*
X121207864Y-85578530D01*
X121323100Y-85851161D01*
X121570122Y-85851580D01*
X121683317Y-85851385D01*
X121754255Y-85848895D01*
X121791480Y-85841951D01*
X121803533Y-85828394D01*
X121798959Y-85806067D01*
X121794643Y-85794850D01*
X121780439Y-85760140D01*
X121748739Y-85683541D01*
X121701619Y-85570042D01*
X121641155Y-85424634D01*
X121569422Y-85252305D01*
X121488496Y-85058045D01*
X121400453Y-84846844D01*
X121396536Y-84837451D01*
X120904000Y-84837451D01*
X120880561Y-84848323D01*
X120818057Y-84856617D01*
X120728206Y-84861020D01*
X120690315Y-84861400D01*
X120476630Y-84861400D01*
X120582365Y-84558043D01*
X120623227Y-84445461D01*
X120659320Y-84354620D01*
X120687067Y-84293925D01*
X120702890Y-84271780D01*
X120704005Y-84272293D01*
X120718724Y-84302667D01*
X120745021Y-84369060D01*
X120778568Y-84459244D01*
X120815039Y-84560993D01*
X120850107Y-84662078D01*
X120879444Y-84750273D01*
X120898725Y-84813350D01*
X120904000Y-84837451D01*
X121396536Y-84837451D01*
X121327066Y-84670900D01*
X120881988Y-83604100D01*
X120515778Y-83604100D01*
X120062337Y-84683600D01*
G37*
X120062337Y-84683600D02*
X119969283Y-84905345D01*
X119882021Y-85113697D01*
X119802581Y-85303778D01*
X119732994Y-85470709D01*
X119675291Y-85609614D01*
X119631503Y-85715614D01*
X119603660Y-85783831D01*
X119594038Y-85808494D01*
X119591096Y-85829289D01*
X119604601Y-85842051D01*
X119643217Y-85848208D01*
X119715603Y-85849190D01*
X119824843Y-85846594D01*
X120070507Y-85839300D01*
X120185322Y-85565619D01*
X120300138Y-85291939D01*
X120696382Y-85298919D01*
X121092627Y-85305900D01*
X121207864Y-85578530D01*
X121323100Y-85851161D01*
X121570122Y-85851580D01*
X121683317Y-85851385D01*
X121754255Y-85848895D01*
X121791480Y-85841951D01*
X121803533Y-85828394D01*
X121798959Y-85806067D01*
X121794643Y-85794850D01*
X121780439Y-85760140D01*
X121748739Y-85683541D01*
X121701619Y-85570042D01*
X121641155Y-85424634D01*
X121569422Y-85252305D01*
X121488496Y-85058045D01*
X121400453Y-84846844D01*
X121396536Y-84837451D01*
X120904000Y-84837451D01*
X120880561Y-84848323D01*
X120818057Y-84856617D01*
X120728206Y-84861020D01*
X120690315Y-84861400D01*
X120476630Y-84861400D01*
X120582365Y-84558043D01*
X120623227Y-84445461D01*
X120659320Y-84354620D01*
X120687067Y-84293925D01*
X120702890Y-84271780D01*
X120704005Y-84272293D01*
X120718724Y-84302667D01*
X120745021Y-84369060D01*
X120778568Y-84459244D01*
X120815039Y-84560993D01*
X120850107Y-84662078D01*
X120879444Y-84750273D01*
X120898725Y-84813350D01*
X120904000Y-84837451D01*
X121396536Y-84837451D01*
X121327066Y-84670900D01*
X120881988Y-83604100D01*
X120515778Y-83604100D01*
X120062337Y-84683600D01*
G36*
X122021600Y-85853777D02*
G01*
X122279885Y-85846538D01*
X122538169Y-85839300D01*
X122984735Y-85062534D01*
X123431300Y-84285769D01*
X123438012Y-85068884D01*
X123444724Y-85852000D01*
X123875800Y-85852000D01*
X123875800Y-83591400D01*
X123380500Y-83591800D01*
X122479526Y-85178900D01*
X122478800Y-83591400D01*
X122021600Y-83591400D01*
X122021600Y-85853777D01*
G37*
X122021600Y-85853777D02*
X122279885Y-85846538D01*
X122538169Y-85839300D01*
X122984735Y-85062534D01*
X123431300Y-84285769D01*
X123438012Y-85068884D01*
X123444724Y-85852000D01*
X123875800Y-85852000D01*
X123875800Y-83591400D01*
X123380500Y-83591800D01*
X122479526Y-85178900D01*
X122478800Y-83591400D01*
X122021600Y-83591400D01*
X122021600Y-85853777D01*
G36*
X125152150Y-83595970D02*
G01*
X124977637Y-83599281D01*
X124845345Y-83603204D01*
X124746699Y-83608667D01*
X124673120Y-83616602D01*
X124616032Y-83627938D01*
X124566859Y-83643607D01*
X124517022Y-83664539D01*
X124516046Y-83664979D01*
X124365603Y-83758882D01*
X124251115Y-83887086D01*
X124174249Y-84046408D01*
X124136675Y-84233664D01*
X124135339Y-84391392D01*
X124149440Y-84517186D01*
X124176770Y-84614744D01*
X124216412Y-84694685D01*
X124314727Y-84820126D01*
X124443464Y-84923468D01*
X124585120Y-84990794D01*
X124591099Y-84992628D01*
X124652322Y-85013524D01*
X124686213Y-85030051D01*
X124688600Y-85033280D01*
X124674234Y-85056301D01*
X124634205Y-85113691D01*
X124573119Y-85199023D01*
X124495584Y-85305868D01*
X124406203Y-85427798D01*
X124395732Y-85442010D01*
X124102864Y-85839300D01*
X124376682Y-85846751D01*
X124499239Y-85849249D01*
X124581069Y-85847872D01*
X124632180Y-85841257D01*
X124662582Y-85828042D01*
X124682287Y-85806864D01*
X124683579Y-85804967D01*
X124708656Y-85768010D01*
X124756826Y-85697333D01*
X124822491Y-85601140D01*
X124900051Y-85487632D01*
X124956629Y-85404893D01*
X125196600Y-85054054D01*
X125196600Y-85852000D01*
X125653800Y-85852000D01*
X125653800Y-84023200D01*
X125196600Y-84023200D01*
X125196600Y-84658200D01*
X125025150Y-84656766D01*
X124921570Y-84651415D01*
X124825359Y-84638953D01*
X124767180Y-84625016D01*
X124665648Y-84565920D01*
X124602307Y-84473511D01*
X124577586Y-84348460D01*
X124577231Y-84329147D01*
X124594756Y-84211807D01*
X124648787Y-84124094D01*
X124741509Y-84064492D01*
X124875107Y-84031485D01*
X125017985Y-84023200D01*
X125196600Y-84023200D01*
X125653800Y-84023200D01*
X125653800Y-83587586D01*
X125152150Y-83595970D01*
G37*
X125152150Y-83595970D02*
X124977637Y-83599281D01*
X124845345Y-83603204D01*
X124746699Y-83608667D01*
X124673120Y-83616602D01*
X124616032Y-83627938D01*
X124566859Y-83643607D01*
X124517022Y-83664539D01*
X124516046Y-83664979D01*
X124365603Y-83758882D01*
X124251115Y-83887086D01*
X124174249Y-84046408D01*
X124136675Y-84233664D01*
X124135339Y-84391392D01*
X124149440Y-84517186D01*
X124176770Y-84614744D01*
X124216412Y-84694685D01*
X124314727Y-84820126D01*
X124443464Y-84923468D01*
X124585120Y-84990794D01*
X124591099Y-84992628D01*
X124652322Y-85013524D01*
X124686213Y-85030051D01*
X124688600Y-85033280D01*
X124674234Y-85056301D01*
X124634205Y-85113691D01*
X124573119Y-85199023D01*
X124495584Y-85305868D01*
X124406203Y-85427798D01*
X124395732Y-85442010D01*
X124102864Y-85839300D01*
X124376682Y-85846751D01*
X124499239Y-85849249D01*
X124581069Y-85847872D01*
X124632180Y-85841257D01*
X124662582Y-85828042D01*
X124682287Y-85806864D01*
X124683579Y-85804967D01*
X124708656Y-85768010D01*
X124756826Y-85697333D01*
X124822491Y-85601140D01*
X124900051Y-85487632D01*
X124956629Y-85404893D01*
X125196600Y-85054054D01*
X125196600Y-85852000D01*
X125653800Y-85852000D01*
X125653800Y-84023200D01*
X125196600Y-84023200D01*
X125196600Y-84658200D01*
X125025150Y-84656766D01*
X124921570Y-84651415D01*
X124825359Y-84638953D01*
X124767180Y-84625016D01*
X124665648Y-84565920D01*
X124602307Y-84473511D01*
X124577586Y-84348460D01*
X124577231Y-84329147D01*
X124594756Y-84211807D01*
X124648787Y-84124094D01*
X124741509Y-84064492D01*
X124875107Y-84031485D01*
X125017985Y-84023200D01*
X125196600Y-84023200D01*
X125653800Y-84023200D01*
X125653800Y-83587586D01*
X125152150Y-83595970D01*
G36*
X126325606Y-84721693D02*
G01*
X126231708Y-84945781D01*
X126144088Y-85155173D01*
X126064652Y-85345290D01*
X125995310Y-85511555D01*
X125937966Y-85649388D01*
X125894529Y-85754213D01*
X125866906Y-85821450D01*
X125857005Y-85846522D01*
X125857000Y-85846562D01*
X125880565Y-85848965D01*
X125943981Y-85849533D01*
X126036334Y-85848267D01*
X126103059Y-85846569D01*
X126349118Y-85839300D01*
X126575562Y-85293200D01*
X127368300Y-85294038D01*
X127483506Y-85566669D01*
X127598711Y-85839300D01*
X127845456Y-85846569D01*
X127950357Y-85848966D01*
X128033048Y-85849536D01*
X128082641Y-85848277D01*
X128091992Y-85846569D01*
X128082501Y-85822389D01*
X128055376Y-85755900D01*
X128012514Y-85651687D01*
X127955811Y-85514338D01*
X127887163Y-85348440D01*
X127808465Y-85158579D01*
X127721614Y-84949341D01*
X127685065Y-84861400D01*
X127200364Y-84861400D01*
X126985882Y-84861400D01*
X126888674Y-84858831D01*
X126814448Y-84851981D01*
X126774902Y-84842130D01*
X126771400Y-84837903D01*
X126779620Y-84804103D01*
X126801384Y-84735249D01*
X126832349Y-84643581D01*
X126868175Y-84541338D01*
X126904518Y-84440762D01*
X126937036Y-84354093D01*
X126961388Y-84293569D01*
X126972094Y-84272174D01*
X126985622Y-84287812D01*
X127011738Y-84343223D01*
X127046868Y-84430021D01*
X127087438Y-84539818D01*
X127093832Y-84557924D01*
X127200364Y-84861400D01*
X127685065Y-84861400D01*
X127628506Y-84725314D01*
X127627003Y-84721700D01*
X127162222Y-83604100D01*
X126794211Y-83604100D01*
X126325606Y-84721693D01*
G37*
X126325606Y-84721693D02*
X126231708Y-84945781D01*
X126144088Y-85155173D01*
X126064652Y-85345290D01*
X125995310Y-85511555D01*
X125937966Y-85649388D01*
X125894529Y-85754213D01*
X125866906Y-85821450D01*
X125857005Y-85846522D01*
X125857000Y-85846562D01*
X125880565Y-85848965D01*
X125943981Y-85849533D01*
X126036334Y-85848267D01*
X126103059Y-85846569D01*
X126349118Y-85839300D01*
X126575562Y-85293200D01*
X127368300Y-85294038D01*
X127483506Y-85566669D01*
X127598711Y-85839300D01*
X127845456Y-85846569D01*
X127950357Y-85848966D01*
X128033048Y-85849536D01*
X128082641Y-85848277D01*
X128091992Y-85846569D01*
X128082501Y-85822389D01*
X128055376Y-85755900D01*
X128012514Y-85651687D01*
X127955811Y-85514338D01*
X127887163Y-85348440D01*
X127808465Y-85158579D01*
X127721614Y-84949341D01*
X127685065Y-84861400D01*
X127200364Y-84861400D01*
X126985882Y-84861400D01*
X126888674Y-84858831D01*
X126814448Y-84851981D01*
X126774902Y-84842130D01*
X126771400Y-84837903D01*
X126779620Y-84804103D01*
X126801384Y-84735249D01*
X126832349Y-84643581D01*
X126868175Y-84541338D01*
X126904518Y-84440762D01*
X126937036Y-84354093D01*
X126961388Y-84293569D01*
X126972094Y-84272174D01*
X126985622Y-84287812D01*
X127011738Y-84343223D01*
X127046868Y-84430021D01*
X127087438Y-84539818D01*
X127093832Y-84557924D01*
X127200364Y-84861400D01*
X127685065Y-84861400D01*
X127628506Y-84725314D01*
X127627003Y-84721700D01*
X127162222Y-83604100D01*
X126794211Y-83604100D01*
X126325606Y-84721693D01*
G36*
X127965200Y-84023200D02*
G01*
X128397000Y-84023200D01*
X128397000Y-85852000D01*
X128828800Y-85852000D01*
X128828800Y-84023200D01*
X129260600Y-84023200D01*
X129260600Y-83591400D01*
X127965200Y-83591400D01*
X127965200Y-84023200D01*
G37*
X127965200Y-84023200D02*
X128397000Y-84023200D01*
X128397000Y-85852000D01*
X128828800Y-85852000D01*
X128828800Y-84023200D01*
X129260600Y-84023200D01*
X129260600Y-83591400D01*
X127965200Y-83591400D01*
X127965200Y-84023200D01*
G36*
X132911850Y-83592020D02*
G01*
X132766240Y-83593960D01*
X132629153Y-83598870D01*
X132513071Y-83606086D01*
X132430479Y-83614946D01*
X132410200Y-83618668D01*
X132246832Y-83679376D01*
X132116307Y-83777340D01*
X132022324Y-83908296D01*
X131968583Y-84067979D01*
X131959213Y-84138555D01*
X131960201Y-84296623D01*
X131993503Y-84422035D01*
X132061931Y-84523486D01*
X132093469Y-84553867D01*
X132144270Y-84600932D01*
X132159741Y-84626437D01*
X132144015Y-84640811D01*
X132129881Y-84645791D01*
X132048377Y-84690372D01*
X131964065Y-84766274D01*
X131893357Y-84857796D01*
X131875687Y-84888983D01*
X131845971Y-84966753D01*
X131830567Y-85062861D01*
X131826716Y-85184238D01*
X131842063Y-85361080D01*
X131889186Y-85504096D01*
X131971842Y-85621835D01*
X132049533Y-85691265D01*
X132130097Y-85745734D01*
X132216010Y-85786896D01*
X132315693Y-85816412D01*
X132437568Y-85835940D01*
X132590059Y-85847143D01*
X132781589Y-85851678D01*
X132864960Y-85852000D01*
X133299200Y-85852000D01*
X133299200Y-85452127D01*
X132867400Y-85452127D01*
X132667740Y-85440568D01*
X132516603Y-85423715D01*
X132409015Y-85392591D01*
X132381990Y-85378906D01*
X132306148Y-85309076D01*
X132267834Y-85218694D01*
X132266658Y-85121019D01*
X132302232Y-85029305D01*
X132374166Y-84956811D01*
X132394728Y-84944813D01*
X132460659Y-84922512D01*
X132558077Y-84903714D01*
X132667672Y-84892122D01*
X132670550Y-84891947D01*
X132867400Y-84880272D01*
X132867400Y-85452127D01*
X133299200Y-85452127D01*
X133299200Y-84455000D01*
X132867400Y-84455000D01*
X132734050Y-84454960D01*
X132628597Y-84445102D01*
X132533969Y-84419705D01*
X132513313Y-84410510D01*
X132432910Y-84347422D01*
X132396518Y-84266489D01*
X132407240Y-84175654D01*
X132414734Y-84158192D01*
X132468788Y-84086786D01*
X132552789Y-84043349D01*
X132673815Y-84024774D01*
X132721350Y-84023574D01*
X132867400Y-84023200D01*
X132867400Y-84455000D01*
X133299200Y-84455000D01*
X133299200Y-83591400D01*
X132911850Y-83592020D01*
G37*
X132911850Y-83592020D02*
X132766240Y-83593960D01*
X132629153Y-83598870D01*
X132513071Y-83606086D01*
X132430479Y-83614946D01*
X132410200Y-83618668D01*
X132246832Y-83679376D01*
X132116307Y-83777340D01*
X132022324Y-83908296D01*
X131968583Y-84067979D01*
X131959213Y-84138555D01*
X131960201Y-84296623D01*
X131993503Y-84422035D01*
X132061931Y-84523486D01*
X132093469Y-84553867D01*
X132144270Y-84600932D01*
X132159741Y-84626437D01*
X132144015Y-84640811D01*
X132129881Y-84645791D01*
X132048377Y-84690372D01*
X131964065Y-84766274D01*
X131893357Y-84857796D01*
X131875687Y-84888983D01*
X131845971Y-84966753D01*
X131830567Y-85062861D01*
X131826716Y-85184238D01*
X131842063Y-85361080D01*
X131889186Y-85504096D01*
X131971842Y-85621835D01*
X132049533Y-85691265D01*
X132130097Y-85745734D01*
X132216010Y-85786896D01*
X132315693Y-85816412D01*
X132437568Y-85835940D01*
X132590059Y-85847143D01*
X132781589Y-85851678D01*
X132864960Y-85852000D01*
X133299200Y-85852000D01*
X133299200Y-85452127D01*
X132867400Y-85452127D01*
X132667740Y-85440568D01*
X132516603Y-85423715D01*
X132409015Y-85392591D01*
X132381990Y-85378906D01*
X132306148Y-85309076D01*
X132267834Y-85218694D01*
X132266658Y-85121019D01*
X132302232Y-85029305D01*
X132374166Y-84956811D01*
X132394728Y-84944813D01*
X132460659Y-84922512D01*
X132558077Y-84903714D01*
X132667672Y-84892122D01*
X132670550Y-84891947D01*
X132867400Y-84880272D01*
X132867400Y-85452127D01*
X133299200Y-85452127D01*
X133299200Y-84455000D01*
X132867400Y-84455000D01*
X132734050Y-84454960D01*
X132628597Y-84445102D01*
X132533969Y-84419705D01*
X132513313Y-84410510D01*
X132432910Y-84347422D01*
X132396518Y-84266489D01*
X132407240Y-84175654D01*
X132414734Y-84158192D01*
X132468788Y-84086786D01*
X132552789Y-84043349D01*
X132673815Y-84024774D01*
X132721350Y-84023574D01*
X132867400Y-84023200D01*
X132867400Y-84455000D01*
X133299200Y-84455000D01*
X133299200Y-83591400D01*
X132911850Y-83592020D01*
G36*
X137823428Y-83593385D02*
G01*
X137660917Y-83600367D01*
X137532265Y-83613887D01*
X137429060Y-83635485D01*
X137342893Y-83666700D01*
X137265350Y-83709074D01*
X137221307Y-83739158D01*
X137111803Y-83847858D01*
X137028095Y-83991575D01*
X136976270Y-84158507D01*
X136965180Y-84235798D01*
X136967208Y-84438761D01*
X137012492Y-84616856D01*
X137099698Y-84767874D01*
X137227494Y-84889605D01*
X137394545Y-84979841D01*
X137420350Y-84989605D01*
X137480221Y-85014402D01*
X137512975Y-85034148D01*
X137515098Y-85037952D01*
X137500631Y-85062102D01*
X137460969Y-85119874D01*
X137401185Y-85204093D01*
X137326350Y-85307583D01*
X137271811Y-85382100D01*
X137185207Y-85499953D01*
X137105557Y-85608469D01*
X137039370Y-85698770D01*
X136993156Y-85761977D01*
X136978484Y-85782150D01*
X136927941Y-85852000D01*
X137482765Y-85852000D01*
X137759533Y-85447466D01*
X138036300Y-85042933D01*
X138043280Y-85447466D01*
X138050259Y-85852000D01*
X138480800Y-85852000D01*
X138480800Y-84023200D01*
X138049000Y-84023200D01*
X138049000Y-84658200D01*
X137864850Y-84657642D01*
X137704760Y-84646271D01*
X137582269Y-84612299D01*
X137574800Y-84609001D01*
X137488807Y-84559029D01*
X137438963Y-84496814D01*
X137417095Y-84408443D01*
X137414000Y-84335321D01*
X137428975Y-84217266D01*
X137476246Y-84129509D01*
X137559340Y-84069571D01*
X137681781Y-84034971D01*
X137847094Y-84023231D01*
X137857685Y-84023200D01*
X138049000Y-84023200D01*
X138480800Y-84023200D01*
X138480800Y-83591400D01*
X138028211Y-83591399D01*
X137823428Y-83593385D01*
G37*
X137823428Y-83593385D02*
X137660917Y-83600367D01*
X137532265Y-83613887D01*
X137429060Y-83635485D01*
X137342893Y-83666700D01*
X137265350Y-83709074D01*
X137221307Y-83739158D01*
X137111803Y-83847858D01*
X137028095Y-83991575D01*
X136976270Y-84158507D01*
X136965180Y-84235798D01*
X136967208Y-84438761D01*
X137012492Y-84616856D01*
X137099698Y-84767874D01*
X137227494Y-84889605D01*
X137394545Y-84979841D01*
X137420350Y-84989605D01*
X137480221Y-85014402D01*
X137512975Y-85034148D01*
X137515098Y-85037952D01*
X137500631Y-85062102D01*
X137460969Y-85119874D01*
X137401185Y-85204093D01*
X137326350Y-85307583D01*
X137271811Y-85382100D01*
X137185207Y-85499953D01*
X137105557Y-85608469D01*
X137039370Y-85698770D01*
X136993156Y-85761977D01*
X136978484Y-85782150D01*
X136927941Y-85852000D01*
X137482765Y-85852000D01*
X137759533Y-85447466D01*
X138036300Y-85042933D01*
X138043280Y-85447466D01*
X138050259Y-85852000D01*
X138480800Y-85852000D01*
X138480800Y-84023200D01*
X138049000Y-84023200D01*
X138049000Y-84658200D01*
X137864850Y-84657642D01*
X137704760Y-84646271D01*
X137582269Y-84612299D01*
X137574800Y-84609001D01*
X137488807Y-84559029D01*
X137438963Y-84496814D01*
X137417095Y-84408443D01*
X137414000Y-84335321D01*
X137428975Y-84217266D01*
X137476246Y-84129509D01*
X137559340Y-84069571D01*
X137681781Y-84034971D01*
X137847094Y-84023231D01*
X137857685Y-84023200D01*
X138049000Y-84023200D01*
X138480800Y-84023200D01*
X138480800Y-83591400D01*
X138028211Y-83591399D01*
X137823428Y-83593385D01*
G36*
X130253967Y-83568286D02*
G01*
X130046199Y-83623886D01*
X129851729Y-83715334D01*
X129676352Y-83841068D01*
X129525859Y-83999527D01*
X129406043Y-84189149D01*
X129322699Y-84408374D01*
X129321432Y-84413094D01*
X129287594Y-84628053D01*
X129292937Y-84855955D01*
X129335369Y-85081180D01*
X129412797Y-85288108D01*
X129447243Y-85352409D01*
X129559119Y-85501345D01*
X129708400Y-85638996D01*
X129881722Y-85755787D01*
X130065717Y-85842141D01*
X130177840Y-85875862D01*
X130307915Y-85894217D01*
X130462475Y-85898858D01*
X130618052Y-85890230D01*
X130751176Y-85868779D01*
X130767041Y-85864680D01*
X130997595Y-85776748D01*
X131199077Y-85650191D01*
X131367840Y-85489741D01*
X131500235Y-85300131D01*
X131592615Y-85086093D01*
X131641332Y-84852358D01*
X131648200Y-84721699D01*
X131647343Y-84712902D01*
X131196380Y-84712902D01*
X131172876Y-84915627D01*
X131105933Y-85092506D01*
X130997023Y-85241436D01*
X130847619Y-85360312D01*
X130690553Y-85435907D01*
X130557858Y-85464118D01*
X130403799Y-85463847D01*
X130247768Y-85436932D01*
X130109162Y-85385209D01*
X130099053Y-85379862D01*
X129947174Y-85270532D01*
X129835102Y-85130278D01*
X129763986Y-84961133D01*
X129734975Y-84765129D01*
X129734331Y-84734400D01*
X129737656Y-84617839D01*
X129752491Y-84527888D01*
X129783688Y-84440798D01*
X129802730Y-84399580D01*
X129905293Y-84240421D01*
X130037759Y-84117279D01*
X130192447Y-84031998D01*
X130361673Y-83986419D01*
X130537756Y-83982386D01*
X130713013Y-84021741D01*
X130879761Y-84106326D01*
X130916263Y-84132495D01*
X131031581Y-84249171D01*
X131121679Y-84397848D01*
X131179018Y-84562907D01*
X131196380Y-84712902D01*
X131647343Y-84712902D01*
X131624477Y-84478452D01*
X131553670Y-84254090D01*
X131436323Y-84049888D01*
X131289537Y-83882645D01*
X131102169Y-83735587D01*
X130899135Y-83632184D01*
X130686228Y-83570873D01*
X130469241Y-83550094D01*
X130253967Y-83568286D01*
G37*
X130253967Y-83568286D02*
X130046199Y-83623886D01*
X129851729Y-83715334D01*
X129676352Y-83841068D01*
X129525859Y-83999527D01*
X129406043Y-84189149D01*
X129322699Y-84408374D01*
X129321432Y-84413094D01*
X129287594Y-84628053D01*
X129292937Y-84855955D01*
X129335369Y-85081180D01*
X129412797Y-85288108D01*
X129447243Y-85352409D01*
X129559119Y-85501345D01*
X129708400Y-85638996D01*
X129881722Y-85755787D01*
X130065717Y-85842141D01*
X130177840Y-85875862D01*
X130307915Y-85894217D01*
X130462475Y-85898858D01*
X130618052Y-85890230D01*
X130751176Y-85868779D01*
X130767041Y-85864680D01*
X130997595Y-85776748D01*
X131199077Y-85650191D01*
X131367840Y-85489741D01*
X131500235Y-85300131D01*
X131592615Y-85086093D01*
X131641332Y-84852358D01*
X131648200Y-84721699D01*
X131647343Y-84712902D01*
X131196380Y-84712902D01*
X131172876Y-84915627D01*
X131105933Y-85092506D01*
X130997023Y-85241436D01*
X130847619Y-85360312D01*
X130690553Y-85435907D01*
X130557858Y-85464118D01*
X130403799Y-85463847D01*
X130247768Y-85436932D01*
X130109162Y-85385209D01*
X130099053Y-85379862D01*
X129947174Y-85270532D01*
X129835102Y-85130278D01*
X129763986Y-84961133D01*
X129734975Y-84765129D01*
X129734331Y-84734400D01*
X129737656Y-84617839D01*
X129752491Y-84527888D01*
X129783688Y-84440798D01*
X129802730Y-84399580D01*
X129905293Y-84240421D01*
X130037759Y-84117279D01*
X130192447Y-84031998D01*
X130361673Y-83986419D01*
X130537756Y-83982386D01*
X130713013Y-84021741D01*
X130879761Y-84106326D01*
X130916263Y-84132495D01*
X131031581Y-84249171D01*
X131121679Y-84397848D01*
X131179018Y-84562907D01*
X131196380Y-84712902D01*
X131647343Y-84712902D01*
X131624477Y-84478452D01*
X131553670Y-84254090D01*
X131436323Y-84049888D01*
X131289537Y-83882645D01*
X131102169Y-83735587D01*
X130899135Y-83632184D01*
X130686228Y-83570873D01*
X130469241Y-83550094D01*
X130253967Y-83568286D01*
G36*
X134872375Y-83221545D02*
G01*
X134602475Y-83300075D01*
X134357979Y-83419756D01*
X134142356Y-83576402D01*
X133959075Y-83765830D01*
X133811602Y-83983855D01*
X133703406Y-84226292D01*
X133637956Y-84488959D01*
X133618470Y-84734400D01*
X133626339Y-84937764D01*
X133654368Y-85114614D01*
X133707397Y-85286871D01*
X133775532Y-85445600D01*
X133878960Y-85620060D01*
X134019399Y-85792491D01*
X134184193Y-85950185D01*
X134360686Y-86080437D01*
X134467600Y-86140456D01*
X134733982Y-86243372D01*
X135009733Y-86297156D01*
X135290317Y-86301244D01*
X135509000Y-86269702D01*
X135766135Y-86189781D01*
X135999578Y-86068535D01*
X136206169Y-85911105D01*
X136382744Y-85722632D01*
X136526142Y-85508260D01*
X136633198Y-85273129D01*
X136700752Y-85022381D01*
X136715677Y-84865724D01*
X136296715Y-84865724D01*
X136278910Y-84963915D01*
X136269539Y-85001100D01*
X136239431Y-85111137D01*
X136213812Y-85180300D01*
X136185130Y-85217067D01*
X136145829Y-85229916D01*
X136088356Y-85227324D01*
X136069849Y-85225207D01*
X135996990Y-85219231D01*
X135950270Y-85229243D01*
X135909172Y-85264196D01*
X135869235Y-85312748D01*
X135822548Y-85374496D01*
X135803321Y-85417627D01*
X135807291Y-85463198D01*
X135826759Y-85522533D01*
X135848669Y-85600450D01*
X135846143Y-85648319D01*
X135836155Y-85665169D01*
X135798629Y-85693844D01*
X135730317Y-85733833D01*
X135646783Y-85777332D01*
X135563595Y-85816534D01*
X135496317Y-85843634D01*
X135464869Y-85851350D01*
X135433771Y-85831923D01*
X135390786Y-85781928D01*
X135369300Y-85750400D01*
X135328353Y-85690818D01*
X135290567Y-85660715D01*
X135236443Y-85650060D01*
X135171778Y-85648800D01*
X135092116Y-85651272D01*
X135043888Y-85665424D01*
X135007749Y-85701354D01*
X134975247Y-85751426D01*
X134931751Y-85814282D01*
X134895746Y-85840664D01*
X134853351Y-85840183D01*
X134848600Y-85839116D01*
X134790334Y-85819520D01*
X134712352Y-85786092D01*
X134629710Y-85746253D01*
X134557462Y-85707425D01*
X134510664Y-85677027D01*
X134502048Y-85668290D01*
X134500219Y-85633083D01*
X134510322Y-85567269D01*
X134520200Y-85524357D01*
X134537115Y-85448819D01*
X134535584Y-85398946D01*
X134511077Y-85351550D01*
X134477848Y-85307455D01*
X134432039Y-85252648D01*
X134393315Y-85226559D01*
X134341575Y-85221433D01*
X134271499Y-85227861D01*
X134138897Y-85242667D01*
X134101767Y-85109183D01*
X134076635Y-85009805D01*
X134055500Y-84910953D01*
X134048913Y-84873237D01*
X134033189Y-84770774D01*
X134157468Y-84726084D01*
X134231890Y-84695983D01*
X134273095Y-84663717D01*
X134296544Y-84612582D01*
X134309462Y-84561847D01*
X134323995Y-84489480D01*
X134320650Y-84442259D01*
X134293091Y-84398588D01*
X134247142Y-84349413D01*
X134157107Y-84256527D01*
X134233618Y-84146213D01*
X134295551Y-84064709D01*
X134362526Y-83987797D01*
X134387350Y-83962748D01*
X134464571Y-83889597D01*
X134576447Y-83955161D01*
X134688322Y-84020724D01*
X134792610Y-83969126D01*
X134858356Y-83931354D01*
X134892730Y-83889711D01*
X134910518Y-83823533D01*
X134914375Y-83798914D01*
X134930355Y-83724635D01*
X134950736Y-83672829D01*
X134960076Y-83661638D01*
X135004507Y-83649592D01*
X135081520Y-83643387D01*
X135175207Y-83642627D01*
X135269660Y-83646913D01*
X135348973Y-83655850D01*
X135397237Y-83669040D01*
X135402321Y-83672680D01*
X135421734Y-83716110D01*
X135432208Y-83786294D01*
X135432800Y-83807318D01*
X135436275Y-83871130D01*
X135454751Y-83910857D01*
X135500311Y-83943322D01*
X135547681Y-83967290D01*
X135662562Y-84023104D01*
X135765604Y-83958056D01*
X135830790Y-83919975D01*
X135872508Y-83908282D01*
X135908635Y-83919842D01*
X135925222Y-83930077D01*
X135968734Y-83969950D01*
X136026381Y-84037366D01*
X136080136Y-84109932D01*
X136178476Y-84252717D01*
X136095723Y-84338097D01*
X136045180Y-84395555D01*
X136024543Y-84443693D01*
X136025871Y-84507075D01*
X136030446Y-84540020D01*
X136047625Y-84623032D01*
X136076948Y-84674001D01*
X136131937Y-84708220D01*
X136201150Y-84733059D01*
X136260409Y-84760381D01*
X136291406Y-84801241D01*
X136296715Y-84865724D01*
X136715677Y-84865724D01*
X136725640Y-84761158D01*
X136704700Y-84494602D01*
X136678112Y-84368880D01*
X136586465Y-84106550D01*
X136455254Y-83871068D01*
X136289272Y-83665480D01*
X136093312Y-83492831D01*
X135872169Y-83356168D01*
X135630635Y-83258537D01*
X135373505Y-83202982D01*
X135105572Y-83192551D01*
X134872375Y-83221545D01*
G37*
X134872375Y-83221545D02*
X134602475Y-83300075D01*
X134357979Y-83419756D01*
X134142356Y-83576402D01*
X133959075Y-83765830D01*
X133811602Y-83983855D01*
X133703406Y-84226292D01*
X133637956Y-84488959D01*
X133618470Y-84734400D01*
X133626339Y-84937764D01*
X133654368Y-85114614D01*
X133707397Y-85286871D01*
X133775532Y-85445600D01*
X133878960Y-85620060D01*
X134019399Y-85792491D01*
X134184193Y-85950185D01*
X134360686Y-86080437D01*
X134467600Y-86140456D01*
X134733982Y-86243372D01*
X135009733Y-86297156D01*
X135290317Y-86301244D01*
X135509000Y-86269702D01*
X135766135Y-86189781D01*
X135999578Y-86068535D01*
X136206169Y-85911105D01*
X136382744Y-85722632D01*
X136526142Y-85508260D01*
X136633198Y-85273129D01*
X136700752Y-85022381D01*
X136715677Y-84865724D01*
X136296715Y-84865724D01*
X136278910Y-84963915D01*
X136269539Y-85001100D01*
X136239431Y-85111137D01*
X136213812Y-85180300D01*
X136185130Y-85217067D01*
X136145829Y-85229916D01*
X136088356Y-85227324D01*
X136069849Y-85225207D01*
X135996990Y-85219231D01*
X135950270Y-85229243D01*
X135909172Y-85264196D01*
X135869235Y-85312748D01*
X135822548Y-85374496D01*
X135803321Y-85417627D01*
X135807291Y-85463198D01*
X135826759Y-85522533D01*
X135848669Y-85600450D01*
X135846143Y-85648319D01*
X135836155Y-85665169D01*
X135798629Y-85693844D01*
X135730317Y-85733833D01*
X135646783Y-85777332D01*
X135563595Y-85816534D01*
X135496317Y-85843634D01*
X135464869Y-85851350D01*
X135433771Y-85831923D01*
X135390786Y-85781928D01*
X135369300Y-85750400D01*
X135328353Y-85690818D01*
X135290567Y-85660715D01*
X135236443Y-85650060D01*
X135171778Y-85648800D01*
X135092116Y-85651272D01*
X135043888Y-85665424D01*
X135007749Y-85701354D01*
X134975247Y-85751426D01*
X134931751Y-85814282D01*
X134895746Y-85840664D01*
X134853351Y-85840183D01*
X134848600Y-85839116D01*
X134790334Y-85819520D01*
X134712352Y-85786092D01*
X134629710Y-85746253D01*
X134557462Y-85707425D01*
X134510664Y-85677027D01*
X134502048Y-85668290D01*
X134500219Y-85633083D01*
X134510322Y-85567269D01*
X134520200Y-85524357D01*
X134537115Y-85448819D01*
X134535584Y-85398946D01*
X134511077Y-85351550D01*
X134477848Y-85307455D01*
X134432039Y-85252648D01*
X134393315Y-85226559D01*
X134341575Y-85221433D01*
X134271499Y-85227861D01*
X134138897Y-85242667D01*
X134101767Y-85109183D01*
X134076635Y-85009805D01*
X134055500Y-84910953D01*
X134048913Y-84873237D01*
X134033189Y-84770774D01*
X134157468Y-84726084D01*
X134231890Y-84695983D01*
X134273095Y-84663717D01*
X134296544Y-84612582D01*
X134309462Y-84561847D01*
X134323995Y-84489480D01*
X134320650Y-84442259D01*
X134293091Y-84398588D01*
X134247142Y-84349413D01*
X134157107Y-84256527D01*
X134233618Y-84146213D01*
X134295551Y-84064709D01*
X134362526Y-83987797D01*
X134387350Y-83962748D01*
X134464571Y-83889597D01*
X134576447Y-83955161D01*
X134688322Y-84020724D01*
X134792610Y-83969126D01*
X134858356Y-83931354D01*
X134892730Y-83889711D01*
X134910518Y-83823533D01*
X134914375Y-83798914D01*
X134930355Y-83724635D01*
X134950736Y-83672829D01*
X134960076Y-83661638D01*
X135004507Y-83649592D01*
X135081520Y-83643387D01*
X135175207Y-83642627D01*
X135269660Y-83646913D01*
X135348973Y-83655850D01*
X135397237Y-83669040D01*
X135402321Y-83672680D01*
X135421734Y-83716110D01*
X135432208Y-83786294D01*
X135432800Y-83807318D01*
X135436275Y-83871130D01*
X135454751Y-83910857D01*
X135500311Y-83943322D01*
X135547681Y-83967290D01*
X135662562Y-84023104D01*
X135765604Y-83958056D01*
X135830790Y-83919975D01*
X135872508Y-83908282D01*
X135908635Y-83919842D01*
X135925222Y-83930077D01*
X135968734Y-83969950D01*
X136026381Y-84037366D01*
X136080136Y-84109932D01*
X136178476Y-84252717D01*
X136095723Y-84338097D01*
X136045180Y-84395555D01*
X136024543Y-84443693D01*
X136025871Y-84507075D01*
X136030446Y-84540020D01*
X136047625Y-84623032D01*
X136076948Y-84674001D01*
X136131937Y-84708220D01*
X136201150Y-84733059D01*
X136260409Y-84760381D01*
X136291406Y-84801241D01*
X136296715Y-84865724D01*
X136715677Y-84865724D01*
X136725640Y-84761158D01*
X136704700Y-84494602D01*
X136678112Y-84368880D01*
X136586465Y-84106550D01*
X136455254Y-83871068D01*
X136289272Y-83665480D01*
X136093312Y-83492831D01*
X135872169Y-83356168D01*
X135630635Y-83258537D01*
X135373505Y-83202982D01*
X135105572Y-83192551D01*
X134872375Y-83221545D01*
D12*
%TO.C,Q3*%
X160510000Y-87005000D02*
X159050000Y-87005000D01*
X160510000Y-90165000D02*
X158350000Y-90165000D01*
X160510000Y-90165000D02*
X160510000Y-89235000D01*
X160510000Y-87005000D02*
X160510000Y-87935000D01*
%TO.C,Q2*%
X160510000Y-94625000D02*
X159050000Y-94625000D01*
X160510000Y-97785000D02*
X158350000Y-97785000D01*
X160510000Y-97785000D02*
X160510000Y-96855000D01*
X160510000Y-94625000D02*
X160510000Y-95555000D01*
%TO.C,Q1*%
X160510000Y-90815000D02*
X159050000Y-90815000D01*
X160510000Y-93975000D02*
X158350000Y-93975000D01*
X160510000Y-93975000D02*
X160510000Y-93045000D01*
X160510000Y-90815000D02*
X160510000Y-91745000D01*
%TO.C,J2*%
X134560000Y-90110000D02*
X134560000Y-91440000D01*
X135890000Y-90110000D02*
X134560000Y-90110000D01*
X137160000Y-90110000D02*
X137160000Y-92770000D01*
X137160000Y-92770000D02*
X147380000Y-92770000D01*
X137160000Y-90110000D02*
X147380000Y-90110000D01*
X147380000Y-90110000D02*
X147380000Y-92770000D01*
%TO.C,U1*%
X161925000Y-103505000D02*
X161925000Y-78740000D01*
X161925000Y-78740000D02*
X147955000Y-78740000D01*
X147955000Y-78740000D02*
X147955000Y-103505000D01*
X147955000Y-103505000D02*
X161925000Y-103505000D01*
X160020000Y-103505000D02*
X160020000Y-98425000D01*
X160020000Y-98425000D02*
X149860000Y-98425000D01*
X149860000Y-98425000D02*
X149860000Y-103505000D01*
%TO.C,U2*%
X126630000Y-89935000D02*
X120620000Y-89935000D01*
X124380000Y-96755000D02*
X120620000Y-96755000D01*
X120620000Y-89935000D02*
X120620000Y-91195000D01*
X120620000Y-96755000D02*
X120620000Y-95495000D01*
%TO.C,R9*%
X143260064Y-89810000D02*
X142055936Y-89810000D01*
X143260064Y-87990000D02*
X142055936Y-87990000D01*
%TO.C,R8*%
X147680000Y-96269564D02*
X147680000Y-95065436D01*
X149500000Y-96269564D02*
X149500000Y-95065436D01*
%TO.C,R7*%
X152760000Y-91189564D02*
X152760000Y-89985436D01*
X154580000Y-91189564D02*
X154580000Y-89985436D01*
%TO.C,R6*%
X154580000Y-95065436D02*
X154580000Y-96269564D01*
X152760000Y-95065436D02*
X152760000Y-96269564D01*
%TO.C,R5*%
X155300000Y-91189564D02*
X155300000Y-89985436D01*
X157120000Y-91189564D02*
X157120000Y-89985436D01*
%TO.C,R4*%
X150220000Y-96269564D02*
X150220000Y-95065436D01*
X152040000Y-96269564D02*
X152040000Y-95065436D01*
%TO.C,R3*%
X152040000Y-89985436D02*
X152040000Y-91189564D01*
X150220000Y-89985436D02*
X150220000Y-91189564D01*
%TO.C,R2*%
X157120000Y-95065436D02*
X157120000Y-96269564D01*
X155300000Y-95065436D02*
X155300000Y-96269564D01*
%TO.C,R1*%
X163470000Y-93160436D02*
X163470000Y-94364564D01*
X161650000Y-93160436D02*
X161650000Y-94364564D01*
%TO.C,J1*%
X142055936Y-85450000D02*
X143260064Y-85450000D01*
X142055936Y-87270000D02*
X143260064Y-87270000D01*
%TO.C,C1*%
X127604759Y-94229000D02*
X127604759Y-93599000D01*
X127289759Y-93914000D02*
X127919759Y-93914000D01*
X134031000Y-92477000D02*
X134031000Y-91673000D01*
X133991000Y-92708000D02*
X133991000Y-91442000D01*
X133951000Y-92877000D02*
X133951000Y-91273000D01*
X133911000Y-93015000D02*
X133911000Y-91135000D01*
X133871000Y-93134000D02*
X133871000Y-91016000D01*
X133831000Y-93240000D02*
X133831000Y-90910000D01*
X133791000Y-93337000D02*
X133791000Y-90813000D01*
X133751000Y-93425000D02*
X133751000Y-90725000D01*
X133711000Y-93507000D02*
X133711000Y-90643000D01*
X133671000Y-93584000D02*
X133671000Y-90566000D01*
X133631000Y-93656000D02*
X133631000Y-90494000D01*
X133591000Y-93725000D02*
X133591000Y-90425000D01*
X133551000Y-93789000D02*
X133551000Y-90361000D01*
X133511000Y-93851000D02*
X133511000Y-90299000D01*
X133471000Y-93909000D02*
X133471000Y-90241000D01*
X133431000Y-93965000D02*
X133431000Y-90185000D01*
X133391000Y-94019000D02*
X133391000Y-90131000D01*
X133351000Y-94070000D02*
X133351000Y-90080000D01*
X133311000Y-94119000D02*
X133311000Y-90031000D01*
X133271000Y-94167000D02*
X133271000Y-89983000D01*
X133231000Y-94212000D02*
X133231000Y-89938000D01*
X133191000Y-94257000D02*
X133191000Y-89893000D01*
X133151000Y-94299000D02*
X133151000Y-89851000D01*
X133111000Y-94340000D02*
X133111000Y-89810000D01*
X133071000Y-91035000D02*
X133071000Y-89770000D01*
X133071000Y-94380000D02*
X133071000Y-93115000D01*
X133031000Y-91035000D02*
X133031000Y-89732000D01*
X133031000Y-94418000D02*
X133031000Y-93115000D01*
X132991000Y-91035000D02*
X132991000Y-89695000D01*
X132991000Y-94455000D02*
X132991000Y-93115000D01*
X132951000Y-91035000D02*
X132951000Y-89659000D01*
X132951000Y-94491000D02*
X132951000Y-93115000D01*
X132911000Y-91035000D02*
X132911000Y-89625000D01*
X132911000Y-94525000D02*
X132911000Y-93115000D01*
X132871000Y-91035000D02*
X132871000Y-89591000D01*
X132871000Y-94559000D02*
X132871000Y-93115000D01*
X132831000Y-91035000D02*
X132831000Y-89559000D01*
X132831000Y-94591000D02*
X132831000Y-93115000D01*
X132791000Y-91035000D02*
X132791000Y-89527000D01*
X132791000Y-94623000D02*
X132791000Y-93115000D01*
X132751000Y-91035000D02*
X132751000Y-89497000D01*
X132751000Y-94653000D02*
X132751000Y-93115000D01*
X132711000Y-91035000D02*
X132711000Y-89468000D01*
X132711000Y-94682000D02*
X132711000Y-93115000D01*
X132671000Y-91035000D02*
X132671000Y-89439000D01*
X132671000Y-94711000D02*
X132671000Y-93115000D01*
X132631000Y-91035000D02*
X132631000Y-89411000D01*
X132631000Y-94739000D02*
X132631000Y-93115000D01*
X132591000Y-91035000D02*
X132591000Y-89385000D01*
X132591000Y-94765000D02*
X132591000Y-93115000D01*
X132551000Y-91035000D02*
X132551000Y-89359000D01*
X132551000Y-94791000D02*
X132551000Y-93115000D01*
X132511000Y-91035000D02*
X132511000Y-89333000D01*
X132511000Y-94817000D02*
X132511000Y-93115000D01*
X132471000Y-91035000D02*
X132471000Y-89309000D01*
X132471000Y-94841000D02*
X132471000Y-93115000D01*
X132431000Y-91035000D02*
X132431000Y-89285000D01*
X132431000Y-94865000D02*
X132431000Y-93115000D01*
X132391000Y-91035000D02*
X132391000Y-89263000D01*
X132391000Y-94887000D02*
X132391000Y-93115000D01*
X132351000Y-91035000D02*
X132351000Y-89241000D01*
X132351000Y-94909000D02*
X132351000Y-93115000D01*
X132311000Y-91035000D02*
X132311000Y-89219000D01*
X132311000Y-94931000D02*
X132311000Y-93115000D01*
X132271000Y-91035000D02*
X132271000Y-89199000D01*
X132271000Y-94951000D02*
X132271000Y-93115000D01*
X132231000Y-91035000D02*
X132231000Y-89179000D01*
X132231000Y-94971000D02*
X132231000Y-93115000D01*
X132191000Y-91035000D02*
X132191000Y-89159000D01*
X132191000Y-94991000D02*
X132191000Y-93115000D01*
X132151000Y-91035000D02*
X132151000Y-89141000D01*
X132151000Y-95009000D02*
X132151000Y-93115000D01*
X132111000Y-91035000D02*
X132111000Y-89123000D01*
X132111000Y-95027000D02*
X132111000Y-93115000D01*
X132071000Y-91035000D02*
X132071000Y-89105000D01*
X132071000Y-95045000D02*
X132071000Y-93115000D01*
X132031000Y-91035000D02*
X132031000Y-89089000D01*
X132031000Y-95061000D02*
X132031000Y-93115000D01*
X131991000Y-91035000D02*
X131991000Y-89073000D01*
X131991000Y-95077000D02*
X131991000Y-93115000D01*
X131951000Y-91035000D02*
X131951000Y-89057000D01*
X131951000Y-95093000D02*
X131951000Y-93115000D01*
X131911000Y-91035000D02*
X131911000Y-89042000D01*
X131911000Y-95108000D02*
X131911000Y-93115000D01*
X131871000Y-91035000D02*
X131871000Y-89028000D01*
X131871000Y-95122000D02*
X131871000Y-93115000D01*
X131831000Y-91035000D02*
X131831000Y-89014000D01*
X131831000Y-95136000D02*
X131831000Y-93115000D01*
X131791000Y-91035000D02*
X131791000Y-89001000D01*
X131791000Y-95149000D02*
X131791000Y-93115000D01*
X131751000Y-91035000D02*
X131751000Y-88989000D01*
X131751000Y-95161000D02*
X131751000Y-93115000D01*
X131711000Y-91035000D02*
X131711000Y-88977000D01*
X131711000Y-95173000D02*
X131711000Y-93115000D01*
X131671000Y-91035000D02*
X131671000Y-88965000D01*
X131671000Y-95185000D02*
X131671000Y-93115000D01*
X131631000Y-91035000D02*
X131631000Y-88954000D01*
X131631000Y-95196000D02*
X131631000Y-93115000D01*
X131591000Y-91035000D02*
X131591000Y-88944000D01*
X131591000Y-95206000D02*
X131591000Y-93115000D01*
X131551000Y-91035000D02*
X131551000Y-88934000D01*
X131551000Y-95216000D02*
X131551000Y-93115000D01*
X131511000Y-91035000D02*
X131511000Y-88925000D01*
X131511000Y-95225000D02*
X131511000Y-93115000D01*
X131470000Y-91035000D02*
X131470000Y-88916000D01*
X131470000Y-95234000D02*
X131470000Y-93115000D01*
X131430000Y-91035000D02*
X131430000Y-88908000D01*
X131430000Y-95242000D02*
X131430000Y-93115000D01*
X131390000Y-91035000D02*
X131390000Y-88900000D01*
X131390000Y-95250000D02*
X131390000Y-93115000D01*
X131350000Y-91035000D02*
X131350000Y-88893000D01*
X131350000Y-95257000D02*
X131350000Y-93115000D01*
X131310000Y-91035000D02*
X131310000Y-88886000D01*
X131310000Y-95264000D02*
X131310000Y-93115000D01*
X131270000Y-91035000D02*
X131270000Y-88880000D01*
X131270000Y-95270000D02*
X131270000Y-93115000D01*
X131230000Y-91035000D02*
X131230000Y-88874000D01*
X131230000Y-95276000D02*
X131230000Y-93115000D01*
X131190000Y-91035000D02*
X131190000Y-88869000D01*
X131190000Y-95281000D02*
X131190000Y-93115000D01*
X131150000Y-91035000D02*
X131150000Y-88864000D01*
X131150000Y-95286000D02*
X131150000Y-93115000D01*
X131110000Y-91035000D02*
X131110000Y-88860000D01*
X131110000Y-95290000D02*
X131110000Y-93115000D01*
X131070000Y-91035000D02*
X131070000Y-88857000D01*
X131070000Y-95293000D02*
X131070000Y-93115000D01*
X131030000Y-91035000D02*
X131030000Y-88853000D01*
X131030000Y-95297000D02*
X131030000Y-93115000D01*
X130990000Y-95299000D02*
X130990000Y-88851000D01*
X130950000Y-95302000D02*
X130950000Y-88848000D01*
X130910000Y-95303000D02*
X130910000Y-88847000D01*
X130870000Y-95305000D02*
X130870000Y-88845000D01*
X130830000Y-95305000D02*
X130830000Y-88845000D01*
X130790000Y-95305000D02*
X130790000Y-88845000D01*
X134060000Y-92075000D02*
G75*
G03*
X134060000Y-92075000I-3270000J0D01*
G01*
%TO.C,U1*%
D13*
X158463904Y-84256571D02*
X158130571Y-84256571D01*
X157987714Y-84780380D02*
X158463904Y-84780380D01*
X158463904Y-83780380D01*
X157987714Y-83780380D01*
X157606761Y-84732761D02*
X157463904Y-84780380D01*
X157225809Y-84780380D01*
X157130571Y-84732761D01*
X157082952Y-84685142D01*
X157035333Y-84589904D01*
X157035333Y-84494666D01*
X157082952Y-84399428D01*
X157130571Y-84351809D01*
X157225809Y-84304190D01*
X157416285Y-84256571D01*
X157511523Y-84208952D01*
X157559142Y-84161333D01*
X157606761Y-84066095D01*
X157606761Y-83970857D01*
X157559142Y-83875619D01*
X157511523Y-83828000D01*
X157416285Y-83780380D01*
X157178190Y-83780380D01*
X157035333Y-83828000D01*
X156606761Y-84780380D02*
X156606761Y-83780380D01*
X156225809Y-83780380D01*
X156130571Y-83828000D01*
X156082952Y-83875619D01*
X156035333Y-83970857D01*
X156035333Y-84113714D01*
X156082952Y-84208952D01*
X156130571Y-84256571D01*
X156225809Y-84304190D01*
X156606761Y-84304190D01*
X155606761Y-84399428D02*
X154844857Y-84399428D01*
X154178190Y-83780380D02*
X154082952Y-83780380D01*
X153987714Y-83828000D01*
X153940095Y-83875619D01*
X153892476Y-83970857D01*
X153844857Y-84161333D01*
X153844857Y-84399428D01*
X153892476Y-84589904D01*
X153940095Y-84685142D01*
X153987714Y-84732761D01*
X154082952Y-84780380D01*
X154178190Y-84780380D01*
X154273428Y-84732761D01*
X154321047Y-84685142D01*
X154368666Y-84589904D01*
X154416285Y-84399428D01*
X154416285Y-84161333D01*
X154368666Y-83970857D01*
X154321047Y-83875619D01*
X154273428Y-83828000D01*
X154178190Y-83780380D01*
X152892476Y-84780380D02*
X153463904Y-84780380D01*
X153178190Y-84780380D02*
X153178190Y-83780380D01*
X153273428Y-83923238D01*
X153368666Y-84018476D01*
X153463904Y-84066095D01*
%TO.C,J1*%
D10*
X144836571Y-84707333D02*
X145336571Y-84040666D01*
X145693714Y-84707333D02*
X145693714Y-83307333D01*
X145122285Y-83307333D01*
X144979428Y-83374000D01*
X144908000Y-83440666D01*
X144836571Y-83574000D01*
X144836571Y-83774000D01*
X144908000Y-83907333D01*
X144979428Y-83974000D01*
X145122285Y-84040666D01*
X145693714Y-84040666D01*
X144193714Y-83974000D02*
X143693714Y-83974000D01*
X143479428Y-84707333D02*
X144193714Y-84707333D01*
X144193714Y-83307333D01*
X143479428Y-83307333D01*
X142908000Y-84640666D02*
X142693714Y-84707333D01*
X142336571Y-84707333D01*
X142193714Y-84640666D01*
X142122285Y-84574000D01*
X142050857Y-84440666D01*
X142050857Y-84307333D01*
X142122285Y-84174000D01*
X142193714Y-84107333D01*
X142336571Y-84040666D01*
X142622285Y-83974000D01*
X142765142Y-83907333D01*
X142836571Y-83840666D01*
X142908000Y-83707333D01*
X142908000Y-83574000D01*
X142836571Y-83440666D01*
X142765142Y-83374000D01*
X142622285Y-83307333D01*
X142265142Y-83307333D01*
X142050857Y-83374000D01*
X141408000Y-83974000D02*
X140908000Y-83974000D01*
X140693714Y-84707333D02*
X141408000Y-84707333D01*
X141408000Y-83307333D01*
X140693714Y-83307333D01*
X140265142Y-83307333D02*
X139408000Y-83307333D01*
X139836571Y-84707333D02*
X139836571Y-83307333D01*
%TD*%
M02*
