%TF.GenerationSoftware,KiCad,Pcbnew,(5.1.6)-1*%
%TF.CreationDate,2020-05-26T13:10:35+02:00*%
%TF.ProjectId,semaforBoard,73656d61-666f-4724-926f-6172642e6b69,rev?*%
%TF.SameCoordinates,Original*%
%TF.FileFunction,Soldermask,Bot*%
%TF.FilePolarity,Negative*%
%FSLAX46Y46*%
G04 Gerber Fmt 4.6, Leading zero omitted, Abs format (unit mm)*
G04 Created by KiCad (PCBNEW (5.1.6)-1) date 2020-05-26 13:10:35*
%MOMM*%
%LPD*%
G01*
G04 APERTURE LIST*
%ADD10R,1.000000X0.900000*%
%ADD11C,1.200000*%
%ADD12O,2.000000X3.600000*%
%ADD13O,1.800000X1.800000*%
%ADD14R,1.800000X1.800000*%
%ADD15C,1.624000*%
%ADD16R,2.100000X1.600000*%
%ADD17R,2.100000X3.900000*%
%ADD18C,2.100000*%
%ADD19C,1.900000*%
%ADD20R,1.900000X1.900000*%
%ADD21C,1.700000*%
%ADD22R,1.700000X1.700000*%
G04 APERTURE END LIST*
D10*
%TO.C,Q3*%
X160750000Y-88585000D03*
X158750000Y-87635000D03*
X158750000Y-89535000D03*
%TD*%
%TO.C,Q2*%
X160750000Y-96205000D03*
X158750000Y-95255000D03*
X158750000Y-97155000D03*
%TD*%
%TO.C,Q1*%
X160750000Y-92395000D03*
X158750000Y-91445000D03*
X158750000Y-93345000D03*
%TD*%
D11*
%TO.C,J3*%
X140560000Y-100965000D03*
X145160000Y-100965000D03*
D12*
X137160000Y-100965000D03*
X148560000Y-100965000D03*
%TD*%
D13*
%TO.C,J2*%
X146050000Y-91440000D03*
X143510000Y-91440000D03*
X140970000Y-91440000D03*
X138430000Y-91440000D03*
D14*
X135890000Y-91440000D03*
%TD*%
D15*
%TO.C,U1*%
X151130000Y-99695000D03*
X156210000Y-99695000D03*
X158750000Y-102235000D03*
X153670000Y-99695000D03*
X153670000Y-102235000D03*
X156210000Y-102235000D03*
X158750000Y-99695000D03*
X151130000Y-102235000D03*
%TD*%
D16*
%TO.C,U2*%
X125680000Y-91045000D03*
X125680000Y-95645000D03*
X125680000Y-93345000D03*
D17*
X119380000Y-93345000D03*
%TD*%
D18*
%TO.C,SW1*%
X128120000Y-102235000D03*
X128120000Y-97735000D03*
X134620000Y-102235000D03*
X134620000Y-97735000D03*
%TD*%
%TO.C,R9*%
G36*
G01*
X141933000Y-88242544D02*
X141933000Y-89557456D01*
G75*
G02*
X141665456Y-89825000I-267544J0D01*
G01*
X140675544Y-89825000D01*
G75*
G02*
X140408000Y-89557456I0J267544D01*
G01*
X140408000Y-88242544D01*
G75*
G02*
X140675544Y-87975000I267544J0D01*
G01*
X141665456Y-87975000D01*
G75*
G02*
X141933000Y-88242544I0J-267544D01*
G01*
G37*
G36*
G01*
X144908000Y-88242544D02*
X144908000Y-89557456D01*
G75*
G02*
X144640456Y-89825000I-267544J0D01*
G01*
X143650544Y-89825000D01*
G75*
G02*
X143383000Y-89557456I0J267544D01*
G01*
X143383000Y-88242544D01*
G75*
G02*
X143650544Y-87975000I267544J0D01*
G01*
X144640456Y-87975000D01*
G75*
G02*
X144908000Y-88242544I0J-267544D01*
G01*
G37*
%TD*%
%TO.C,R8*%
G36*
G01*
X149247456Y-94942500D02*
X147932544Y-94942500D01*
G75*
G02*
X147665000Y-94674956I0J267544D01*
G01*
X147665000Y-93685044D01*
G75*
G02*
X147932544Y-93417500I267544J0D01*
G01*
X149247456Y-93417500D01*
G75*
G02*
X149515000Y-93685044I0J-267544D01*
G01*
X149515000Y-94674956D01*
G75*
G02*
X149247456Y-94942500I-267544J0D01*
G01*
G37*
G36*
G01*
X149247456Y-97917500D02*
X147932544Y-97917500D01*
G75*
G02*
X147665000Y-97649956I0J267544D01*
G01*
X147665000Y-96660044D01*
G75*
G02*
X147932544Y-96392500I267544J0D01*
G01*
X149247456Y-96392500D01*
G75*
G02*
X149515000Y-96660044I0J-267544D01*
G01*
X149515000Y-97649956D01*
G75*
G02*
X149247456Y-97917500I-267544J0D01*
G01*
G37*
%TD*%
%TO.C,R7*%
G36*
G01*
X154327456Y-89862500D02*
X153012544Y-89862500D01*
G75*
G02*
X152745000Y-89594956I0J267544D01*
G01*
X152745000Y-88605044D01*
G75*
G02*
X153012544Y-88337500I267544J0D01*
G01*
X154327456Y-88337500D01*
G75*
G02*
X154595000Y-88605044I0J-267544D01*
G01*
X154595000Y-89594956D01*
G75*
G02*
X154327456Y-89862500I-267544J0D01*
G01*
G37*
G36*
G01*
X154327456Y-92837500D02*
X153012544Y-92837500D01*
G75*
G02*
X152745000Y-92569956I0J267544D01*
G01*
X152745000Y-91580044D01*
G75*
G02*
X153012544Y-91312500I267544J0D01*
G01*
X154327456Y-91312500D01*
G75*
G02*
X154595000Y-91580044I0J-267544D01*
G01*
X154595000Y-92569956D01*
G75*
G02*
X154327456Y-92837500I-267544J0D01*
G01*
G37*
%TD*%
%TO.C,R6*%
G36*
G01*
X153012544Y-96392500D02*
X154327456Y-96392500D01*
G75*
G02*
X154595000Y-96660044I0J-267544D01*
G01*
X154595000Y-97649956D01*
G75*
G02*
X154327456Y-97917500I-267544J0D01*
G01*
X153012544Y-97917500D01*
G75*
G02*
X152745000Y-97649956I0J267544D01*
G01*
X152745000Y-96660044D01*
G75*
G02*
X153012544Y-96392500I267544J0D01*
G01*
G37*
G36*
G01*
X153012544Y-93417500D02*
X154327456Y-93417500D01*
G75*
G02*
X154595000Y-93685044I0J-267544D01*
G01*
X154595000Y-94674956D01*
G75*
G02*
X154327456Y-94942500I-267544J0D01*
G01*
X153012544Y-94942500D01*
G75*
G02*
X152745000Y-94674956I0J267544D01*
G01*
X152745000Y-93685044D01*
G75*
G02*
X153012544Y-93417500I267544J0D01*
G01*
G37*
%TD*%
%TO.C,R5*%
G36*
G01*
X156867456Y-89862500D02*
X155552544Y-89862500D01*
G75*
G02*
X155285000Y-89594956I0J267544D01*
G01*
X155285000Y-88605044D01*
G75*
G02*
X155552544Y-88337500I267544J0D01*
G01*
X156867456Y-88337500D01*
G75*
G02*
X157135000Y-88605044I0J-267544D01*
G01*
X157135000Y-89594956D01*
G75*
G02*
X156867456Y-89862500I-267544J0D01*
G01*
G37*
G36*
G01*
X156867456Y-92837500D02*
X155552544Y-92837500D01*
G75*
G02*
X155285000Y-92569956I0J267544D01*
G01*
X155285000Y-91580044D01*
G75*
G02*
X155552544Y-91312500I267544J0D01*
G01*
X156867456Y-91312500D01*
G75*
G02*
X157135000Y-91580044I0J-267544D01*
G01*
X157135000Y-92569956D01*
G75*
G02*
X156867456Y-92837500I-267544J0D01*
G01*
G37*
%TD*%
%TO.C,R4*%
G36*
G01*
X151787456Y-94942500D02*
X150472544Y-94942500D01*
G75*
G02*
X150205000Y-94674956I0J267544D01*
G01*
X150205000Y-93685044D01*
G75*
G02*
X150472544Y-93417500I267544J0D01*
G01*
X151787456Y-93417500D01*
G75*
G02*
X152055000Y-93685044I0J-267544D01*
G01*
X152055000Y-94674956D01*
G75*
G02*
X151787456Y-94942500I-267544J0D01*
G01*
G37*
G36*
G01*
X151787456Y-97917500D02*
X150472544Y-97917500D01*
G75*
G02*
X150205000Y-97649956I0J267544D01*
G01*
X150205000Y-96660044D01*
G75*
G02*
X150472544Y-96392500I267544J0D01*
G01*
X151787456Y-96392500D01*
G75*
G02*
X152055000Y-96660044I0J-267544D01*
G01*
X152055000Y-97649956D01*
G75*
G02*
X151787456Y-97917500I-267544J0D01*
G01*
G37*
%TD*%
%TO.C,R3*%
G36*
G01*
X150472544Y-91312500D02*
X151787456Y-91312500D01*
G75*
G02*
X152055000Y-91580044I0J-267544D01*
G01*
X152055000Y-92569956D01*
G75*
G02*
X151787456Y-92837500I-267544J0D01*
G01*
X150472544Y-92837500D01*
G75*
G02*
X150205000Y-92569956I0J267544D01*
G01*
X150205000Y-91580044D01*
G75*
G02*
X150472544Y-91312500I267544J0D01*
G01*
G37*
G36*
G01*
X150472544Y-88337500D02*
X151787456Y-88337500D01*
G75*
G02*
X152055000Y-88605044I0J-267544D01*
G01*
X152055000Y-89594956D01*
G75*
G02*
X151787456Y-89862500I-267544J0D01*
G01*
X150472544Y-89862500D01*
G75*
G02*
X150205000Y-89594956I0J267544D01*
G01*
X150205000Y-88605044D01*
G75*
G02*
X150472544Y-88337500I267544J0D01*
G01*
G37*
%TD*%
%TO.C,R2*%
G36*
G01*
X155552544Y-96392500D02*
X156867456Y-96392500D01*
G75*
G02*
X157135000Y-96660044I0J-267544D01*
G01*
X157135000Y-97649956D01*
G75*
G02*
X156867456Y-97917500I-267544J0D01*
G01*
X155552544Y-97917500D01*
G75*
G02*
X155285000Y-97649956I0J267544D01*
G01*
X155285000Y-96660044D01*
G75*
G02*
X155552544Y-96392500I267544J0D01*
G01*
G37*
G36*
G01*
X155552544Y-93417500D02*
X156867456Y-93417500D01*
G75*
G02*
X157135000Y-93685044I0J-267544D01*
G01*
X157135000Y-94674956D01*
G75*
G02*
X156867456Y-94942500I-267544J0D01*
G01*
X155552544Y-94942500D01*
G75*
G02*
X155285000Y-94674956I0J267544D01*
G01*
X155285000Y-93685044D01*
G75*
G02*
X155552544Y-93417500I267544J0D01*
G01*
G37*
%TD*%
%TO.C,R1*%
G36*
G01*
X161902544Y-94487500D02*
X163217456Y-94487500D01*
G75*
G02*
X163485000Y-94755044I0J-267544D01*
G01*
X163485000Y-95744956D01*
G75*
G02*
X163217456Y-96012500I-267544J0D01*
G01*
X161902544Y-96012500D01*
G75*
G02*
X161635000Y-95744956I0J267544D01*
G01*
X161635000Y-94755044D01*
G75*
G02*
X161902544Y-94487500I267544J0D01*
G01*
G37*
G36*
G01*
X161902544Y-91512500D02*
X163217456Y-91512500D01*
G75*
G02*
X163485000Y-91780044I0J-267544D01*
G01*
X163485000Y-92769956D01*
G75*
G02*
X163217456Y-93037500I-267544J0D01*
G01*
X161902544Y-93037500D01*
G75*
G02*
X161635000Y-92769956I0J267544D01*
G01*
X161635000Y-91780044D01*
G75*
G02*
X161902544Y-91512500I267544J0D01*
G01*
G37*
%TD*%
%TO.C,J1*%
G36*
G01*
X143383000Y-87017456D02*
X143383000Y-85702544D01*
G75*
G02*
X143650544Y-85435000I267544J0D01*
G01*
X144640456Y-85435000D01*
G75*
G02*
X144908000Y-85702544I0J-267544D01*
G01*
X144908000Y-87017456D01*
G75*
G02*
X144640456Y-87285000I-267544J0D01*
G01*
X143650544Y-87285000D01*
G75*
G02*
X143383000Y-87017456I0J267544D01*
G01*
G37*
G36*
G01*
X140408000Y-87017456D02*
X140408000Y-85702544D01*
G75*
G02*
X140675544Y-85435000I267544J0D01*
G01*
X141665456Y-85435000D01*
G75*
G02*
X141933000Y-85702544I0J-267544D01*
G01*
X141933000Y-87017456D01*
G75*
G02*
X141665456Y-87285000I-267544J0D01*
G01*
X140675544Y-87285000D01*
G75*
G02*
X140408000Y-87017456I0J267544D01*
G01*
G37*
%TD*%
D19*
%TO.C,D6*%
X165100000Y-99060000D03*
D20*
X162560000Y-99060000D03*
%TD*%
D19*
%TO.C,D5*%
X165100000Y-87630000D03*
D20*
X162560000Y-87630000D03*
%TD*%
D19*
%TO.C,D4*%
X149225000Y-87630000D03*
D20*
X146685000Y-87630000D03*
%TD*%
D19*
%TO.C,D3*%
X139065000Y-87630000D03*
D20*
X136525000Y-87630000D03*
%TD*%
D19*
%TO.C,D2*%
X123190000Y-99060000D03*
D20*
X120650000Y-99060000D03*
%TD*%
D19*
%TO.C,D1*%
X123190000Y-87630000D03*
D20*
X120650000Y-87630000D03*
%TD*%
D21*
%TO.C,C1*%
X132040000Y-92075000D03*
D22*
X129540000Y-92075000D03*
%TD*%
M02*
