M48
; DRILL file {KiCad (5.1.6)-1} date 06/14/20 15:39:18
; FORMAT={-:-/ absolute / inch / decimal}
; #@! TF.CreationDate,2020-06-14T15:39:18+02:00
; #@! TF.GenerationSoftware,Kicad,Pcbnew,(5.1.6)-1
FMAT,2
INCH
T1C0.0157
T2C0.0300
T3C0.0315
T4C0.0354
T5C0.0394
T6C0.0433
T7C0.0197
T8C0.0433
%
G90
G05
T1
X2.9062Y-2.5315
X2.9062Y-3.53
X2.9062Y-4.5285
X2.9062Y-5.527
X3.043Y-2.5123
X3.043Y-3.5109
X3.043Y-4.5094
X3.043Y-5.5079
X3.1011Y-2.4763
X3.1011Y-3.4748
X3.1011Y-4.4733
X3.1011Y-5.4718
X3.1054Y-2.5213
X3.1054Y-3.5198
X3.1054Y-4.5184
X3.1054Y-5.5169
X3.2708Y-2.3741
X3.2708Y-3.3726
X3.2708Y-4.3711
X3.2708Y-5.3696
X3.4031Y-2.0895
X3.4031Y-3.088
X3.4031Y-4.0865
X3.4031Y-5.085
X3.4683Y-2.4674
X3.4683Y-3.4659
X3.4683Y-4.4644
X3.4683Y-5.4629
X3.8274Y-2.1602
X3.8274Y-3.1587
X3.8274Y-4.1572
X3.8274Y-5.1557
T2
X3.3935Y-3.667
X3.3935Y-3.767
X3.4935Y-3.667
X3.4935Y-3.767
X3.5935Y-3.667
X3.5935Y-3.767
X3.6935Y-3.667
X3.6935Y-3.767
X3.3935Y-5.6641
X3.3935Y-5.7641
X3.4935Y-5.6641
X3.4935Y-5.7641
X3.5935Y-5.6641
X3.5935Y-5.7641
X3.6935Y-5.6641
X3.6935Y-5.7641
X3.3935Y-2.6685
X3.3935Y-2.7685
X3.4935Y-2.6685
X3.4935Y-2.7685
X3.5935Y-2.6685
X3.5935Y-2.7685
X3.6935Y-2.6685
X3.6935Y-2.7685
X3.3935Y-4.6656
X3.3935Y-4.7656
X3.4935Y-4.6656
X3.4935Y-4.7656
X3.5935Y-4.6656
X3.5935Y-4.7656
X3.6935Y-4.6656
X3.6935Y-4.7656
T3
X2.5185Y-3.467
X2.7107Y-3.467
X2.4685Y-5.2141
X2.567Y-5.2141
X2.4685Y-2.2185
X2.567Y-2.2185
X2.5185Y-4.4656
X2.7107Y-4.4656
X2.5185Y-5.4641
X2.7107Y-5.4641
X2.4685Y-3.217
X2.567Y-3.217
X2.5185Y-2.4685
X2.7107Y-2.4685
X2.4685Y-4.2156
X2.567Y-4.2156
T4
X2.1435Y-2.1935
X2.2435Y-2.1935
X3.8935Y-5.6391
X3.9935Y-5.6391
X3.2435Y-2.1935
X3.3435Y-2.1935
X3.8935Y-3.642
X3.9935Y-3.642
X2.1435Y-3.192
X2.2435Y-3.192
X2.1435Y-5.1891
X2.2435Y-5.1891
X3.8935Y-2.1935
X3.9935Y-2.1935
X2.1435Y-5.6391
X2.2435Y-5.6391
X3.2435Y-4.1906
X3.3435Y-4.1906
X3.8935Y-2.6435
X3.9935Y-2.6435
X2.7935Y-4.1906
X2.8935Y-4.1906
X3.2435Y-3.192
X3.3435Y-3.192
X3.8935Y-4.1906
X3.9935Y-4.1906
X2.1435Y-2.6435
X2.2435Y-2.6435
X3.2435Y-5.1891
X3.3435Y-5.1891
X2.7935Y-2.1935
X2.8935Y-2.1935
X2.1435Y-3.642
X2.2435Y-3.642
X2.1435Y-4.6406
X2.2435Y-4.6406
X2.7935Y-3.192
X2.8935Y-3.192
X2.7935Y-5.1891
X2.8935Y-5.1891
X3.8935Y-4.6406
X3.9935Y-4.6406
X3.8935Y-5.1891
X3.9935Y-5.1891
X3.8935Y-3.192
X3.9935Y-3.192
X2.1435Y-4.1906
X2.2435Y-4.1906
T5
X3.8935Y-5.7391
X3.9935Y-5.7391
X3.8935Y-2.7435
X3.9935Y-2.7435
X3.8935Y-4.7406
X3.9935Y-4.7406
X3.8935Y-3.742
X3.9935Y-3.742
T6
X2.4876Y-3.6149
X2.4876Y-3.792
X2.7435Y-3.6149
X2.7435Y-3.792
X2.4876Y-2.6164
X2.4876Y-2.7935
X2.7435Y-2.6164
X2.7435Y-2.7935
X2.4876Y-4.6134
X2.4876Y-4.7906
X2.7435Y-4.6134
X2.7435Y-4.7906
X2.4876Y-5.6119
X2.4876Y-5.7891
X2.7435Y-5.6119
X2.7435Y-5.7891
T7
X2.5838Y-4.9738
X2.7019Y-3.9753
X2.7412Y-3.8573
X2.5444Y-3.8573
X3.2777Y-2.8588
X3.2777Y-2.9768
X3.4746Y-3.9753
X2.82Y-2.9768
X2.6625Y-4.8558
X2.82Y-2.8588
X2.6625Y-2.8588
X3.3171Y-3.8573
X2.6625Y-4.9738
X3.2777Y-3.8573
X2.82Y-4.9738
X2.82Y-3.9753
X2.7019Y-3.8573
X3.5927Y-3.8573
X2.5838Y-2.9768
X2.7019Y-4.8558
X3.3565Y-2.9768
X3.514Y-4.9738
X2.82Y-4.8558
X3.3171Y-2.8588
X3.5533Y-4.8558
X3.5927Y-2.8588
X2.6231Y-2.8588
X2.7412Y-4.9738
X2.5444Y-3.9753
X3.3959Y-4.9738
X2.6231Y-3.9753
X2.7019Y-4.9738
X3.3959Y-3.9753
X3.5927Y-2.9768
X3.4352Y-3.8573
X2.6231Y-2.9768
X3.4352Y-4.8558
X3.4352Y-2.9768
X3.5533Y-4.9738
X3.514Y-4.8558
X3.4746Y-4.8558
X2.8593Y-2.8588
X2.5838Y-2.8588
X3.3959Y-4.8558
X2.5838Y-3.9753
X3.3565Y-4.8558
X2.7806Y-3.9753
X3.3171Y-4.8558
X3.4746Y-3.8573
X2.7806Y-3.8573
X3.5533Y-2.9768
X2.7019Y-2.9768
X3.5927Y-3.9753
X2.6625Y-2.9768
X3.5927Y-4.9738
X3.514Y-3.9753
X2.5838Y-4.8558
X2.7412Y-2.8588
X3.4746Y-2.8588
X2.8593Y-4.9738
X2.8593Y-3.9753
X3.2777Y-4.9738
X3.3171Y-3.9753
X3.2777Y-4.8558
X3.514Y-3.8573
X2.82Y-3.8573
X2.6625Y-3.8573
X2.7412Y-2.9768
X3.5927Y-4.8558
X2.5444Y-2.9768
X2.8593Y-4.8558
X3.5533Y-3.9753
X2.7806Y-2.8588
X2.5444Y-2.8588
X2.5444Y-4.9738
X3.4352Y-3.9753
X3.3565Y-4.9738
X3.3565Y-3.9753
X3.3171Y-4.9738
X2.8593Y-3.8573
X3.5533Y-3.8573
X3.4746Y-2.9768
X3.3959Y-2.8588
X2.7806Y-2.9768
X2.5444Y-4.8558
X3.3959Y-2.9768
X2.7806Y-4.8558
X3.4352Y-2.8588
X2.7019Y-2.8588
X3.514Y-2.8588
X3.3959Y-3.8573
X2.6231Y-4.9738
X3.2777Y-3.9753
X2.7806Y-4.9738
X2.6625Y-3.9753
X2.5838Y-3.8573
X2.6231Y-3.8573
X3.514Y-2.9768
X3.3565Y-2.8588
X2.8593Y-2.9768
X2.6231Y-4.8558
X3.3171Y-2.9768
X3.4746Y-4.9738
X2.7412Y-4.8558
X3.5533Y-2.8588
X3.3565Y-3.8573
X3.4352Y-4.9738
X2.7412Y-3.9753
T8
X2.9774Y-2.7435
X3.1585Y-2.7435
X2.9774Y-4.7406
X3.1585Y-4.7406
X2.9774Y-5.7391
X3.1585Y-5.7391
X2.9774Y-3.742
X3.1585Y-3.742
T4
G00X2.8435Y-5.7076
M15
G01X2.8435Y-5.7706
M16
G05
G00X3.2924Y-5.7076
M15
G01X3.2924Y-5.7706
M16
G05
G00X2.8435Y-3.7106
M15
G01X2.8435Y-3.7735
M16
G05
G00X3.2924Y-3.7106
M15
G01X3.2924Y-3.7735
M16
G05
G00X2.8435Y-2.712
M15
G01X2.8435Y-2.775
M16
G05
G00X3.2924Y-2.712
M15
G01X3.2924Y-2.775
M16
G05
G00X2.8435Y-4.7091
M15
G01X2.8435Y-4.7721
M16
G05
G00X3.2924Y-4.7091
M15
G01X3.2924Y-4.7721
M16
G05
T0
M30
