G04 #@! TF.GenerationSoftware,KiCad,Pcbnew,(5.1.6)-1*
G04 #@! TF.CreationDate,2020-06-14T15:38:25+02:00*
G04 #@! TF.ProjectId,panel1,70616e65-6c31-42e6-9b69-6361645f7063,rev?*
G04 #@! TF.SameCoordinates,Original*
G04 #@! TF.FileFunction,Legend,Top*
G04 #@! TF.FilePolarity,Positive*
%FSLAX46Y46*%
G04 Gerber Fmt 4.6, Leading zero omitted, Abs format (unit mm)*
G04 Created by KiCad (PCBNEW (5.1.6)-1) date 2020-06-14 15:38:25*
%MOMM*%
%LPD*%
G01*
G04 APERTURE LIST*
%ADD10C,0.300000*%
%ADD11C,0.120000*%
%ADD12C,0.010000*%
%ADD13C,0.150000*%
G04 APERTURE END LIST*
D10*
X90449572Y-133752196D02*
X90449572Y-133618862D01*
X90521001Y-133485529D01*
X90592429Y-133418862D01*
X90735286Y-133352196D01*
X91021001Y-133285529D01*
X91378143Y-133285529D01*
X91663858Y-133352196D01*
X91806715Y-133418862D01*
X91878143Y-133485529D01*
X91949572Y-133618862D01*
X91949572Y-133752196D01*
X91878143Y-133885529D01*
X91806715Y-133952196D01*
X91663858Y-134018862D01*
X91378143Y-134085529D01*
X91021001Y-134085529D01*
X90735286Y-134018862D01*
X90592429Y-133952196D01*
X90521001Y-133885529D01*
X90449572Y-133752196D01*
X90449572Y-132085529D02*
X90449572Y-132352196D01*
X90521001Y-132485529D01*
X90592429Y-132552196D01*
X90806715Y-132685529D01*
X91092429Y-132752196D01*
X91663858Y-132752196D01*
X91806715Y-132685529D01*
X91878143Y-132618862D01*
X91949572Y-132485529D01*
X91949572Y-132218862D01*
X91878143Y-132085529D01*
X91806715Y-132018862D01*
X91663858Y-131952196D01*
X91306715Y-131952196D01*
X91163858Y-132018862D01*
X91092429Y-132085529D01*
X91021001Y-132218862D01*
X91021001Y-132485529D01*
X91092429Y-132618862D01*
X91163858Y-132685529D01*
X91306715Y-132752196D01*
X90378143Y-130352196D02*
X92306715Y-131552196D01*
X90592429Y-129952196D02*
X90521001Y-129885529D01*
X90449572Y-129752196D01*
X90449572Y-129418862D01*
X90521001Y-129285529D01*
X90592429Y-129218862D01*
X90735286Y-129152196D01*
X90878143Y-129152196D01*
X91092429Y-129218862D01*
X91949572Y-130018862D01*
X91949572Y-129152196D01*
X90449572Y-128285529D02*
X90449572Y-128152196D01*
X90521001Y-128018862D01*
X90592429Y-127952196D01*
X90735286Y-127885529D01*
X91021001Y-127818862D01*
X91378143Y-127818862D01*
X91663858Y-127885529D01*
X91806715Y-127952196D01*
X91878143Y-128018862D01*
X91949572Y-128152196D01*
X91949572Y-128285529D01*
X91878143Y-128418862D01*
X91806715Y-128485529D01*
X91663858Y-128552196D01*
X91378143Y-128618862D01*
X91021001Y-128618862D01*
X90735286Y-128552196D01*
X90592429Y-128485529D01*
X90521001Y-128418862D01*
X90449572Y-128285529D01*
X94428143Y-141352196D02*
X94499572Y-141152196D01*
X94499572Y-140818862D01*
X94428143Y-140685529D01*
X94356715Y-140618862D01*
X94213858Y-140552196D01*
X94071001Y-140552196D01*
X93928143Y-140618862D01*
X93856715Y-140685529D01*
X93785286Y-140818862D01*
X93713858Y-141085529D01*
X93642429Y-141218862D01*
X93571001Y-141285529D01*
X93428143Y-141352196D01*
X93285286Y-141352196D01*
X93142429Y-141285529D01*
X93071001Y-141218862D01*
X92999572Y-141085529D01*
X92999572Y-140752196D01*
X93071001Y-140552196D01*
X94428143Y-139418862D02*
X94499572Y-139552196D01*
X94499572Y-139818862D01*
X94428143Y-139952196D01*
X94285286Y-140018862D01*
X93713858Y-140018862D01*
X93571001Y-139952196D01*
X93499572Y-139818862D01*
X93499572Y-139552196D01*
X93571001Y-139418862D01*
X93713858Y-139352196D01*
X93856715Y-139352196D01*
X93999572Y-140018862D01*
X94499572Y-138752196D02*
X93499572Y-138752196D01*
X93642429Y-138752196D02*
X93571001Y-138685529D01*
X93499572Y-138552196D01*
X93499572Y-138352196D01*
X93571001Y-138218862D01*
X93713858Y-138152196D01*
X94499572Y-138152196D01*
X93713858Y-138152196D02*
X93571001Y-138085529D01*
X93499572Y-137952196D01*
X93499572Y-137752196D01*
X93571001Y-137618862D01*
X93713858Y-137552196D01*
X94499572Y-137552196D01*
X94499572Y-136285529D02*
X93713858Y-136285529D01*
X93571001Y-136352196D01*
X93499572Y-136485529D01*
X93499572Y-136752196D01*
X93571001Y-136885529D01*
X94428143Y-136285529D02*
X94499572Y-136418862D01*
X94499572Y-136752196D01*
X94428143Y-136885529D01*
X94285286Y-136952196D01*
X94142429Y-136952196D01*
X93999572Y-136885529D01*
X93928143Y-136752196D01*
X93928143Y-136418862D01*
X93856715Y-136285529D01*
X93499572Y-135818862D02*
X93499572Y-135285529D01*
X94499572Y-135618862D02*
X93213858Y-135618862D01*
X93071001Y-135552196D01*
X92999572Y-135418862D01*
X92999572Y-135285529D01*
X94499572Y-134618862D02*
X94428143Y-134752196D01*
X94356715Y-134818862D01*
X94213858Y-134885529D01*
X93785286Y-134885529D01*
X93642429Y-134818862D01*
X93571001Y-134752196D01*
X93499572Y-134618862D01*
X93499572Y-134418862D01*
X93571001Y-134285529D01*
X93642429Y-134218862D01*
X93785286Y-134152196D01*
X94213858Y-134152196D01*
X94356715Y-134218862D01*
X94428143Y-134285529D01*
X94499572Y-134418862D01*
X94499572Y-134618862D01*
X94499572Y-133552196D02*
X93499572Y-133552196D01*
X93785286Y-133552196D02*
X93642429Y-133485529D01*
X93571001Y-133418862D01*
X93499572Y-133285529D01*
X93499572Y-133152196D01*
X93499572Y-131752196D02*
X94499572Y-131418862D01*
X93499572Y-131085529D01*
X92999572Y-130285529D02*
X92999572Y-130152196D01*
X93071001Y-130018862D01*
X93142429Y-129952196D01*
X93285286Y-129885529D01*
X93571001Y-129818862D01*
X93928143Y-129818862D01*
X94213858Y-129885529D01*
X94356715Y-129952196D01*
X94428143Y-130018862D01*
X94499572Y-130152196D01*
X94499572Y-130285529D01*
X94428143Y-130418862D01*
X94356715Y-130485529D01*
X94213858Y-130552196D01*
X93928143Y-130618862D01*
X93571001Y-130618862D01*
X93285286Y-130552196D01*
X93142429Y-130485529D01*
X93071001Y-130418862D01*
X92999572Y-130285529D01*
X94356715Y-129218862D02*
X94428143Y-129152196D01*
X94499572Y-129218862D01*
X94428143Y-129285529D01*
X94356715Y-129218862D01*
X94499572Y-129218862D01*
X93142429Y-128618862D02*
X93071001Y-128552196D01*
X92999572Y-128418862D01*
X92999572Y-128085529D01*
X93071001Y-127952196D01*
X93142429Y-127885529D01*
X93285286Y-127818862D01*
X93428143Y-127818862D01*
X93642429Y-127885529D01*
X94499572Y-128685529D01*
X94499572Y-127818862D01*
X90449572Y-108390131D02*
X90449572Y-108256797D01*
X90521001Y-108123464D01*
X90592429Y-108056797D01*
X90735286Y-107990131D01*
X91021001Y-107923464D01*
X91378143Y-107923464D01*
X91663858Y-107990131D01*
X91806715Y-108056797D01*
X91878143Y-108123464D01*
X91949572Y-108256797D01*
X91949572Y-108390131D01*
X91878143Y-108523464D01*
X91806715Y-108590131D01*
X91663858Y-108656797D01*
X91378143Y-108723464D01*
X91021001Y-108723464D01*
X90735286Y-108656797D01*
X90592429Y-108590131D01*
X90521001Y-108523464D01*
X90449572Y-108390131D01*
X90449572Y-106723464D02*
X90449572Y-106990131D01*
X90521001Y-107123464D01*
X90592429Y-107190131D01*
X90806715Y-107323464D01*
X91092429Y-107390131D01*
X91663858Y-107390131D01*
X91806715Y-107323464D01*
X91878143Y-107256797D01*
X91949572Y-107123464D01*
X91949572Y-106856797D01*
X91878143Y-106723464D01*
X91806715Y-106656797D01*
X91663858Y-106590131D01*
X91306715Y-106590131D01*
X91163858Y-106656797D01*
X91092429Y-106723464D01*
X91021001Y-106856797D01*
X91021001Y-107123464D01*
X91092429Y-107256797D01*
X91163858Y-107323464D01*
X91306715Y-107390131D01*
X90378143Y-104990131D02*
X92306715Y-106190131D01*
X90592429Y-104590131D02*
X90521001Y-104523464D01*
X90449572Y-104390131D01*
X90449572Y-104056797D01*
X90521001Y-103923464D01*
X90592429Y-103856797D01*
X90735286Y-103790131D01*
X90878143Y-103790131D01*
X91092429Y-103856797D01*
X91949572Y-104656797D01*
X91949572Y-103790131D01*
X90449572Y-102923464D02*
X90449572Y-102790131D01*
X90521001Y-102656797D01*
X90592429Y-102590131D01*
X90735286Y-102523464D01*
X91021001Y-102456797D01*
X91378143Y-102456797D01*
X91663858Y-102523464D01*
X91806715Y-102590131D01*
X91878143Y-102656797D01*
X91949572Y-102790131D01*
X91949572Y-102923464D01*
X91878143Y-103056797D01*
X91806715Y-103123464D01*
X91663858Y-103190131D01*
X91378143Y-103256797D01*
X91021001Y-103256797D01*
X90735286Y-103190131D01*
X90592429Y-103123464D01*
X90521001Y-103056797D01*
X90449572Y-102923464D01*
X94428143Y-115990131D02*
X94499572Y-115790131D01*
X94499572Y-115456797D01*
X94428143Y-115323464D01*
X94356715Y-115256797D01*
X94213858Y-115190131D01*
X94071001Y-115190131D01*
X93928143Y-115256797D01*
X93856715Y-115323464D01*
X93785286Y-115456797D01*
X93713858Y-115723464D01*
X93642429Y-115856797D01*
X93571001Y-115923464D01*
X93428143Y-115990131D01*
X93285286Y-115990131D01*
X93142429Y-115923464D01*
X93071001Y-115856797D01*
X92999572Y-115723464D01*
X92999572Y-115390131D01*
X93071001Y-115190131D01*
X94428143Y-114056797D02*
X94499572Y-114190131D01*
X94499572Y-114456797D01*
X94428143Y-114590131D01*
X94285286Y-114656797D01*
X93713858Y-114656797D01*
X93571001Y-114590131D01*
X93499572Y-114456797D01*
X93499572Y-114190131D01*
X93571001Y-114056797D01*
X93713858Y-113990131D01*
X93856715Y-113990131D01*
X93999572Y-114656797D01*
X94499572Y-113390131D02*
X93499572Y-113390131D01*
X93642429Y-113390131D02*
X93571001Y-113323464D01*
X93499572Y-113190131D01*
X93499572Y-112990131D01*
X93571001Y-112856797D01*
X93713858Y-112790131D01*
X94499572Y-112790131D01*
X93713858Y-112790131D02*
X93571001Y-112723464D01*
X93499572Y-112590131D01*
X93499572Y-112390131D01*
X93571001Y-112256797D01*
X93713858Y-112190131D01*
X94499572Y-112190131D01*
X94499572Y-110923464D02*
X93713858Y-110923464D01*
X93571001Y-110990131D01*
X93499572Y-111123464D01*
X93499572Y-111390131D01*
X93571001Y-111523464D01*
X94428143Y-110923464D02*
X94499572Y-111056797D01*
X94499572Y-111390131D01*
X94428143Y-111523464D01*
X94285286Y-111590131D01*
X94142429Y-111590131D01*
X93999572Y-111523464D01*
X93928143Y-111390131D01*
X93928143Y-111056797D01*
X93856715Y-110923464D01*
X93499572Y-110456797D02*
X93499572Y-109923464D01*
X94499572Y-110256797D02*
X93213858Y-110256797D01*
X93071001Y-110190131D01*
X92999572Y-110056797D01*
X92999572Y-109923464D01*
X94499572Y-109256797D02*
X94428143Y-109390131D01*
X94356715Y-109456797D01*
X94213858Y-109523464D01*
X93785286Y-109523464D01*
X93642429Y-109456797D01*
X93571001Y-109390131D01*
X93499572Y-109256797D01*
X93499572Y-109056797D01*
X93571001Y-108923464D01*
X93642429Y-108856797D01*
X93785286Y-108790131D01*
X94213858Y-108790131D01*
X94356715Y-108856797D01*
X94428143Y-108923464D01*
X94499572Y-109056797D01*
X94499572Y-109256797D01*
X94499572Y-108190131D02*
X93499572Y-108190131D01*
X93785286Y-108190131D02*
X93642429Y-108123464D01*
X93571001Y-108056797D01*
X93499572Y-107923464D01*
X93499572Y-107790131D01*
X93499572Y-106390131D02*
X94499572Y-106056797D01*
X93499572Y-105723464D01*
X92999572Y-104923464D02*
X92999572Y-104790131D01*
X93071001Y-104656797D01*
X93142429Y-104590131D01*
X93285286Y-104523464D01*
X93571001Y-104456797D01*
X93928143Y-104456797D01*
X94213858Y-104523464D01*
X94356715Y-104590131D01*
X94428143Y-104656797D01*
X94499572Y-104790131D01*
X94499572Y-104923464D01*
X94428143Y-105056797D01*
X94356715Y-105123464D01*
X94213858Y-105190131D01*
X93928143Y-105256797D01*
X93571001Y-105256797D01*
X93285286Y-105190131D01*
X93142429Y-105123464D01*
X93071001Y-105056797D01*
X92999572Y-104923464D01*
X94356715Y-103856797D02*
X94428143Y-103790131D01*
X94499572Y-103856797D01*
X94428143Y-103923464D01*
X94356715Y-103856797D01*
X94499572Y-103856797D01*
X93142429Y-103256797D02*
X93071001Y-103190131D01*
X92999572Y-103056797D01*
X92999572Y-102723464D01*
X93071001Y-102590131D01*
X93142429Y-102523464D01*
X93285286Y-102456797D01*
X93428143Y-102456797D01*
X93642429Y-102523464D01*
X94499572Y-103323464D01*
X94499572Y-102456797D01*
X90449572Y-83028066D02*
X90449572Y-82894732D01*
X90521001Y-82761399D01*
X90592429Y-82694732D01*
X90735286Y-82628066D01*
X91021001Y-82561399D01*
X91378143Y-82561399D01*
X91663858Y-82628066D01*
X91806715Y-82694732D01*
X91878143Y-82761399D01*
X91949572Y-82894732D01*
X91949572Y-83028066D01*
X91878143Y-83161399D01*
X91806715Y-83228066D01*
X91663858Y-83294732D01*
X91378143Y-83361399D01*
X91021001Y-83361399D01*
X90735286Y-83294732D01*
X90592429Y-83228066D01*
X90521001Y-83161399D01*
X90449572Y-83028066D01*
X90449572Y-81361399D02*
X90449572Y-81628066D01*
X90521001Y-81761399D01*
X90592429Y-81828066D01*
X90806715Y-81961399D01*
X91092429Y-82028066D01*
X91663858Y-82028066D01*
X91806715Y-81961399D01*
X91878143Y-81894732D01*
X91949572Y-81761399D01*
X91949572Y-81494732D01*
X91878143Y-81361399D01*
X91806715Y-81294732D01*
X91663858Y-81228066D01*
X91306715Y-81228066D01*
X91163858Y-81294732D01*
X91092429Y-81361399D01*
X91021001Y-81494732D01*
X91021001Y-81761399D01*
X91092429Y-81894732D01*
X91163858Y-81961399D01*
X91306715Y-82028066D01*
X90378143Y-79628066D02*
X92306715Y-80828066D01*
X90592429Y-79228066D02*
X90521001Y-79161399D01*
X90449572Y-79028066D01*
X90449572Y-78694732D01*
X90521001Y-78561399D01*
X90592429Y-78494732D01*
X90735286Y-78428066D01*
X90878143Y-78428066D01*
X91092429Y-78494732D01*
X91949572Y-79294732D01*
X91949572Y-78428066D01*
X90449572Y-77561399D02*
X90449572Y-77428066D01*
X90521001Y-77294732D01*
X90592429Y-77228066D01*
X90735286Y-77161399D01*
X91021001Y-77094732D01*
X91378143Y-77094732D01*
X91663858Y-77161399D01*
X91806715Y-77228066D01*
X91878143Y-77294732D01*
X91949572Y-77428066D01*
X91949572Y-77561399D01*
X91878143Y-77694732D01*
X91806715Y-77761399D01*
X91663858Y-77828066D01*
X91378143Y-77894732D01*
X91021001Y-77894732D01*
X90735286Y-77828066D01*
X90592429Y-77761399D01*
X90521001Y-77694732D01*
X90449572Y-77561399D01*
X94428143Y-90628066D02*
X94499572Y-90428066D01*
X94499572Y-90094732D01*
X94428143Y-89961399D01*
X94356715Y-89894732D01*
X94213858Y-89828066D01*
X94071001Y-89828066D01*
X93928143Y-89894732D01*
X93856715Y-89961399D01*
X93785286Y-90094732D01*
X93713858Y-90361399D01*
X93642429Y-90494732D01*
X93571001Y-90561399D01*
X93428143Y-90628066D01*
X93285286Y-90628066D01*
X93142429Y-90561399D01*
X93071001Y-90494732D01*
X92999572Y-90361399D01*
X92999572Y-90028066D01*
X93071001Y-89828066D01*
X94428143Y-88694732D02*
X94499572Y-88828066D01*
X94499572Y-89094732D01*
X94428143Y-89228066D01*
X94285286Y-89294732D01*
X93713858Y-89294732D01*
X93571001Y-89228066D01*
X93499572Y-89094732D01*
X93499572Y-88828066D01*
X93571001Y-88694732D01*
X93713858Y-88628066D01*
X93856715Y-88628066D01*
X93999572Y-89294732D01*
X94499572Y-88028066D02*
X93499572Y-88028066D01*
X93642429Y-88028066D02*
X93571001Y-87961399D01*
X93499572Y-87828066D01*
X93499572Y-87628066D01*
X93571001Y-87494732D01*
X93713858Y-87428066D01*
X94499572Y-87428066D01*
X93713858Y-87428066D02*
X93571001Y-87361399D01*
X93499572Y-87228066D01*
X93499572Y-87028066D01*
X93571001Y-86894732D01*
X93713858Y-86828066D01*
X94499572Y-86828066D01*
X94499572Y-85561399D02*
X93713858Y-85561399D01*
X93571001Y-85628066D01*
X93499572Y-85761399D01*
X93499572Y-86028066D01*
X93571001Y-86161399D01*
X94428143Y-85561399D02*
X94499572Y-85694732D01*
X94499572Y-86028066D01*
X94428143Y-86161399D01*
X94285286Y-86228066D01*
X94142429Y-86228066D01*
X93999572Y-86161399D01*
X93928143Y-86028066D01*
X93928143Y-85694732D01*
X93856715Y-85561399D01*
X93499572Y-85094732D02*
X93499572Y-84561399D01*
X94499572Y-84894732D02*
X93213858Y-84894732D01*
X93071001Y-84828066D01*
X92999572Y-84694732D01*
X92999572Y-84561399D01*
X94499572Y-83894732D02*
X94428143Y-84028066D01*
X94356715Y-84094732D01*
X94213858Y-84161399D01*
X93785286Y-84161399D01*
X93642429Y-84094732D01*
X93571001Y-84028066D01*
X93499572Y-83894732D01*
X93499572Y-83694732D01*
X93571001Y-83561399D01*
X93642429Y-83494732D01*
X93785286Y-83428066D01*
X94213858Y-83428066D01*
X94356715Y-83494732D01*
X94428143Y-83561399D01*
X94499572Y-83694732D01*
X94499572Y-83894732D01*
X94499572Y-82828066D02*
X93499572Y-82828066D01*
X93785286Y-82828066D02*
X93642429Y-82761399D01*
X93571001Y-82694732D01*
X93499572Y-82561399D01*
X93499572Y-82428066D01*
X93499572Y-81028066D02*
X94499572Y-80694732D01*
X93499572Y-80361399D01*
X92999572Y-79561399D02*
X92999572Y-79428066D01*
X93071001Y-79294732D01*
X93142429Y-79228066D01*
X93285286Y-79161399D01*
X93571001Y-79094732D01*
X93928143Y-79094732D01*
X94213858Y-79161399D01*
X94356715Y-79228066D01*
X94428143Y-79294732D01*
X94499572Y-79428066D01*
X94499572Y-79561399D01*
X94428143Y-79694732D01*
X94356715Y-79761399D01*
X94213858Y-79828066D01*
X93928143Y-79894732D01*
X93571001Y-79894732D01*
X93285286Y-79828066D01*
X93142429Y-79761399D01*
X93071001Y-79694732D01*
X92999572Y-79561399D01*
X94356715Y-78494732D02*
X94428143Y-78428066D01*
X94499572Y-78494732D01*
X94428143Y-78561399D01*
X94356715Y-78494732D01*
X94499572Y-78494732D01*
X93142429Y-77894732D02*
X93071001Y-77828066D01*
X92999572Y-77694732D01*
X92999572Y-77361399D01*
X93071001Y-77228066D01*
X93142429Y-77161399D01*
X93285286Y-77094732D01*
X93428143Y-77094732D01*
X93642429Y-77161399D01*
X94499572Y-77961399D01*
X94499572Y-77094732D01*
X90449572Y-57666001D02*
X90449572Y-57532667D01*
X90521001Y-57399334D01*
X90592429Y-57332667D01*
X90735286Y-57266001D01*
X91021001Y-57199334D01*
X91378143Y-57199334D01*
X91663858Y-57266001D01*
X91806715Y-57332667D01*
X91878143Y-57399334D01*
X91949572Y-57532667D01*
X91949572Y-57666001D01*
X91878143Y-57799334D01*
X91806715Y-57866001D01*
X91663858Y-57932667D01*
X91378143Y-57999334D01*
X91021001Y-57999334D01*
X90735286Y-57932667D01*
X90592429Y-57866001D01*
X90521001Y-57799334D01*
X90449572Y-57666001D01*
X90449572Y-55999334D02*
X90449572Y-56266001D01*
X90521001Y-56399334D01*
X90592429Y-56466001D01*
X90806715Y-56599334D01*
X91092429Y-56666001D01*
X91663858Y-56666001D01*
X91806715Y-56599334D01*
X91878143Y-56532667D01*
X91949572Y-56399334D01*
X91949572Y-56132667D01*
X91878143Y-55999334D01*
X91806715Y-55932667D01*
X91663858Y-55866001D01*
X91306715Y-55866001D01*
X91163858Y-55932667D01*
X91092429Y-55999334D01*
X91021001Y-56132667D01*
X91021001Y-56399334D01*
X91092429Y-56532667D01*
X91163858Y-56599334D01*
X91306715Y-56666001D01*
X90378143Y-54266001D02*
X92306715Y-55466001D01*
X90592429Y-53866001D02*
X90521001Y-53799334D01*
X90449572Y-53666001D01*
X90449572Y-53332667D01*
X90521001Y-53199334D01*
X90592429Y-53132667D01*
X90735286Y-53066001D01*
X90878143Y-53066001D01*
X91092429Y-53132667D01*
X91949572Y-53932667D01*
X91949572Y-53066001D01*
X90449572Y-52199334D02*
X90449572Y-52066001D01*
X90521001Y-51932667D01*
X90592429Y-51866001D01*
X90735286Y-51799334D01*
X91021001Y-51732667D01*
X91378143Y-51732667D01*
X91663858Y-51799334D01*
X91806715Y-51866001D01*
X91878143Y-51932667D01*
X91949572Y-52066001D01*
X91949572Y-52199334D01*
X91878143Y-52332667D01*
X91806715Y-52399334D01*
X91663858Y-52466001D01*
X91378143Y-52532667D01*
X91021001Y-52532667D01*
X90735286Y-52466001D01*
X90592429Y-52399334D01*
X90521001Y-52332667D01*
X90449572Y-52199334D01*
X94428143Y-65266001D02*
X94499572Y-65066001D01*
X94499572Y-64732667D01*
X94428143Y-64599334D01*
X94356715Y-64532667D01*
X94213858Y-64466001D01*
X94071001Y-64466001D01*
X93928143Y-64532667D01*
X93856715Y-64599334D01*
X93785286Y-64732667D01*
X93713858Y-64999334D01*
X93642429Y-65132667D01*
X93571001Y-65199334D01*
X93428143Y-65266001D01*
X93285286Y-65266001D01*
X93142429Y-65199334D01*
X93071001Y-65132667D01*
X92999572Y-64999334D01*
X92999572Y-64666001D01*
X93071001Y-64466001D01*
X94428143Y-63332667D02*
X94499572Y-63466001D01*
X94499572Y-63732667D01*
X94428143Y-63866001D01*
X94285286Y-63932667D01*
X93713858Y-63932667D01*
X93571001Y-63866001D01*
X93499572Y-63732667D01*
X93499572Y-63466001D01*
X93571001Y-63332667D01*
X93713858Y-63266001D01*
X93856715Y-63266001D01*
X93999572Y-63932667D01*
X94499572Y-62666001D02*
X93499572Y-62666001D01*
X93642429Y-62666001D02*
X93571001Y-62599334D01*
X93499572Y-62466001D01*
X93499572Y-62266001D01*
X93571001Y-62132667D01*
X93713858Y-62066001D01*
X94499572Y-62066001D01*
X93713858Y-62066001D02*
X93571001Y-61999334D01*
X93499572Y-61866001D01*
X93499572Y-61666001D01*
X93571001Y-61532667D01*
X93713858Y-61466001D01*
X94499572Y-61466001D01*
X94499572Y-60199334D02*
X93713858Y-60199334D01*
X93571001Y-60266001D01*
X93499572Y-60399334D01*
X93499572Y-60666001D01*
X93571001Y-60799334D01*
X94428143Y-60199334D02*
X94499572Y-60332667D01*
X94499572Y-60666001D01*
X94428143Y-60799334D01*
X94285286Y-60866001D01*
X94142429Y-60866001D01*
X93999572Y-60799334D01*
X93928143Y-60666001D01*
X93928143Y-60332667D01*
X93856715Y-60199334D01*
X93499572Y-59732667D02*
X93499572Y-59199334D01*
X94499572Y-59532667D02*
X93213858Y-59532667D01*
X93071001Y-59466001D01*
X92999572Y-59332667D01*
X92999572Y-59199334D01*
X94499572Y-58532667D02*
X94428143Y-58666001D01*
X94356715Y-58732667D01*
X94213858Y-58799334D01*
X93785286Y-58799334D01*
X93642429Y-58732667D01*
X93571001Y-58666001D01*
X93499572Y-58532667D01*
X93499572Y-58332667D01*
X93571001Y-58199334D01*
X93642429Y-58132667D01*
X93785286Y-58066001D01*
X94213858Y-58066001D01*
X94356715Y-58132667D01*
X94428143Y-58199334D01*
X94499572Y-58332667D01*
X94499572Y-58532667D01*
X94499572Y-57466001D02*
X93499572Y-57466001D01*
X93785286Y-57466001D02*
X93642429Y-57399334D01*
X93571001Y-57332667D01*
X93499572Y-57199334D01*
X93499572Y-57066001D01*
X93499572Y-55666001D02*
X94499572Y-55332667D01*
X93499572Y-54999334D01*
X92999572Y-54199334D02*
X92999572Y-54066001D01*
X93071001Y-53932667D01*
X93142429Y-53866001D01*
X93285286Y-53799334D01*
X93571001Y-53732667D01*
X93928143Y-53732667D01*
X94213858Y-53799334D01*
X94356715Y-53866001D01*
X94428143Y-53932667D01*
X94499572Y-54066001D01*
X94499572Y-54199334D01*
X94428143Y-54332667D01*
X94356715Y-54399334D01*
X94213858Y-54466001D01*
X93928143Y-54532667D01*
X93571001Y-54532667D01*
X93285286Y-54466001D01*
X93142429Y-54399334D01*
X93071001Y-54332667D01*
X92999572Y-54199334D01*
X94356715Y-53132667D02*
X94428143Y-53066001D01*
X94499572Y-53132667D01*
X94428143Y-53199334D01*
X94356715Y-53132667D01*
X94499572Y-53132667D01*
X93142429Y-52532667D02*
X93071001Y-52466001D01*
X92999572Y-52332667D01*
X92999572Y-51999334D01*
X93071001Y-51866001D01*
X93142429Y-51799334D01*
X93285286Y-51732667D01*
X93428143Y-51732667D01*
X93642429Y-51799334D01*
X94499572Y-52599334D01*
X94499572Y-51732667D01*
D11*
X95106001Y-140856196D02*
X95106001Y-145608196D01*
X105166001Y-143232196D02*
G75*
G03*
X105166001Y-143232196I-5000000J0D01*
G01*
X105755999Y-143236937D02*
G75*
G02*
X95106001Y-145608012I-5589998J4741D01*
G01*
X105755999Y-143227455D02*
G75*
G03*
X95106001Y-140856380I-5589998J-4741D01*
G01*
X95106001Y-129426196D02*
X95106001Y-134178196D01*
X105166001Y-131802196D02*
G75*
G03*
X105166001Y-131802196I-5000000J0D01*
G01*
X105755999Y-131806937D02*
G75*
G02*
X95106001Y-134178012I-5589998J4741D01*
G01*
X105755999Y-131797455D02*
G75*
G03*
X95106001Y-129426380I-5589998J-4741D01*
G01*
X78596001Y-129426196D02*
X78596001Y-134178196D01*
X88656001Y-131802196D02*
G75*
G03*
X88656001Y-131802196I-5000000J0D01*
G01*
X89245999Y-131806937D02*
G75*
G02*
X78596001Y-134178012I-5589998J4741D01*
G01*
X89245999Y-131797455D02*
G75*
G03*
X78596001Y-129426380I-5589998J-4741D01*
G01*
X67166001Y-129426196D02*
X67166001Y-134178196D01*
X77226001Y-131802196D02*
G75*
G03*
X77226001Y-131802196I-5000000J0D01*
G01*
X77815999Y-131806937D02*
G75*
G02*
X67166001Y-134178012I-5589998J4741D01*
G01*
X77815999Y-131797455D02*
G75*
G03*
X67166001Y-129426380I-5589998J-4741D01*
G01*
X50656001Y-140856196D02*
X50656001Y-145608196D01*
X60716001Y-143232196D02*
G75*
G03*
X60716001Y-143232196I-5000000J0D01*
G01*
X61305999Y-143236937D02*
G75*
G02*
X50656001Y-145608012I-5589998J4741D01*
G01*
X61305999Y-143227455D02*
G75*
G03*
X50656001Y-140856380I-5589998J-4741D01*
G01*
X50656001Y-129426196D02*
X50656001Y-134178196D01*
X60716001Y-131802196D02*
G75*
G03*
X60716001Y-131802196I-5000000J0D01*
G01*
X61305999Y-131806937D02*
G75*
G02*
X50656001Y-134178012I-5589998J4741D01*
G01*
X61305999Y-131797455D02*
G75*
G03*
X50656001Y-129426380I-5589998J-4741D01*
G01*
D12*
G36*
X77766351Y-138848332D02*
G01*
X77853209Y-138850216D01*
X77921204Y-138854286D01*
X77977834Y-138861216D01*
X78030596Y-138871682D01*
X78086988Y-138886359D01*
X78090555Y-138887361D01*
X78155384Y-138907857D01*
X78206741Y-138928270D01*
X78236482Y-138945194D01*
X78240427Y-138950015D01*
X78239544Y-138974269D01*
X78230841Y-139024159D01*
X78215735Y-139092741D01*
X78195643Y-139173068D01*
X78192473Y-139185004D01*
X78167696Y-139274460D01*
X78148555Y-139335062D01*
X78133341Y-139371017D01*
X78120341Y-139386533D01*
X78110334Y-139387034D01*
X77992134Y-139350800D01*
X77856118Y-139326280D01*
X77713597Y-139314295D01*
X77575879Y-139315666D01*
X77454271Y-139331214D01*
X77427576Y-139337448D01*
X77279845Y-139391974D01*
X77153638Y-139472230D01*
X77050337Y-139576719D01*
X76971323Y-139703948D01*
X76917978Y-139852419D01*
X76907199Y-139900811D01*
X76894973Y-140002659D01*
X76892998Y-140118747D01*
X76900524Y-140237236D01*
X76916800Y-140346283D01*
X76940973Y-140433780D01*
X77010650Y-140575354D01*
X77101610Y-140690769D01*
X77214020Y-140780127D01*
X77348046Y-140843531D01*
X77503855Y-140881083D01*
X77681615Y-140892887D01*
X77687001Y-140892847D01*
X77808955Y-140886868D01*
X77929503Y-140872295D01*
X78037391Y-140850843D01*
X78111940Y-140828021D01*
X78124596Y-140828340D01*
X78135837Y-140843301D01*
X78147350Y-140877770D01*
X78160819Y-140936616D01*
X78175440Y-141011424D01*
X78193464Y-141108899D01*
X78204780Y-141178501D01*
X78209197Y-141225591D01*
X78206521Y-141255530D01*
X78196560Y-141273678D01*
X78179121Y-141285397D01*
X78165368Y-141291416D01*
X78086560Y-141315890D01*
X77982199Y-141336858D01*
X77860480Y-141353651D01*
X77729598Y-141365597D01*
X77597749Y-141372025D01*
X77473127Y-141372265D01*
X77363927Y-141365644D01*
X77322934Y-141360393D01*
X77118431Y-141314128D01*
X76932237Y-141242634D01*
X76766424Y-141147310D01*
X76623068Y-141029557D01*
X76504241Y-140890776D01*
X76421167Y-140751462D01*
X76370609Y-140640056D01*
X76334426Y-140536881D01*
X76310589Y-140432258D01*
X76297067Y-140316509D01*
X76291832Y-140179955D01*
X76291574Y-140133396D01*
X76296026Y-139979130D01*
X76310910Y-139846931D01*
X76338583Y-139725975D01*
X76381404Y-139605440D01*
X76429926Y-139498396D01*
X76500182Y-139382311D01*
X76595204Y-139265625D01*
X76706974Y-139156231D01*
X76827476Y-139062025D01*
X76941934Y-138994183D01*
X77051222Y-138943494D01*
X77150186Y-138905632D01*
X77247167Y-138878883D01*
X77350507Y-138861530D01*
X77468547Y-138851860D01*
X77609629Y-138848156D01*
X77653134Y-138847957D01*
X77766351Y-138848332D01*
G37*
X77766351Y-138848332D02*
X77853209Y-138850216D01*
X77921204Y-138854286D01*
X77977834Y-138861216D01*
X78030596Y-138871682D01*
X78086988Y-138886359D01*
X78090555Y-138887361D01*
X78155384Y-138907857D01*
X78206741Y-138928270D01*
X78236482Y-138945194D01*
X78240427Y-138950015D01*
X78239544Y-138974269D01*
X78230841Y-139024159D01*
X78215735Y-139092741D01*
X78195643Y-139173068D01*
X78192473Y-139185004D01*
X78167696Y-139274460D01*
X78148555Y-139335062D01*
X78133341Y-139371017D01*
X78120341Y-139386533D01*
X78110334Y-139387034D01*
X77992134Y-139350800D01*
X77856118Y-139326280D01*
X77713597Y-139314295D01*
X77575879Y-139315666D01*
X77454271Y-139331214D01*
X77427576Y-139337448D01*
X77279845Y-139391974D01*
X77153638Y-139472230D01*
X77050337Y-139576719D01*
X76971323Y-139703948D01*
X76917978Y-139852419D01*
X76907199Y-139900811D01*
X76894973Y-140002659D01*
X76892998Y-140118747D01*
X76900524Y-140237236D01*
X76916800Y-140346283D01*
X76940973Y-140433780D01*
X77010650Y-140575354D01*
X77101610Y-140690769D01*
X77214020Y-140780127D01*
X77348046Y-140843531D01*
X77503855Y-140881083D01*
X77681615Y-140892887D01*
X77687001Y-140892847D01*
X77808955Y-140886868D01*
X77929503Y-140872295D01*
X78037391Y-140850843D01*
X78111940Y-140828021D01*
X78124596Y-140828340D01*
X78135837Y-140843301D01*
X78147350Y-140877770D01*
X78160819Y-140936616D01*
X78175440Y-141011424D01*
X78193464Y-141108899D01*
X78204780Y-141178501D01*
X78209197Y-141225591D01*
X78206521Y-141255530D01*
X78196560Y-141273678D01*
X78179121Y-141285397D01*
X78165368Y-141291416D01*
X78086560Y-141315890D01*
X77982199Y-141336858D01*
X77860480Y-141353651D01*
X77729598Y-141365597D01*
X77597749Y-141372025D01*
X77473127Y-141372265D01*
X77363927Y-141365644D01*
X77322934Y-141360393D01*
X77118431Y-141314128D01*
X76932237Y-141242634D01*
X76766424Y-141147310D01*
X76623068Y-141029557D01*
X76504241Y-140890776D01*
X76421167Y-140751462D01*
X76370609Y-140640056D01*
X76334426Y-140536881D01*
X76310589Y-140432258D01*
X76297067Y-140316509D01*
X76291832Y-140179955D01*
X76291574Y-140133396D01*
X76296026Y-139979130D01*
X76310910Y-139846931D01*
X76338583Y-139725975D01*
X76381404Y-139605440D01*
X76429926Y-139498396D01*
X76500182Y-139382311D01*
X76595204Y-139265625D01*
X76706974Y-139156231D01*
X76827476Y-139062025D01*
X76941934Y-138994183D01*
X77051222Y-138943494D01*
X77150186Y-138905632D01*
X77247167Y-138878883D01*
X77350507Y-138861530D01*
X77468547Y-138851860D01*
X77609629Y-138848156D01*
X77653134Y-138847957D01*
X77766351Y-138848332D01*
G36*
X70778201Y-139820129D02*
G01*
X71675668Y-139820129D01*
X71675668Y-138871863D01*
X72251622Y-138871863D01*
X72247278Y-140103763D01*
X72242935Y-141335663D01*
X71959301Y-141340305D01*
X71675668Y-141344948D01*
X71675668Y-140311196D01*
X70778698Y-140311196D01*
X70774216Y-140823429D01*
X70769735Y-141335663D01*
X70486101Y-141340305D01*
X70202468Y-141344948D01*
X70202468Y-138871863D01*
X70778201Y-138871863D01*
X70778201Y-139820129D01*
G37*
X70778201Y-139820129D02*
X71675668Y-139820129D01*
X71675668Y-138871863D01*
X72251622Y-138871863D01*
X72247278Y-140103763D01*
X72242935Y-141335663D01*
X71959301Y-141340305D01*
X71675668Y-141344948D01*
X71675668Y-140311196D01*
X70778698Y-140311196D01*
X70774216Y-140823429D01*
X70769735Y-141335663D01*
X70486101Y-141340305D01*
X70202468Y-141344948D01*
X70202468Y-138871863D01*
X70778201Y-138871863D01*
X70778201Y-139820129D01*
G36*
X74249534Y-139345996D02*
G01*
X73284335Y-139345996D01*
X73284335Y-139837063D01*
X74198734Y-139837063D01*
X74198734Y-140294263D01*
X73284335Y-140294263D01*
X73284335Y-140869996D01*
X74300335Y-140869996D01*
X74300335Y-141344129D01*
X72725535Y-141344129D01*
X72725535Y-138871863D01*
X74249534Y-138871863D01*
X74249534Y-139345996D01*
G37*
X74249534Y-139345996D02*
X73284335Y-139345996D01*
X73284335Y-139837063D01*
X74198734Y-139837063D01*
X74198734Y-140294263D01*
X73284335Y-140294263D01*
X73284335Y-140869996D01*
X74300335Y-140869996D01*
X74300335Y-141344129D01*
X72725535Y-141344129D01*
X72725535Y-138871863D01*
X74249534Y-138871863D01*
X74249534Y-139345996D01*
G36*
X75248601Y-140853063D02*
G01*
X76231664Y-140853063D01*
X76222268Y-141335663D01*
X74672868Y-141344471D01*
X74672868Y-138871863D01*
X75248601Y-138871863D01*
X75248601Y-140853063D01*
G37*
X75248601Y-140853063D02*
X76231664Y-140853063D01*
X76222268Y-141335663D01*
X74672868Y-141344471D01*
X74672868Y-138871863D01*
X75248601Y-138871863D01*
X75248601Y-140853063D01*
G36*
X80108468Y-139345996D02*
G01*
X79143268Y-139345996D01*
X79143268Y-139837063D01*
X80057668Y-139837063D01*
X80057668Y-140294263D01*
X79143268Y-140294263D01*
X79143268Y-140869996D01*
X80159268Y-140869996D01*
X80159268Y-141344129D01*
X78584468Y-141344129D01*
X78584468Y-138871863D01*
X80108468Y-138871863D01*
X80108468Y-139345996D01*
G37*
X80108468Y-139345996D02*
X79143268Y-139345996D01*
X79143268Y-139837063D01*
X80057668Y-139837063D01*
X80057668Y-140294263D01*
X79143268Y-140294263D01*
X79143268Y-140869996D01*
X80159268Y-140869996D01*
X80159268Y-141344129D01*
X78584468Y-141344129D01*
X78584468Y-138871863D01*
X80108468Y-138871863D01*
X80108468Y-139345996D01*
G36*
X81107535Y-140853063D02*
G01*
X82090598Y-140853063D01*
X82085899Y-141094363D01*
X82081201Y-141335663D01*
X80531801Y-141344471D01*
X80531801Y-138871863D01*
X81107535Y-138871863D01*
X81107535Y-140853063D01*
G37*
X81107535Y-140853063D02*
X82090598Y-140853063D01*
X82085899Y-141094363D01*
X82081201Y-141335663D01*
X80531801Y-141344471D01*
X80531801Y-138871863D01*
X81107535Y-138871863D01*
X81107535Y-140853063D01*
G36*
X83935401Y-139345996D02*
G01*
X82970201Y-139345996D01*
X82970201Y-139837063D01*
X83884601Y-139837063D01*
X83884601Y-140294263D01*
X82970201Y-140294263D01*
X82970201Y-140869996D01*
X83986201Y-140869996D01*
X83986201Y-141344129D01*
X82394468Y-141344129D01*
X82394468Y-138871863D01*
X83935401Y-138871863D01*
X83935401Y-139345996D01*
G37*
X83935401Y-139345996D02*
X82970201Y-139345996D01*
X82970201Y-139837063D01*
X83884601Y-139837063D01*
X83884601Y-140294263D01*
X82970201Y-140294263D01*
X82970201Y-140869996D01*
X83986201Y-140869996D01*
X83986201Y-141344129D01*
X82394468Y-141344129D01*
X82394468Y-138871863D01*
X83935401Y-138871863D01*
X83935401Y-139345996D01*
G36*
X86085934Y-139345996D02*
G01*
X85425805Y-139345996D01*
X85421437Y-140340829D01*
X85417068Y-141335663D01*
X85133434Y-141340305D01*
X84849801Y-141344948D01*
X84849801Y-139345996D01*
X84172468Y-139345996D01*
X84172468Y-138871863D01*
X86085934Y-138871863D01*
X86085934Y-139345996D01*
G37*
X86085934Y-139345996D02*
X85425805Y-139345996D01*
X85421437Y-140340829D01*
X85417068Y-141335663D01*
X85133434Y-141340305D01*
X84849801Y-141344948D01*
X84849801Y-139345996D01*
X84172468Y-139345996D01*
X84172468Y-138871863D01*
X86085934Y-138871863D01*
X86085934Y-139345996D01*
G36*
X86932601Y-139941087D02*
G01*
X87125042Y-139656241D01*
X87198978Y-139547006D01*
X87280949Y-139426237D01*
X87363680Y-139304630D01*
X87439896Y-139192883D01*
X87485744Y-139125863D01*
X87654004Y-138880329D01*
X88006030Y-138875748D01*
X88129184Y-138874894D01*
X88227710Y-138875786D01*
X88299235Y-138878343D01*
X88341386Y-138882487D01*
X88352295Y-138887385D01*
X88340877Y-138903981D01*
X88310879Y-138944152D01*
X88264649Y-139004848D01*
X88204535Y-139083016D01*
X88132884Y-139175605D01*
X88052043Y-139279563D01*
X87964359Y-139391839D01*
X87958915Y-139398794D01*
X87870770Y-139511903D01*
X87789345Y-139617349D01*
X87717000Y-139712008D01*
X87656091Y-139792750D01*
X87608978Y-139856450D01*
X87578018Y-139899980D01*
X87565569Y-139920213D01*
X87565475Y-139920557D01*
X87572918Y-139939944D01*
X87596512Y-139985169D01*
X87634546Y-140053297D01*
X87685311Y-140141392D01*
X87747098Y-140246518D01*
X87818195Y-140365739D01*
X87896894Y-140496120D01*
X87980383Y-140632929D01*
X88064627Y-140770902D01*
X88142766Y-140900140D01*
X88213124Y-141017779D01*
X88274024Y-141120958D01*
X88323791Y-141206812D01*
X88360749Y-141272480D01*
X88383222Y-141315099D01*
X88389533Y-141331805D01*
X88389525Y-141331814D01*
X88369706Y-141335682D01*
X88321501Y-141338608D01*
X88250382Y-141340449D01*
X88161818Y-141341067D01*
X88061283Y-141340323D01*
X88058337Y-141340281D01*
X87738735Y-141335663D01*
X87441502Y-140815550D01*
X87372439Y-140695116D01*
X87308586Y-140584562D01*
X87251892Y-140487201D01*
X87204305Y-140406348D01*
X87167776Y-140345315D01*
X87144253Y-140307418D01*
X87135801Y-140295830D01*
X87122229Y-140308351D01*
X87092891Y-140341597D01*
X87052917Y-140389641D01*
X87030027Y-140418009D01*
X86932719Y-140539796D01*
X86932660Y-140941963D01*
X86932601Y-141344129D01*
X86373801Y-141344129D01*
X86373801Y-138871863D01*
X86932601Y-138871863D01*
X86932601Y-139941087D01*
G37*
X86932601Y-139941087D02*
X87125042Y-139656241D01*
X87198978Y-139547006D01*
X87280949Y-139426237D01*
X87363680Y-139304630D01*
X87439896Y-139192883D01*
X87485744Y-139125863D01*
X87654004Y-138880329D01*
X88006030Y-138875748D01*
X88129184Y-138874894D01*
X88227710Y-138875786D01*
X88299235Y-138878343D01*
X88341386Y-138882487D01*
X88352295Y-138887385D01*
X88340877Y-138903981D01*
X88310879Y-138944152D01*
X88264649Y-139004848D01*
X88204535Y-139083016D01*
X88132884Y-139175605D01*
X88052043Y-139279563D01*
X87964359Y-139391839D01*
X87958915Y-139398794D01*
X87870770Y-139511903D01*
X87789345Y-139617349D01*
X87717000Y-139712008D01*
X87656091Y-139792750D01*
X87608978Y-139856450D01*
X87578018Y-139899980D01*
X87565569Y-139920213D01*
X87565475Y-139920557D01*
X87572918Y-139939944D01*
X87596512Y-139985169D01*
X87634546Y-140053297D01*
X87685311Y-140141392D01*
X87747098Y-140246518D01*
X87818195Y-140365739D01*
X87896894Y-140496120D01*
X87980383Y-140632929D01*
X88064627Y-140770902D01*
X88142766Y-140900140D01*
X88213124Y-141017779D01*
X88274024Y-141120958D01*
X88323791Y-141206812D01*
X88360749Y-141272480D01*
X88383222Y-141315099D01*
X88389533Y-141331805D01*
X88389525Y-141331814D01*
X88369706Y-141335682D01*
X88321501Y-141338608D01*
X88250382Y-141340449D01*
X88161818Y-141341067D01*
X88061283Y-141340323D01*
X88058337Y-141340281D01*
X87738735Y-141335663D01*
X87441502Y-140815550D01*
X87372439Y-140695116D01*
X87308586Y-140584562D01*
X87251892Y-140487201D01*
X87204305Y-140406348D01*
X87167776Y-140345315D01*
X87144253Y-140307418D01*
X87135801Y-140295830D01*
X87122229Y-140308351D01*
X87092891Y-140341597D01*
X87052917Y-140389641D01*
X87030027Y-140418009D01*
X86932719Y-140539796D01*
X86932660Y-140941963D01*
X86932601Y-141344129D01*
X86373801Y-141344129D01*
X86373801Y-138871863D01*
X86932601Y-138871863D01*
X86932601Y-139941087D01*
G36*
X89612293Y-138875776D02*
G01*
X89986214Y-138880329D01*
X90370125Y-140103690D01*
X90431440Y-140299537D01*
X90489511Y-140485915D01*
X90543572Y-140660318D01*
X90592860Y-140820239D01*
X90636612Y-140963172D01*
X90674063Y-141086608D01*
X90704450Y-141188042D01*
X90727009Y-141264967D01*
X90740976Y-141314877D01*
X90745587Y-141335263D01*
X90745496Y-141335590D01*
X90726605Y-141338346D01*
X90679440Y-141340733D01*
X90609594Y-141342594D01*
X90522659Y-141343775D01*
X90436975Y-141344129D01*
X90136993Y-141344129D01*
X90093949Y-141204429D01*
X90069811Y-141125724D01*
X90040541Y-141029747D01*
X90010756Y-140931659D01*
X89995947Y-140882696D01*
X89940990Y-140700662D01*
X89252955Y-140700662D01*
X89234439Y-140772629D01*
X89223102Y-140814761D01*
X89204591Y-140881405D01*
X89181155Y-140964543D01*
X89155047Y-141056157D01*
X89145295Y-141090129D01*
X89074668Y-141335663D01*
X88782568Y-141340296D01*
X88663611Y-141341197D01*
X88574703Y-141339697D01*
X88516991Y-141335845D01*
X88491624Y-141329689D01*
X88490468Y-141327702D01*
X88495268Y-141310019D01*
X88509043Y-141263030D01*
X88530857Y-141189811D01*
X88559775Y-141093441D01*
X88594861Y-140976996D01*
X88635178Y-140843555D01*
X88679790Y-140696193D01*
X88727762Y-140537990D01*
X88778158Y-140372022D01*
X88812298Y-140259727D01*
X89342943Y-140259727D01*
X89351264Y-140267394D01*
X89374017Y-140272463D01*
X89415848Y-140275457D01*
X89481404Y-140276902D01*
X89575332Y-140277322D01*
X89595846Y-140277329D01*
X89858180Y-140277329D01*
X89783582Y-140027563D01*
X89751513Y-139918357D01*
X89717444Y-139799275D01*
X89685184Y-139683816D01*
X89658547Y-139585474D01*
X89655681Y-139574596D01*
X89634367Y-139495689D01*
X89615135Y-139428775D01*
X89600024Y-139380668D01*
X89591076Y-139358183D01*
X89590791Y-139357811D01*
X89581877Y-139365735D01*
X89569735Y-139399624D01*
X89557260Y-139450944D01*
X89547054Y-139495545D01*
X89530111Y-139564039D01*
X89508056Y-139650342D01*
X89482510Y-139748372D01*
X89455097Y-139852044D01*
X89427438Y-139955277D01*
X89401156Y-140051985D01*
X89377875Y-140136087D01*
X89359216Y-140201498D01*
X89346803Y-140242136D01*
X89344407Y-140248935D01*
X89342943Y-140259727D01*
X88812298Y-140259727D01*
X88830041Y-140201366D01*
X88882476Y-140029100D01*
X88934527Y-139858301D01*
X88985257Y-139692048D01*
X89033731Y-139533416D01*
X89079013Y-139385483D01*
X89120166Y-139251328D01*
X89156256Y-139134026D01*
X89186345Y-139036657D01*
X89209498Y-138962296D01*
X89220761Y-138926576D01*
X89238372Y-138871222D01*
X89612293Y-138875776D01*
G37*
X89612293Y-138875776D02*
X89986214Y-138880329D01*
X90370125Y-140103690D01*
X90431440Y-140299537D01*
X90489511Y-140485915D01*
X90543572Y-140660318D01*
X90592860Y-140820239D01*
X90636612Y-140963172D01*
X90674063Y-141086608D01*
X90704450Y-141188042D01*
X90727009Y-141264967D01*
X90740976Y-141314877D01*
X90745587Y-141335263D01*
X90745496Y-141335590D01*
X90726605Y-141338346D01*
X90679440Y-141340733D01*
X90609594Y-141342594D01*
X90522659Y-141343775D01*
X90436975Y-141344129D01*
X90136993Y-141344129D01*
X90093949Y-141204429D01*
X90069811Y-141125724D01*
X90040541Y-141029747D01*
X90010756Y-140931659D01*
X89995947Y-140882696D01*
X89940990Y-140700662D01*
X89252955Y-140700662D01*
X89234439Y-140772629D01*
X89223102Y-140814761D01*
X89204591Y-140881405D01*
X89181155Y-140964543D01*
X89155047Y-141056157D01*
X89145295Y-141090129D01*
X89074668Y-141335663D01*
X88782568Y-141340296D01*
X88663611Y-141341197D01*
X88574703Y-141339697D01*
X88516991Y-141335845D01*
X88491624Y-141329689D01*
X88490468Y-141327702D01*
X88495268Y-141310019D01*
X88509043Y-141263030D01*
X88530857Y-141189811D01*
X88559775Y-141093441D01*
X88594861Y-140976996D01*
X88635178Y-140843555D01*
X88679790Y-140696193D01*
X88727762Y-140537990D01*
X88778158Y-140372022D01*
X88812298Y-140259727D01*
X89342943Y-140259727D01*
X89351264Y-140267394D01*
X89374017Y-140272463D01*
X89415848Y-140275457D01*
X89481404Y-140276902D01*
X89575332Y-140277322D01*
X89595846Y-140277329D01*
X89858180Y-140277329D01*
X89783582Y-140027563D01*
X89751513Y-139918357D01*
X89717444Y-139799275D01*
X89685184Y-139683816D01*
X89658547Y-139585474D01*
X89655681Y-139574596D01*
X89634367Y-139495689D01*
X89615135Y-139428775D01*
X89600024Y-139380668D01*
X89591076Y-139358183D01*
X89590791Y-139357811D01*
X89581877Y-139365735D01*
X89569735Y-139399624D01*
X89557260Y-139450944D01*
X89547054Y-139495545D01*
X89530111Y-139564039D01*
X89508056Y-139650342D01*
X89482510Y-139748372D01*
X89455097Y-139852044D01*
X89427438Y-139955277D01*
X89401156Y-140051985D01*
X89377875Y-140136087D01*
X89359216Y-140201498D01*
X89346803Y-140242136D01*
X89344407Y-140248935D01*
X89342943Y-140259727D01*
X88812298Y-140259727D01*
X88830041Y-140201366D01*
X88882476Y-140029100D01*
X88934527Y-139858301D01*
X88985257Y-139692048D01*
X89033731Y-139533416D01*
X89079013Y-139385483D01*
X89120166Y-139251328D01*
X89156256Y-139134026D01*
X89186345Y-139036657D01*
X89209498Y-138962296D01*
X89220761Y-138926576D01*
X89238372Y-138871222D01*
X89612293Y-138875776D01*
D11*
X82326001Y-144652196D02*
X73526001Y-144652196D01*
X84071001Y-147822196D02*
X84071001Y-148872196D01*
X71781001Y-147822196D02*
X71781001Y-148872196D01*
X82326001Y-144652196D02*
X82326001Y-143897196D01*
X68686001Y-141542196D02*
X64186001Y-141542196D01*
X69936001Y-145542196D02*
X69936001Y-144042196D01*
X64186001Y-148042196D02*
X68686001Y-148042196D01*
X62936001Y-144042196D02*
X62936001Y-145542196D01*
X95106001Y-115494131D02*
X95106001Y-120246131D01*
X105166001Y-117870131D02*
G75*
G03*
X105166001Y-117870131I-5000000J0D01*
G01*
X105755999Y-117874872D02*
G75*
G02*
X95106001Y-120245947I-5589998J4741D01*
G01*
X105755999Y-117865390D02*
G75*
G03*
X95106001Y-115494315I-5589998J-4741D01*
G01*
X95106001Y-104064131D02*
X95106001Y-108816131D01*
X105166001Y-106440131D02*
G75*
G03*
X105166001Y-106440131I-5000000J0D01*
G01*
X105755999Y-106444872D02*
G75*
G02*
X95106001Y-108815947I-5589998J4741D01*
G01*
X105755999Y-106435390D02*
G75*
G03*
X95106001Y-104064315I-5589998J-4741D01*
G01*
X78596001Y-104064131D02*
X78596001Y-108816131D01*
X88656001Y-106440131D02*
G75*
G03*
X88656001Y-106440131I-5000000J0D01*
G01*
X89245999Y-106444872D02*
G75*
G02*
X78596001Y-108815947I-5589998J4741D01*
G01*
X89245999Y-106435390D02*
G75*
G03*
X78596001Y-104064315I-5589998J-4741D01*
G01*
X67166001Y-104064131D02*
X67166001Y-108816131D01*
X77226001Y-106440131D02*
G75*
G03*
X77226001Y-106440131I-5000000J0D01*
G01*
X77815999Y-106444872D02*
G75*
G02*
X67166001Y-108815947I-5589998J4741D01*
G01*
X77815999Y-106435390D02*
G75*
G03*
X67166001Y-104064315I-5589998J-4741D01*
G01*
X50656001Y-115494131D02*
X50656001Y-120246131D01*
X60716001Y-117870131D02*
G75*
G03*
X60716001Y-117870131I-5000000J0D01*
G01*
X61305999Y-117874872D02*
G75*
G02*
X50656001Y-120245947I-5589998J4741D01*
G01*
X61305999Y-117865390D02*
G75*
G03*
X50656001Y-115494315I-5589998J-4741D01*
G01*
X50656001Y-104064131D02*
X50656001Y-108816131D01*
X60716001Y-106440131D02*
G75*
G03*
X60716001Y-106440131I-5000000J0D01*
G01*
X61305999Y-106444872D02*
G75*
G02*
X50656001Y-108815947I-5589998J4741D01*
G01*
X61305999Y-106435390D02*
G75*
G03*
X50656001Y-104064315I-5589998J-4741D01*
G01*
D12*
G36*
X77766351Y-113486267D02*
G01*
X77853209Y-113488151D01*
X77921204Y-113492221D01*
X77977834Y-113499151D01*
X78030596Y-113509617D01*
X78086988Y-113524294D01*
X78090555Y-113525296D01*
X78155384Y-113545792D01*
X78206741Y-113566205D01*
X78236482Y-113583129D01*
X78240427Y-113587950D01*
X78239544Y-113612204D01*
X78230841Y-113662094D01*
X78215735Y-113730676D01*
X78195643Y-113811003D01*
X78192473Y-113822939D01*
X78167696Y-113912395D01*
X78148555Y-113972997D01*
X78133341Y-114008952D01*
X78120341Y-114024468D01*
X78110334Y-114024969D01*
X77992134Y-113988735D01*
X77856118Y-113964215D01*
X77713597Y-113952230D01*
X77575879Y-113953601D01*
X77454271Y-113969149D01*
X77427576Y-113975383D01*
X77279845Y-114029909D01*
X77153638Y-114110165D01*
X77050337Y-114214654D01*
X76971323Y-114341883D01*
X76917978Y-114490354D01*
X76907199Y-114538746D01*
X76894973Y-114640594D01*
X76892998Y-114756682D01*
X76900524Y-114875171D01*
X76916800Y-114984218D01*
X76940973Y-115071715D01*
X77010650Y-115213289D01*
X77101610Y-115328704D01*
X77214020Y-115418062D01*
X77348046Y-115481466D01*
X77503855Y-115519018D01*
X77681615Y-115530822D01*
X77687001Y-115530782D01*
X77808955Y-115524803D01*
X77929503Y-115510230D01*
X78037391Y-115488778D01*
X78111940Y-115465956D01*
X78124596Y-115466275D01*
X78135837Y-115481236D01*
X78147350Y-115515705D01*
X78160819Y-115574551D01*
X78175440Y-115649359D01*
X78193464Y-115746834D01*
X78204780Y-115816436D01*
X78209197Y-115863526D01*
X78206521Y-115893465D01*
X78196560Y-115911613D01*
X78179121Y-115923332D01*
X78165368Y-115929351D01*
X78086560Y-115953825D01*
X77982199Y-115974793D01*
X77860480Y-115991586D01*
X77729598Y-116003532D01*
X77597749Y-116009960D01*
X77473127Y-116010200D01*
X77363927Y-116003579D01*
X77322934Y-115998328D01*
X77118431Y-115952063D01*
X76932237Y-115880569D01*
X76766424Y-115785245D01*
X76623068Y-115667492D01*
X76504241Y-115528711D01*
X76421167Y-115389397D01*
X76370609Y-115277991D01*
X76334426Y-115174816D01*
X76310589Y-115070193D01*
X76297067Y-114954444D01*
X76291832Y-114817890D01*
X76291574Y-114771331D01*
X76296026Y-114617065D01*
X76310910Y-114484866D01*
X76338583Y-114363910D01*
X76381404Y-114243375D01*
X76429926Y-114136331D01*
X76500182Y-114020246D01*
X76595204Y-113903560D01*
X76706974Y-113794166D01*
X76827476Y-113699960D01*
X76941934Y-113632118D01*
X77051222Y-113581429D01*
X77150186Y-113543567D01*
X77247167Y-113516818D01*
X77350507Y-113499465D01*
X77468547Y-113489795D01*
X77609629Y-113486091D01*
X77653134Y-113485892D01*
X77766351Y-113486267D01*
G37*
X77766351Y-113486267D02*
X77853209Y-113488151D01*
X77921204Y-113492221D01*
X77977834Y-113499151D01*
X78030596Y-113509617D01*
X78086988Y-113524294D01*
X78090555Y-113525296D01*
X78155384Y-113545792D01*
X78206741Y-113566205D01*
X78236482Y-113583129D01*
X78240427Y-113587950D01*
X78239544Y-113612204D01*
X78230841Y-113662094D01*
X78215735Y-113730676D01*
X78195643Y-113811003D01*
X78192473Y-113822939D01*
X78167696Y-113912395D01*
X78148555Y-113972997D01*
X78133341Y-114008952D01*
X78120341Y-114024468D01*
X78110334Y-114024969D01*
X77992134Y-113988735D01*
X77856118Y-113964215D01*
X77713597Y-113952230D01*
X77575879Y-113953601D01*
X77454271Y-113969149D01*
X77427576Y-113975383D01*
X77279845Y-114029909D01*
X77153638Y-114110165D01*
X77050337Y-114214654D01*
X76971323Y-114341883D01*
X76917978Y-114490354D01*
X76907199Y-114538746D01*
X76894973Y-114640594D01*
X76892998Y-114756682D01*
X76900524Y-114875171D01*
X76916800Y-114984218D01*
X76940973Y-115071715D01*
X77010650Y-115213289D01*
X77101610Y-115328704D01*
X77214020Y-115418062D01*
X77348046Y-115481466D01*
X77503855Y-115519018D01*
X77681615Y-115530822D01*
X77687001Y-115530782D01*
X77808955Y-115524803D01*
X77929503Y-115510230D01*
X78037391Y-115488778D01*
X78111940Y-115465956D01*
X78124596Y-115466275D01*
X78135837Y-115481236D01*
X78147350Y-115515705D01*
X78160819Y-115574551D01*
X78175440Y-115649359D01*
X78193464Y-115746834D01*
X78204780Y-115816436D01*
X78209197Y-115863526D01*
X78206521Y-115893465D01*
X78196560Y-115911613D01*
X78179121Y-115923332D01*
X78165368Y-115929351D01*
X78086560Y-115953825D01*
X77982199Y-115974793D01*
X77860480Y-115991586D01*
X77729598Y-116003532D01*
X77597749Y-116009960D01*
X77473127Y-116010200D01*
X77363927Y-116003579D01*
X77322934Y-115998328D01*
X77118431Y-115952063D01*
X76932237Y-115880569D01*
X76766424Y-115785245D01*
X76623068Y-115667492D01*
X76504241Y-115528711D01*
X76421167Y-115389397D01*
X76370609Y-115277991D01*
X76334426Y-115174816D01*
X76310589Y-115070193D01*
X76297067Y-114954444D01*
X76291832Y-114817890D01*
X76291574Y-114771331D01*
X76296026Y-114617065D01*
X76310910Y-114484866D01*
X76338583Y-114363910D01*
X76381404Y-114243375D01*
X76429926Y-114136331D01*
X76500182Y-114020246D01*
X76595204Y-113903560D01*
X76706974Y-113794166D01*
X76827476Y-113699960D01*
X76941934Y-113632118D01*
X77051222Y-113581429D01*
X77150186Y-113543567D01*
X77247167Y-113516818D01*
X77350507Y-113499465D01*
X77468547Y-113489795D01*
X77609629Y-113486091D01*
X77653134Y-113485892D01*
X77766351Y-113486267D01*
G36*
X70778201Y-114458064D02*
G01*
X71675668Y-114458064D01*
X71675668Y-113509798D01*
X72251622Y-113509798D01*
X72247278Y-114741698D01*
X72242935Y-115973598D01*
X71959301Y-115978240D01*
X71675668Y-115982883D01*
X71675668Y-114949131D01*
X70778698Y-114949131D01*
X70774216Y-115461364D01*
X70769735Y-115973598D01*
X70486101Y-115978240D01*
X70202468Y-115982883D01*
X70202468Y-113509798D01*
X70778201Y-113509798D01*
X70778201Y-114458064D01*
G37*
X70778201Y-114458064D02*
X71675668Y-114458064D01*
X71675668Y-113509798D01*
X72251622Y-113509798D01*
X72247278Y-114741698D01*
X72242935Y-115973598D01*
X71959301Y-115978240D01*
X71675668Y-115982883D01*
X71675668Y-114949131D01*
X70778698Y-114949131D01*
X70774216Y-115461364D01*
X70769735Y-115973598D01*
X70486101Y-115978240D01*
X70202468Y-115982883D01*
X70202468Y-113509798D01*
X70778201Y-113509798D01*
X70778201Y-114458064D01*
G36*
X74249534Y-113983931D02*
G01*
X73284335Y-113983931D01*
X73284335Y-114474998D01*
X74198734Y-114474998D01*
X74198734Y-114932198D01*
X73284335Y-114932198D01*
X73284335Y-115507931D01*
X74300335Y-115507931D01*
X74300335Y-115982064D01*
X72725535Y-115982064D01*
X72725535Y-113509798D01*
X74249534Y-113509798D01*
X74249534Y-113983931D01*
G37*
X74249534Y-113983931D02*
X73284335Y-113983931D01*
X73284335Y-114474998D01*
X74198734Y-114474998D01*
X74198734Y-114932198D01*
X73284335Y-114932198D01*
X73284335Y-115507931D01*
X74300335Y-115507931D01*
X74300335Y-115982064D01*
X72725535Y-115982064D01*
X72725535Y-113509798D01*
X74249534Y-113509798D01*
X74249534Y-113983931D01*
G36*
X75248601Y-115490998D02*
G01*
X76231664Y-115490998D01*
X76222268Y-115973598D01*
X74672868Y-115982406D01*
X74672868Y-113509798D01*
X75248601Y-113509798D01*
X75248601Y-115490998D01*
G37*
X75248601Y-115490998D02*
X76231664Y-115490998D01*
X76222268Y-115973598D01*
X74672868Y-115982406D01*
X74672868Y-113509798D01*
X75248601Y-113509798D01*
X75248601Y-115490998D01*
G36*
X80108468Y-113983931D02*
G01*
X79143268Y-113983931D01*
X79143268Y-114474998D01*
X80057668Y-114474998D01*
X80057668Y-114932198D01*
X79143268Y-114932198D01*
X79143268Y-115507931D01*
X80159268Y-115507931D01*
X80159268Y-115982064D01*
X78584468Y-115982064D01*
X78584468Y-113509798D01*
X80108468Y-113509798D01*
X80108468Y-113983931D01*
G37*
X80108468Y-113983931D02*
X79143268Y-113983931D01*
X79143268Y-114474998D01*
X80057668Y-114474998D01*
X80057668Y-114932198D01*
X79143268Y-114932198D01*
X79143268Y-115507931D01*
X80159268Y-115507931D01*
X80159268Y-115982064D01*
X78584468Y-115982064D01*
X78584468Y-113509798D01*
X80108468Y-113509798D01*
X80108468Y-113983931D01*
G36*
X81107535Y-115490998D02*
G01*
X82090598Y-115490998D01*
X82085899Y-115732298D01*
X82081201Y-115973598D01*
X80531801Y-115982406D01*
X80531801Y-113509798D01*
X81107535Y-113509798D01*
X81107535Y-115490998D01*
G37*
X81107535Y-115490998D02*
X82090598Y-115490998D01*
X82085899Y-115732298D01*
X82081201Y-115973598D01*
X80531801Y-115982406D01*
X80531801Y-113509798D01*
X81107535Y-113509798D01*
X81107535Y-115490998D01*
G36*
X83935401Y-113983931D02*
G01*
X82970201Y-113983931D01*
X82970201Y-114474998D01*
X83884601Y-114474998D01*
X83884601Y-114932198D01*
X82970201Y-114932198D01*
X82970201Y-115507931D01*
X83986201Y-115507931D01*
X83986201Y-115982064D01*
X82394468Y-115982064D01*
X82394468Y-113509798D01*
X83935401Y-113509798D01*
X83935401Y-113983931D01*
G37*
X83935401Y-113983931D02*
X82970201Y-113983931D01*
X82970201Y-114474998D01*
X83884601Y-114474998D01*
X83884601Y-114932198D01*
X82970201Y-114932198D01*
X82970201Y-115507931D01*
X83986201Y-115507931D01*
X83986201Y-115982064D01*
X82394468Y-115982064D01*
X82394468Y-113509798D01*
X83935401Y-113509798D01*
X83935401Y-113983931D01*
G36*
X86085934Y-113983931D02*
G01*
X85425805Y-113983931D01*
X85421437Y-114978764D01*
X85417068Y-115973598D01*
X85133434Y-115978240D01*
X84849801Y-115982883D01*
X84849801Y-113983931D01*
X84172468Y-113983931D01*
X84172468Y-113509798D01*
X86085934Y-113509798D01*
X86085934Y-113983931D01*
G37*
X86085934Y-113983931D02*
X85425805Y-113983931D01*
X85421437Y-114978764D01*
X85417068Y-115973598D01*
X85133434Y-115978240D01*
X84849801Y-115982883D01*
X84849801Y-113983931D01*
X84172468Y-113983931D01*
X84172468Y-113509798D01*
X86085934Y-113509798D01*
X86085934Y-113983931D01*
G36*
X86932601Y-114579022D02*
G01*
X87125042Y-114294176D01*
X87198978Y-114184941D01*
X87280949Y-114064172D01*
X87363680Y-113942565D01*
X87439896Y-113830818D01*
X87485744Y-113763798D01*
X87654004Y-113518264D01*
X88006030Y-113513683D01*
X88129184Y-113512829D01*
X88227710Y-113513721D01*
X88299235Y-113516278D01*
X88341386Y-113520422D01*
X88352295Y-113525320D01*
X88340877Y-113541916D01*
X88310879Y-113582087D01*
X88264649Y-113642783D01*
X88204535Y-113720951D01*
X88132884Y-113813540D01*
X88052043Y-113917498D01*
X87964359Y-114029774D01*
X87958915Y-114036729D01*
X87870770Y-114149838D01*
X87789345Y-114255284D01*
X87717000Y-114349943D01*
X87656091Y-114430685D01*
X87608978Y-114494385D01*
X87578018Y-114537915D01*
X87565569Y-114558148D01*
X87565475Y-114558492D01*
X87572918Y-114577879D01*
X87596512Y-114623104D01*
X87634546Y-114691232D01*
X87685311Y-114779327D01*
X87747098Y-114884453D01*
X87818195Y-115003674D01*
X87896894Y-115134055D01*
X87980383Y-115270864D01*
X88064627Y-115408837D01*
X88142766Y-115538075D01*
X88213124Y-115655714D01*
X88274024Y-115758893D01*
X88323791Y-115844747D01*
X88360749Y-115910415D01*
X88383222Y-115953034D01*
X88389533Y-115969740D01*
X88389525Y-115969749D01*
X88369706Y-115973617D01*
X88321501Y-115976543D01*
X88250382Y-115978384D01*
X88161818Y-115979002D01*
X88061283Y-115978258D01*
X88058337Y-115978216D01*
X87738735Y-115973598D01*
X87441502Y-115453485D01*
X87372439Y-115333051D01*
X87308586Y-115222497D01*
X87251892Y-115125136D01*
X87204305Y-115044283D01*
X87167776Y-114983250D01*
X87144253Y-114945353D01*
X87135801Y-114933765D01*
X87122229Y-114946286D01*
X87092891Y-114979532D01*
X87052917Y-115027576D01*
X87030027Y-115055944D01*
X86932719Y-115177731D01*
X86932660Y-115579898D01*
X86932601Y-115982064D01*
X86373801Y-115982064D01*
X86373801Y-113509798D01*
X86932601Y-113509798D01*
X86932601Y-114579022D01*
G37*
X86932601Y-114579022D02*
X87125042Y-114294176D01*
X87198978Y-114184941D01*
X87280949Y-114064172D01*
X87363680Y-113942565D01*
X87439896Y-113830818D01*
X87485744Y-113763798D01*
X87654004Y-113518264D01*
X88006030Y-113513683D01*
X88129184Y-113512829D01*
X88227710Y-113513721D01*
X88299235Y-113516278D01*
X88341386Y-113520422D01*
X88352295Y-113525320D01*
X88340877Y-113541916D01*
X88310879Y-113582087D01*
X88264649Y-113642783D01*
X88204535Y-113720951D01*
X88132884Y-113813540D01*
X88052043Y-113917498D01*
X87964359Y-114029774D01*
X87958915Y-114036729D01*
X87870770Y-114149838D01*
X87789345Y-114255284D01*
X87717000Y-114349943D01*
X87656091Y-114430685D01*
X87608978Y-114494385D01*
X87578018Y-114537915D01*
X87565569Y-114558148D01*
X87565475Y-114558492D01*
X87572918Y-114577879D01*
X87596512Y-114623104D01*
X87634546Y-114691232D01*
X87685311Y-114779327D01*
X87747098Y-114884453D01*
X87818195Y-115003674D01*
X87896894Y-115134055D01*
X87980383Y-115270864D01*
X88064627Y-115408837D01*
X88142766Y-115538075D01*
X88213124Y-115655714D01*
X88274024Y-115758893D01*
X88323791Y-115844747D01*
X88360749Y-115910415D01*
X88383222Y-115953034D01*
X88389533Y-115969740D01*
X88389525Y-115969749D01*
X88369706Y-115973617D01*
X88321501Y-115976543D01*
X88250382Y-115978384D01*
X88161818Y-115979002D01*
X88061283Y-115978258D01*
X88058337Y-115978216D01*
X87738735Y-115973598D01*
X87441502Y-115453485D01*
X87372439Y-115333051D01*
X87308586Y-115222497D01*
X87251892Y-115125136D01*
X87204305Y-115044283D01*
X87167776Y-114983250D01*
X87144253Y-114945353D01*
X87135801Y-114933765D01*
X87122229Y-114946286D01*
X87092891Y-114979532D01*
X87052917Y-115027576D01*
X87030027Y-115055944D01*
X86932719Y-115177731D01*
X86932660Y-115579898D01*
X86932601Y-115982064D01*
X86373801Y-115982064D01*
X86373801Y-113509798D01*
X86932601Y-113509798D01*
X86932601Y-114579022D01*
G36*
X89612293Y-113513711D02*
G01*
X89986214Y-113518264D01*
X90370125Y-114741625D01*
X90431440Y-114937472D01*
X90489511Y-115123850D01*
X90543572Y-115298253D01*
X90592860Y-115458174D01*
X90636612Y-115601107D01*
X90674063Y-115724543D01*
X90704450Y-115825977D01*
X90727009Y-115902902D01*
X90740976Y-115952812D01*
X90745587Y-115973198D01*
X90745496Y-115973525D01*
X90726605Y-115976281D01*
X90679440Y-115978668D01*
X90609594Y-115980529D01*
X90522659Y-115981710D01*
X90436975Y-115982064D01*
X90136993Y-115982064D01*
X90093949Y-115842364D01*
X90069811Y-115763659D01*
X90040541Y-115667682D01*
X90010756Y-115569594D01*
X89995947Y-115520631D01*
X89940990Y-115338597D01*
X89252955Y-115338597D01*
X89234439Y-115410564D01*
X89223102Y-115452696D01*
X89204591Y-115519340D01*
X89181155Y-115602478D01*
X89155047Y-115694092D01*
X89145295Y-115728064D01*
X89074668Y-115973598D01*
X88782568Y-115978231D01*
X88663611Y-115979132D01*
X88574703Y-115977632D01*
X88516991Y-115973780D01*
X88491624Y-115967624D01*
X88490468Y-115965637D01*
X88495268Y-115947954D01*
X88509043Y-115900965D01*
X88530857Y-115827746D01*
X88559775Y-115731376D01*
X88594861Y-115614931D01*
X88635178Y-115481490D01*
X88679790Y-115334128D01*
X88727762Y-115175925D01*
X88778158Y-115009957D01*
X88812298Y-114897662D01*
X89342943Y-114897662D01*
X89351264Y-114905329D01*
X89374017Y-114910398D01*
X89415848Y-114913392D01*
X89481404Y-114914837D01*
X89575332Y-114915257D01*
X89595846Y-114915264D01*
X89858180Y-114915264D01*
X89783582Y-114665498D01*
X89751513Y-114556292D01*
X89717444Y-114437210D01*
X89685184Y-114321751D01*
X89658547Y-114223409D01*
X89655681Y-114212531D01*
X89634367Y-114133624D01*
X89615135Y-114066710D01*
X89600024Y-114018603D01*
X89591076Y-113996118D01*
X89590791Y-113995746D01*
X89581877Y-114003670D01*
X89569735Y-114037559D01*
X89557260Y-114088879D01*
X89547054Y-114133480D01*
X89530111Y-114201974D01*
X89508056Y-114288277D01*
X89482510Y-114386307D01*
X89455097Y-114489979D01*
X89427438Y-114593212D01*
X89401156Y-114689920D01*
X89377875Y-114774022D01*
X89359216Y-114839433D01*
X89346803Y-114880071D01*
X89344407Y-114886870D01*
X89342943Y-114897662D01*
X88812298Y-114897662D01*
X88830041Y-114839301D01*
X88882476Y-114667035D01*
X88934527Y-114496236D01*
X88985257Y-114329983D01*
X89033731Y-114171351D01*
X89079013Y-114023418D01*
X89120166Y-113889263D01*
X89156256Y-113771961D01*
X89186345Y-113674592D01*
X89209498Y-113600231D01*
X89220761Y-113564511D01*
X89238372Y-113509157D01*
X89612293Y-113513711D01*
G37*
X89612293Y-113513711D02*
X89986214Y-113518264D01*
X90370125Y-114741625D01*
X90431440Y-114937472D01*
X90489511Y-115123850D01*
X90543572Y-115298253D01*
X90592860Y-115458174D01*
X90636612Y-115601107D01*
X90674063Y-115724543D01*
X90704450Y-115825977D01*
X90727009Y-115902902D01*
X90740976Y-115952812D01*
X90745587Y-115973198D01*
X90745496Y-115973525D01*
X90726605Y-115976281D01*
X90679440Y-115978668D01*
X90609594Y-115980529D01*
X90522659Y-115981710D01*
X90436975Y-115982064D01*
X90136993Y-115982064D01*
X90093949Y-115842364D01*
X90069811Y-115763659D01*
X90040541Y-115667682D01*
X90010756Y-115569594D01*
X89995947Y-115520631D01*
X89940990Y-115338597D01*
X89252955Y-115338597D01*
X89234439Y-115410564D01*
X89223102Y-115452696D01*
X89204591Y-115519340D01*
X89181155Y-115602478D01*
X89155047Y-115694092D01*
X89145295Y-115728064D01*
X89074668Y-115973598D01*
X88782568Y-115978231D01*
X88663611Y-115979132D01*
X88574703Y-115977632D01*
X88516991Y-115973780D01*
X88491624Y-115967624D01*
X88490468Y-115965637D01*
X88495268Y-115947954D01*
X88509043Y-115900965D01*
X88530857Y-115827746D01*
X88559775Y-115731376D01*
X88594861Y-115614931D01*
X88635178Y-115481490D01*
X88679790Y-115334128D01*
X88727762Y-115175925D01*
X88778158Y-115009957D01*
X88812298Y-114897662D01*
X89342943Y-114897662D01*
X89351264Y-114905329D01*
X89374017Y-114910398D01*
X89415848Y-114913392D01*
X89481404Y-114914837D01*
X89575332Y-114915257D01*
X89595846Y-114915264D01*
X89858180Y-114915264D01*
X89783582Y-114665498D01*
X89751513Y-114556292D01*
X89717444Y-114437210D01*
X89685184Y-114321751D01*
X89658547Y-114223409D01*
X89655681Y-114212531D01*
X89634367Y-114133624D01*
X89615135Y-114066710D01*
X89600024Y-114018603D01*
X89591076Y-113996118D01*
X89590791Y-113995746D01*
X89581877Y-114003670D01*
X89569735Y-114037559D01*
X89557260Y-114088879D01*
X89547054Y-114133480D01*
X89530111Y-114201974D01*
X89508056Y-114288277D01*
X89482510Y-114386307D01*
X89455097Y-114489979D01*
X89427438Y-114593212D01*
X89401156Y-114689920D01*
X89377875Y-114774022D01*
X89359216Y-114839433D01*
X89346803Y-114880071D01*
X89344407Y-114886870D01*
X89342943Y-114897662D01*
X88812298Y-114897662D01*
X88830041Y-114839301D01*
X88882476Y-114667035D01*
X88934527Y-114496236D01*
X88985257Y-114329983D01*
X89033731Y-114171351D01*
X89079013Y-114023418D01*
X89120166Y-113889263D01*
X89156256Y-113771961D01*
X89186345Y-113674592D01*
X89209498Y-113600231D01*
X89220761Y-113564511D01*
X89238372Y-113509157D01*
X89612293Y-113513711D01*
D11*
X82326001Y-119290131D02*
X73526001Y-119290131D01*
X84071001Y-122460131D02*
X84071001Y-123510131D01*
X71781001Y-122460131D02*
X71781001Y-123510131D01*
X82326001Y-119290131D02*
X82326001Y-118535131D01*
X68686001Y-116180131D02*
X64186001Y-116180131D01*
X69936001Y-120180131D02*
X69936001Y-118680131D01*
X64186001Y-122680131D02*
X68686001Y-122680131D01*
X62936001Y-118680131D02*
X62936001Y-120180131D01*
X95106001Y-90132066D02*
X95106001Y-94884066D01*
X105166001Y-92508066D02*
G75*
G03*
X105166001Y-92508066I-5000000J0D01*
G01*
X105755999Y-92512807D02*
G75*
G02*
X95106001Y-94883882I-5589998J4741D01*
G01*
X105755999Y-92503325D02*
G75*
G03*
X95106001Y-90132250I-5589998J-4741D01*
G01*
X95106001Y-78702066D02*
X95106001Y-83454066D01*
X105166001Y-81078066D02*
G75*
G03*
X105166001Y-81078066I-5000000J0D01*
G01*
X105755999Y-81082807D02*
G75*
G02*
X95106001Y-83453882I-5589998J4741D01*
G01*
X105755999Y-81073325D02*
G75*
G03*
X95106001Y-78702250I-5589998J-4741D01*
G01*
X78596001Y-78702066D02*
X78596001Y-83454066D01*
X88656001Y-81078066D02*
G75*
G03*
X88656001Y-81078066I-5000000J0D01*
G01*
X89245999Y-81082807D02*
G75*
G02*
X78596001Y-83453882I-5589998J4741D01*
G01*
X89245999Y-81073325D02*
G75*
G03*
X78596001Y-78702250I-5589998J-4741D01*
G01*
X67166001Y-78702066D02*
X67166001Y-83454066D01*
X77226001Y-81078066D02*
G75*
G03*
X77226001Y-81078066I-5000000J0D01*
G01*
X77815999Y-81082807D02*
G75*
G02*
X67166001Y-83453882I-5589998J4741D01*
G01*
X77815999Y-81073325D02*
G75*
G03*
X67166001Y-78702250I-5589998J-4741D01*
G01*
X50656001Y-90132066D02*
X50656001Y-94884066D01*
X60716001Y-92508066D02*
G75*
G03*
X60716001Y-92508066I-5000000J0D01*
G01*
X61305999Y-92512807D02*
G75*
G02*
X50656001Y-94883882I-5589998J4741D01*
G01*
X61305999Y-92503325D02*
G75*
G03*
X50656001Y-90132250I-5589998J-4741D01*
G01*
X50656001Y-78702066D02*
X50656001Y-83454066D01*
X60716001Y-81078066D02*
G75*
G03*
X60716001Y-81078066I-5000000J0D01*
G01*
X61305999Y-81082807D02*
G75*
G02*
X50656001Y-83453882I-5589998J4741D01*
G01*
X61305999Y-81073325D02*
G75*
G03*
X50656001Y-78702250I-5589998J-4741D01*
G01*
D12*
G36*
X77766351Y-88124202D02*
G01*
X77853209Y-88126086D01*
X77921204Y-88130156D01*
X77977834Y-88137086D01*
X78030596Y-88147552D01*
X78086988Y-88162229D01*
X78090555Y-88163231D01*
X78155384Y-88183727D01*
X78206741Y-88204140D01*
X78236482Y-88221064D01*
X78240427Y-88225885D01*
X78239544Y-88250139D01*
X78230841Y-88300029D01*
X78215735Y-88368611D01*
X78195643Y-88448938D01*
X78192473Y-88460874D01*
X78167696Y-88550330D01*
X78148555Y-88610932D01*
X78133341Y-88646887D01*
X78120341Y-88662403D01*
X78110334Y-88662904D01*
X77992134Y-88626670D01*
X77856118Y-88602150D01*
X77713597Y-88590165D01*
X77575879Y-88591536D01*
X77454271Y-88607084D01*
X77427576Y-88613318D01*
X77279845Y-88667844D01*
X77153638Y-88748100D01*
X77050337Y-88852589D01*
X76971323Y-88979818D01*
X76917978Y-89128289D01*
X76907199Y-89176681D01*
X76894973Y-89278529D01*
X76892998Y-89394617D01*
X76900524Y-89513106D01*
X76916800Y-89622153D01*
X76940973Y-89709650D01*
X77010650Y-89851224D01*
X77101610Y-89966639D01*
X77214020Y-90055997D01*
X77348046Y-90119401D01*
X77503855Y-90156953D01*
X77681615Y-90168757D01*
X77687001Y-90168717D01*
X77808955Y-90162738D01*
X77929503Y-90148165D01*
X78037391Y-90126713D01*
X78111940Y-90103891D01*
X78124596Y-90104210D01*
X78135837Y-90119171D01*
X78147350Y-90153640D01*
X78160819Y-90212486D01*
X78175440Y-90287294D01*
X78193464Y-90384769D01*
X78204780Y-90454371D01*
X78209197Y-90501461D01*
X78206521Y-90531400D01*
X78196560Y-90549548D01*
X78179121Y-90561267D01*
X78165368Y-90567286D01*
X78086560Y-90591760D01*
X77982199Y-90612728D01*
X77860480Y-90629521D01*
X77729598Y-90641467D01*
X77597749Y-90647895D01*
X77473127Y-90648135D01*
X77363927Y-90641514D01*
X77322934Y-90636263D01*
X77118431Y-90589998D01*
X76932237Y-90518504D01*
X76766424Y-90423180D01*
X76623068Y-90305427D01*
X76504241Y-90166646D01*
X76421167Y-90027332D01*
X76370609Y-89915926D01*
X76334426Y-89812751D01*
X76310589Y-89708128D01*
X76297067Y-89592379D01*
X76291832Y-89455825D01*
X76291574Y-89409266D01*
X76296026Y-89255000D01*
X76310910Y-89122801D01*
X76338583Y-89001845D01*
X76381404Y-88881310D01*
X76429926Y-88774266D01*
X76500182Y-88658181D01*
X76595204Y-88541495D01*
X76706974Y-88432101D01*
X76827476Y-88337895D01*
X76941934Y-88270053D01*
X77051222Y-88219364D01*
X77150186Y-88181502D01*
X77247167Y-88154753D01*
X77350507Y-88137400D01*
X77468547Y-88127730D01*
X77609629Y-88124026D01*
X77653134Y-88123827D01*
X77766351Y-88124202D01*
G37*
X77766351Y-88124202D02*
X77853209Y-88126086D01*
X77921204Y-88130156D01*
X77977834Y-88137086D01*
X78030596Y-88147552D01*
X78086988Y-88162229D01*
X78090555Y-88163231D01*
X78155384Y-88183727D01*
X78206741Y-88204140D01*
X78236482Y-88221064D01*
X78240427Y-88225885D01*
X78239544Y-88250139D01*
X78230841Y-88300029D01*
X78215735Y-88368611D01*
X78195643Y-88448938D01*
X78192473Y-88460874D01*
X78167696Y-88550330D01*
X78148555Y-88610932D01*
X78133341Y-88646887D01*
X78120341Y-88662403D01*
X78110334Y-88662904D01*
X77992134Y-88626670D01*
X77856118Y-88602150D01*
X77713597Y-88590165D01*
X77575879Y-88591536D01*
X77454271Y-88607084D01*
X77427576Y-88613318D01*
X77279845Y-88667844D01*
X77153638Y-88748100D01*
X77050337Y-88852589D01*
X76971323Y-88979818D01*
X76917978Y-89128289D01*
X76907199Y-89176681D01*
X76894973Y-89278529D01*
X76892998Y-89394617D01*
X76900524Y-89513106D01*
X76916800Y-89622153D01*
X76940973Y-89709650D01*
X77010650Y-89851224D01*
X77101610Y-89966639D01*
X77214020Y-90055997D01*
X77348046Y-90119401D01*
X77503855Y-90156953D01*
X77681615Y-90168757D01*
X77687001Y-90168717D01*
X77808955Y-90162738D01*
X77929503Y-90148165D01*
X78037391Y-90126713D01*
X78111940Y-90103891D01*
X78124596Y-90104210D01*
X78135837Y-90119171D01*
X78147350Y-90153640D01*
X78160819Y-90212486D01*
X78175440Y-90287294D01*
X78193464Y-90384769D01*
X78204780Y-90454371D01*
X78209197Y-90501461D01*
X78206521Y-90531400D01*
X78196560Y-90549548D01*
X78179121Y-90561267D01*
X78165368Y-90567286D01*
X78086560Y-90591760D01*
X77982199Y-90612728D01*
X77860480Y-90629521D01*
X77729598Y-90641467D01*
X77597749Y-90647895D01*
X77473127Y-90648135D01*
X77363927Y-90641514D01*
X77322934Y-90636263D01*
X77118431Y-90589998D01*
X76932237Y-90518504D01*
X76766424Y-90423180D01*
X76623068Y-90305427D01*
X76504241Y-90166646D01*
X76421167Y-90027332D01*
X76370609Y-89915926D01*
X76334426Y-89812751D01*
X76310589Y-89708128D01*
X76297067Y-89592379D01*
X76291832Y-89455825D01*
X76291574Y-89409266D01*
X76296026Y-89255000D01*
X76310910Y-89122801D01*
X76338583Y-89001845D01*
X76381404Y-88881310D01*
X76429926Y-88774266D01*
X76500182Y-88658181D01*
X76595204Y-88541495D01*
X76706974Y-88432101D01*
X76827476Y-88337895D01*
X76941934Y-88270053D01*
X77051222Y-88219364D01*
X77150186Y-88181502D01*
X77247167Y-88154753D01*
X77350507Y-88137400D01*
X77468547Y-88127730D01*
X77609629Y-88124026D01*
X77653134Y-88123827D01*
X77766351Y-88124202D01*
G36*
X70778201Y-89095999D02*
G01*
X71675668Y-89095999D01*
X71675668Y-88147733D01*
X72251622Y-88147733D01*
X72247278Y-89379633D01*
X72242935Y-90611533D01*
X71959301Y-90616175D01*
X71675668Y-90620818D01*
X71675668Y-89587066D01*
X70778698Y-89587066D01*
X70774216Y-90099299D01*
X70769735Y-90611533D01*
X70486101Y-90616175D01*
X70202468Y-90620818D01*
X70202468Y-88147733D01*
X70778201Y-88147733D01*
X70778201Y-89095999D01*
G37*
X70778201Y-89095999D02*
X71675668Y-89095999D01*
X71675668Y-88147733D01*
X72251622Y-88147733D01*
X72247278Y-89379633D01*
X72242935Y-90611533D01*
X71959301Y-90616175D01*
X71675668Y-90620818D01*
X71675668Y-89587066D01*
X70778698Y-89587066D01*
X70774216Y-90099299D01*
X70769735Y-90611533D01*
X70486101Y-90616175D01*
X70202468Y-90620818D01*
X70202468Y-88147733D01*
X70778201Y-88147733D01*
X70778201Y-89095999D01*
G36*
X74249534Y-88621866D02*
G01*
X73284335Y-88621866D01*
X73284335Y-89112933D01*
X74198734Y-89112933D01*
X74198734Y-89570133D01*
X73284335Y-89570133D01*
X73284335Y-90145866D01*
X74300335Y-90145866D01*
X74300335Y-90619999D01*
X72725535Y-90619999D01*
X72725535Y-88147733D01*
X74249534Y-88147733D01*
X74249534Y-88621866D01*
G37*
X74249534Y-88621866D02*
X73284335Y-88621866D01*
X73284335Y-89112933D01*
X74198734Y-89112933D01*
X74198734Y-89570133D01*
X73284335Y-89570133D01*
X73284335Y-90145866D01*
X74300335Y-90145866D01*
X74300335Y-90619999D01*
X72725535Y-90619999D01*
X72725535Y-88147733D01*
X74249534Y-88147733D01*
X74249534Y-88621866D01*
G36*
X75248601Y-90128933D02*
G01*
X76231664Y-90128933D01*
X76222268Y-90611533D01*
X74672868Y-90620341D01*
X74672868Y-88147733D01*
X75248601Y-88147733D01*
X75248601Y-90128933D01*
G37*
X75248601Y-90128933D02*
X76231664Y-90128933D01*
X76222268Y-90611533D01*
X74672868Y-90620341D01*
X74672868Y-88147733D01*
X75248601Y-88147733D01*
X75248601Y-90128933D01*
G36*
X80108468Y-88621866D02*
G01*
X79143268Y-88621866D01*
X79143268Y-89112933D01*
X80057668Y-89112933D01*
X80057668Y-89570133D01*
X79143268Y-89570133D01*
X79143268Y-90145866D01*
X80159268Y-90145866D01*
X80159268Y-90619999D01*
X78584468Y-90619999D01*
X78584468Y-88147733D01*
X80108468Y-88147733D01*
X80108468Y-88621866D01*
G37*
X80108468Y-88621866D02*
X79143268Y-88621866D01*
X79143268Y-89112933D01*
X80057668Y-89112933D01*
X80057668Y-89570133D01*
X79143268Y-89570133D01*
X79143268Y-90145866D01*
X80159268Y-90145866D01*
X80159268Y-90619999D01*
X78584468Y-90619999D01*
X78584468Y-88147733D01*
X80108468Y-88147733D01*
X80108468Y-88621866D01*
G36*
X81107535Y-90128933D02*
G01*
X82090598Y-90128933D01*
X82085899Y-90370233D01*
X82081201Y-90611533D01*
X80531801Y-90620341D01*
X80531801Y-88147733D01*
X81107535Y-88147733D01*
X81107535Y-90128933D01*
G37*
X81107535Y-90128933D02*
X82090598Y-90128933D01*
X82085899Y-90370233D01*
X82081201Y-90611533D01*
X80531801Y-90620341D01*
X80531801Y-88147733D01*
X81107535Y-88147733D01*
X81107535Y-90128933D01*
G36*
X83935401Y-88621866D02*
G01*
X82970201Y-88621866D01*
X82970201Y-89112933D01*
X83884601Y-89112933D01*
X83884601Y-89570133D01*
X82970201Y-89570133D01*
X82970201Y-90145866D01*
X83986201Y-90145866D01*
X83986201Y-90619999D01*
X82394468Y-90619999D01*
X82394468Y-88147733D01*
X83935401Y-88147733D01*
X83935401Y-88621866D01*
G37*
X83935401Y-88621866D02*
X82970201Y-88621866D01*
X82970201Y-89112933D01*
X83884601Y-89112933D01*
X83884601Y-89570133D01*
X82970201Y-89570133D01*
X82970201Y-90145866D01*
X83986201Y-90145866D01*
X83986201Y-90619999D01*
X82394468Y-90619999D01*
X82394468Y-88147733D01*
X83935401Y-88147733D01*
X83935401Y-88621866D01*
G36*
X86085934Y-88621866D02*
G01*
X85425805Y-88621866D01*
X85421437Y-89616699D01*
X85417068Y-90611533D01*
X85133434Y-90616175D01*
X84849801Y-90620818D01*
X84849801Y-88621866D01*
X84172468Y-88621866D01*
X84172468Y-88147733D01*
X86085934Y-88147733D01*
X86085934Y-88621866D01*
G37*
X86085934Y-88621866D02*
X85425805Y-88621866D01*
X85421437Y-89616699D01*
X85417068Y-90611533D01*
X85133434Y-90616175D01*
X84849801Y-90620818D01*
X84849801Y-88621866D01*
X84172468Y-88621866D01*
X84172468Y-88147733D01*
X86085934Y-88147733D01*
X86085934Y-88621866D01*
G36*
X86932601Y-89216957D02*
G01*
X87125042Y-88932111D01*
X87198978Y-88822876D01*
X87280949Y-88702107D01*
X87363680Y-88580500D01*
X87439896Y-88468753D01*
X87485744Y-88401733D01*
X87654004Y-88156199D01*
X88006030Y-88151618D01*
X88129184Y-88150764D01*
X88227710Y-88151656D01*
X88299235Y-88154213D01*
X88341386Y-88158357D01*
X88352295Y-88163255D01*
X88340877Y-88179851D01*
X88310879Y-88220022D01*
X88264649Y-88280718D01*
X88204535Y-88358886D01*
X88132884Y-88451475D01*
X88052043Y-88555433D01*
X87964359Y-88667709D01*
X87958915Y-88674664D01*
X87870770Y-88787773D01*
X87789345Y-88893219D01*
X87717000Y-88987878D01*
X87656091Y-89068620D01*
X87608978Y-89132320D01*
X87578018Y-89175850D01*
X87565569Y-89196083D01*
X87565475Y-89196427D01*
X87572918Y-89215814D01*
X87596512Y-89261039D01*
X87634546Y-89329167D01*
X87685311Y-89417262D01*
X87747098Y-89522388D01*
X87818195Y-89641609D01*
X87896894Y-89771990D01*
X87980383Y-89908799D01*
X88064627Y-90046772D01*
X88142766Y-90176010D01*
X88213124Y-90293649D01*
X88274024Y-90396828D01*
X88323791Y-90482682D01*
X88360749Y-90548350D01*
X88383222Y-90590969D01*
X88389533Y-90607675D01*
X88389525Y-90607684D01*
X88369706Y-90611552D01*
X88321501Y-90614478D01*
X88250382Y-90616319D01*
X88161818Y-90616937D01*
X88061283Y-90616193D01*
X88058337Y-90616151D01*
X87738735Y-90611533D01*
X87441502Y-90091420D01*
X87372439Y-89970986D01*
X87308586Y-89860432D01*
X87251892Y-89763071D01*
X87204305Y-89682218D01*
X87167776Y-89621185D01*
X87144253Y-89583288D01*
X87135801Y-89571700D01*
X87122229Y-89584221D01*
X87092891Y-89617467D01*
X87052917Y-89665511D01*
X87030027Y-89693879D01*
X86932719Y-89815666D01*
X86932660Y-90217833D01*
X86932601Y-90619999D01*
X86373801Y-90619999D01*
X86373801Y-88147733D01*
X86932601Y-88147733D01*
X86932601Y-89216957D01*
G37*
X86932601Y-89216957D02*
X87125042Y-88932111D01*
X87198978Y-88822876D01*
X87280949Y-88702107D01*
X87363680Y-88580500D01*
X87439896Y-88468753D01*
X87485744Y-88401733D01*
X87654004Y-88156199D01*
X88006030Y-88151618D01*
X88129184Y-88150764D01*
X88227710Y-88151656D01*
X88299235Y-88154213D01*
X88341386Y-88158357D01*
X88352295Y-88163255D01*
X88340877Y-88179851D01*
X88310879Y-88220022D01*
X88264649Y-88280718D01*
X88204535Y-88358886D01*
X88132884Y-88451475D01*
X88052043Y-88555433D01*
X87964359Y-88667709D01*
X87958915Y-88674664D01*
X87870770Y-88787773D01*
X87789345Y-88893219D01*
X87717000Y-88987878D01*
X87656091Y-89068620D01*
X87608978Y-89132320D01*
X87578018Y-89175850D01*
X87565569Y-89196083D01*
X87565475Y-89196427D01*
X87572918Y-89215814D01*
X87596512Y-89261039D01*
X87634546Y-89329167D01*
X87685311Y-89417262D01*
X87747098Y-89522388D01*
X87818195Y-89641609D01*
X87896894Y-89771990D01*
X87980383Y-89908799D01*
X88064627Y-90046772D01*
X88142766Y-90176010D01*
X88213124Y-90293649D01*
X88274024Y-90396828D01*
X88323791Y-90482682D01*
X88360749Y-90548350D01*
X88383222Y-90590969D01*
X88389533Y-90607675D01*
X88389525Y-90607684D01*
X88369706Y-90611552D01*
X88321501Y-90614478D01*
X88250382Y-90616319D01*
X88161818Y-90616937D01*
X88061283Y-90616193D01*
X88058337Y-90616151D01*
X87738735Y-90611533D01*
X87441502Y-90091420D01*
X87372439Y-89970986D01*
X87308586Y-89860432D01*
X87251892Y-89763071D01*
X87204305Y-89682218D01*
X87167776Y-89621185D01*
X87144253Y-89583288D01*
X87135801Y-89571700D01*
X87122229Y-89584221D01*
X87092891Y-89617467D01*
X87052917Y-89665511D01*
X87030027Y-89693879D01*
X86932719Y-89815666D01*
X86932660Y-90217833D01*
X86932601Y-90619999D01*
X86373801Y-90619999D01*
X86373801Y-88147733D01*
X86932601Y-88147733D01*
X86932601Y-89216957D01*
G36*
X89612293Y-88151646D02*
G01*
X89986214Y-88156199D01*
X90370125Y-89379560D01*
X90431440Y-89575407D01*
X90489511Y-89761785D01*
X90543572Y-89936188D01*
X90592860Y-90096109D01*
X90636612Y-90239042D01*
X90674063Y-90362478D01*
X90704450Y-90463912D01*
X90727009Y-90540837D01*
X90740976Y-90590747D01*
X90745587Y-90611133D01*
X90745496Y-90611460D01*
X90726605Y-90614216D01*
X90679440Y-90616603D01*
X90609594Y-90618464D01*
X90522659Y-90619645D01*
X90436975Y-90619999D01*
X90136993Y-90619999D01*
X90093949Y-90480299D01*
X90069811Y-90401594D01*
X90040541Y-90305617D01*
X90010756Y-90207529D01*
X89995947Y-90158566D01*
X89940990Y-89976532D01*
X89252955Y-89976532D01*
X89234439Y-90048499D01*
X89223102Y-90090631D01*
X89204591Y-90157275D01*
X89181155Y-90240413D01*
X89155047Y-90332027D01*
X89145295Y-90365999D01*
X89074668Y-90611533D01*
X88782568Y-90616166D01*
X88663611Y-90617067D01*
X88574703Y-90615567D01*
X88516991Y-90611715D01*
X88491624Y-90605559D01*
X88490468Y-90603572D01*
X88495268Y-90585889D01*
X88509043Y-90538900D01*
X88530857Y-90465681D01*
X88559775Y-90369311D01*
X88594861Y-90252866D01*
X88635178Y-90119425D01*
X88679790Y-89972063D01*
X88727762Y-89813860D01*
X88778158Y-89647892D01*
X88812298Y-89535597D01*
X89342943Y-89535597D01*
X89351264Y-89543264D01*
X89374017Y-89548333D01*
X89415848Y-89551327D01*
X89481404Y-89552772D01*
X89575332Y-89553192D01*
X89595846Y-89553199D01*
X89858180Y-89553199D01*
X89783582Y-89303433D01*
X89751513Y-89194227D01*
X89717444Y-89075145D01*
X89685184Y-88959686D01*
X89658547Y-88861344D01*
X89655681Y-88850466D01*
X89634367Y-88771559D01*
X89615135Y-88704645D01*
X89600024Y-88656538D01*
X89591076Y-88634053D01*
X89590791Y-88633681D01*
X89581877Y-88641605D01*
X89569735Y-88675494D01*
X89557260Y-88726814D01*
X89547054Y-88771415D01*
X89530111Y-88839909D01*
X89508056Y-88926212D01*
X89482510Y-89024242D01*
X89455097Y-89127914D01*
X89427438Y-89231147D01*
X89401156Y-89327855D01*
X89377875Y-89411957D01*
X89359216Y-89477368D01*
X89346803Y-89518006D01*
X89344407Y-89524805D01*
X89342943Y-89535597D01*
X88812298Y-89535597D01*
X88830041Y-89477236D01*
X88882476Y-89304970D01*
X88934527Y-89134171D01*
X88985257Y-88967918D01*
X89033731Y-88809286D01*
X89079013Y-88661353D01*
X89120166Y-88527198D01*
X89156256Y-88409896D01*
X89186345Y-88312527D01*
X89209498Y-88238166D01*
X89220761Y-88202446D01*
X89238372Y-88147092D01*
X89612293Y-88151646D01*
G37*
X89612293Y-88151646D02*
X89986214Y-88156199D01*
X90370125Y-89379560D01*
X90431440Y-89575407D01*
X90489511Y-89761785D01*
X90543572Y-89936188D01*
X90592860Y-90096109D01*
X90636612Y-90239042D01*
X90674063Y-90362478D01*
X90704450Y-90463912D01*
X90727009Y-90540837D01*
X90740976Y-90590747D01*
X90745587Y-90611133D01*
X90745496Y-90611460D01*
X90726605Y-90614216D01*
X90679440Y-90616603D01*
X90609594Y-90618464D01*
X90522659Y-90619645D01*
X90436975Y-90619999D01*
X90136993Y-90619999D01*
X90093949Y-90480299D01*
X90069811Y-90401594D01*
X90040541Y-90305617D01*
X90010756Y-90207529D01*
X89995947Y-90158566D01*
X89940990Y-89976532D01*
X89252955Y-89976532D01*
X89234439Y-90048499D01*
X89223102Y-90090631D01*
X89204591Y-90157275D01*
X89181155Y-90240413D01*
X89155047Y-90332027D01*
X89145295Y-90365999D01*
X89074668Y-90611533D01*
X88782568Y-90616166D01*
X88663611Y-90617067D01*
X88574703Y-90615567D01*
X88516991Y-90611715D01*
X88491624Y-90605559D01*
X88490468Y-90603572D01*
X88495268Y-90585889D01*
X88509043Y-90538900D01*
X88530857Y-90465681D01*
X88559775Y-90369311D01*
X88594861Y-90252866D01*
X88635178Y-90119425D01*
X88679790Y-89972063D01*
X88727762Y-89813860D01*
X88778158Y-89647892D01*
X88812298Y-89535597D01*
X89342943Y-89535597D01*
X89351264Y-89543264D01*
X89374017Y-89548333D01*
X89415848Y-89551327D01*
X89481404Y-89552772D01*
X89575332Y-89553192D01*
X89595846Y-89553199D01*
X89858180Y-89553199D01*
X89783582Y-89303433D01*
X89751513Y-89194227D01*
X89717444Y-89075145D01*
X89685184Y-88959686D01*
X89658547Y-88861344D01*
X89655681Y-88850466D01*
X89634367Y-88771559D01*
X89615135Y-88704645D01*
X89600024Y-88656538D01*
X89591076Y-88634053D01*
X89590791Y-88633681D01*
X89581877Y-88641605D01*
X89569735Y-88675494D01*
X89557260Y-88726814D01*
X89547054Y-88771415D01*
X89530111Y-88839909D01*
X89508056Y-88926212D01*
X89482510Y-89024242D01*
X89455097Y-89127914D01*
X89427438Y-89231147D01*
X89401156Y-89327855D01*
X89377875Y-89411957D01*
X89359216Y-89477368D01*
X89346803Y-89518006D01*
X89344407Y-89524805D01*
X89342943Y-89535597D01*
X88812298Y-89535597D01*
X88830041Y-89477236D01*
X88882476Y-89304970D01*
X88934527Y-89134171D01*
X88985257Y-88967918D01*
X89033731Y-88809286D01*
X89079013Y-88661353D01*
X89120166Y-88527198D01*
X89156256Y-88409896D01*
X89186345Y-88312527D01*
X89209498Y-88238166D01*
X89220761Y-88202446D01*
X89238372Y-88147092D01*
X89612293Y-88151646D01*
D11*
X82326001Y-93928066D02*
X73526001Y-93928066D01*
X84071001Y-97098066D02*
X84071001Y-98148066D01*
X71781001Y-97098066D02*
X71781001Y-98148066D01*
X82326001Y-93928066D02*
X82326001Y-93173066D01*
X68686001Y-90818066D02*
X64186001Y-90818066D01*
X69936001Y-94818066D02*
X69936001Y-93318066D01*
X64186001Y-97318066D02*
X68686001Y-97318066D01*
X62936001Y-93318066D02*
X62936001Y-94818066D01*
X95106001Y-64770001D02*
X95106001Y-69522001D01*
X105166001Y-67146001D02*
G75*
G03*
X105166001Y-67146001I-5000000J0D01*
G01*
X105755999Y-67150742D02*
G75*
G02*
X95106001Y-69521817I-5589998J4741D01*
G01*
X105755999Y-67141260D02*
G75*
G03*
X95106001Y-64770185I-5589998J-4741D01*
G01*
X95106001Y-53340001D02*
X95106001Y-58092001D01*
X105166001Y-55716001D02*
G75*
G03*
X105166001Y-55716001I-5000000J0D01*
G01*
X105755999Y-55720742D02*
G75*
G02*
X95106001Y-58091817I-5589998J4741D01*
G01*
X105755999Y-55711260D02*
G75*
G03*
X95106001Y-53340185I-5589998J-4741D01*
G01*
X78596001Y-53340001D02*
X78596001Y-58092001D01*
X88656001Y-55716001D02*
G75*
G03*
X88656001Y-55716001I-5000000J0D01*
G01*
X89245999Y-55720742D02*
G75*
G02*
X78596001Y-58091817I-5589998J4741D01*
G01*
X89245999Y-55711260D02*
G75*
G03*
X78596001Y-53340185I-5589998J-4741D01*
G01*
X67166001Y-53340001D02*
X67166001Y-58092001D01*
X77226001Y-55716001D02*
G75*
G03*
X77226001Y-55716001I-5000000J0D01*
G01*
X77815999Y-55720742D02*
G75*
G02*
X67166001Y-58091817I-5589998J4741D01*
G01*
X77815999Y-55711260D02*
G75*
G03*
X67166001Y-53340185I-5589998J-4741D01*
G01*
X50656001Y-64770001D02*
X50656001Y-69522001D01*
X60716001Y-67146001D02*
G75*
G03*
X60716001Y-67146001I-5000000J0D01*
G01*
X61305999Y-67150742D02*
G75*
G02*
X50656001Y-69521817I-5589998J4741D01*
G01*
X61305999Y-67141260D02*
G75*
G03*
X50656001Y-64770185I-5589998J-4741D01*
G01*
X50656001Y-53340001D02*
X50656001Y-58092001D01*
X60716001Y-55716001D02*
G75*
G03*
X60716001Y-55716001I-5000000J0D01*
G01*
X61305999Y-55720742D02*
G75*
G02*
X50656001Y-58091817I-5589998J4741D01*
G01*
X61305999Y-55711260D02*
G75*
G03*
X50656001Y-53340185I-5589998J-4741D01*
G01*
D12*
G36*
X77766351Y-62762137D02*
G01*
X77853209Y-62764021D01*
X77921204Y-62768091D01*
X77977834Y-62775021D01*
X78030596Y-62785487D01*
X78086988Y-62800164D01*
X78090555Y-62801166D01*
X78155384Y-62821662D01*
X78206741Y-62842075D01*
X78236482Y-62858999D01*
X78240427Y-62863820D01*
X78239544Y-62888074D01*
X78230841Y-62937964D01*
X78215735Y-63006546D01*
X78195643Y-63086873D01*
X78192473Y-63098809D01*
X78167696Y-63188265D01*
X78148555Y-63248867D01*
X78133341Y-63284822D01*
X78120341Y-63300338D01*
X78110334Y-63300839D01*
X77992134Y-63264605D01*
X77856118Y-63240085D01*
X77713597Y-63228100D01*
X77575879Y-63229471D01*
X77454271Y-63245019D01*
X77427576Y-63251253D01*
X77279845Y-63305779D01*
X77153638Y-63386035D01*
X77050337Y-63490524D01*
X76971323Y-63617753D01*
X76917978Y-63766224D01*
X76907199Y-63814616D01*
X76894973Y-63916464D01*
X76892998Y-64032552D01*
X76900524Y-64151041D01*
X76916800Y-64260088D01*
X76940973Y-64347585D01*
X77010650Y-64489159D01*
X77101610Y-64604574D01*
X77214020Y-64693932D01*
X77348046Y-64757336D01*
X77503855Y-64794888D01*
X77681615Y-64806692D01*
X77687001Y-64806652D01*
X77808955Y-64800673D01*
X77929503Y-64786100D01*
X78037391Y-64764648D01*
X78111940Y-64741826D01*
X78124596Y-64742145D01*
X78135837Y-64757106D01*
X78147350Y-64791575D01*
X78160819Y-64850421D01*
X78175440Y-64925229D01*
X78193464Y-65022704D01*
X78204780Y-65092306D01*
X78209197Y-65139396D01*
X78206521Y-65169335D01*
X78196560Y-65187483D01*
X78179121Y-65199202D01*
X78165368Y-65205221D01*
X78086560Y-65229695D01*
X77982199Y-65250663D01*
X77860480Y-65267456D01*
X77729598Y-65279402D01*
X77597749Y-65285830D01*
X77473127Y-65286070D01*
X77363927Y-65279449D01*
X77322934Y-65274198D01*
X77118431Y-65227933D01*
X76932237Y-65156439D01*
X76766424Y-65061115D01*
X76623068Y-64943362D01*
X76504241Y-64804581D01*
X76421167Y-64665267D01*
X76370609Y-64553861D01*
X76334426Y-64450686D01*
X76310589Y-64346063D01*
X76297067Y-64230314D01*
X76291832Y-64093760D01*
X76291574Y-64047201D01*
X76296026Y-63892935D01*
X76310910Y-63760736D01*
X76338583Y-63639780D01*
X76381404Y-63519245D01*
X76429926Y-63412201D01*
X76500182Y-63296116D01*
X76595204Y-63179430D01*
X76706974Y-63070036D01*
X76827476Y-62975830D01*
X76941934Y-62907988D01*
X77051222Y-62857299D01*
X77150186Y-62819437D01*
X77247167Y-62792688D01*
X77350507Y-62775335D01*
X77468547Y-62765665D01*
X77609629Y-62761961D01*
X77653134Y-62761762D01*
X77766351Y-62762137D01*
G37*
X77766351Y-62762137D02*
X77853209Y-62764021D01*
X77921204Y-62768091D01*
X77977834Y-62775021D01*
X78030596Y-62785487D01*
X78086988Y-62800164D01*
X78090555Y-62801166D01*
X78155384Y-62821662D01*
X78206741Y-62842075D01*
X78236482Y-62858999D01*
X78240427Y-62863820D01*
X78239544Y-62888074D01*
X78230841Y-62937964D01*
X78215735Y-63006546D01*
X78195643Y-63086873D01*
X78192473Y-63098809D01*
X78167696Y-63188265D01*
X78148555Y-63248867D01*
X78133341Y-63284822D01*
X78120341Y-63300338D01*
X78110334Y-63300839D01*
X77992134Y-63264605D01*
X77856118Y-63240085D01*
X77713597Y-63228100D01*
X77575879Y-63229471D01*
X77454271Y-63245019D01*
X77427576Y-63251253D01*
X77279845Y-63305779D01*
X77153638Y-63386035D01*
X77050337Y-63490524D01*
X76971323Y-63617753D01*
X76917978Y-63766224D01*
X76907199Y-63814616D01*
X76894973Y-63916464D01*
X76892998Y-64032552D01*
X76900524Y-64151041D01*
X76916800Y-64260088D01*
X76940973Y-64347585D01*
X77010650Y-64489159D01*
X77101610Y-64604574D01*
X77214020Y-64693932D01*
X77348046Y-64757336D01*
X77503855Y-64794888D01*
X77681615Y-64806692D01*
X77687001Y-64806652D01*
X77808955Y-64800673D01*
X77929503Y-64786100D01*
X78037391Y-64764648D01*
X78111940Y-64741826D01*
X78124596Y-64742145D01*
X78135837Y-64757106D01*
X78147350Y-64791575D01*
X78160819Y-64850421D01*
X78175440Y-64925229D01*
X78193464Y-65022704D01*
X78204780Y-65092306D01*
X78209197Y-65139396D01*
X78206521Y-65169335D01*
X78196560Y-65187483D01*
X78179121Y-65199202D01*
X78165368Y-65205221D01*
X78086560Y-65229695D01*
X77982199Y-65250663D01*
X77860480Y-65267456D01*
X77729598Y-65279402D01*
X77597749Y-65285830D01*
X77473127Y-65286070D01*
X77363927Y-65279449D01*
X77322934Y-65274198D01*
X77118431Y-65227933D01*
X76932237Y-65156439D01*
X76766424Y-65061115D01*
X76623068Y-64943362D01*
X76504241Y-64804581D01*
X76421167Y-64665267D01*
X76370609Y-64553861D01*
X76334426Y-64450686D01*
X76310589Y-64346063D01*
X76297067Y-64230314D01*
X76291832Y-64093760D01*
X76291574Y-64047201D01*
X76296026Y-63892935D01*
X76310910Y-63760736D01*
X76338583Y-63639780D01*
X76381404Y-63519245D01*
X76429926Y-63412201D01*
X76500182Y-63296116D01*
X76595204Y-63179430D01*
X76706974Y-63070036D01*
X76827476Y-62975830D01*
X76941934Y-62907988D01*
X77051222Y-62857299D01*
X77150186Y-62819437D01*
X77247167Y-62792688D01*
X77350507Y-62775335D01*
X77468547Y-62765665D01*
X77609629Y-62761961D01*
X77653134Y-62761762D01*
X77766351Y-62762137D01*
G36*
X70778201Y-63733934D02*
G01*
X71675668Y-63733934D01*
X71675668Y-62785668D01*
X72251622Y-62785668D01*
X72247278Y-64017568D01*
X72242935Y-65249468D01*
X71959301Y-65254110D01*
X71675668Y-65258753D01*
X71675668Y-64225001D01*
X70778698Y-64225001D01*
X70774216Y-64737234D01*
X70769735Y-65249468D01*
X70486101Y-65254110D01*
X70202468Y-65258753D01*
X70202468Y-62785668D01*
X70778201Y-62785668D01*
X70778201Y-63733934D01*
G37*
X70778201Y-63733934D02*
X71675668Y-63733934D01*
X71675668Y-62785668D01*
X72251622Y-62785668D01*
X72247278Y-64017568D01*
X72242935Y-65249468D01*
X71959301Y-65254110D01*
X71675668Y-65258753D01*
X71675668Y-64225001D01*
X70778698Y-64225001D01*
X70774216Y-64737234D01*
X70769735Y-65249468D01*
X70486101Y-65254110D01*
X70202468Y-65258753D01*
X70202468Y-62785668D01*
X70778201Y-62785668D01*
X70778201Y-63733934D01*
G36*
X74249534Y-63259801D02*
G01*
X73284335Y-63259801D01*
X73284335Y-63750868D01*
X74198734Y-63750868D01*
X74198734Y-64208068D01*
X73284335Y-64208068D01*
X73284335Y-64783801D01*
X74300335Y-64783801D01*
X74300335Y-65257934D01*
X72725535Y-65257934D01*
X72725535Y-62785668D01*
X74249534Y-62785668D01*
X74249534Y-63259801D01*
G37*
X74249534Y-63259801D02*
X73284335Y-63259801D01*
X73284335Y-63750868D01*
X74198734Y-63750868D01*
X74198734Y-64208068D01*
X73284335Y-64208068D01*
X73284335Y-64783801D01*
X74300335Y-64783801D01*
X74300335Y-65257934D01*
X72725535Y-65257934D01*
X72725535Y-62785668D01*
X74249534Y-62785668D01*
X74249534Y-63259801D01*
G36*
X75248601Y-64766868D02*
G01*
X76231664Y-64766868D01*
X76222268Y-65249468D01*
X74672868Y-65258276D01*
X74672868Y-62785668D01*
X75248601Y-62785668D01*
X75248601Y-64766868D01*
G37*
X75248601Y-64766868D02*
X76231664Y-64766868D01*
X76222268Y-65249468D01*
X74672868Y-65258276D01*
X74672868Y-62785668D01*
X75248601Y-62785668D01*
X75248601Y-64766868D01*
G36*
X80108468Y-63259801D02*
G01*
X79143268Y-63259801D01*
X79143268Y-63750868D01*
X80057668Y-63750868D01*
X80057668Y-64208068D01*
X79143268Y-64208068D01*
X79143268Y-64783801D01*
X80159268Y-64783801D01*
X80159268Y-65257934D01*
X78584468Y-65257934D01*
X78584468Y-62785668D01*
X80108468Y-62785668D01*
X80108468Y-63259801D01*
G37*
X80108468Y-63259801D02*
X79143268Y-63259801D01*
X79143268Y-63750868D01*
X80057668Y-63750868D01*
X80057668Y-64208068D01*
X79143268Y-64208068D01*
X79143268Y-64783801D01*
X80159268Y-64783801D01*
X80159268Y-65257934D01*
X78584468Y-65257934D01*
X78584468Y-62785668D01*
X80108468Y-62785668D01*
X80108468Y-63259801D01*
G36*
X81107535Y-64766868D02*
G01*
X82090598Y-64766868D01*
X82085899Y-65008168D01*
X82081201Y-65249468D01*
X80531801Y-65258276D01*
X80531801Y-62785668D01*
X81107535Y-62785668D01*
X81107535Y-64766868D01*
G37*
X81107535Y-64766868D02*
X82090598Y-64766868D01*
X82085899Y-65008168D01*
X82081201Y-65249468D01*
X80531801Y-65258276D01*
X80531801Y-62785668D01*
X81107535Y-62785668D01*
X81107535Y-64766868D01*
G36*
X83935401Y-63259801D02*
G01*
X82970201Y-63259801D01*
X82970201Y-63750868D01*
X83884601Y-63750868D01*
X83884601Y-64208068D01*
X82970201Y-64208068D01*
X82970201Y-64783801D01*
X83986201Y-64783801D01*
X83986201Y-65257934D01*
X82394468Y-65257934D01*
X82394468Y-62785668D01*
X83935401Y-62785668D01*
X83935401Y-63259801D01*
G37*
X83935401Y-63259801D02*
X82970201Y-63259801D01*
X82970201Y-63750868D01*
X83884601Y-63750868D01*
X83884601Y-64208068D01*
X82970201Y-64208068D01*
X82970201Y-64783801D01*
X83986201Y-64783801D01*
X83986201Y-65257934D01*
X82394468Y-65257934D01*
X82394468Y-62785668D01*
X83935401Y-62785668D01*
X83935401Y-63259801D01*
G36*
X86085934Y-63259801D02*
G01*
X85425805Y-63259801D01*
X85421437Y-64254634D01*
X85417068Y-65249468D01*
X85133434Y-65254110D01*
X84849801Y-65258753D01*
X84849801Y-63259801D01*
X84172468Y-63259801D01*
X84172468Y-62785668D01*
X86085934Y-62785668D01*
X86085934Y-63259801D01*
G37*
X86085934Y-63259801D02*
X85425805Y-63259801D01*
X85421437Y-64254634D01*
X85417068Y-65249468D01*
X85133434Y-65254110D01*
X84849801Y-65258753D01*
X84849801Y-63259801D01*
X84172468Y-63259801D01*
X84172468Y-62785668D01*
X86085934Y-62785668D01*
X86085934Y-63259801D01*
G36*
X86932601Y-63854892D02*
G01*
X87125042Y-63570046D01*
X87198978Y-63460811D01*
X87280949Y-63340042D01*
X87363680Y-63218435D01*
X87439896Y-63106688D01*
X87485744Y-63039668D01*
X87654004Y-62794134D01*
X88006030Y-62789553D01*
X88129184Y-62788699D01*
X88227710Y-62789591D01*
X88299235Y-62792148D01*
X88341386Y-62796292D01*
X88352295Y-62801190D01*
X88340877Y-62817786D01*
X88310879Y-62857957D01*
X88264649Y-62918653D01*
X88204535Y-62996821D01*
X88132884Y-63089410D01*
X88052043Y-63193368D01*
X87964359Y-63305644D01*
X87958915Y-63312599D01*
X87870770Y-63425708D01*
X87789345Y-63531154D01*
X87717000Y-63625813D01*
X87656091Y-63706555D01*
X87608978Y-63770255D01*
X87578018Y-63813785D01*
X87565569Y-63834018D01*
X87565475Y-63834362D01*
X87572918Y-63853749D01*
X87596512Y-63898974D01*
X87634546Y-63967102D01*
X87685311Y-64055197D01*
X87747098Y-64160323D01*
X87818195Y-64279544D01*
X87896894Y-64409925D01*
X87980383Y-64546734D01*
X88064627Y-64684707D01*
X88142766Y-64813945D01*
X88213124Y-64931584D01*
X88274024Y-65034763D01*
X88323791Y-65120617D01*
X88360749Y-65186285D01*
X88383222Y-65228904D01*
X88389533Y-65245610D01*
X88389525Y-65245619D01*
X88369706Y-65249487D01*
X88321501Y-65252413D01*
X88250382Y-65254254D01*
X88161818Y-65254872D01*
X88061283Y-65254128D01*
X88058337Y-65254086D01*
X87738735Y-65249468D01*
X87441502Y-64729355D01*
X87372439Y-64608921D01*
X87308586Y-64498367D01*
X87251892Y-64401006D01*
X87204305Y-64320153D01*
X87167776Y-64259120D01*
X87144253Y-64221223D01*
X87135801Y-64209635D01*
X87122229Y-64222156D01*
X87092891Y-64255402D01*
X87052917Y-64303446D01*
X87030027Y-64331814D01*
X86932719Y-64453601D01*
X86932660Y-64855768D01*
X86932601Y-65257934D01*
X86373801Y-65257934D01*
X86373801Y-62785668D01*
X86932601Y-62785668D01*
X86932601Y-63854892D01*
G37*
X86932601Y-63854892D02*
X87125042Y-63570046D01*
X87198978Y-63460811D01*
X87280949Y-63340042D01*
X87363680Y-63218435D01*
X87439896Y-63106688D01*
X87485744Y-63039668D01*
X87654004Y-62794134D01*
X88006030Y-62789553D01*
X88129184Y-62788699D01*
X88227710Y-62789591D01*
X88299235Y-62792148D01*
X88341386Y-62796292D01*
X88352295Y-62801190D01*
X88340877Y-62817786D01*
X88310879Y-62857957D01*
X88264649Y-62918653D01*
X88204535Y-62996821D01*
X88132884Y-63089410D01*
X88052043Y-63193368D01*
X87964359Y-63305644D01*
X87958915Y-63312599D01*
X87870770Y-63425708D01*
X87789345Y-63531154D01*
X87717000Y-63625813D01*
X87656091Y-63706555D01*
X87608978Y-63770255D01*
X87578018Y-63813785D01*
X87565569Y-63834018D01*
X87565475Y-63834362D01*
X87572918Y-63853749D01*
X87596512Y-63898974D01*
X87634546Y-63967102D01*
X87685311Y-64055197D01*
X87747098Y-64160323D01*
X87818195Y-64279544D01*
X87896894Y-64409925D01*
X87980383Y-64546734D01*
X88064627Y-64684707D01*
X88142766Y-64813945D01*
X88213124Y-64931584D01*
X88274024Y-65034763D01*
X88323791Y-65120617D01*
X88360749Y-65186285D01*
X88383222Y-65228904D01*
X88389533Y-65245610D01*
X88389525Y-65245619D01*
X88369706Y-65249487D01*
X88321501Y-65252413D01*
X88250382Y-65254254D01*
X88161818Y-65254872D01*
X88061283Y-65254128D01*
X88058337Y-65254086D01*
X87738735Y-65249468D01*
X87441502Y-64729355D01*
X87372439Y-64608921D01*
X87308586Y-64498367D01*
X87251892Y-64401006D01*
X87204305Y-64320153D01*
X87167776Y-64259120D01*
X87144253Y-64221223D01*
X87135801Y-64209635D01*
X87122229Y-64222156D01*
X87092891Y-64255402D01*
X87052917Y-64303446D01*
X87030027Y-64331814D01*
X86932719Y-64453601D01*
X86932660Y-64855768D01*
X86932601Y-65257934D01*
X86373801Y-65257934D01*
X86373801Y-62785668D01*
X86932601Y-62785668D01*
X86932601Y-63854892D01*
G36*
X89612293Y-62789581D02*
G01*
X89986214Y-62794134D01*
X90370125Y-64017495D01*
X90431440Y-64213342D01*
X90489511Y-64399720D01*
X90543572Y-64574123D01*
X90592860Y-64734044D01*
X90636612Y-64876977D01*
X90674063Y-65000413D01*
X90704450Y-65101847D01*
X90727009Y-65178772D01*
X90740976Y-65228682D01*
X90745587Y-65249068D01*
X90745496Y-65249395D01*
X90726605Y-65252151D01*
X90679440Y-65254538D01*
X90609594Y-65256399D01*
X90522659Y-65257580D01*
X90436975Y-65257934D01*
X90136993Y-65257934D01*
X90093949Y-65118234D01*
X90069811Y-65039529D01*
X90040541Y-64943552D01*
X90010756Y-64845464D01*
X89995947Y-64796501D01*
X89940990Y-64614467D01*
X89252955Y-64614467D01*
X89234439Y-64686434D01*
X89223102Y-64728566D01*
X89204591Y-64795210D01*
X89181155Y-64878348D01*
X89155047Y-64969962D01*
X89145295Y-65003934D01*
X89074668Y-65249468D01*
X88782568Y-65254101D01*
X88663611Y-65255002D01*
X88574703Y-65253502D01*
X88516991Y-65249650D01*
X88491624Y-65243494D01*
X88490468Y-65241507D01*
X88495268Y-65223824D01*
X88509043Y-65176835D01*
X88530857Y-65103616D01*
X88559775Y-65007246D01*
X88594861Y-64890801D01*
X88635178Y-64757360D01*
X88679790Y-64609998D01*
X88727762Y-64451795D01*
X88778158Y-64285827D01*
X88812298Y-64173532D01*
X89342943Y-64173532D01*
X89351264Y-64181199D01*
X89374017Y-64186268D01*
X89415848Y-64189262D01*
X89481404Y-64190707D01*
X89575332Y-64191127D01*
X89595846Y-64191134D01*
X89858180Y-64191134D01*
X89783582Y-63941368D01*
X89751513Y-63832162D01*
X89717444Y-63713080D01*
X89685184Y-63597621D01*
X89658547Y-63499279D01*
X89655681Y-63488401D01*
X89634367Y-63409494D01*
X89615135Y-63342580D01*
X89600024Y-63294473D01*
X89591076Y-63271988D01*
X89590791Y-63271616D01*
X89581877Y-63279540D01*
X89569735Y-63313429D01*
X89557260Y-63364749D01*
X89547054Y-63409350D01*
X89530111Y-63477844D01*
X89508056Y-63564147D01*
X89482510Y-63662177D01*
X89455097Y-63765849D01*
X89427438Y-63869082D01*
X89401156Y-63965790D01*
X89377875Y-64049892D01*
X89359216Y-64115303D01*
X89346803Y-64155941D01*
X89344407Y-64162740D01*
X89342943Y-64173532D01*
X88812298Y-64173532D01*
X88830041Y-64115171D01*
X88882476Y-63942905D01*
X88934527Y-63772106D01*
X88985257Y-63605853D01*
X89033731Y-63447221D01*
X89079013Y-63299288D01*
X89120166Y-63165133D01*
X89156256Y-63047831D01*
X89186345Y-62950462D01*
X89209498Y-62876101D01*
X89220761Y-62840381D01*
X89238372Y-62785027D01*
X89612293Y-62789581D01*
G37*
X89612293Y-62789581D02*
X89986214Y-62794134D01*
X90370125Y-64017495D01*
X90431440Y-64213342D01*
X90489511Y-64399720D01*
X90543572Y-64574123D01*
X90592860Y-64734044D01*
X90636612Y-64876977D01*
X90674063Y-65000413D01*
X90704450Y-65101847D01*
X90727009Y-65178772D01*
X90740976Y-65228682D01*
X90745587Y-65249068D01*
X90745496Y-65249395D01*
X90726605Y-65252151D01*
X90679440Y-65254538D01*
X90609594Y-65256399D01*
X90522659Y-65257580D01*
X90436975Y-65257934D01*
X90136993Y-65257934D01*
X90093949Y-65118234D01*
X90069811Y-65039529D01*
X90040541Y-64943552D01*
X90010756Y-64845464D01*
X89995947Y-64796501D01*
X89940990Y-64614467D01*
X89252955Y-64614467D01*
X89234439Y-64686434D01*
X89223102Y-64728566D01*
X89204591Y-64795210D01*
X89181155Y-64878348D01*
X89155047Y-64969962D01*
X89145295Y-65003934D01*
X89074668Y-65249468D01*
X88782568Y-65254101D01*
X88663611Y-65255002D01*
X88574703Y-65253502D01*
X88516991Y-65249650D01*
X88491624Y-65243494D01*
X88490468Y-65241507D01*
X88495268Y-65223824D01*
X88509043Y-65176835D01*
X88530857Y-65103616D01*
X88559775Y-65007246D01*
X88594861Y-64890801D01*
X88635178Y-64757360D01*
X88679790Y-64609998D01*
X88727762Y-64451795D01*
X88778158Y-64285827D01*
X88812298Y-64173532D01*
X89342943Y-64173532D01*
X89351264Y-64181199D01*
X89374017Y-64186268D01*
X89415848Y-64189262D01*
X89481404Y-64190707D01*
X89575332Y-64191127D01*
X89595846Y-64191134D01*
X89858180Y-64191134D01*
X89783582Y-63941368D01*
X89751513Y-63832162D01*
X89717444Y-63713080D01*
X89685184Y-63597621D01*
X89658547Y-63499279D01*
X89655681Y-63488401D01*
X89634367Y-63409494D01*
X89615135Y-63342580D01*
X89600024Y-63294473D01*
X89591076Y-63271988D01*
X89590791Y-63271616D01*
X89581877Y-63279540D01*
X89569735Y-63313429D01*
X89557260Y-63364749D01*
X89547054Y-63409350D01*
X89530111Y-63477844D01*
X89508056Y-63564147D01*
X89482510Y-63662177D01*
X89455097Y-63765849D01*
X89427438Y-63869082D01*
X89401156Y-63965790D01*
X89377875Y-64049892D01*
X89359216Y-64115303D01*
X89346803Y-64155941D01*
X89344407Y-64162740D01*
X89342943Y-64173532D01*
X88812298Y-64173532D01*
X88830041Y-64115171D01*
X88882476Y-63942905D01*
X88934527Y-63772106D01*
X88985257Y-63605853D01*
X89033731Y-63447221D01*
X89079013Y-63299288D01*
X89120166Y-63165133D01*
X89156256Y-63047831D01*
X89186345Y-62950462D01*
X89209498Y-62876101D01*
X89220761Y-62840381D01*
X89238372Y-62785027D01*
X89612293Y-62789581D01*
D11*
X82326001Y-68566001D02*
X73526001Y-68566001D01*
X84071001Y-71736001D02*
X84071001Y-72786001D01*
X71781001Y-71736001D02*
X71781001Y-72786001D01*
X82326001Y-68566001D02*
X82326001Y-67811001D01*
X68686001Y-65456001D02*
X64186001Y-65456001D01*
X69936001Y-69456001D02*
X69936001Y-67956001D01*
X64186001Y-71956001D02*
X68686001Y-71956001D01*
X62936001Y-67956001D02*
X62936001Y-69456001D01*
D13*
X99427905Y-141779576D02*
X99427905Y-140779576D01*
X99666001Y-140779576D01*
X99808858Y-140827196D01*
X99904096Y-140922434D01*
X99951715Y-141017672D01*
X99999334Y-141208148D01*
X99999334Y-141351005D01*
X99951715Y-141541481D01*
X99904096Y-141636719D01*
X99808858Y-141731957D01*
X99666001Y-141779576D01*
X99427905Y-141779576D01*
X100856477Y-140779576D02*
X100666001Y-140779576D01*
X100570762Y-140827196D01*
X100523143Y-140874815D01*
X100427905Y-141017672D01*
X100380286Y-141208148D01*
X100380286Y-141589100D01*
X100427905Y-141684338D01*
X100475524Y-141731957D01*
X100570762Y-141779576D01*
X100761239Y-141779576D01*
X100856477Y-141731957D01*
X100904096Y-141684338D01*
X100951715Y-141589100D01*
X100951715Y-141351005D01*
X100904096Y-141255767D01*
X100856477Y-141208148D01*
X100761239Y-141160529D01*
X100570762Y-141160529D01*
X100475524Y-141208148D01*
X100427905Y-141255767D01*
X100380286Y-141351005D01*
X99427905Y-130349576D02*
X99427905Y-129349576D01*
X99666001Y-129349576D01*
X99808858Y-129397196D01*
X99904096Y-129492434D01*
X99951715Y-129587672D01*
X99999334Y-129778148D01*
X99999334Y-129921005D01*
X99951715Y-130111481D01*
X99904096Y-130206719D01*
X99808858Y-130301957D01*
X99666001Y-130349576D01*
X99427905Y-130349576D01*
X100904096Y-129349576D02*
X100427905Y-129349576D01*
X100380286Y-129825767D01*
X100427905Y-129778148D01*
X100523143Y-129730529D01*
X100761239Y-129730529D01*
X100856477Y-129778148D01*
X100904096Y-129825767D01*
X100951715Y-129921005D01*
X100951715Y-130159100D01*
X100904096Y-130254338D01*
X100856477Y-130301957D01*
X100761239Y-130349576D01*
X100523143Y-130349576D01*
X100427905Y-130301957D01*
X100380286Y-130254338D01*
X82917905Y-130349576D02*
X82917905Y-129349576D01*
X83156001Y-129349576D01*
X83298858Y-129397196D01*
X83394096Y-129492434D01*
X83441715Y-129587672D01*
X83489334Y-129778148D01*
X83489334Y-129921005D01*
X83441715Y-130111481D01*
X83394096Y-130206719D01*
X83298858Y-130301957D01*
X83156001Y-130349576D01*
X82917905Y-130349576D01*
X84346477Y-129682910D02*
X84346477Y-130349576D01*
X84108381Y-129301957D02*
X83870286Y-130016243D01*
X84489334Y-130016243D01*
X71487905Y-130349576D02*
X71487905Y-129349576D01*
X71726001Y-129349576D01*
X71868858Y-129397196D01*
X71964096Y-129492434D01*
X72011715Y-129587672D01*
X72059334Y-129778148D01*
X72059334Y-129921005D01*
X72011715Y-130111481D01*
X71964096Y-130206719D01*
X71868858Y-130301957D01*
X71726001Y-130349576D01*
X71487905Y-130349576D01*
X72392667Y-129349576D02*
X73011715Y-129349576D01*
X72678381Y-129730529D01*
X72821239Y-129730529D01*
X72916477Y-129778148D01*
X72964096Y-129825767D01*
X73011715Y-129921005D01*
X73011715Y-130159100D01*
X72964096Y-130254338D01*
X72916477Y-130301957D01*
X72821239Y-130349576D01*
X72535524Y-130349576D01*
X72440286Y-130301957D01*
X72392667Y-130254338D01*
X54977905Y-141779576D02*
X54977905Y-140779576D01*
X55216001Y-140779576D01*
X55358858Y-140827196D01*
X55454096Y-140922434D01*
X55501715Y-141017672D01*
X55549334Y-141208148D01*
X55549334Y-141351005D01*
X55501715Y-141541481D01*
X55454096Y-141636719D01*
X55358858Y-141731957D01*
X55216001Y-141779576D01*
X54977905Y-141779576D01*
X55930286Y-140874815D02*
X55977905Y-140827196D01*
X56073143Y-140779576D01*
X56311239Y-140779576D01*
X56406477Y-140827196D01*
X56454096Y-140874815D01*
X56501715Y-140970053D01*
X56501715Y-141065291D01*
X56454096Y-141208148D01*
X55882667Y-141779576D01*
X56501715Y-141779576D01*
X54977905Y-130349576D02*
X54977905Y-129349576D01*
X55216001Y-129349576D01*
X55358858Y-129397196D01*
X55454096Y-129492434D01*
X55501715Y-129587672D01*
X55549334Y-129778148D01*
X55549334Y-129921005D01*
X55501715Y-130111481D01*
X55454096Y-130206719D01*
X55358858Y-130301957D01*
X55216001Y-130349576D01*
X54977905Y-130349576D01*
X56501715Y-130349576D02*
X55930286Y-130349576D01*
X56216001Y-130349576D02*
X56216001Y-129349576D01*
X56120762Y-129492434D01*
X56025524Y-129587672D01*
X55930286Y-129635291D01*
X99427905Y-116417511D02*
X99427905Y-115417511D01*
X99666001Y-115417511D01*
X99808858Y-115465131D01*
X99904096Y-115560369D01*
X99951715Y-115655607D01*
X99999334Y-115846083D01*
X99999334Y-115988940D01*
X99951715Y-116179416D01*
X99904096Y-116274654D01*
X99808858Y-116369892D01*
X99666001Y-116417511D01*
X99427905Y-116417511D01*
X100856477Y-115417511D02*
X100666001Y-115417511D01*
X100570762Y-115465131D01*
X100523143Y-115512750D01*
X100427905Y-115655607D01*
X100380286Y-115846083D01*
X100380286Y-116227035D01*
X100427905Y-116322273D01*
X100475524Y-116369892D01*
X100570762Y-116417511D01*
X100761239Y-116417511D01*
X100856477Y-116369892D01*
X100904096Y-116322273D01*
X100951715Y-116227035D01*
X100951715Y-115988940D01*
X100904096Y-115893702D01*
X100856477Y-115846083D01*
X100761239Y-115798464D01*
X100570762Y-115798464D01*
X100475524Y-115846083D01*
X100427905Y-115893702D01*
X100380286Y-115988940D01*
X99427905Y-104987511D02*
X99427905Y-103987511D01*
X99666001Y-103987511D01*
X99808858Y-104035131D01*
X99904096Y-104130369D01*
X99951715Y-104225607D01*
X99999334Y-104416083D01*
X99999334Y-104558940D01*
X99951715Y-104749416D01*
X99904096Y-104844654D01*
X99808858Y-104939892D01*
X99666001Y-104987511D01*
X99427905Y-104987511D01*
X100904096Y-103987511D02*
X100427905Y-103987511D01*
X100380286Y-104463702D01*
X100427905Y-104416083D01*
X100523143Y-104368464D01*
X100761239Y-104368464D01*
X100856477Y-104416083D01*
X100904096Y-104463702D01*
X100951715Y-104558940D01*
X100951715Y-104797035D01*
X100904096Y-104892273D01*
X100856477Y-104939892D01*
X100761239Y-104987511D01*
X100523143Y-104987511D01*
X100427905Y-104939892D01*
X100380286Y-104892273D01*
X82917905Y-104987511D02*
X82917905Y-103987511D01*
X83156001Y-103987511D01*
X83298858Y-104035131D01*
X83394096Y-104130369D01*
X83441715Y-104225607D01*
X83489334Y-104416083D01*
X83489334Y-104558940D01*
X83441715Y-104749416D01*
X83394096Y-104844654D01*
X83298858Y-104939892D01*
X83156001Y-104987511D01*
X82917905Y-104987511D01*
X84346477Y-104320845D02*
X84346477Y-104987511D01*
X84108381Y-103939892D02*
X83870286Y-104654178D01*
X84489334Y-104654178D01*
X71487905Y-104987511D02*
X71487905Y-103987511D01*
X71726001Y-103987511D01*
X71868858Y-104035131D01*
X71964096Y-104130369D01*
X72011715Y-104225607D01*
X72059334Y-104416083D01*
X72059334Y-104558940D01*
X72011715Y-104749416D01*
X71964096Y-104844654D01*
X71868858Y-104939892D01*
X71726001Y-104987511D01*
X71487905Y-104987511D01*
X72392667Y-103987511D02*
X73011715Y-103987511D01*
X72678381Y-104368464D01*
X72821239Y-104368464D01*
X72916477Y-104416083D01*
X72964096Y-104463702D01*
X73011715Y-104558940D01*
X73011715Y-104797035D01*
X72964096Y-104892273D01*
X72916477Y-104939892D01*
X72821239Y-104987511D01*
X72535524Y-104987511D01*
X72440286Y-104939892D01*
X72392667Y-104892273D01*
X54977905Y-116417511D02*
X54977905Y-115417511D01*
X55216001Y-115417511D01*
X55358858Y-115465131D01*
X55454096Y-115560369D01*
X55501715Y-115655607D01*
X55549334Y-115846083D01*
X55549334Y-115988940D01*
X55501715Y-116179416D01*
X55454096Y-116274654D01*
X55358858Y-116369892D01*
X55216001Y-116417511D01*
X54977905Y-116417511D01*
X55930286Y-115512750D02*
X55977905Y-115465131D01*
X56073143Y-115417511D01*
X56311239Y-115417511D01*
X56406477Y-115465131D01*
X56454096Y-115512750D01*
X56501715Y-115607988D01*
X56501715Y-115703226D01*
X56454096Y-115846083D01*
X55882667Y-116417511D01*
X56501715Y-116417511D01*
X54977905Y-104987511D02*
X54977905Y-103987511D01*
X55216001Y-103987511D01*
X55358858Y-104035131D01*
X55454096Y-104130369D01*
X55501715Y-104225607D01*
X55549334Y-104416083D01*
X55549334Y-104558940D01*
X55501715Y-104749416D01*
X55454096Y-104844654D01*
X55358858Y-104939892D01*
X55216001Y-104987511D01*
X54977905Y-104987511D01*
X56501715Y-104987511D02*
X55930286Y-104987511D01*
X56216001Y-104987511D02*
X56216001Y-103987511D01*
X56120762Y-104130369D01*
X56025524Y-104225607D01*
X55930286Y-104273226D01*
X99427905Y-91055446D02*
X99427905Y-90055446D01*
X99666001Y-90055446D01*
X99808858Y-90103066D01*
X99904096Y-90198304D01*
X99951715Y-90293542D01*
X99999334Y-90484018D01*
X99999334Y-90626875D01*
X99951715Y-90817351D01*
X99904096Y-90912589D01*
X99808858Y-91007827D01*
X99666001Y-91055446D01*
X99427905Y-91055446D01*
X100856477Y-90055446D02*
X100666001Y-90055446D01*
X100570762Y-90103066D01*
X100523143Y-90150685D01*
X100427905Y-90293542D01*
X100380286Y-90484018D01*
X100380286Y-90864970D01*
X100427905Y-90960208D01*
X100475524Y-91007827D01*
X100570762Y-91055446D01*
X100761239Y-91055446D01*
X100856477Y-91007827D01*
X100904096Y-90960208D01*
X100951715Y-90864970D01*
X100951715Y-90626875D01*
X100904096Y-90531637D01*
X100856477Y-90484018D01*
X100761239Y-90436399D01*
X100570762Y-90436399D01*
X100475524Y-90484018D01*
X100427905Y-90531637D01*
X100380286Y-90626875D01*
X99427905Y-79625446D02*
X99427905Y-78625446D01*
X99666001Y-78625446D01*
X99808858Y-78673066D01*
X99904096Y-78768304D01*
X99951715Y-78863542D01*
X99999334Y-79054018D01*
X99999334Y-79196875D01*
X99951715Y-79387351D01*
X99904096Y-79482589D01*
X99808858Y-79577827D01*
X99666001Y-79625446D01*
X99427905Y-79625446D01*
X100904096Y-78625446D02*
X100427905Y-78625446D01*
X100380286Y-79101637D01*
X100427905Y-79054018D01*
X100523143Y-79006399D01*
X100761239Y-79006399D01*
X100856477Y-79054018D01*
X100904096Y-79101637D01*
X100951715Y-79196875D01*
X100951715Y-79434970D01*
X100904096Y-79530208D01*
X100856477Y-79577827D01*
X100761239Y-79625446D01*
X100523143Y-79625446D01*
X100427905Y-79577827D01*
X100380286Y-79530208D01*
X82917905Y-79625446D02*
X82917905Y-78625446D01*
X83156001Y-78625446D01*
X83298858Y-78673066D01*
X83394096Y-78768304D01*
X83441715Y-78863542D01*
X83489334Y-79054018D01*
X83489334Y-79196875D01*
X83441715Y-79387351D01*
X83394096Y-79482589D01*
X83298858Y-79577827D01*
X83156001Y-79625446D01*
X82917905Y-79625446D01*
X84346477Y-78958780D02*
X84346477Y-79625446D01*
X84108381Y-78577827D02*
X83870286Y-79292113D01*
X84489334Y-79292113D01*
X71487905Y-79625446D02*
X71487905Y-78625446D01*
X71726001Y-78625446D01*
X71868858Y-78673066D01*
X71964096Y-78768304D01*
X72011715Y-78863542D01*
X72059334Y-79054018D01*
X72059334Y-79196875D01*
X72011715Y-79387351D01*
X71964096Y-79482589D01*
X71868858Y-79577827D01*
X71726001Y-79625446D01*
X71487905Y-79625446D01*
X72392667Y-78625446D02*
X73011715Y-78625446D01*
X72678381Y-79006399D01*
X72821239Y-79006399D01*
X72916477Y-79054018D01*
X72964096Y-79101637D01*
X73011715Y-79196875D01*
X73011715Y-79434970D01*
X72964096Y-79530208D01*
X72916477Y-79577827D01*
X72821239Y-79625446D01*
X72535524Y-79625446D01*
X72440286Y-79577827D01*
X72392667Y-79530208D01*
X54977905Y-91055446D02*
X54977905Y-90055446D01*
X55216001Y-90055446D01*
X55358858Y-90103066D01*
X55454096Y-90198304D01*
X55501715Y-90293542D01*
X55549334Y-90484018D01*
X55549334Y-90626875D01*
X55501715Y-90817351D01*
X55454096Y-90912589D01*
X55358858Y-91007827D01*
X55216001Y-91055446D01*
X54977905Y-91055446D01*
X55930286Y-90150685D02*
X55977905Y-90103066D01*
X56073143Y-90055446D01*
X56311239Y-90055446D01*
X56406477Y-90103066D01*
X56454096Y-90150685D01*
X56501715Y-90245923D01*
X56501715Y-90341161D01*
X56454096Y-90484018D01*
X55882667Y-91055446D01*
X56501715Y-91055446D01*
X54977905Y-79625446D02*
X54977905Y-78625446D01*
X55216001Y-78625446D01*
X55358858Y-78673066D01*
X55454096Y-78768304D01*
X55501715Y-78863542D01*
X55549334Y-79054018D01*
X55549334Y-79196875D01*
X55501715Y-79387351D01*
X55454096Y-79482589D01*
X55358858Y-79577827D01*
X55216001Y-79625446D01*
X54977905Y-79625446D01*
X56501715Y-79625446D02*
X55930286Y-79625446D01*
X56216001Y-79625446D02*
X56216001Y-78625446D01*
X56120762Y-78768304D01*
X56025524Y-78863542D01*
X55930286Y-78911161D01*
X99427905Y-65693381D02*
X99427905Y-64693381D01*
X99666001Y-64693381D01*
X99808858Y-64741001D01*
X99904096Y-64836239D01*
X99951715Y-64931477D01*
X99999334Y-65121953D01*
X99999334Y-65264810D01*
X99951715Y-65455286D01*
X99904096Y-65550524D01*
X99808858Y-65645762D01*
X99666001Y-65693381D01*
X99427905Y-65693381D01*
X100856477Y-64693381D02*
X100666001Y-64693381D01*
X100570762Y-64741001D01*
X100523143Y-64788620D01*
X100427905Y-64931477D01*
X100380286Y-65121953D01*
X100380286Y-65502905D01*
X100427905Y-65598143D01*
X100475524Y-65645762D01*
X100570762Y-65693381D01*
X100761239Y-65693381D01*
X100856477Y-65645762D01*
X100904096Y-65598143D01*
X100951715Y-65502905D01*
X100951715Y-65264810D01*
X100904096Y-65169572D01*
X100856477Y-65121953D01*
X100761239Y-65074334D01*
X100570762Y-65074334D01*
X100475524Y-65121953D01*
X100427905Y-65169572D01*
X100380286Y-65264810D01*
X99427905Y-54263381D02*
X99427905Y-53263381D01*
X99666001Y-53263381D01*
X99808858Y-53311001D01*
X99904096Y-53406239D01*
X99951715Y-53501477D01*
X99999334Y-53691953D01*
X99999334Y-53834810D01*
X99951715Y-54025286D01*
X99904096Y-54120524D01*
X99808858Y-54215762D01*
X99666001Y-54263381D01*
X99427905Y-54263381D01*
X100904096Y-53263381D02*
X100427905Y-53263381D01*
X100380286Y-53739572D01*
X100427905Y-53691953D01*
X100523143Y-53644334D01*
X100761239Y-53644334D01*
X100856477Y-53691953D01*
X100904096Y-53739572D01*
X100951715Y-53834810D01*
X100951715Y-54072905D01*
X100904096Y-54168143D01*
X100856477Y-54215762D01*
X100761239Y-54263381D01*
X100523143Y-54263381D01*
X100427905Y-54215762D01*
X100380286Y-54168143D01*
X82917905Y-54263381D02*
X82917905Y-53263381D01*
X83156001Y-53263381D01*
X83298858Y-53311001D01*
X83394096Y-53406239D01*
X83441715Y-53501477D01*
X83489334Y-53691953D01*
X83489334Y-53834810D01*
X83441715Y-54025286D01*
X83394096Y-54120524D01*
X83298858Y-54215762D01*
X83156001Y-54263381D01*
X82917905Y-54263381D01*
X84346477Y-53596715D02*
X84346477Y-54263381D01*
X84108381Y-53215762D02*
X83870286Y-53930048D01*
X84489334Y-53930048D01*
X71487905Y-54263381D02*
X71487905Y-53263381D01*
X71726001Y-53263381D01*
X71868858Y-53311001D01*
X71964096Y-53406239D01*
X72011715Y-53501477D01*
X72059334Y-53691953D01*
X72059334Y-53834810D01*
X72011715Y-54025286D01*
X71964096Y-54120524D01*
X71868858Y-54215762D01*
X71726001Y-54263381D01*
X71487905Y-54263381D01*
X72392667Y-53263381D02*
X73011715Y-53263381D01*
X72678381Y-53644334D01*
X72821239Y-53644334D01*
X72916477Y-53691953D01*
X72964096Y-53739572D01*
X73011715Y-53834810D01*
X73011715Y-54072905D01*
X72964096Y-54168143D01*
X72916477Y-54215762D01*
X72821239Y-54263381D01*
X72535524Y-54263381D01*
X72440286Y-54215762D01*
X72392667Y-54168143D01*
X54977905Y-65693381D02*
X54977905Y-64693381D01*
X55216001Y-64693381D01*
X55358858Y-64741001D01*
X55454096Y-64836239D01*
X55501715Y-64931477D01*
X55549334Y-65121953D01*
X55549334Y-65264810D01*
X55501715Y-65455286D01*
X55454096Y-65550524D01*
X55358858Y-65645762D01*
X55216001Y-65693381D01*
X54977905Y-65693381D01*
X55930286Y-64788620D02*
X55977905Y-64741001D01*
X56073143Y-64693381D01*
X56311239Y-64693381D01*
X56406477Y-64741001D01*
X56454096Y-64788620D01*
X56501715Y-64883858D01*
X56501715Y-64979096D01*
X56454096Y-65121953D01*
X55882667Y-65693381D01*
X56501715Y-65693381D01*
X54977905Y-54263381D02*
X54977905Y-53263381D01*
X55216001Y-53263381D01*
X55358858Y-53311001D01*
X55454096Y-53406239D01*
X55501715Y-53501477D01*
X55549334Y-53691953D01*
X55549334Y-53834810D01*
X55501715Y-54025286D01*
X55454096Y-54120524D01*
X55358858Y-54215762D01*
X55216001Y-54263381D01*
X54977905Y-54263381D01*
X56501715Y-54263381D02*
X55930286Y-54263381D01*
X56216001Y-54263381D02*
X56216001Y-53263381D01*
X56120762Y-53406239D01*
X56025524Y-53501477D01*
X55930286Y-53549096D01*
M02*
