G04 #@! TF.GenerationSoftware,KiCad,Pcbnew,(5.1.6)-1*
G04 #@! TF.CreationDate,2020-06-14T15:38:25+02:00*
G04 #@! TF.ProjectId,panel1,70616e65-6c31-42e6-9b69-6361645f7063,rev?*
G04 #@! TF.SameCoordinates,Original*
G04 #@! TF.FileFunction,Paste,Bot*
G04 #@! TF.FilePolarity,Positive*
%FSLAX46Y46*%
G04 Gerber Fmt 4.6, Leading zero omitted, Abs format (unit mm)*
G04 Created by KiCad (PCBNEW (5.1.6)-1) date 2020-06-14 15:38:25*
%MOMM*%
%LPD*%
G01*
G04 APERTURE LIST*
%ADD10R,0.800000X0.900000*%
%ADD11R,2.000000X1.500000*%
%ADD12R,2.000000X3.800000*%
G04 APERTURE END LIST*
G36*
G01*
X79376001Y-143382196D02*
X79376001Y-143082196D01*
G75*
G02*
X79526001Y-142932196I150000J0D01*
G01*
X81176001Y-142932196D01*
G75*
G02*
X81326001Y-143082196I0J-150000D01*
G01*
X81326001Y-143382196D01*
G75*
G02*
X81176001Y-143532196I-150000J0D01*
G01*
X79526001Y-143532196D01*
G75*
G02*
X79376001Y-143382196I0J150000D01*
G01*
G37*
G36*
G01*
X79376001Y-142112196D02*
X79376001Y-141812196D01*
G75*
G02*
X79526001Y-141662196I150000J0D01*
G01*
X81176001Y-141662196D01*
G75*
G02*
X81326001Y-141812196I0J-150000D01*
G01*
X81326001Y-142112196D01*
G75*
G02*
X81176001Y-142262196I-150000J0D01*
G01*
X79526001Y-142262196D01*
G75*
G02*
X79376001Y-142112196I0J150000D01*
G01*
G37*
G36*
G01*
X79376001Y-140842196D02*
X79376001Y-140542196D01*
G75*
G02*
X79526001Y-140392196I150000J0D01*
G01*
X81176001Y-140392196D01*
G75*
G02*
X81326001Y-140542196I0J-150000D01*
G01*
X81326001Y-140842196D01*
G75*
G02*
X81176001Y-140992196I-150000J0D01*
G01*
X79526001Y-140992196D01*
G75*
G02*
X79376001Y-140842196I0J150000D01*
G01*
G37*
G36*
G01*
X79376001Y-139572196D02*
X79376001Y-139272196D01*
G75*
G02*
X79526001Y-139122196I150000J0D01*
G01*
X81176001Y-139122196D01*
G75*
G02*
X81326001Y-139272196I0J-150000D01*
G01*
X81326001Y-139572196D01*
G75*
G02*
X81176001Y-139722196I-150000J0D01*
G01*
X79526001Y-139722196D01*
G75*
G02*
X79376001Y-139572196I0J150000D01*
G01*
G37*
G36*
G01*
X79376001Y-138302196D02*
X79376001Y-138002196D01*
G75*
G02*
X79526001Y-137852196I150000J0D01*
G01*
X81176001Y-137852196D01*
G75*
G02*
X81326001Y-138002196I0J-150000D01*
G01*
X81326001Y-138302196D01*
G75*
G02*
X81176001Y-138452196I-150000J0D01*
G01*
X79526001Y-138452196D01*
G75*
G02*
X79376001Y-138302196I0J150000D01*
G01*
G37*
G36*
G01*
X79376001Y-137032196D02*
X79376001Y-136732196D01*
G75*
G02*
X79526001Y-136582196I150000J0D01*
G01*
X81176001Y-136582196D01*
G75*
G02*
X81326001Y-136732196I0J-150000D01*
G01*
X81326001Y-137032196D01*
G75*
G02*
X81176001Y-137182196I-150000J0D01*
G01*
X79526001Y-137182196D01*
G75*
G02*
X79376001Y-137032196I0J150000D01*
G01*
G37*
G36*
G01*
X79376001Y-135762196D02*
X79376001Y-135462196D01*
G75*
G02*
X79526001Y-135312196I150000J0D01*
G01*
X81176001Y-135312196D01*
G75*
G02*
X81326001Y-135462196I0J-150000D01*
G01*
X81326001Y-135762196D01*
G75*
G02*
X81176001Y-135912196I-150000J0D01*
G01*
X79526001Y-135912196D01*
G75*
G02*
X79376001Y-135762196I0J150000D01*
G01*
G37*
G36*
G01*
X79376001Y-134492196D02*
X79376001Y-134192196D01*
G75*
G02*
X79526001Y-134042196I150000J0D01*
G01*
X81176001Y-134042196D01*
G75*
G02*
X81326001Y-134192196I0J-150000D01*
G01*
X81326001Y-134492196D01*
G75*
G02*
X81176001Y-134642196I-150000J0D01*
G01*
X79526001Y-134642196D01*
G75*
G02*
X79376001Y-134492196I0J150000D01*
G01*
G37*
G36*
G01*
X74426001Y-134492196D02*
X74426001Y-134192196D01*
G75*
G02*
X74576001Y-134042196I150000J0D01*
G01*
X76226001Y-134042196D01*
G75*
G02*
X76376001Y-134192196I0J-150000D01*
G01*
X76376001Y-134492196D01*
G75*
G02*
X76226001Y-134642196I-150000J0D01*
G01*
X74576001Y-134642196D01*
G75*
G02*
X74426001Y-134492196I0J150000D01*
G01*
G37*
G36*
G01*
X74426001Y-135762196D02*
X74426001Y-135462196D01*
G75*
G02*
X74576001Y-135312196I150000J0D01*
G01*
X76226001Y-135312196D01*
G75*
G02*
X76376001Y-135462196I0J-150000D01*
G01*
X76376001Y-135762196D01*
G75*
G02*
X76226001Y-135912196I-150000J0D01*
G01*
X74576001Y-135912196D01*
G75*
G02*
X74426001Y-135762196I0J150000D01*
G01*
G37*
G36*
G01*
X74426001Y-137032196D02*
X74426001Y-136732196D01*
G75*
G02*
X74576001Y-136582196I150000J0D01*
G01*
X76226001Y-136582196D01*
G75*
G02*
X76376001Y-136732196I0J-150000D01*
G01*
X76376001Y-137032196D01*
G75*
G02*
X76226001Y-137182196I-150000J0D01*
G01*
X74576001Y-137182196D01*
G75*
G02*
X74426001Y-137032196I0J150000D01*
G01*
G37*
G36*
G01*
X74426001Y-138302196D02*
X74426001Y-138002196D01*
G75*
G02*
X74576001Y-137852196I150000J0D01*
G01*
X76226001Y-137852196D01*
G75*
G02*
X76376001Y-138002196I0J-150000D01*
G01*
X76376001Y-138302196D01*
G75*
G02*
X76226001Y-138452196I-150000J0D01*
G01*
X74576001Y-138452196D01*
G75*
G02*
X74426001Y-138302196I0J150000D01*
G01*
G37*
G36*
G01*
X74426001Y-139572196D02*
X74426001Y-139272196D01*
G75*
G02*
X74576001Y-139122196I150000J0D01*
G01*
X76226001Y-139122196D01*
G75*
G02*
X76376001Y-139272196I0J-150000D01*
G01*
X76376001Y-139572196D01*
G75*
G02*
X76226001Y-139722196I-150000J0D01*
G01*
X74576001Y-139722196D01*
G75*
G02*
X74426001Y-139572196I0J150000D01*
G01*
G37*
G36*
G01*
X74426001Y-140842196D02*
X74426001Y-140542196D01*
G75*
G02*
X74576001Y-140392196I150000J0D01*
G01*
X76226001Y-140392196D01*
G75*
G02*
X76376001Y-140542196I0J-150000D01*
G01*
X76376001Y-140842196D01*
G75*
G02*
X76226001Y-140992196I-150000J0D01*
G01*
X74576001Y-140992196D01*
G75*
G02*
X74426001Y-140842196I0J150000D01*
G01*
G37*
G36*
G01*
X74426001Y-142112196D02*
X74426001Y-141812196D01*
G75*
G02*
X74576001Y-141662196I150000J0D01*
G01*
X76226001Y-141662196D01*
G75*
G02*
X76376001Y-141812196I0J-150000D01*
G01*
X76376001Y-142112196D01*
G75*
G02*
X76226001Y-142262196I-150000J0D01*
G01*
X74576001Y-142262196D01*
G75*
G02*
X74426001Y-142112196I0J150000D01*
G01*
G37*
G36*
G01*
X74426001Y-143382196D02*
X74426001Y-143082196D01*
G75*
G02*
X74576001Y-142932196I150000J0D01*
G01*
X76226001Y-142932196D01*
G75*
G02*
X76376001Y-143082196I0J-150000D01*
G01*
X76376001Y-143382196D01*
G75*
G02*
X76226001Y-143532196I-150000J0D01*
G01*
X74576001Y-143532196D01*
G75*
G02*
X74426001Y-143382196I0J150000D01*
G01*
G37*
G36*
G01*
X88726001Y-128904696D02*
X87476001Y-128904696D01*
G75*
G02*
X87226001Y-128654696I0J250000D01*
G01*
X87226001Y-127729696D01*
G75*
G02*
X87476001Y-127479696I250000J0D01*
G01*
X88726001Y-127479696D01*
G75*
G02*
X88976001Y-127729696I0J-250000D01*
G01*
X88976001Y-128654696D01*
G75*
G02*
X88726001Y-128904696I-250000J0D01*
G01*
G37*
G36*
G01*
X88726001Y-131879696D02*
X87476001Y-131879696D01*
G75*
G02*
X87226001Y-131629696I0J250000D01*
G01*
X87226001Y-130704696D01*
G75*
G02*
X87476001Y-130454696I250000J0D01*
G01*
X88726001Y-130454696D01*
G75*
G02*
X88976001Y-130704696I0J-250000D01*
G01*
X88976001Y-131629696D01*
G75*
G02*
X88726001Y-131879696I-250000J0D01*
G01*
G37*
D10*
X85241001Y-133612196D03*
X84291001Y-135612196D03*
X86191001Y-135612196D03*
X89051001Y-133612196D03*
X88101001Y-135612196D03*
X90001001Y-135612196D03*
G36*
G01*
X76661001Y-130174696D02*
X75411001Y-130174696D01*
G75*
G02*
X75161001Y-129924696I0J250000D01*
G01*
X75161001Y-128999696D01*
G75*
G02*
X75411001Y-128749696I250000J0D01*
G01*
X76661001Y-128749696D01*
G75*
G02*
X76911001Y-128999696I0J-250000D01*
G01*
X76911001Y-129924696D01*
G75*
G02*
X76661001Y-130174696I-250000J0D01*
G01*
G37*
G36*
G01*
X76661001Y-133149696D02*
X75411001Y-133149696D01*
G75*
G02*
X75161001Y-132899696I0J250000D01*
G01*
X75161001Y-131974696D01*
G75*
G02*
X75411001Y-131724696I250000J0D01*
G01*
X76661001Y-131724696D01*
G75*
G02*
X76911001Y-131974696I0J-250000D01*
G01*
X76911001Y-132899696D01*
G75*
G02*
X76661001Y-133149696I-250000J0D01*
G01*
G37*
G36*
G01*
X79836001Y-130174696D02*
X78586001Y-130174696D01*
G75*
G02*
X78336001Y-129924696I0J250000D01*
G01*
X78336001Y-128999696D01*
G75*
G02*
X78586001Y-128749696I250000J0D01*
G01*
X79836001Y-128749696D01*
G75*
G02*
X80086001Y-128999696I0J-250000D01*
G01*
X80086001Y-129924696D01*
G75*
G02*
X79836001Y-130174696I-250000J0D01*
G01*
G37*
G36*
G01*
X79836001Y-133149696D02*
X78586001Y-133149696D01*
G75*
G02*
X78336001Y-132899696I0J250000D01*
G01*
X78336001Y-131974696D01*
G75*
G02*
X78586001Y-131724696I250000J0D01*
G01*
X79836001Y-131724696D01*
G75*
G02*
X80086001Y-131974696I0J-250000D01*
G01*
X80086001Y-132899696D01*
G75*
G02*
X79836001Y-133149696I-250000J0D01*
G01*
G37*
G36*
G01*
X83646001Y-138429696D02*
X82396001Y-138429696D01*
G75*
G02*
X82146001Y-138179696I0J250000D01*
G01*
X82146001Y-137254696D01*
G75*
G02*
X82396001Y-137004696I250000J0D01*
G01*
X83646001Y-137004696D01*
G75*
G02*
X83896001Y-137254696I0J-250000D01*
G01*
X83896001Y-138179696D01*
G75*
G02*
X83646001Y-138429696I-250000J0D01*
G01*
G37*
G36*
G01*
X83646001Y-141404696D02*
X82396001Y-141404696D01*
G75*
G02*
X82146001Y-141154696I0J250000D01*
G01*
X82146001Y-140229696D01*
G75*
G02*
X82396001Y-139979696I250000J0D01*
G01*
X83646001Y-139979696D01*
G75*
G02*
X83896001Y-140229696I0J-250000D01*
G01*
X83896001Y-141154696D01*
G75*
G02*
X83646001Y-141404696I-250000J0D01*
G01*
G37*
G36*
G01*
X92536001Y-128904696D02*
X91286001Y-128904696D01*
G75*
G02*
X91036001Y-128654696I0J250000D01*
G01*
X91036001Y-127729696D01*
G75*
G02*
X91286001Y-127479696I250000J0D01*
G01*
X92536001Y-127479696D01*
G75*
G02*
X92786001Y-127729696I0J-250000D01*
G01*
X92786001Y-128654696D01*
G75*
G02*
X92536001Y-128904696I-250000J0D01*
G01*
G37*
G36*
G01*
X92536001Y-131879696D02*
X91286001Y-131879696D01*
G75*
G02*
X91036001Y-131629696I0J250000D01*
G01*
X91036001Y-130704696D01*
G75*
G02*
X91286001Y-130454696I250000J0D01*
G01*
X92536001Y-130454696D01*
G75*
G02*
X92786001Y-130704696I0J-250000D01*
G01*
X92786001Y-131629696D01*
G75*
G02*
X92536001Y-131879696I-250000J0D01*
G01*
G37*
X92866001Y-133612196D03*
X91916001Y-135612196D03*
X93816001Y-135612196D03*
X100486001Y-133612196D03*
X99536001Y-135612196D03*
X101436001Y-135612196D03*
X96676001Y-133612196D03*
X95726001Y-135612196D03*
X97626001Y-135612196D03*
D11*
X58841001Y-135217196D03*
X58841001Y-139817196D03*
X58841001Y-137517196D03*
D12*
X52541001Y-137517196D03*
G36*
G01*
X89381001Y-139979696D02*
X90631001Y-139979696D01*
G75*
G02*
X90881001Y-140229696I0J-250000D01*
G01*
X90881001Y-141154696D01*
G75*
G02*
X90631001Y-141404696I-250000J0D01*
G01*
X89381001Y-141404696D01*
G75*
G02*
X89131001Y-141154696I0J250000D01*
G01*
X89131001Y-140229696D01*
G75*
G02*
X89381001Y-139979696I250000J0D01*
G01*
G37*
G36*
G01*
X89381001Y-137004696D02*
X90631001Y-137004696D01*
G75*
G02*
X90881001Y-137254696I0J-250000D01*
G01*
X90881001Y-138179696D01*
G75*
G02*
X90631001Y-138429696I-250000J0D01*
G01*
X89381001Y-138429696D01*
G75*
G02*
X89131001Y-138179696I0J250000D01*
G01*
X89131001Y-137254696D01*
G75*
G02*
X89381001Y-137004696I250000J0D01*
G01*
G37*
G36*
G01*
X86821001Y-138429696D02*
X85571001Y-138429696D01*
G75*
G02*
X85321001Y-138179696I0J250000D01*
G01*
X85321001Y-137254696D01*
G75*
G02*
X85571001Y-137004696I250000J0D01*
G01*
X86821001Y-137004696D01*
G75*
G02*
X87071001Y-137254696I0J-250000D01*
G01*
X87071001Y-138179696D01*
G75*
G02*
X86821001Y-138429696I-250000J0D01*
G01*
G37*
G36*
G01*
X86821001Y-141404696D02*
X85571001Y-141404696D01*
G75*
G02*
X85321001Y-141154696I0J250000D01*
G01*
X85321001Y-140229696D01*
G75*
G02*
X85571001Y-139979696I250000J0D01*
G01*
X86821001Y-139979696D01*
G75*
G02*
X87071001Y-140229696I0J-250000D01*
G01*
X87071001Y-141154696D01*
G75*
G02*
X86821001Y-141404696I-250000J0D01*
G01*
G37*
G36*
G01*
X99173001Y-128637196D02*
X99173001Y-129887196D01*
G75*
G02*
X98923001Y-130137196I-250000J0D01*
G01*
X97998001Y-130137196D01*
G75*
G02*
X97748001Y-129887196I0J250000D01*
G01*
X97748001Y-128637196D01*
G75*
G02*
X97998001Y-128387196I250000J0D01*
G01*
X98923001Y-128387196D01*
G75*
G02*
X99173001Y-128637196I0J-250000D01*
G01*
G37*
G36*
G01*
X102148001Y-128637196D02*
X102148001Y-129887196D01*
G75*
G02*
X101898001Y-130137196I-250000J0D01*
G01*
X100973001Y-130137196D01*
G75*
G02*
X100723001Y-129887196I0J250000D01*
G01*
X100723001Y-128637196D01*
G75*
G02*
X100973001Y-128387196I250000J0D01*
G01*
X101898001Y-128387196D01*
G75*
G02*
X102148001Y-128637196I0J-250000D01*
G01*
G37*
G36*
G01*
X81238001Y-129887196D02*
X81238001Y-128637196D01*
G75*
G02*
X81488001Y-128387196I250000J0D01*
G01*
X82413001Y-128387196D01*
G75*
G02*
X82663001Y-128637196I0J-250000D01*
G01*
X82663001Y-129887196D01*
G75*
G02*
X82413001Y-130137196I-250000J0D01*
G01*
X81488001Y-130137196D01*
G75*
G02*
X81238001Y-129887196I0J250000D01*
G01*
G37*
G36*
G01*
X84213001Y-129887196D02*
X84213001Y-128637196D01*
G75*
G02*
X84463001Y-128387196I250000J0D01*
G01*
X85388001Y-128387196D01*
G75*
G02*
X85638001Y-128637196I0J-250000D01*
G01*
X85638001Y-129887196D01*
G75*
G02*
X85388001Y-130137196I-250000J0D01*
G01*
X84463001Y-130137196D01*
G75*
G02*
X84213001Y-129887196I0J250000D01*
G01*
G37*
G36*
G01*
X95096001Y-130454696D02*
X96346001Y-130454696D01*
G75*
G02*
X96596001Y-130704696I0J-250000D01*
G01*
X96596001Y-131629696D01*
G75*
G02*
X96346001Y-131879696I-250000J0D01*
G01*
X95096001Y-131879696D01*
G75*
G02*
X94846001Y-131629696I0J250000D01*
G01*
X94846001Y-130704696D01*
G75*
G02*
X95096001Y-130454696I250000J0D01*
G01*
G37*
G36*
G01*
X95096001Y-127479696D02*
X96346001Y-127479696D01*
G75*
G02*
X96596001Y-127729696I0J-250000D01*
G01*
X96596001Y-128654696D01*
G75*
G02*
X96346001Y-128904696I-250000J0D01*
G01*
X95096001Y-128904696D01*
G75*
G02*
X94846001Y-128654696I0J250000D01*
G01*
X94846001Y-127729696D01*
G75*
G02*
X95096001Y-127479696I250000J0D01*
G01*
G37*
G36*
G01*
X60786001Y-144145196D02*
X59536001Y-144145196D01*
G75*
G02*
X59286001Y-143895196I0J250000D01*
G01*
X59286001Y-142970196D01*
G75*
G02*
X59536001Y-142720196I250000J0D01*
G01*
X60786001Y-142720196D01*
G75*
G02*
X61036001Y-142970196I0J-250000D01*
G01*
X61036001Y-143895196D01*
G75*
G02*
X60786001Y-144145196I-250000J0D01*
G01*
G37*
G36*
G01*
X60786001Y-147120196D02*
X59536001Y-147120196D01*
G75*
G02*
X59286001Y-146870196I0J250000D01*
G01*
X59286001Y-145945196D01*
G75*
G02*
X59536001Y-145695196I250000J0D01*
G01*
X60786001Y-145695196D01*
G75*
G02*
X61036001Y-145945196I0J-250000D01*
G01*
X61036001Y-146870196D01*
G75*
G02*
X60786001Y-147120196I-250000J0D01*
G01*
G37*
G36*
G01*
X94441001Y-138429696D02*
X93191001Y-138429696D01*
G75*
G02*
X92941001Y-138179696I0J250000D01*
G01*
X92941001Y-137254696D01*
G75*
G02*
X93191001Y-137004696I250000J0D01*
G01*
X94441001Y-137004696D01*
G75*
G02*
X94691001Y-137254696I0J-250000D01*
G01*
X94691001Y-138179696D01*
G75*
G02*
X94441001Y-138429696I-250000J0D01*
G01*
G37*
G36*
G01*
X94441001Y-141404696D02*
X93191001Y-141404696D01*
G75*
G02*
X92941001Y-141154696I0J250000D01*
G01*
X92941001Y-140229696D01*
G75*
G02*
X93191001Y-139979696I250000J0D01*
G01*
X94441001Y-139979696D01*
G75*
G02*
X94691001Y-140229696I0J-250000D01*
G01*
X94691001Y-141154696D01*
G75*
G02*
X94441001Y-141404696I-250000J0D01*
G01*
G37*
G36*
G01*
X100811001Y-139979696D02*
X102061001Y-139979696D01*
G75*
G02*
X102311001Y-140229696I0J-250000D01*
G01*
X102311001Y-141154696D01*
G75*
G02*
X102061001Y-141404696I-250000J0D01*
G01*
X100811001Y-141404696D01*
G75*
G02*
X100561001Y-141154696I0J250000D01*
G01*
X100561001Y-140229696D01*
G75*
G02*
X100811001Y-139979696I250000J0D01*
G01*
G37*
G36*
G01*
X100811001Y-137004696D02*
X102061001Y-137004696D01*
G75*
G02*
X102311001Y-137254696I0J-250000D01*
G01*
X102311001Y-138179696D01*
G75*
G02*
X102061001Y-138429696I-250000J0D01*
G01*
X100811001Y-138429696D01*
G75*
G02*
X100561001Y-138179696I0J250000D01*
G01*
X100561001Y-137254696D01*
G75*
G02*
X100811001Y-137004696I250000J0D01*
G01*
G37*
G36*
G01*
X97001001Y-139979696D02*
X98251001Y-139979696D01*
G75*
G02*
X98501001Y-140229696I0J-250000D01*
G01*
X98501001Y-141154696D01*
G75*
G02*
X98251001Y-141404696I-250000J0D01*
G01*
X97001001Y-141404696D01*
G75*
G02*
X96751001Y-141154696I0J250000D01*
G01*
X96751001Y-140229696D01*
G75*
G02*
X97001001Y-139979696I250000J0D01*
G01*
G37*
G36*
G01*
X97001001Y-137004696D02*
X98251001Y-137004696D01*
G75*
G02*
X98501001Y-137254696I0J-250000D01*
G01*
X98501001Y-138179696D01*
G75*
G02*
X98251001Y-138429696I-250000J0D01*
G01*
X97001001Y-138429696D01*
G75*
G02*
X96751001Y-138179696I0J250000D01*
G01*
X96751001Y-137254696D01*
G75*
G02*
X97001001Y-137004696I250000J0D01*
G01*
G37*
G36*
G01*
X79376001Y-118020131D02*
X79376001Y-117720131D01*
G75*
G02*
X79526001Y-117570131I150000J0D01*
G01*
X81176001Y-117570131D01*
G75*
G02*
X81326001Y-117720131I0J-150000D01*
G01*
X81326001Y-118020131D01*
G75*
G02*
X81176001Y-118170131I-150000J0D01*
G01*
X79526001Y-118170131D01*
G75*
G02*
X79376001Y-118020131I0J150000D01*
G01*
G37*
G36*
G01*
X79376001Y-116750131D02*
X79376001Y-116450131D01*
G75*
G02*
X79526001Y-116300131I150000J0D01*
G01*
X81176001Y-116300131D01*
G75*
G02*
X81326001Y-116450131I0J-150000D01*
G01*
X81326001Y-116750131D01*
G75*
G02*
X81176001Y-116900131I-150000J0D01*
G01*
X79526001Y-116900131D01*
G75*
G02*
X79376001Y-116750131I0J150000D01*
G01*
G37*
G36*
G01*
X79376001Y-115480131D02*
X79376001Y-115180131D01*
G75*
G02*
X79526001Y-115030131I150000J0D01*
G01*
X81176001Y-115030131D01*
G75*
G02*
X81326001Y-115180131I0J-150000D01*
G01*
X81326001Y-115480131D01*
G75*
G02*
X81176001Y-115630131I-150000J0D01*
G01*
X79526001Y-115630131D01*
G75*
G02*
X79376001Y-115480131I0J150000D01*
G01*
G37*
G36*
G01*
X79376001Y-114210131D02*
X79376001Y-113910131D01*
G75*
G02*
X79526001Y-113760131I150000J0D01*
G01*
X81176001Y-113760131D01*
G75*
G02*
X81326001Y-113910131I0J-150000D01*
G01*
X81326001Y-114210131D01*
G75*
G02*
X81176001Y-114360131I-150000J0D01*
G01*
X79526001Y-114360131D01*
G75*
G02*
X79376001Y-114210131I0J150000D01*
G01*
G37*
G36*
G01*
X79376001Y-112940131D02*
X79376001Y-112640131D01*
G75*
G02*
X79526001Y-112490131I150000J0D01*
G01*
X81176001Y-112490131D01*
G75*
G02*
X81326001Y-112640131I0J-150000D01*
G01*
X81326001Y-112940131D01*
G75*
G02*
X81176001Y-113090131I-150000J0D01*
G01*
X79526001Y-113090131D01*
G75*
G02*
X79376001Y-112940131I0J150000D01*
G01*
G37*
G36*
G01*
X79376001Y-111670131D02*
X79376001Y-111370131D01*
G75*
G02*
X79526001Y-111220131I150000J0D01*
G01*
X81176001Y-111220131D01*
G75*
G02*
X81326001Y-111370131I0J-150000D01*
G01*
X81326001Y-111670131D01*
G75*
G02*
X81176001Y-111820131I-150000J0D01*
G01*
X79526001Y-111820131D01*
G75*
G02*
X79376001Y-111670131I0J150000D01*
G01*
G37*
G36*
G01*
X79376001Y-110400131D02*
X79376001Y-110100131D01*
G75*
G02*
X79526001Y-109950131I150000J0D01*
G01*
X81176001Y-109950131D01*
G75*
G02*
X81326001Y-110100131I0J-150000D01*
G01*
X81326001Y-110400131D01*
G75*
G02*
X81176001Y-110550131I-150000J0D01*
G01*
X79526001Y-110550131D01*
G75*
G02*
X79376001Y-110400131I0J150000D01*
G01*
G37*
G36*
G01*
X79376001Y-109130131D02*
X79376001Y-108830131D01*
G75*
G02*
X79526001Y-108680131I150000J0D01*
G01*
X81176001Y-108680131D01*
G75*
G02*
X81326001Y-108830131I0J-150000D01*
G01*
X81326001Y-109130131D01*
G75*
G02*
X81176001Y-109280131I-150000J0D01*
G01*
X79526001Y-109280131D01*
G75*
G02*
X79376001Y-109130131I0J150000D01*
G01*
G37*
G36*
G01*
X74426001Y-109130131D02*
X74426001Y-108830131D01*
G75*
G02*
X74576001Y-108680131I150000J0D01*
G01*
X76226001Y-108680131D01*
G75*
G02*
X76376001Y-108830131I0J-150000D01*
G01*
X76376001Y-109130131D01*
G75*
G02*
X76226001Y-109280131I-150000J0D01*
G01*
X74576001Y-109280131D01*
G75*
G02*
X74426001Y-109130131I0J150000D01*
G01*
G37*
G36*
G01*
X74426001Y-110400131D02*
X74426001Y-110100131D01*
G75*
G02*
X74576001Y-109950131I150000J0D01*
G01*
X76226001Y-109950131D01*
G75*
G02*
X76376001Y-110100131I0J-150000D01*
G01*
X76376001Y-110400131D01*
G75*
G02*
X76226001Y-110550131I-150000J0D01*
G01*
X74576001Y-110550131D01*
G75*
G02*
X74426001Y-110400131I0J150000D01*
G01*
G37*
G36*
G01*
X74426001Y-111670131D02*
X74426001Y-111370131D01*
G75*
G02*
X74576001Y-111220131I150000J0D01*
G01*
X76226001Y-111220131D01*
G75*
G02*
X76376001Y-111370131I0J-150000D01*
G01*
X76376001Y-111670131D01*
G75*
G02*
X76226001Y-111820131I-150000J0D01*
G01*
X74576001Y-111820131D01*
G75*
G02*
X74426001Y-111670131I0J150000D01*
G01*
G37*
G36*
G01*
X74426001Y-112940131D02*
X74426001Y-112640131D01*
G75*
G02*
X74576001Y-112490131I150000J0D01*
G01*
X76226001Y-112490131D01*
G75*
G02*
X76376001Y-112640131I0J-150000D01*
G01*
X76376001Y-112940131D01*
G75*
G02*
X76226001Y-113090131I-150000J0D01*
G01*
X74576001Y-113090131D01*
G75*
G02*
X74426001Y-112940131I0J150000D01*
G01*
G37*
G36*
G01*
X74426001Y-114210131D02*
X74426001Y-113910131D01*
G75*
G02*
X74576001Y-113760131I150000J0D01*
G01*
X76226001Y-113760131D01*
G75*
G02*
X76376001Y-113910131I0J-150000D01*
G01*
X76376001Y-114210131D01*
G75*
G02*
X76226001Y-114360131I-150000J0D01*
G01*
X74576001Y-114360131D01*
G75*
G02*
X74426001Y-114210131I0J150000D01*
G01*
G37*
G36*
G01*
X74426001Y-115480131D02*
X74426001Y-115180131D01*
G75*
G02*
X74576001Y-115030131I150000J0D01*
G01*
X76226001Y-115030131D01*
G75*
G02*
X76376001Y-115180131I0J-150000D01*
G01*
X76376001Y-115480131D01*
G75*
G02*
X76226001Y-115630131I-150000J0D01*
G01*
X74576001Y-115630131D01*
G75*
G02*
X74426001Y-115480131I0J150000D01*
G01*
G37*
G36*
G01*
X74426001Y-116750131D02*
X74426001Y-116450131D01*
G75*
G02*
X74576001Y-116300131I150000J0D01*
G01*
X76226001Y-116300131D01*
G75*
G02*
X76376001Y-116450131I0J-150000D01*
G01*
X76376001Y-116750131D01*
G75*
G02*
X76226001Y-116900131I-150000J0D01*
G01*
X74576001Y-116900131D01*
G75*
G02*
X74426001Y-116750131I0J150000D01*
G01*
G37*
G36*
G01*
X74426001Y-118020131D02*
X74426001Y-117720131D01*
G75*
G02*
X74576001Y-117570131I150000J0D01*
G01*
X76226001Y-117570131D01*
G75*
G02*
X76376001Y-117720131I0J-150000D01*
G01*
X76376001Y-118020131D01*
G75*
G02*
X76226001Y-118170131I-150000J0D01*
G01*
X74576001Y-118170131D01*
G75*
G02*
X74426001Y-118020131I0J150000D01*
G01*
G37*
G36*
G01*
X88726001Y-103542631D02*
X87476001Y-103542631D01*
G75*
G02*
X87226001Y-103292631I0J250000D01*
G01*
X87226001Y-102367631D01*
G75*
G02*
X87476001Y-102117631I250000J0D01*
G01*
X88726001Y-102117631D01*
G75*
G02*
X88976001Y-102367631I0J-250000D01*
G01*
X88976001Y-103292631D01*
G75*
G02*
X88726001Y-103542631I-250000J0D01*
G01*
G37*
G36*
G01*
X88726001Y-106517631D02*
X87476001Y-106517631D01*
G75*
G02*
X87226001Y-106267631I0J250000D01*
G01*
X87226001Y-105342631D01*
G75*
G02*
X87476001Y-105092631I250000J0D01*
G01*
X88726001Y-105092631D01*
G75*
G02*
X88976001Y-105342631I0J-250000D01*
G01*
X88976001Y-106267631D01*
G75*
G02*
X88726001Y-106517631I-250000J0D01*
G01*
G37*
D10*
X85241001Y-108250131D03*
X84291001Y-110250131D03*
X86191001Y-110250131D03*
X89051001Y-108250131D03*
X88101001Y-110250131D03*
X90001001Y-110250131D03*
G36*
G01*
X76661001Y-104812631D02*
X75411001Y-104812631D01*
G75*
G02*
X75161001Y-104562631I0J250000D01*
G01*
X75161001Y-103637631D01*
G75*
G02*
X75411001Y-103387631I250000J0D01*
G01*
X76661001Y-103387631D01*
G75*
G02*
X76911001Y-103637631I0J-250000D01*
G01*
X76911001Y-104562631D01*
G75*
G02*
X76661001Y-104812631I-250000J0D01*
G01*
G37*
G36*
G01*
X76661001Y-107787631D02*
X75411001Y-107787631D01*
G75*
G02*
X75161001Y-107537631I0J250000D01*
G01*
X75161001Y-106612631D01*
G75*
G02*
X75411001Y-106362631I250000J0D01*
G01*
X76661001Y-106362631D01*
G75*
G02*
X76911001Y-106612631I0J-250000D01*
G01*
X76911001Y-107537631D01*
G75*
G02*
X76661001Y-107787631I-250000J0D01*
G01*
G37*
G36*
G01*
X79836001Y-104812631D02*
X78586001Y-104812631D01*
G75*
G02*
X78336001Y-104562631I0J250000D01*
G01*
X78336001Y-103637631D01*
G75*
G02*
X78586001Y-103387631I250000J0D01*
G01*
X79836001Y-103387631D01*
G75*
G02*
X80086001Y-103637631I0J-250000D01*
G01*
X80086001Y-104562631D01*
G75*
G02*
X79836001Y-104812631I-250000J0D01*
G01*
G37*
G36*
G01*
X79836001Y-107787631D02*
X78586001Y-107787631D01*
G75*
G02*
X78336001Y-107537631I0J250000D01*
G01*
X78336001Y-106612631D01*
G75*
G02*
X78586001Y-106362631I250000J0D01*
G01*
X79836001Y-106362631D01*
G75*
G02*
X80086001Y-106612631I0J-250000D01*
G01*
X80086001Y-107537631D01*
G75*
G02*
X79836001Y-107787631I-250000J0D01*
G01*
G37*
G36*
G01*
X83646001Y-113067631D02*
X82396001Y-113067631D01*
G75*
G02*
X82146001Y-112817631I0J250000D01*
G01*
X82146001Y-111892631D01*
G75*
G02*
X82396001Y-111642631I250000J0D01*
G01*
X83646001Y-111642631D01*
G75*
G02*
X83896001Y-111892631I0J-250000D01*
G01*
X83896001Y-112817631D01*
G75*
G02*
X83646001Y-113067631I-250000J0D01*
G01*
G37*
G36*
G01*
X83646001Y-116042631D02*
X82396001Y-116042631D01*
G75*
G02*
X82146001Y-115792631I0J250000D01*
G01*
X82146001Y-114867631D01*
G75*
G02*
X82396001Y-114617631I250000J0D01*
G01*
X83646001Y-114617631D01*
G75*
G02*
X83896001Y-114867631I0J-250000D01*
G01*
X83896001Y-115792631D01*
G75*
G02*
X83646001Y-116042631I-250000J0D01*
G01*
G37*
G36*
G01*
X92536001Y-103542631D02*
X91286001Y-103542631D01*
G75*
G02*
X91036001Y-103292631I0J250000D01*
G01*
X91036001Y-102367631D01*
G75*
G02*
X91286001Y-102117631I250000J0D01*
G01*
X92536001Y-102117631D01*
G75*
G02*
X92786001Y-102367631I0J-250000D01*
G01*
X92786001Y-103292631D01*
G75*
G02*
X92536001Y-103542631I-250000J0D01*
G01*
G37*
G36*
G01*
X92536001Y-106517631D02*
X91286001Y-106517631D01*
G75*
G02*
X91036001Y-106267631I0J250000D01*
G01*
X91036001Y-105342631D01*
G75*
G02*
X91286001Y-105092631I250000J0D01*
G01*
X92536001Y-105092631D01*
G75*
G02*
X92786001Y-105342631I0J-250000D01*
G01*
X92786001Y-106267631D01*
G75*
G02*
X92536001Y-106517631I-250000J0D01*
G01*
G37*
X92866001Y-108250131D03*
X91916001Y-110250131D03*
X93816001Y-110250131D03*
X100486001Y-108250131D03*
X99536001Y-110250131D03*
X101436001Y-110250131D03*
X96676001Y-108250131D03*
X95726001Y-110250131D03*
X97626001Y-110250131D03*
D11*
X58841001Y-109855131D03*
X58841001Y-114455131D03*
X58841001Y-112155131D03*
D12*
X52541001Y-112155131D03*
G36*
G01*
X89381001Y-114617631D02*
X90631001Y-114617631D01*
G75*
G02*
X90881001Y-114867631I0J-250000D01*
G01*
X90881001Y-115792631D01*
G75*
G02*
X90631001Y-116042631I-250000J0D01*
G01*
X89381001Y-116042631D01*
G75*
G02*
X89131001Y-115792631I0J250000D01*
G01*
X89131001Y-114867631D01*
G75*
G02*
X89381001Y-114617631I250000J0D01*
G01*
G37*
G36*
G01*
X89381001Y-111642631D02*
X90631001Y-111642631D01*
G75*
G02*
X90881001Y-111892631I0J-250000D01*
G01*
X90881001Y-112817631D01*
G75*
G02*
X90631001Y-113067631I-250000J0D01*
G01*
X89381001Y-113067631D01*
G75*
G02*
X89131001Y-112817631I0J250000D01*
G01*
X89131001Y-111892631D01*
G75*
G02*
X89381001Y-111642631I250000J0D01*
G01*
G37*
G36*
G01*
X86821001Y-113067631D02*
X85571001Y-113067631D01*
G75*
G02*
X85321001Y-112817631I0J250000D01*
G01*
X85321001Y-111892631D01*
G75*
G02*
X85571001Y-111642631I250000J0D01*
G01*
X86821001Y-111642631D01*
G75*
G02*
X87071001Y-111892631I0J-250000D01*
G01*
X87071001Y-112817631D01*
G75*
G02*
X86821001Y-113067631I-250000J0D01*
G01*
G37*
G36*
G01*
X86821001Y-116042631D02*
X85571001Y-116042631D01*
G75*
G02*
X85321001Y-115792631I0J250000D01*
G01*
X85321001Y-114867631D01*
G75*
G02*
X85571001Y-114617631I250000J0D01*
G01*
X86821001Y-114617631D01*
G75*
G02*
X87071001Y-114867631I0J-250000D01*
G01*
X87071001Y-115792631D01*
G75*
G02*
X86821001Y-116042631I-250000J0D01*
G01*
G37*
G36*
G01*
X99173001Y-103275131D02*
X99173001Y-104525131D01*
G75*
G02*
X98923001Y-104775131I-250000J0D01*
G01*
X97998001Y-104775131D01*
G75*
G02*
X97748001Y-104525131I0J250000D01*
G01*
X97748001Y-103275131D01*
G75*
G02*
X97998001Y-103025131I250000J0D01*
G01*
X98923001Y-103025131D01*
G75*
G02*
X99173001Y-103275131I0J-250000D01*
G01*
G37*
G36*
G01*
X102148001Y-103275131D02*
X102148001Y-104525131D01*
G75*
G02*
X101898001Y-104775131I-250000J0D01*
G01*
X100973001Y-104775131D01*
G75*
G02*
X100723001Y-104525131I0J250000D01*
G01*
X100723001Y-103275131D01*
G75*
G02*
X100973001Y-103025131I250000J0D01*
G01*
X101898001Y-103025131D01*
G75*
G02*
X102148001Y-103275131I0J-250000D01*
G01*
G37*
G36*
G01*
X81238001Y-104525131D02*
X81238001Y-103275131D01*
G75*
G02*
X81488001Y-103025131I250000J0D01*
G01*
X82413001Y-103025131D01*
G75*
G02*
X82663001Y-103275131I0J-250000D01*
G01*
X82663001Y-104525131D01*
G75*
G02*
X82413001Y-104775131I-250000J0D01*
G01*
X81488001Y-104775131D01*
G75*
G02*
X81238001Y-104525131I0J250000D01*
G01*
G37*
G36*
G01*
X84213001Y-104525131D02*
X84213001Y-103275131D01*
G75*
G02*
X84463001Y-103025131I250000J0D01*
G01*
X85388001Y-103025131D01*
G75*
G02*
X85638001Y-103275131I0J-250000D01*
G01*
X85638001Y-104525131D01*
G75*
G02*
X85388001Y-104775131I-250000J0D01*
G01*
X84463001Y-104775131D01*
G75*
G02*
X84213001Y-104525131I0J250000D01*
G01*
G37*
G36*
G01*
X95096001Y-105092631D02*
X96346001Y-105092631D01*
G75*
G02*
X96596001Y-105342631I0J-250000D01*
G01*
X96596001Y-106267631D01*
G75*
G02*
X96346001Y-106517631I-250000J0D01*
G01*
X95096001Y-106517631D01*
G75*
G02*
X94846001Y-106267631I0J250000D01*
G01*
X94846001Y-105342631D01*
G75*
G02*
X95096001Y-105092631I250000J0D01*
G01*
G37*
G36*
G01*
X95096001Y-102117631D02*
X96346001Y-102117631D01*
G75*
G02*
X96596001Y-102367631I0J-250000D01*
G01*
X96596001Y-103292631D01*
G75*
G02*
X96346001Y-103542631I-250000J0D01*
G01*
X95096001Y-103542631D01*
G75*
G02*
X94846001Y-103292631I0J250000D01*
G01*
X94846001Y-102367631D01*
G75*
G02*
X95096001Y-102117631I250000J0D01*
G01*
G37*
G36*
G01*
X60786001Y-118783131D02*
X59536001Y-118783131D01*
G75*
G02*
X59286001Y-118533131I0J250000D01*
G01*
X59286001Y-117608131D01*
G75*
G02*
X59536001Y-117358131I250000J0D01*
G01*
X60786001Y-117358131D01*
G75*
G02*
X61036001Y-117608131I0J-250000D01*
G01*
X61036001Y-118533131D01*
G75*
G02*
X60786001Y-118783131I-250000J0D01*
G01*
G37*
G36*
G01*
X60786001Y-121758131D02*
X59536001Y-121758131D01*
G75*
G02*
X59286001Y-121508131I0J250000D01*
G01*
X59286001Y-120583131D01*
G75*
G02*
X59536001Y-120333131I250000J0D01*
G01*
X60786001Y-120333131D01*
G75*
G02*
X61036001Y-120583131I0J-250000D01*
G01*
X61036001Y-121508131D01*
G75*
G02*
X60786001Y-121758131I-250000J0D01*
G01*
G37*
G36*
G01*
X94441001Y-113067631D02*
X93191001Y-113067631D01*
G75*
G02*
X92941001Y-112817631I0J250000D01*
G01*
X92941001Y-111892631D01*
G75*
G02*
X93191001Y-111642631I250000J0D01*
G01*
X94441001Y-111642631D01*
G75*
G02*
X94691001Y-111892631I0J-250000D01*
G01*
X94691001Y-112817631D01*
G75*
G02*
X94441001Y-113067631I-250000J0D01*
G01*
G37*
G36*
G01*
X94441001Y-116042631D02*
X93191001Y-116042631D01*
G75*
G02*
X92941001Y-115792631I0J250000D01*
G01*
X92941001Y-114867631D01*
G75*
G02*
X93191001Y-114617631I250000J0D01*
G01*
X94441001Y-114617631D01*
G75*
G02*
X94691001Y-114867631I0J-250000D01*
G01*
X94691001Y-115792631D01*
G75*
G02*
X94441001Y-116042631I-250000J0D01*
G01*
G37*
G36*
G01*
X100811001Y-114617631D02*
X102061001Y-114617631D01*
G75*
G02*
X102311001Y-114867631I0J-250000D01*
G01*
X102311001Y-115792631D01*
G75*
G02*
X102061001Y-116042631I-250000J0D01*
G01*
X100811001Y-116042631D01*
G75*
G02*
X100561001Y-115792631I0J250000D01*
G01*
X100561001Y-114867631D01*
G75*
G02*
X100811001Y-114617631I250000J0D01*
G01*
G37*
G36*
G01*
X100811001Y-111642631D02*
X102061001Y-111642631D01*
G75*
G02*
X102311001Y-111892631I0J-250000D01*
G01*
X102311001Y-112817631D01*
G75*
G02*
X102061001Y-113067631I-250000J0D01*
G01*
X100811001Y-113067631D01*
G75*
G02*
X100561001Y-112817631I0J250000D01*
G01*
X100561001Y-111892631D01*
G75*
G02*
X100811001Y-111642631I250000J0D01*
G01*
G37*
G36*
G01*
X97001001Y-114617631D02*
X98251001Y-114617631D01*
G75*
G02*
X98501001Y-114867631I0J-250000D01*
G01*
X98501001Y-115792631D01*
G75*
G02*
X98251001Y-116042631I-250000J0D01*
G01*
X97001001Y-116042631D01*
G75*
G02*
X96751001Y-115792631I0J250000D01*
G01*
X96751001Y-114867631D01*
G75*
G02*
X97001001Y-114617631I250000J0D01*
G01*
G37*
G36*
G01*
X97001001Y-111642631D02*
X98251001Y-111642631D01*
G75*
G02*
X98501001Y-111892631I0J-250000D01*
G01*
X98501001Y-112817631D01*
G75*
G02*
X98251001Y-113067631I-250000J0D01*
G01*
X97001001Y-113067631D01*
G75*
G02*
X96751001Y-112817631I0J250000D01*
G01*
X96751001Y-111892631D01*
G75*
G02*
X97001001Y-111642631I250000J0D01*
G01*
G37*
G36*
G01*
X79376001Y-92658066D02*
X79376001Y-92358066D01*
G75*
G02*
X79526001Y-92208066I150000J0D01*
G01*
X81176001Y-92208066D01*
G75*
G02*
X81326001Y-92358066I0J-150000D01*
G01*
X81326001Y-92658066D01*
G75*
G02*
X81176001Y-92808066I-150000J0D01*
G01*
X79526001Y-92808066D01*
G75*
G02*
X79376001Y-92658066I0J150000D01*
G01*
G37*
G36*
G01*
X79376001Y-91388066D02*
X79376001Y-91088066D01*
G75*
G02*
X79526001Y-90938066I150000J0D01*
G01*
X81176001Y-90938066D01*
G75*
G02*
X81326001Y-91088066I0J-150000D01*
G01*
X81326001Y-91388066D01*
G75*
G02*
X81176001Y-91538066I-150000J0D01*
G01*
X79526001Y-91538066D01*
G75*
G02*
X79376001Y-91388066I0J150000D01*
G01*
G37*
G36*
G01*
X79376001Y-90118066D02*
X79376001Y-89818066D01*
G75*
G02*
X79526001Y-89668066I150000J0D01*
G01*
X81176001Y-89668066D01*
G75*
G02*
X81326001Y-89818066I0J-150000D01*
G01*
X81326001Y-90118066D01*
G75*
G02*
X81176001Y-90268066I-150000J0D01*
G01*
X79526001Y-90268066D01*
G75*
G02*
X79376001Y-90118066I0J150000D01*
G01*
G37*
G36*
G01*
X79376001Y-88848066D02*
X79376001Y-88548066D01*
G75*
G02*
X79526001Y-88398066I150000J0D01*
G01*
X81176001Y-88398066D01*
G75*
G02*
X81326001Y-88548066I0J-150000D01*
G01*
X81326001Y-88848066D01*
G75*
G02*
X81176001Y-88998066I-150000J0D01*
G01*
X79526001Y-88998066D01*
G75*
G02*
X79376001Y-88848066I0J150000D01*
G01*
G37*
G36*
G01*
X79376001Y-87578066D02*
X79376001Y-87278066D01*
G75*
G02*
X79526001Y-87128066I150000J0D01*
G01*
X81176001Y-87128066D01*
G75*
G02*
X81326001Y-87278066I0J-150000D01*
G01*
X81326001Y-87578066D01*
G75*
G02*
X81176001Y-87728066I-150000J0D01*
G01*
X79526001Y-87728066D01*
G75*
G02*
X79376001Y-87578066I0J150000D01*
G01*
G37*
G36*
G01*
X79376001Y-86308066D02*
X79376001Y-86008066D01*
G75*
G02*
X79526001Y-85858066I150000J0D01*
G01*
X81176001Y-85858066D01*
G75*
G02*
X81326001Y-86008066I0J-150000D01*
G01*
X81326001Y-86308066D01*
G75*
G02*
X81176001Y-86458066I-150000J0D01*
G01*
X79526001Y-86458066D01*
G75*
G02*
X79376001Y-86308066I0J150000D01*
G01*
G37*
G36*
G01*
X79376001Y-85038066D02*
X79376001Y-84738066D01*
G75*
G02*
X79526001Y-84588066I150000J0D01*
G01*
X81176001Y-84588066D01*
G75*
G02*
X81326001Y-84738066I0J-150000D01*
G01*
X81326001Y-85038066D01*
G75*
G02*
X81176001Y-85188066I-150000J0D01*
G01*
X79526001Y-85188066D01*
G75*
G02*
X79376001Y-85038066I0J150000D01*
G01*
G37*
G36*
G01*
X79376001Y-83768066D02*
X79376001Y-83468066D01*
G75*
G02*
X79526001Y-83318066I150000J0D01*
G01*
X81176001Y-83318066D01*
G75*
G02*
X81326001Y-83468066I0J-150000D01*
G01*
X81326001Y-83768066D01*
G75*
G02*
X81176001Y-83918066I-150000J0D01*
G01*
X79526001Y-83918066D01*
G75*
G02*
X79376001Y-83768066I0J150000D01*
G01*
G37*
G36*
G01*
X74426001Y-83768066D02*
X74426001Y-83468066D01*
G75*
G02*
X74576001Y-83318066I150000J0D01*
G01*
X76226001Y-83318066D01*
G75*
G02*
X76376001Y-83468066I0J-150000D01*
G01*
X76376001Y-83768066D01*
G75*
G02*
X76226001Y-83918066I-150000J0D01*
G01*
X74576001Y-83918066D01*
G75*
G02*
X74426001Y-83768066I0J150000D01*
G01*
G37*
G36*
G01*
X74426001Y-85038066D02*
X74426001Y-84738066D01*
G75*
G02*
X74576001Y-84588066I150000J0D01*
G01*
X76226001Y-84588066D01*
G75*
G02*
X76376001Y-84738066I0J-150000D01*
G01*
X76376001Y-85038066D01*
G75*
G02*
X76226001Y-85188066I-150000J0D01*
G01*
X74576001Y-85188066D01*
G75*
G02*
X74426001Y-85038066I0J150000D01*
G01*
G37*
G36*
G01*
X74426001Y-86308066D02*
X74426001Y-86008066D01*
G75*
G02*
X74576001Y-85858066I150000J0D01*
G01*
X76226001Y-85858066D01*
G75*
G02*
X76376001Y-86008066I0J-150000D01*
G01*
X76376001Y-86308066D01*
G75*
G02*
X76226001Y-86458066I-150000J0D01*
G01*
X74576001Y-86458066D01*
G75*
G02*
X74426001Y-86308066I0J150000D01*
G01*
G37*
G36*
G01*
X74426001Y-87578066D02*
X74426001Y-87278066D01*
G75*
G02*
X74576001Y-87128066I150000J0D01*
G01*
X76226001Y-87128066D01*
G75*
G02*
X76376001Y-87278066I0J-150000D01*
G01*
X76376001Y-87578066D01*
G75*
G02*
X76226001Y-87728066I-150000J0D01*
G01*
X74576001Y-87728066D01*
G75*
G02*
X74426001Y-87578066I0J150000D01*
G01*
G37*
G36*
G01*
X74426001Y-88848066D02*
X74426001Y-88548066D01*
G75*
G02*
X74576001Y-88398066I150000J0D01*
G01*
X76226001Y-88398066D01*
G75*
G02*
X76376001Y-88548066I0J-150000D01*
G01*
X76376001Y-88848066D01*
G75*
G02*
X76226001Y-88998066I-150000J0D01*
G01*
X74576001Y-88998066D01*
G75*
G02*
X74426001Y-88848066I0J150000D01*
G01*
G37*
G36*
G01*
X74426001Y-90118066D02*
X74426001Y-89818066D01*
G75*
G02*
X74576001Y-89668066I150000J0D01*
G01*
X76226001Y-89668066D01*
G75*
G02*
X76376001Y-89818066I0J-150000D01*
G01*
X76376001Y-90118066D01*
G75*
G02*
X76226001Y-90268066I-150000J0D01*
G01*
X74576001Y-90268066D01*
G75*
G02*
X74426001Y-90118066I0J150000D01*
G01*
G37*
G36*
G01*
X74426001Y-91388066D02*
X74426001Y-91088066D01*
G75*
G02*
X74576001Y-90938066I150000J0D01*
G01*
X76226001Y-90938066D01*
G75*
G02*
X76376001Y-91088066I0J-150000D01*
G01*
X76376001Y-91388066D01*
G75*
G02*
X76226001Y-91538066I-150000J0D01*
G01*
X74576001Y-91538066D01*
G75*
G02*
X74426001Y-91388066I0J150000D01*
G01*
G37*
G36*
G01*
X74426001Y-92658066D02*
X74426001Y-92358066D01*
G75*
G02*
X74576001Y-92208066I150000J0D01*
G01*
X76226001Y-92208066D01*
G75*
G02*
X76376001Y-92358066I0J-150000D01*
G01*
X76376001Y-92658066D01*
G75*
G02*
X76226001Y-92808066I-150000J0D01*
G01*
X74576001Y-92808066D01*
G75*
G02*
X74426001Y-92658066I0J150000D01*
G01*
G37*
G36*
G01*
X88726001Y-78180566D02*
X87476001Y-78180566D01*
G75*
G02*
X87226001Y-77930566I0J250000D01*
G01*
X87226001Y-77005566D01*
G75*
G02*
X87476001Y-76755566I250000J0D01*
G01*
X88726001Y-76755566D01*
G75*
G02*
X88976001Y-77005566I0J-250000D01*
G01*
X88976001Y-77930566D01*
G75*
G02*
X88726001Y-78180566I-250000J0D01*
G01*
G37*
G36*
G01*
X88726001Y-81155566D02*
X87476001Y-81155566D01*
G75*
G02*
X87226001Y-80905566I0J250000D01*
G01*
X87226001Y-79980566D01*
G75*
G02*
X87476001Y-79730566I250000J0D01*
G01*
X88726001Y-79730566D01*
G75*
G02*
X88976001Y-79980566I0J-250000D01*
G01*
X88976001Y-80905566D01*
G75*
G02*
X88726001Y-81155566I-250000J0D01*
G01*
G37*
D10*
X85241001Y-82888066D03*
X84291001Y-84888066D03*
X86191001Y-84888066D03*
X89051001Y-82888066D03*
X88101001Y-84888066D03*
X90001001Y-84888066D03*
G36*
G01*
X76661001Y-79450566D02*
X75411001Y-79450566D01*
G75*
G02*
X75161001Y-79200566I0J250000D01*
G01*
X75161001Y-78275566D01*
G75*
G02*
X75411001Y-78025566I250000J0D01*
G01*
X76661001Y-78025566D01*
G75*
G02*
X76911001Y-78275566I0J-250000D01*
G01*
X76911001Y-79200566D01*
G75*
G02*
X76661001Y-79450566I-250000J0D01*
G01*
G37*
G36*
G01*
X76661001Y-82425566D02*
X75411001Y-82425566D01*
G75*
G02*
X75161001Y-82175566I0J250000D01*
G01*
X75161001Y-81250566D01*
G75*
G02*
X75411001Y-81000566I250000J0D01*
G01*
X76661001Y-81000566D01*
G75*
G02*
X76911001Y-81250566I0J-250000D01*
G01*
X76911001Y-82175566D01*
G75*
G02*
X76661001Y-82425566I-250000J0D01*
G01*
G37*
G36*
G01*
X79836001Y-79450566D02*
X78586001Y-79450566D01*
G75*
G02*
X78336001Y-79200566I0J250000D01*
G01*
X78336001Y-78275566D01*
G75*
G02*
X78586001Y-78025566I250000J0D01*
G01*
X79836001Y-78025566D01*
G75*
G02*
X80086001Y-78275566I0J-250000D01*
G01*
X80086001Y-79200566D01*
G75*
G02*
X79836001Y-79450566I-250000J0D01*
G01*
G37*
G36*
G01*
X79836001Y-82425566D02*
X78586001Y-82425566D01*
G75*
G02*
X78336001Y-82175566I0J250000D01*
G01*
X78336001Y-81250566D01*
G75*
G02*
X78586001Y-81000566I250000J0D01*
G01*
X79836001Y-81000566D01*
G75*
G02*
X80086001Y-81250566I0J-250000D01*
G01*
X80086001Y-82175566D01*
G75*
G02*
X79836001Y-82425566I-250000J0D01*
G01*
G37*
G36*
G01*
X83646001Y-87705566D02*
X82396001Y-87705566D01*
G75*
G02*
X82146001Y-87455566I0J250000D01*
G01*
X82146001Y-86530566D01*
G75*
G02*
X82396001Y-86280566I250000J0D01*
G01*
X83646001Y-86280566D01*
G75*
G02*
X83896001Y-86530566I0J-250000D01*
G01*
X83896001Y-87455566D01*
G75*
G02*
X83646001Y-87705566I-250000J0D01*
G01*
G37*
G36*
G01*
X83646001Y-90680566D02*
X82396001Y-90680566D01*
G75*
G02*
X82146001Y-90430566I0J250000D01*
G01*
X82146001Y-89505566D01*
G75*
G02*
X82396001Y-89255566I250000J0D01*
G01*
X83646001Y-89255566D01*
G75*
G02*
X83896001Y-89505566I0J-250000D01*
G01*
X83896001Y-90430566D01*
G75*
G02*
X83646001Y-90680566I-250000J0D01*
G01*
G37*
G36*
G01*
X92536001Y-78180566D02*
X91286001Y-78180566D01*
G75*
G02*
X91036001Y-77930566I0J250000D01*
G01*
X91036001Y-77005566D01*
G75*
G02*
X91286001Y-76755566I250000J0D01*
G01*
X92536001Y-76755566D01*
G75*
G02*
X92786001Y-77005566I0J-250000D01*
G01*
X92786001Y-77930566D01*
G75*
G02*
X92536001Y-78180566I-250000J0D01*
G01*
G37*
G36*
G01*
X92536001Y-81155566D02*
X91286001Y-81155566D01*
G75*
G02*
X91036001Y-80905566I0J250000D01*
G01*
X91036001Y-79980566D01*
G75*
G02*
X91286001Y-79730566I250000J0D01*
G01*
X92536001Y-79730566D01*
G75*
G02*
X92786001Y-79980566I0J-250000D01*
G01*
X92786001Y-80905566D01*
G75*
G02*
X92536001Y-81155566I-250000J0D01*
G01*
G37*
X92866001Y-82888066D03*
X91916001Y-84888066D03*
X93816001Y-84888066D03*
X100486001Y-82888066D03*
X99536001Y-84888066D03*
X101436001Y-84888066D03*
X96676001Y-82888066D03*
X95726001Y-84888066D03*
X97626001Y-84888066D03*
D11*
X58841001Y-84493066D03*
X58841001Y-89093066D03*
X58841001Y-86793066D03*
D12*
X52541001Y-86793066D03*
G36*
G01*
X89381001Y-89255566D02*
X90631001Y-89255566D01*
G75*
G02*
X90881001Y-89505566I0J-250000D01*
G01*
X90881001Y-90430566D01*
G75*
G02*
X90631001Y-90680566I-250000J0D01*
G01*
X89381001Y-90680566D01*
G75*
G02*
X89131001Y-90430566I0J250000D01*
G01*
X89131001Y-89505566D01*
G75*
G02*
X89381001Y-89255566I250000J0D01*
G01*
G37*
G36*
G01*
X89381001Y-86280566D02*
X90631001Y-86280566D01*
G75*
G02*
X90881001Y-86530566I0J-250000D01*
G01*
X90881001Y-87455566D01*
G75*
G02*
X90631001Y-87705566I-250000J0D01*
G01*
X89381001Y-87705566D01*
G75*
G02*
X89131001Y-87455566I0J250000D01*
G01*
X89131001Y-86530566D01*
G75*
G02*
X89381001Y-86280566I250000J0D01*
G01*
G37*
G36*
G01*
X86821001Y-87705566D02*
X85571001Y-87705566D01*
G75*
G02*
X85321001Y-87455566I0J250000D01*
G01*
X85321001Y-86530566D01*
G75*
G02*
X85571001Y-86280566I250000J0D01*
G01*
X86821001Y-86280566D01*
G75*
G02*
X87071001Y-86530566I0J-250000D01*
G01*
X87071001Y-87455566D01*
G75*
G02*
X86821001Y-87705566I-250000J0D01*
G01*
G37*
G36*
G01*
X86821001Y-90680566D02*
X85571001Y-90680566D01*
G75*
G02*
X85321001Y-90430566I0J250000D01*
G01*
X85321001Y-89505566D01*
G75*
G02*
X85571001Y-89255566I250000J0D01*
G01*
X86821001Y-89255566D01*
G75*
G02*
X87071001Y-89505566I0J-250000D01*
G01*
X87071001Y-90430566D01*
G75*
G02*
X86821001Y-90680566I-250000J0D01*
G01*
G37*
G36*
G01*
X99173001Y-77913066D02*
X99173001Y-79163066D01*
G75*
G02*
X98923001Y-79413066I-250000J0D01*
G01*
X97998001Y-79413066D01*
G75*
G02*
X97748001Y-79163066I0J250000D01*
G01*
X97748001Y-77913066D01*
G75*
G02*
X97998001Y-77663066I250000J0D01*
G01*
X98923001Y-77663066D01*
G75*
G02*
X99173001Y-77913066I0J-250000D01*
G01*
G37*
G36*
G01*
X102148001Y-77913066D02*
X102148001Y-79163066D01*
G75*
G02*
X101898001Y-79413066I-250000J0D01*
G01*
X100973001Y-79413066D01*
G75*
G02*
X100723001Y-79163066I0J250000D01*
G01*
X100723001Y-77913066D01*
G75*
G02*
X100973001Y-77663066I250000J0D01*
G01*
X101898001Y-77663066D01*
G75*
G02*
X102148001Y-77913066I0J-250000D01*
G01*
G37*
G36*
G01*
X81238001Y-79163066D02*
X81238001Y-77913066D01*
G75*
G02*
X81488001Y-77663066I250000J0D01*
G01*
X82413001Y-77663066D01*
G75*
G02*
X82663001Y-77913066I0J-250000D01*
G01*
X82663001Y-79163066D01*
G75*
G02*
X82413001Y-79413066I-250000J0D01*
G01*
X81488001Y-79413066D01*
G75*
G02*
X81238001Y-79163066I0J250000D01*
G01*
G37*
G36*
G01*
X84213001Y-79163066D02*
X84213001Y-77913066D01*
G75*
G02*
X84463001Y-77663066I250000J0D01*
G01*
X85388001Y-77663066D01*
G75*
G02*
X85638001Y-77913066I0J-250000D01*
G01*
X85638001Y-79163066D01*
G75*
G02*
X85388001Y-79413066I-250000J0D01*
G01*
X84463001Y-79413066D01*
G75*
G02*
X84213001Y-79163066I0J250000D01*
G01*
G37*
G36*
G01*
X95096001Y-79730566D02*
X96346001Y-79730566D01*
G75*
G02*
X96596001Y-79980566I0J-250000D01*
G01*
X96596001Y-80905566D01*
G75*
G02*
X96346001Y-81155566I-250000J0D01*
G01*
X95096001Y-81155566D01*
G75*
G02*
X94846001Y-80905566I0J250000D01*
G01*
X94846001Y-79980566D01*
G75*
G02*
X95096001Y-79730566I250000J0D01*
G01*
G37*
G36*
G01*
X95096001Y-76755566D02*
X96346001Y-76755566D01*
G75*
G02*
X96596001Y-77005566I0J-250000D01*
G01*
X96596001Y-77930566D01*
G75*
G02*
X96346001Y-78180566I-250000J0D01*
G01*
X95096001Y-78180566D01*
G75*
G02*
X94846001Y-77930566I0J250000D01*
G01*
X94846001Y-77005566D01*
G75*
G02*
X95096001Y-76755566I250000J0D01*
G01*
G37*
G36*
G01*
X60786001Y-93421066D02*
X59536001Y-93421066D01*
G75*
G02*
X59286001Y-93171066I0J250000D01*
G01*
X59286001Y-92246066D01*
G75*
G02*
X59536001Y-91996066I250000J0D01*
G01*
X60786001Y-91996066D01*
G75*
G02*
X61036001Y-92246066I0J-250000D01*
G01*
X61036001Y-93171066D01*
G75*
G02*
X60786001Y-93421066I-250000J0D01*
G01*
G37*
G36*
G01*
X60786001Y-96396066D02*
X59536001Y-96396066D01*
G75*
G02*
X59286001Y-96146066I0J250000D01*
G01*
X59286001Y-95221066D01*
G75*
G02*
X59536001Y-94971066I250000J0D01*
G01*
X60786001Y-94971066D01*
G75*
G02*
X61036001Y-95221066I0J-250000D01*
G01*
X61036001Y-96146066D01*
G75*
G02*
X60786001Y-96396066I-250000J0D01*
G01*
G37*
G36*
G01*
X94441001Y-87705566D02*
X93191001Y-87705566D01*
G75*
G02*
X92941001Y-87455566I0J250000D01*
G01*
X92941001Y-86530566D01*
G75*
G02*
X93191001Y-86280566I250000J0D01*
G01*
X94441001Y-86280566D01*
G75*
G02*
X94691001Y-86530566I0J-250000D01*
G01*
X94691001Y-87455566D01*
G75*
G02*
X94441001Y-87705566I-250000J0D01*
G01*
G37*
G36*
G01*
X94441001Y-90680566D02*
X93191001Y-90680566D01*
G75*
G02*
X92941001Y-90430566I0J250000D01*
G01*
X92941001Y-89505566D01*
G75*
G02*
X93191001Y-89255566I250000J0D01*
G01*
X94441001Y-89255566D01*
G75*
G02*
X94691001Y-89505566I0J-250000D01*
G01*
X94691001Y-90430566D01*
G75*
G02*
X94441001Y-90680566I-250000J0D01*
G01*
G37*
G36*
G01*
X100811001Y-89255566D02*
X102061001Y-89255566D01*
G75*
G02*
X102311001Y-89505566I0J-250000D01*
G01*
X102311001Y-90430566D01*
G75*
G02*
X102061001Y-90680566I-250000J0D01*
G01*
X100811001Y-90680566D01*
G75*
G02*
X100561001Y-90430566I0J250000D01*
G01*
X100561001Y-89505566D01*
G75*
G02*
X100811001Y-89255566I250000J0D01*
G01*
G37*
G36*
G01*
X100811001Y-86280566D02*
X102061001Y-86280566D01*
G75*
G02*
X102311001Y-86530566I0J-250000D01*
G01*
X102311001Y-87455566D01*
G75*
G02*
X102061001Y-87705566I-250000J0D01*
G01*
X100811001Y-87705566D01*
G75*
G02*
X100561001Y-87455566I0J250000D01*
G01*
X100561001Y-86530566D01*
G75*
G02*
X100811001Y-86280566I250000J0D01*
G01*
G37*
G36*
G01*
X97001001Y-89255566D02*
X98251001Y-89255566D01*
G75*
G02*
X98501001Y-89505566I0J-250000D01*
G01*
X98501001Y-90430566D01*
G75*
G02*
X98251001Y-90680566I-250000J0D01*
G01*
X97001001Y-90680566D01*
G75*
G02*
X96751001Y-90430566I0J250000D01*
G01*
X96751001Y-89505566D01*
G75*
G02*
X97001001Y-89255566I250000J0D01*
G01*
G37*
G36*
G01*
X97001001Y-86280566D02*
X98251001Y-86280566D01*
G75*
G02*
X98501001Y-86530566I0J-250000D01*
G01*
X98501001Y-87455566D01*
G75*
G02*
X98251001Y-87705566I-250000J0D01*
G01*
X97001001Y-87705566D01*
G75*
G02*
X96751001Y-87455566I0J250000D01*
G01*
X96751001Y-86530566D01*
G75*
G02*
X97001001Y-86280566I250000J0D01*
G01*
G37*
G36*
G01*
X79376001Y-67296001D02*
X79376001Y-66996001D01*
G75*
G02*
X79526001Y-66846001I150000J0D01*
G01*
X81176001Y-66846001D01*
G75*
G02*
X81326001Y-66996001I0J-150000D01*
G01*
X81326001Y-67296001D01*
G75*
G02*
X81176001Y-67446001I-150000J0D01*
G01*
X79526001Y-67446001D01*
G75*
G02*
X79376001Y-67296001I0J150000D01*
G01*
G37*
G36*
G01*
X79376001Y-66026001D02*
X79376001Y-65726001D01*
G75*
G02*
X79526001Y-65576001I150000J0D01*
G01*
X81176001Y-65576001D01*
G75*
G02*
X81326001Y-65726001I0J-150000D01*
G01*
X81326001Y-66026001D01*
G75*
G02*
X81176001Y-66176001I-150000J0D01*
G01*
X79526001Y-66176001D01*
G75*
G02*
X79376001Y-66026001I0J150000D01*
G01*
G37*
G36*
G01*
X79376001Y-64756001D02*
X79376001Y-64456001D01*
G75*
G02*
X79526001Y-64306001I150000J0D01*
G01*
X81176001Y-64306001D01*
G75*
G02*
X81326001Y-64456001I0J-150000D01*
G01*
X81326001Y-64756001D01*
G75*
G02*
X81176001Y-64906001I-150000J0D01*
G01*
X79526001Y-64906001D01*
G75*
G02*
X79376001Y-64756001I0J150000D01*
G01*
G37*
G36*
G01*
X79376001Y-63486001D02*
X79376001Y-63186001D01*
G75*
G02*
X79526001Y-63036001I150000J0D01*
G01*
X81176001Y-63036001D01*
G75*
G02*
X81326001Y-63186001I0J-150000D01*
G01*
X81326001Y-63486001D01*
G75*
G02*
X81176001Y-63636001I-150000J0D01*
G01*
X79526001Y-63636001D01*
G75*
G02*
X79376001Y-63486001I0J150000D01*
G01*
G37*
G36*
G01*
X79376001Y-62216001D02*
X79376001Y-61916001D01*
G75*
G02*
X79526001Y-61766001I150000J0D01*
G01*
X81176001Y-61766001D01*
G75*
G02*
X81326001Y-61916001I0J-150000D01*
G01*
X81326001Y-62216001D01*
G75*
G02*
X81176001Y-62366001I-150000J0D01*
G01*
X79526001Y-62366001D01*
G75*
G02*
X79376001Y-62216001I0J150000D01*
G01*
G37*
G36*
G01*
X79376001Y-60946001D02*
X79376001Y-60646001D01*
G75*
G02*
X79526001Y-60496001I150000J0D01*
G01*
X81176001Y-60496001D01*
G75*
G02*
X81326001Y-60646001I0J-150000D01*
G01*
X81326001Y-60946001D01*
G75*
G02*
X81176001Y-61096001I-150000J0D01*
G01*
X79526001Y-61096001D01*
G75*
G02*
X79376001Y-60946001I0J150000D01*
G01*
G37*
G36*
G01*
X79376001Y-59676001D02*
X79376001Y-59376001D01*
G75*
G02*
X79526001Y-59226001I150000J0D01*
G01*
X81176001Y-59226001D01*
G75*
G02*
X81326001Y-59376001I0J-150000D01*
G01*
X81326001Y-59676001D01*
G75*
G02*
X81176001Y-59826001I-150000J0D01*
G01*
X79526001Y-59826001D01*
G75*
G02*
X79376001Y-59676001I0J150000D01*
G01*
G37*
G36*
G01*
X79376001Y-58406001D02*
X79376001Y-58106001D01*
G75*
G02*
X79526001Y-57956001I150000J0D01*
G01*
X81176001Y-57956001D01*
G75*
G02*
X81326001Y-58106001I0J-150000D01*
G01*
X81326001Y-58406001D01*
G75*
G02*
X81176001Y-58556001I-150000J0D01*
G01*
X79526001Y-58556001D01*
G75*
G02*
X79376001Y-58406001I0J150000D01*
G01*
G37*
G36*
G01*
X74426001Y-58406001D02*
X74426001Y-58106001D01*
G75*
G02*
X74576001Y-57956001I150000J0D01*
G01*
X76226001Y-57956001D01*
G75*
G02*
X76376001Y-58106001I0J-150000D01*
G01*
X76376001Y-58406001D01*
G75*
G02*
X76226001Y-58556001I-150000J0D01*
G01*
X74576001Y-58556001D01*
G75*
G02*
X74426001Y-58406001I0J150000D01*
G01*
G37*
G36*
G01*
X74426001Y-59676001D02*
X74426001Y-59376001D01*
G75*
G02*
X74576001Y-59226001I150000J0D01*
G01*
X76226001Y-59226001D01*
G75*
G02*
X76376001Y-59376001I0J-150000D01*
G01*
X76376001Y-59676001D01*
G75*
G02*
X76226001Y-59826001I-150000J0D01*
G01*
X74576001Y-59826001D01*
G75*
G02*
X74426001Y-59676001I0J150000D01*
G01*
G37*
G36*
G01*
X74426001Y-60946001D02*
X74426001Y-60646001D01*
G75*
G02*
X74576001Y-60496001I150000J0D01*
G01*
X76226001Y-60496001D01*
G75*
G02*
X76376001Y-60646001I0J-150000D01*
G01*
X76376001Y-60946001D01*
G75*
G02*
X76226001Y-61096001I-150000J0D01*
G01*
X74576001Y-61096001D01*
G75*
G02*
X74426001Y-60946001I0J150000D01*
G01*
G37*
G36*
G01*
X74426001Y-62216001D02*
X74426001Y-61916001D01*
G75*
G02*
X74576001Y-61766001I150000J0D01*
G01*
X76226001Y-61766001D01*
G75*
G02*
X76376001Y-61916001I0J-150000D01*
G01*
X76376001Y-62216001D01*
G75*
G02*
X76226001Y-62366001I-150000J0D01*
G01*
X74576001Y-62366001D01*
G75*
G02*
X74426001Y-62216001I0J150000D01*
G01*
G37*
G36*
G01*
X74426001Y-63486001D02*
X74426001Y-63186001D01*
G75*
G02*
X74576001Y-63036001I150000J0D01*
G01*
X76226001Y-63036001D01*
G75*
G02*
X76376001Y-63186001I0J-150000D01*
G01*
X76376001Y-63486001D01*
G75*
G02*
X76226001Y-63636001I-150000J0D01*
G01*
X74576001Y-63636001D01*
G75*
G02*
X74426001Y-63486001I0J150000D01*
G01*
G37*
G36*
G01*
X74426001Y-64756001D02*
X74426001Y-64456001D01*
G75*
G02*
X74576001Y-64306001I150000J0D01*
G01*
X76226001Y-64306001D01*
G75*
G02*
X76376001Y-64456001I0J-150000D01*
G01*
X76376001Y-64756001D01*
G75*
G02*
X76226001Y-64906001I-150000J0D01*
G01*
X74576001Y-64906001D01*
G75*
G02*
X74426001Y-64756001I0J150000D01*
G01*
G37*
G36*
G01*
X74426001Y-66026001D02*
X74426001Y-65726001D01*
G75*
G02*
X74576001Y-65576001I150000J0D01*
G01*
X76226001Y-65576001D01*
G75*
G02*
X76376001Y-65726001I0J-150000D01*
G01*
X76376001Y-66026001D01*
G75*
G02*
X76226001Y-66176001I-150000J0D01*
G01*
X74576001Y-66176001D01*
G75*
G02*
X74426001Y-66026001I0J150000D01*
G01*
G37*
G36*
G01*
X74426001Y-67296001D02*
X74426001Y-66996001D01*
G75*
G02*
X74576001Y-66846001I150000J0D01*
G01*
X76226001Y-66846001D01*
G75*
G02*
X76376001Y-66996001I0J-150000D01*
G01*
X76376001Y-67296001D01*
G75*
G02*
X76226001Y-67446001I-150000J0D01*
G01*
X74576001Y-67446001D01*
G75*
G02*
X74426001Y-67296001I0J150000D01*
G01*
G37*
G36*
G01*
X88726001Y-52818501D02*
X87476001Y-52818501D01*
G75*
G02*
X87226001Y-52568501I0J250000D01*
G01*
X87226001Y-51643501D01*
G75*
G02*
X87476001Y-51393501I250000J0D01*
G01*
X88726001Y-51393501D01*
G75*
G02*
X88976001Y-51643501I0J-250000D01*
G01*
X88976001Y-52568501D01*
G75*
G02*
X88726001Y-52818501I-250000J0D01*
G01*
G37*
G36*
G01*
X88726001Y-55793501D02*
X87476001Y-55793501D01*
G75*
G02*
X87226001Y-55543501I0J250000D01*
G01*
X87226001Y-54618501D01*
G75*
G02*
X87476001Y-54368501I250000J0D01*
G01*
X88726001Y-54368501D01*
G75*
G02*
X88976001Y-54618501I0J-250000D01*
G01*
X88976001Y-55543501D01*
G75*
G02*
X88726001Y-55793501I-250000J0D01*
G01*
G37*
D10*
X85241001Y-57526001D03*
X84291001Y-59526001D03*
X86191001Y-59526001D03*
X89051001Y-57526001D03*
X88101001Y-59526001D03*
X90001001Y-59526001D03*
G36*
G01*
X76661001Y-54088501D02*
X75411001Y-54088501D01*
G75*
G02*
X75161001Y-53838501I0J250000D01*
G01*
X75161001Y-52913501D01*
G75*
G02*
X75411001Y-52663501I250000J0D01*
G01*
X76661001Y-52663501D01*
G75*
G02*
X76911001Y-52913501I0J-250000D01*
G01*
X76911001Y-53838501D01*
G75*
G02*
X76661001Y-54088501I-250000J0D01*
G01*
G37*
G36*
G01*
X76661001Y-57063501D02*
X75411001Y-57063501D01*
G75*
G02*
X75161001Y-56813501I0J250000D01*
G01*
X75161001Y-55888501D01*
G75*
G02*
X75411001Y-55638501I250000J0D01*
G01*
X76661001Y-55638501D01*
G75*
G02*
X76911001Y-55888501I0J-250000D01*
G01*
X76911001Y-56813501D01*
G75*
G02*
X76661001Y-57063501I-250000J0D01*
G01*
G37*
G36*
G01*
X79836001Y-54088501D02*
X78586001Y-54088501D01*
G75*
G02*
X78336001Y-53838501I0J250000D01*
G01*
X78336001Y-52913501D01*
G75*
G02*
X78586001Y-52663501I250000J0D01*
G01*
X79836001Y-52663501D01*
G75*
G02*
X80086001Y-52913501I0J-250000D01*
G01*
X80086001Y-53838501D01*
G75*
G02*
X79836001Y-54088501I-250000J0D01*
G01*
G37*
G36*
G01*
X79836001Y-57063501D02*
X78586001Y-57063501D01*
G75*
G02*
X78336001Y-56813501I0J250000D01*
G01*
X78336001Y-55888501D01*
G75*
G02*
X78586001Y-55638501I250000J0D01*
G01*
X79836001Y-55638501D01*
G75*
G02*
X80086001Y-55888501I0J-250000D01*
G01*
X80086001Y-56813501D01*
G75*
G02*
X79836001Y-57063501I-250000J0D01*
G01*
G37*
G36*
G01*
X83646001Y-62343501D02*
X82396001Y-62343501D01*
G75*
G02*
X82146001Y-62093501I0J250000D01*
G01*
X82146001Y-61168501D01*
G75*
G02*
X82396001Y-60918501I250000J0D01*
G01*
X83646001Y-60918501D01*
G75*
G02*
X83896001Y-61168501I0J-250000D01*
G01*
X83896001Y-62093501D01*
G75*
G02*
X83646001Y-62343501I-250000J0D01*
G01*
G37*
G36*
G01*
X83646001Y-65318501D02*
X82396001Y-65318501D01*
G75*
G02*
X82146001Y-65068501I0J250000D01*
G01*
X82146001Y-64143501D01*
G75*
G02*
X82396001Y-63893501I250000J0D01*
G01*
X83646001Y-63893501D01*
G75*
G02*
X83896001Y-64143501I0J-250000D01*
G01*
X83896001Y-65068501D01*
G75*
G02*
X83646001Y-65318501I-250000J0D01*
G01*
G37*
G36*
G01*
X92536001Y-52818501D02*
X91286001Y-52818501D01*
G75*
G02*
X91036001Y-52568501I0J250000D01*
G01*
X91036001Y-51643501D01*
G75*
G02*
X91286001Y-51393501I250000J0D01*
G01*
X92536001Y-51393501D01*
G75*
G02*
X92786001Y-51643501I0J-250000D01*
G01*
X92786001Y-52568501D01*
G75*
G02*
X92536001Y-52818501I-250000J0D01*
G01*
G37*
G36*
G01*
X92536001Y-55793501D02*
X91286001Y-55793501D01*
G75*
G02*
X91036001Y-55543501I0J250000D01*
G01*
X91036001Y-54618501D01*
G75*
G02*
X91286001Y-54368501I250000J0D01*
G01*
X92536001Y-54368501D01*
G75*
G02*
X92786001Y-54618501I0J-250000D01*
G01*
X92786001Y-55543501D01*
G75*
G02*
X92536001Y-55793501I-250000J0D01*
G01*
G37*
X92866001Y-57526001D03*
X91916001Y-59526001D03*
X93816001Y-59526001D03*
X100486001Y-57526001D03*
X99536001Y-59526001D03*
X101436001Y-59526001D03*
X96676001Y-57526001D03*
X95726001Y-59526001D03*
X97626001Y-59526001D03*
D11*
X58841001Y-59131001D03*
X58841001Y-63731001D03*
X58841001Y-61431001D03*
D12*
X52541001Y-61431001D03*
G36*
G01*
X89381001Y-63893501D02*
X90631001Y-63893501D01*
G75*
G02*
X90881001Y-64143501I0J-250000D01*
G01*
X90881001Y-65068501D01*
G75*
G02*
X90631001Y-65318501I-250000J0D01*
G01*
X89381001Y-65318501D01*
G75*
G02*
X89131001Y-65068501I0J250000D01*
G01*
X89131001Y-64143501D01*
G75*
G02*
X89381001Y-63893501I250000J0D01*
G01*
G37*
G36*
G01*
X89381001Y-60918501D02*
X90631001Y-60918501D01*
G75*
G02*
X90881001Y-61168501I0J-250000D01*
G01*
X90881001Y-62093501D01*
G75*
G02*
X90631001Y-62343501I-250000J0D01*
G01*
X89381001Y-62343501D01*
G75*
G02*
X89131001Y-62093501I0J250000D01*
G01*
X89131001Y-61168501D01*
G75*
G02*
X89381001Y-60918501I250000J0D01*
G01*
G37*
G36*
G01*
X86821001Y-62343501D02*
X85571001Y-62343501D01*
G75*
G02*
X85321001Y-62093501I0J250000D01*
G01*
X85321001Y-61168501D01*
G75*
G02*
X85571001Y-60918501I250000J0D01*
G01*
X86821001Y-60918501D01*
G75*
G02*
X87071001Y-61168501I0J-250000D01*
G01*
X87071001Y-62093501D01*
G75*
G02*
X86821001Y-62343501I-250000J0D01*
G01*
G37*
G36*
G01*
X86821001Y-65318501D02*
X85571001Y-65318501D01*
G75*
G02*
X85321001Y-65068501I0J250000D01*
G01*
X85321001Y-64143501D01*
G75*
G02*
X85571001Y-63893501I250000J0D01*
G01*
X86821001Y-63893501D01*
G75*
G02*
X87071001Y-64143501I0J-250000D01*
G01*
X87071001Y-65068501D01*
G75*
G02*
X86821001Y-65318501I-250000J0D01*
G01*
G37*
G36*
G01*
X99173001Y-52551001D02*
X99173001Y-53801001D01*
G75*
G02*
X98923001Y-54051001I-250000J0D01*
G01*
X97998001Y-54051001D01*
G75*
G02*
X97748001Y-53801001I0J250000D01*
G01*
X97748001Y-52551001D01*
G75*
G02*
X97998001Y-52301001I250000J0D01*
G01*
X98923001Y-52301001D01*
G75*
G02*
X99173001Y-52551001I0J-250000D01*
G01*
G37*
G36*
G01*
X102148001Y-52551001D02*
X102148001Y-53801001D01*
G75*
G02*
X101898001Y-54051001I-250000J0D01*
G01*
X100973001Y-54051001D01*
G75*
G02*
X100723001Y-53801001I0J250000D01*
G01*
X100723001Y-52551001D01*
G75*
G02*
X100973001Y-52301001I250000J0D01*
G01*
X101898001Y-52301001D01*
G75*
G02*
X102148001Y-52551001I0J-250000D01*
G01*
G37*
G36*
G01*
X81238001Y-53801001D02*
X81238001Y-52551001D01*
G75*
G02*
X81488001Y-52301001I250000J0D01*
G01*
X82413001Y-52301001D01*
G75*
G02*
X82663001Y-52551001I0J-250000D01*
G01*
X82663001Y-53801001D01*
G75*
G02*
X82413001Y-54051001I-250000J0D01*
G01*
X81488001Y-54051001D01*
G75*
G02*
X81238001Y-53801001I0J250000D01*
G01*
G37*
G36*
G01*
X84213001Y-53801001D02*
X84213001Y-52551001D01*
G75*
G02*
X84463001Y-52301001I250000J0D01*
G01*
X85388001Y-52301001D01*
G75*
G02*
X85638001Y-52551001I0J-250000D01*
G01*
X85638001Y-53801001D01*
G75*
G02*
X85388001Y-54051001I-250000J0D01*
G01*
X84463001Y-54051001D01*
G75*
G02*
X84213001Y-53801001I0J250000D01*
G01*
G37*
G36*
G01*
X95096001Y-54368501D02*
X96346001Y-54368501D01*
G75*
G02*
X96596001Y-54618501I0J-250000D01*
G01*
X96596001Y-55543501D01*
G75*
G02*
X96346001Y-55793501I-250000J0D01*
G01*
X95096001Y-55793501D01*
G75*
G02*
X94846001Y-55543501I0J250000D01*
G01*
X94846001Y-54618501D01*
G75*
G02*
X95096001Y-54368501I250000J0D01*
G01*
G37*
G36*
G01*
X95096001Y-51393501D02*
X96346001Y-51393501D01*
G75*
G02*
X96596001Y-51643501I0J-250000D01*
G01*
X96596001Y-52568501D01*
G75*
G02*
X96346001Y-52818501I-250000J0D01*
G01*
X95096001Y-52818501D01*
G75*
G02*
X94846001Y-52568501I0J250000D01*
G01*
X94846001Y-51643501D01*
G75*
G02*
X95096001Y-51393501I250000J0D01*
G01*
G37*
G36*
G01*
X60786001Y-68059001D02*
X59536001Y-68059001D01*
G75*
G02*
X59286001Y-67809001I0J250000D01*
G01*
X59286001Y-66884001D01*
G75*
G02*
X59536001Y-66634001I250000J0D01*
G01*
X60786001Y-66634001D01*
G75*
G02*
X61036001Y-66884001I0J-250000D01*
G01*
X61036001Y-67809001D01*
G75*
G02*
X60786001Y-68059001I-250000J0D01*
G01*
G37*
G36*
G01*
X60786001Y-71034001D02*
X59536001Y-71034001D01*
G75*
G02*
X59286001Y-70784001I0J250000D01*
G01*
X59286001Y-69859001D01*
G75*
G02*
X59536001Y-69609001I250000J0D01*
G01*
X60786001Y-69609001D01*
G75*
G02*
X61036001Y-69859001I0J-250000D01*
G01*
X61036001Y-70784001D01*
G75*
G02*
X60786001Y-71034001I-250000J0D01*
G01*
G37*
G36*
G01*
X94441001Y-62343501D02*
X93191001Y-62343501D01*
G75*
G02*
X92941001Y-62093501I0J250000D01*
G01*
X92941001Y-61168501D01*
G75*
G02*
X93191001Y-60918501I250000J0D01*
G01*
X94441001Y-60918501D01*
G75*
G02*
X94691001Y-61168501I0J-250000D01*
G01*
X94691001Y-62093501D01*
G75*
G02*
X94441001Y-62343501I-250000J0D01*
G01*
G37*
G36*
G01*
X94441001Y-65318501D02*
X93191001Y-65318501D01*
G75*
G02*
X92941001Y-65068501I0J250000D01*
G01*
X92941001Y-64143501D01*
G75*
G02*
X93191001Y-63893501I250000J0D01*
G01*
X94441001Y-63893501D01*
G75*
G02*
X94691001Y-64143501I0J-250000D01*
G01*
X94691001Y-65068501D01*
G75*
G02*
X94441001Y-65318501I-250000J0D01*
G01*
G37*
G36*
G01*
X100811001Y-63893501D02*
X102061001Y-63893501D01*
G75*
G02*
X102311001Y-64143501I0J-250000D01*
G01*
X102311001Y-65068501D01*
G75*
G02*
X102061001Y-65318501I-250000J0D01*
G01*
X100811001Y-65318501D01*
G75*
G02*
X100561001Y-65068501I0J250000D01*
G01*
X100561001Y-64143501D01*
G75*
G02*
X100811001Y-63893501I250000J0D01*
G01*
G37*
G36*
G01*
X100811001Y-60918501D02*
X102061001Y-60918501D01*
G75*
G02*
X102311001Y-61168501I0J-250000D01*
G01*
X102311001Y-62093501D01*
G75*
G02*
X102061001Y-62343501I-250000J0D01*
G01*
X100811001Y-62343501D01*
G75*
G02*
X100561001Y-62093501I0J250000D01*
G01*
X100561001Y-61168501D01*
G75*
G02*
X100811001Y-60918501I250000J0D01*
G01*
G37*
G36*
G01*
X97001001Y-63893501D02*
X98251001Y-63893501D01*
G75*
G02*
X98501001Y-64143501I0J-250000D01*
G01*
X98501001Y-65068501D01*
G75*
G02*
X98251001Y-65318501I-250000J0D01*
G01*
X97001001Y-65318501D01*
G75*
G02*
X96751001Y-65068501I0J250000D01*
G01*
X96751001Y-64143501D01*
G75*
G02*
X97001001Y-63893501I250000J0D01*
G01*
G37*
G36*
G01*
X97001001Y-60918501D02*
X98251001Y-60918501D01*
G75*
G02*
X98501001Y-61168501I0J-250000D01*
G01*
X98501001Y-62093501D01*
G75*
G02*
X98251001Y-62343501I-250000J0D01*
G01*
X97001001Y-62343501D01*
G75*
G02*
X96751001Y-62093501I0J250000D01*
G01*
X96751001Y-61168501D01*
G75*
G02*
X97001001Y-60918501I250000J0D01*
G01*
G37*
M02*
