G04 #@! TF.GenerationSoftware,KiCad,Pcbnew,(5.1.6)-1*
G04 #@! TF.CreationDate,2020-06-14T15:38:25+02:00*
G04 #@! TF.ProjectId,panel1,70616e65-6c31-42e6-9b69-6361645f7063,rev?*
G04 #@! TF.SameCoordinates,Original*
G04 #@! TF.FileFunction,Profile,NP*
%FSLAX46Y46*%
G04 Gerber Fmt 4.6, Leading zero omitted, Abs format (unit mm)*
G04 Created by KiCad (PCBNEW (5.1.6)-1) date 2020-06-14 15:38:25*
%MOMM*%
%LPD*%
G01*
G04 APERTURE LIST*
G04 #@! TA.AperFunction,Profile*
%ADD10C,0.100000*%
G04 #@! TD*
G04 APERTURE END LIST*
D10*
X82253700Y-126085200D02*
X73628400Y-126085200D01*
X82351700Y-126080400D02*
X82253700Y-126085200D01*
X82448800Y-126066000D02*
X82351700Y-126080400D01*
X82544000Y-126042100D02*
X82448800Y-126066000D01*
X82636400Y-126009100D02*
X82544000Y-126042100D01*
X82725100Y-125967100D02*
X82636400Y-126009100D01*
X82809300Y-125916700D02*
X82725100Y-125967100D01*
X82888100Y-125858200D02*
X82809300Y-125916700D01*
X82960800Y-125792300D02*
X82888100Y-125858200D01*
X83026700Y-125719600D02*
X82960800Y-125792300D01*
X83085200Y-125640800D02*
X83026700Y-125719600D01*
X83135600Y-125556600D02*
X83085200Y-125640800D01*
X83177600Y-125467900D02*
X83135600Y-125556600D01*
X83210600Y-125375500D02*
X83177600Y-125467900D01*
X83234500Y-125280300D02*
X83210600Y-125375500D01*
X83248900Y-125183200D02*
X83234500Y-125280300D01*
X83253700Y-125085200D02*
X83248900Y-125183200D01*
X83253700Y-124587100D02*
X83253700Y-125085200D01*
X83248900Y-124489000D02*
X83253700Y-124587100D01*
X83234500Y-124392000D02*
X83248900Y-124489000D01*
X83210600Y-124296800D02*
X83234500Y-124392000D01*
X83177600Y-124204400D02*
X83210600Y-124296800D01*
X83135600Y-124115700D02*
X83177600Y-124204400D01*
X83085200Y-124031500D02*
X83135600Y-124115700D01*
X83026700Y-123952700D02*
X83085200Y-124031500D01*
X82960800Y-123880000D02*
X83026700Y-123952700D01*
X82888100Y-123814100D02*
X82960800Y-123880000D01*
X82809300Y-123755600D02*
X82888100Y-123814100D01*
X82725100Y-123705100D02*
X82809300Y-123755600D01*
X82636400Y-123663200D02*
X82725100Y-123705100D01*
X82544000Y-123630100D02*
X82636400Y-123663200D01*
X82448800Y-123606300D02*
X82544000Y-123630100D01*
X82351700Y-123591900D02*
X82448800Y-123606300D01*
X82253700Y-123587100D02*
X82351700Y-123591900D01*
X73628400Y-123587000D02*
X82253700Y-123587100D01*
X73530300Y-123591900D02*
X73628400Y-123587000D01*
X73433300Y-123606300D02*
X73530300Y-123591900D01*
X73338100Y-123630100D02*
X73433300Y-123606300D01*
X73245700Y-123663200D02*
X73338100Y-123630100D01*
X73157000Y-123705100D02*
X73245700Y-123663200D01*
X73072800Y-123755600D02*
X73157000Y-123705100D01*
X72994000Y-123814000D02*
X73072800Y-123755600D01*
X72921200Y-123879900D02*
X72994000Y-123814000D01*
X72855300Y-123952600D02*
X72921200Y-123879900D01*
X72796900Y-124031500D02*
X72855300Y-123952600D01*
X72746400Y-124115600D02*
X72796900Y-124031500D01*
X72704500Y-124204400D02*
X72746400Y-124115600D01*
X72671400Y-124296800D02*
X72704500Y-124204400D01*
X72647600Y-124391900D02*
X72671400Y-124296800D01*
X72633200Y-124489000D02*
X72647600Y-124391900D01*
X72628400Y-124587000D02*
X72633200Y-124489000D01*
X72628400Y-125085200D02*
X72628400Y-124587000D01*
X72633200Y-125183200D02*
X72628400Y-125085200D01*
X72647600Y-125280300D02*
X72633200Y-125183200D01*
X72671400Y-125375500D02*
X72647600Y-125280300D01*
X72704500Y-125467900D02*
X72671400Y-125375500D01*
X72746400Y-125556600D02*
X72704500Y-125467900D01*
X72796900Y-125640800D02*
X72746400Y-125556600D01*
X72855300Y-125719600D02*
X72796900Y-125640800D01*
X72921200Y-125792300D02*
X72855300Y-125719600D01*
X72994000Y-125858200D02*
X72921200Y-125792300D01*
X73072800Y-125916700D02*
X72994000Y-125858200D01*
X73157000Y-125967100D02*
X73072800Y-125916700D01*
X73245700Y-126009100D02*
X73157000Y-125967100D01*
X73338100Y-126042100D02*
X73245700Y-126009100D01*
X73433300Y-126066000D02*
X73338100Y-126042100D01*
X73530300Y-126080400D02*
X73433300Y-126066000D01*
X73628400Y-126085200D02*
X73530300Y-126080400D01*
X82253700Y-100723100D02*
X73628400Y-100723100D01*
X82351700Y-100718300D02*
X82253700Y-100723100D01*
X82448800Y-100703900D02*
X82351700Y-100718300D01*
X82544000Y-100680000D02*
X82448800Y-100703900D01*
X82636400Y-100647000D02*
X82544000Y-100680000D01*
X82725100Y-100605000D02*
X82636400Y-100647000D01*
X82809300Y-100554600D02*
X82725100Y-100605000D01*
X82888100Y-100496100D02*
X82809300Y-100554600D01*
X82960800Y-100430200D02*
X82888100Y-100496100D01*
X83026700Y-100357500D02*
X82960800Y-100430200D01*
X83085200Y-100278700D02*
X83026700Y-100357500D01*
X83135600Y-100194500D02*
X83085200Y-100278700D01*
X83177600Y-100105800D02*
X83135600Y-100194500D01*
X83210600Y-100013400D02*
X83177600Y-100105800D01*
X83234500Y-99918200D02*
X83210600Y-100013400D01*
X83248900Y-99821100D02*
X83234500Y-99918200D01*
X83253700Y-99723100D02*
X83248900Y-99821100D01*
X83253700Y-99225100D02*
X83253700Y-99723100D01*
X83248900Y-99127000D02*
X83253700Y-99225100D01*
X83234500Y-99030000D02*
X83248900Y-99127000D01*
X83210600Y-98934800D02*
X83234500Y-99030000D01*
X83177600Y-98842400D02*
X83210600Y-98934800D01*
X83135600Y-98753700D02*
X83177600Y-98842400D01*
X83085200Y-98669500D02*
X83135600Y-98753700D01*
X83026700Y-98590700D02*
X83085200Y-98669500D01*
X82960800Y-98518000D02*
X83026700Y-98590700D01*
X82888100Y-98452100D02*
X82960800Y-98518000D01*
X82809300Y-98393600D02*
X82888100Y-98452100D01*
X82725100Y-98343100D02*
X82809300Y-98393600D01*
X82636400Y-98301200D02*
X82725100Y-98343100D01*
X82544000Y-98268100D02*
X82636400Y-98301200D01*
X82448800Y-98244300D02*
X82544000Y-98268100D01*
X82351700Y-98229900D02*
X82448800Y-98244300D01*
X82253700Y-98225100D02*
X82351700Y-98229900D01*
X73628400Y-98225000D02*
X82253700Y-98225100D01*
X73530300Y-98229900D02*
X73628400Y-98225000D01*
X73433300Y-98244300D02*
X73530300Y-98229900D01*
X73338100Y-98268100D02*
X73433300Y-98244300D01*
X73245700Y-98301200D02*
X73338100Y-98268100D01*
X73157000Y-98343100D02*
X73245700Y-98301200D01*
X73072800Y-98393600D02*
X73157000Y-98343100D01*
X72994000Y-98452000D02*
X73072800Y-98393600D01*
X72921200Y-98517900D02*
X72994000Y-98452000D01*
X72855300Y-98590600D02*
X72921200Y-98517900D01*
X72796900Y-98669500D02*
X72855300Y-98590600D01*
X72746400Y-98753600D02*
X72796900Y-98669500D01*
X72704500Y-98842400D02*
X72746400Y-98753600D01*
X72671400Y-98934800D02*
X72704500Y-98842400D01*
X72647600Y-99029900D02*
X72671400Y-98934800D01*
X72633200Y-99127000D02*
X72647600Y-99029900D01*
X72628400Y-99225000D02*
X72633200Y-99127000D01*
X72628400Y-99723100D02*
X72628400Y-99225000D01*
X72633200Y-99821100D02*
X72628400Y-99723100D01*
X72647600Y-99918200D02*
X72633200Y-99821100D01*
X72671400Y-100013400D02*
X72647600Y-99918200D01*
X72704500Y-100105800D02*
X72671400Y-100013400D01*
X72746400Y-100194500D02*
X72704500Y-100105800D01*
X72796900Y-100278700D02*
X72746400Y-100194500D01*
X72855300Y-100357500D02*
X72796900Y-100278700D01*
X72921200Y-100430200D02*
X72855300Y-100357500D01*
X72994000Y-100496100D02*
X72921200Y-100430200D01*
X73072800Y-100554600D02*
X72994000Y-100496100D01*
X73157000Y-100605000D02*
X73072800Y-100554600D01*
X73245700Y-100647000D02*
X73157000Y-100605000D01*
X73338100Y-100680000D02*
X73245700Y-100647000D01*
X73433300Y-100703900D02*
X73338100Y-100680000D01*
X73530300Y-100718300D02*
X73433300Y-100703900D01*
X73628400Y-100723100D02*
X73530300Y-100718300D01*
X72628400Y-74361100D02*
X72628400Y-73862900D01*
X72633200Y-74459100D02*
X72628400Y-74361100D01*
X72647600Y-74556200D02*
X72633200Y-74459100D01*
X72671400Y-74651400D02*
X72647600Y-74556200D01*
X72704500Y-74743800D02*
X72671400Y-74651400D01*
X72746400Y-74832500D02*
X72704500Y-74743800D01*
X72796900Y-74916700D02*
X72746400Y-74832500D01*
X72855300Y-74995500D02*
X72796900Y-74916700D01*
X72921200Y-75068200D02*
X72855300Y-74995500D01*
X72994000Y-75134100D02*
X72921200Y-75068200D01*
X73072800Y-75192600D02*
X72994000Y-75134100D01*
X73157000Y-75243000D02*
X73072800Y-75192600D01*
X73245700Y-75285000D02*
X73157000Y-75243000D01*
X73338100Y-75318000D02*
X73245700Y-75285000D01*
X73433300Y-75341900D02*
X73338100Y-75318000D01*
X73530300Y-75356300D02*
X73433300Y-75341900D01*
X73628400Y-75361100D02*
X73530300Y-75356300D01*
X82253700Y-75361100D02*
X73628400Y-75361100D01*
X82351700Y-75356300D02*
X82253700Y-75361100D01*
X82448800Y-75341900D02*
X82351700Y-75356300D01*
X82544000Y-75318000D02*
X82448800Y-75341900D01*
X82636400Y-75285000D02*
X82544000Y-75318000D01*
X82725100Y-75243000D02*
X82636400Y-75285000D01*
X82809300Y-75192600D02*
X82725100Y-75243000D01*
X82888100Y-75134100D02*
X82809300Y-75192600D01*
X82960800Y-75068200D02*
X82888100Y-75134100D01*
X83026700Y-74995500D02*
X82960800Y-75068200D01*
X83085200Y-74916700D02*
X83026700Y-74995500D01*
X83135600Y-74832500D02*
X83085200Y-74916700D01*
X83177600Y-74743800D02*
X83135600Y-74832500D01*
X83210600Y-74651400D02*
X83177600Y-74743800D01*
X83234500Y-74556200D02*
X83210600Y-74651400D01*
X83248900Y-74459100D02*
X83234500Y-74556200D01*
X83253700Y-74361100D02*
X83248900Y-74459100D01*
X83253700Y-73863000D02*
X83253700Y-74361100D01*
X83248900Y-73764900D02*
X83253700Y-73863000D01*
X83234500Y-73667900D02*
X83248900Y-73764900D01*
X83210600Y-73572700D02*
X83234500Y-73667900D01*
X83177600Y-73480300D02*
X83210600Y-73572700D01*
X83135600Y-73391600D02*
X83177600Y-73480300D01*
X83085200Y-73307400D02*
X83135600Y-73391600D01*
X83026700Y-73228600D02*
X83085200Y-73307400D01*
X82960800Y-73155900D02*
X83026700Y-73228600D01*
X82888100Y-73090000D02*
X82960800Y-73155900D01*
X82809300Y-73031500D02*
X82888100Y-73090000D01*
X82725100Y-72981000D02*
X82809300Y-73031500D01*
X82636400Y-72939100D02*
X82725100Y-72981000D01*
X82544000Y-72906000D02*
X82636400Y-72939100D01*
X82448800Y-72882200D02*
X82544000Y-72906000D01*
X82351700Y-72867800D02*
X82448800Y-72882200D01*
X82253700Y-72863000D02*
X82351700Y-72867800D01*
X73628400Y-72862900D02*
X82253700Y-72863000D01*
X73530300Y-72867800D02*
X73628400Y-72862900D01*
X73433300Y-72882200D02*
X73530300Y-72867800D01*
X73338100Y-72906000D02*
X73433300Y-72882200D01*
X73245700Y-72939100D02*
X73338100Y-72906000D01*
X73157000Y-72981000D02*
X73245700Y-72939100D01*
X73072800Y-73031500D02*
X73157000Y-72981000D01*
X72994000Y-73089900D02*
X73072800Y-73031500D01*
X72921200Y-73155800D02*
X72994000Y-73089900D01*
X72855300Y-73228500D02*
X72921200Y-73155800D01*
X72796900Y-73307400D02*
X72855300Y-73228500D01*
X72746400Y-73391500D02*
X72796900Y-73307400D01*
X72704500Y-73480300D02*
X72746400Y-73391500D01*
X72671400Y-73572700D02*
X72704500Y-73480300D01*
X72647600Y-73667800D02*
X72671400Y-73572700D01*
X72633200Y-73764900D02*
X72647600Y-73667800D01*
X72628400Y-73862900D02*
X72633200Y-73764900D01*
X100166000Y-75361200D02*
X92255700Y-75361100D01*
X100763500Y-75392700D02*
X100166000Y-75361200D01*
X101341600Y-75484000D02*
X100763500Y-75392700D01*
X101367300Y-75489400D02*
X101341600Y-75484000D01*
X101932500Y-75641200D02*
X101367300Y-75489400D01*
X102491200Y-75855700D02*
X101932500Y-75641200D01*
X103012800Y-76121000D02*
X102491200Y-75855700D01*
X103035500Y-76134200D02*
X103012800Y-76121000D01*
X103526200Y-76453300D02*
X103035500Y-76134200D01*
X103981200Y-76821300D02*
X103526200Y-76453300D01*
X104000800Y-76838900D02*
X103981200Y-76821300D01*
X104414300Y-77253000D02*
X104000800Y-76838900D01*
X104782800Y-77707500D02*
X104414300Y-77253000D01*
X104798300Y-77728700D02*
X104782800Y-77707500D01*
X105116800Y-78219800D02*
X104798300Y-77728700D01*
X105382700Y-78741000D02*
X105116800Y-78219800D01*
X105393400Y-78765000D02*
X105382700Y-78741000D01*
X105602900Y-79311600D02*
X105393400Y-78765000D01*
X105754700Y-79876800D02*
X105602900Y-79311600D01*
X105760100Y-79902500D02*
X105754700Y-79876800D01*
X105851400Y-80480700D02*
X105760100Y-79902500D01*
X105883000Y-81084600D02*
X105851400Y-80480700D01*
X105883000Y-92501500D02*
X105883000Y-81084600D01*
X105852400Y-93092500D02*
X105883000Y-92501500D01*
X105849600Y-93118600D02*
X105852400Y-93092500D01*
X105757700Y-93696800D02*
X105849600Y-93118600D01*
X105606600Y-94262100D02*
X105757700Y-93696800D01*
X105598400Y-94287100D02*
X105606600Y-94262100D01*
X105388400Y-94833400D02*
X105598400Y-94287100D01*
X105123000Y-95354900D02*
X105388400Y-94833400D01*
X105109900Y-95377600D02*
X105123000Y-95354900D01*
X104790800Y-95868300D02*
X105109900Y-95377600D01*
X104414300Y-96333300D02*
X104790800Y-95868300D01*
X104000800Y-96747300D02*
X104414300Y-96333300D01*
X103981200Y-96764900D02*
X104000800Y-96747300D01*
X103536500Y-97125000D02*
X103981200Y-96764900D01*
X103515300Y-97140500D02*
X103536500Y-97125000D01*
X103024300Y-97458900D02*
X103515300Y-97140500D01*
X102491100Y-97730500D02*
X103024300Y-97458900D01*
X101932500Y-97945000D02*
X102491100Y-97730500D01*
X101367300Y-98096800D02*
X101932500Y-97945000D01*
X101341600Y-98102200D02*
X101367300Y-98096800D01*
X100763400Y-98193500D02*
X101341600Y-98102200D01*
X100166000Y-98225000D02*
X100763400Y-98193500D01*
X92255700Y-98225100D02*
X100166000Y-98225000D01*
X92157700Y-98229900D02*
X92255700Y-98225100D01*
X92060600Y-98244300D02*
X92157700Y-98229900D01*
X91965400Y-98268100D02*
X92060600Y-98244300D01*
X91873000Y-98301200D02*
X91965400Y-98268100D01*
X91784300Y-98343200D02*
X91873000Y-98301200D01*
X91700100Y-98393600D02*
X91784300Y-98343200D01*
X91621300Y-98452100D02*
X91700100Y-98393600D01*
X91548600Y-98518000D02*
X91621300Y-98452100D01*
X91482700Y-98590700D02*
X91548600Y-98518000D01*
X91424200Y-98669500D02*
X91482700Y-98590700D01*
X91373800Y-98753700D02*
X91424200Y-98669500D01*
X91331800Y-98842400D02*
X91373800Y-98753700D01*
X91298800Y-98934800D02*
X91331800Y-98842400D01*
X91274900Y-99030000D02*
X91298800Y-98934800D01*
X91260500Y-99127100D02*
X91274900Y-99030000D01*
X91255700Y-99225100D02*
X91260500Y-99127100D01*
X91255700Y-99723100D02*
X91255700Y-99225100D01*
X91260500Y-99821100D02*
X91255700Y-99723100D01*
X91274900Y-99918200D02*
X91260500Y-99821100D01*
X91298800Y-100013400D02*
X91274900Y-99918200D01*
X91331800Y-100105800D02*
X91298800Y-100013400D01*
X91373800Y-100194500D02*
X91331800Y-100105800D01*
X91424200Y-100278700D02*
X91373800Y-100194500D01*
X91482700Y-100357500D02*
X91424200Y-100278700D01*
X91548600Y-100430200D02*
X91482700Y-100357500D01*
X91621300Y-100496100D02*
X91548600Y-100430200D01*
X91700100Y-100554600D02*
X91621300Y-100496100D01*
X91784300Y-100605000D02*
X91700100Y-100554600D01*
X91873000Y-100647000D02*
X91784300Y-100605000D01*
X91965400Y-100680000D02*
X91873000Y-100647000D01*
X92060600Y-100703900D02*
X91965400Y-100680000D01*
X92157700Y-100718300D02*
X92060600Y-100703900D01*
X92255700Y-100723100D02*
X92157700Y-100718300D01*
X100166000Y-100723200D02*
X92255700Y-100723100D01*
X100763500Y-100754700D02*
X100166000Y-100723200D01*
X101341600Y-100846000D02*
X100763500Y-100754700D01*
X101367300Y-100851400D02*
X101341600Y-100846000D01*
X101919900Y-100999400D02*
X101367300Y-100851400D01*
X101944900Y-101007600D02*
X101919900Y-100999400D01*
X102491200Y-101217700D02*
X101944900Y-101007600D01*
X103012800Y-101483000D02*
X102491200Y-101217700D01*
X103035500Y-101496200D02*
X103012800Y-101483000D01*
X103526200Y-101815300D02*
X103035500Y-101496200D01*
X103981200Y-102183300D02*
X103526200Y-101815300D01*
X104000800Y-102200900D02*
X103981200Y-102183300D01*
X104405200Y-102605400D02*
X104000800Y-102200900D01*
X104422800Y-102624900D02*
X104405200Y-102605400D01*
X104790800Y-103079900D02*
X104422800Y-102624900D01*
X105116800Y-103581800D02*
X104790800Y-103079900D01*
X105388400Y-104114900D02*
X105116800Y-103581800D01*
X105598500Y-104661200D02*
X105388400Y-104114900D01*
X105606700Y-104686200D02*
X105598500Y-104661200D01*
X105757700Y-105251600D02*
X105606700Y-104686200D01*
X105849600Y-105829600D02*
X105757700Y-105251600D01*
X105852400Y-105855700D02*
X105849600Y-105829600D01*
X105882900Y-106440100D02*
X105852400Y-105855700D01*
X105882700Y-117876700D02*
X105882900Y-106440100D01*
X105851400Y-118467600D02*
X105882700Y-117876700D01*
X105760100Y-119045800D02*
X105851400Y-118467600D01*
X105754700Y-119071500D02*
X105760100Y-119045800D01*
X105602800Y-119636700D02*
X105754700Y-119071500D01*
X105393400Y-120183200D02*
X105602800Y-119636700D01*
X105382700Y-120207200D02*
X105393400Y-120183200D01*
X105116800Y-120728500D02*
X105382700Y-120207200D01*
X104790800Y-121230300D02*
X105116800Y-120728500D01*
X104414300Y-121695300D02*
X104790800Y-121230300D01*
X104000800Y-122109300D02*
X104414300Y-121695300D01*
X103981200Y-122126900D02*
X104000800Y-122109300D01*
X103536500Y-122487000D02*
X103981200Y-122126900D01*
X103515300Y-122502500D02*
X103536500Y-122487000D01*
X103024300Y-122820900D02*
X103515300Y-122502500D01*
X102491100Y-123092500D02*
X103024300Y-122820900D01*
X101932500Y-123307000D02*
X102491100Y-123092500D01*
X101367300Y-123458800D02*
X101932500Y-123307000D01*
X101341600Y-123464200D02*
X101367300Y-123458800D01*
X100763400Y-123555500D02*
X101341600Y-123464200D01*
X100166000Y-123587000D02*
X100763400Y-123555500D01*
X92255700Y-123587100D02*
X100166000Y-123587000D01*
X92157700Y-123591900D02*
X92255700Y-123587100D01*
X92060600Y-123606300D02*
X92157700Y-123591900D01*
X91965400Y-123630100D02*
X92060600Y-123606300D01*
X91873000Y-123663200D02*
X91965400Y-123630100D01*
X91784300Y-123705200D02*
X91873000Y-123663200D01*
X91700100Y-123755600D02*
X91784300Y-123705200D01*
X91621300Y-123814100D02*
X91700100Y-123755600D01*
X91548600Y-123880000D02*
X91621300Y-123814100D01*
X91482700Y-123952700D02*
X91548600Y-123880000D01*
X91424200Y-124031500D02*
X91482700Y-123952700D01*
X91373800Y-124115700D02*
X91424200Y-124031500D01*
X91331800Y-124204400D02*
X91373800Y-124115700D01*
X91298800Y-124296800D02*
X91331800Y-124204400D01*
X91274900Y-124392000D02*
X91298800Y-124296800D01*
X91260500Y-124489100D02*
X91274900Y-124392000D01*
X91255700Y-124587100D02*
X91260500Y-124489100D01*
X91255700Y-125085200D02*
X91255700Y-124587100D01*
X91260500Y-125183200D02*
X91255700Y-125085200D01*
X91274900Y-125280300D02*
X91260500Y-125183200D01*
X91298800Y-125375500D02*
X91274900Y-125280300D01*
X91331800Y-125467900D02*
X91298800Y-125375500D01*
X91373800Y-125556600D02*
X91331800Y-125467900D01*
X91424200Y-125640800D02*
X91373800Y-125556600D01*
X91482700Y-125719600D02*
X91424200Y-125640800D01*
X91548600Y-125792300D02*
X91482700Y-125719600D01*
X91621300Y-125858200D02*
X91548600Y-125792300D01*
X91700100Y-125916700D02*
X91621300Y-125858200D01*
X91784300Y-125967100D02*
X91700100Y-125916700D01*
X91873000Y-126009100D02*
X91784300Y-125967100D01*
X91965400Y-126042100D02*
X91873000Y-126009100D01*
X92060600Y-126066000D02*
X91965400Y-126042100D01*
X92157700Y-126080400D02*
X92060600Y-126066000D01*
X92255700Y-126085200D02*
X92157700Y-126080400D01*
X100166000Y-126085300D02*
X92255700Y-126085200D01*
X100763500Y-126116800D02*
X100166000Y-126085300D01*
X101341600Y-126208100D02*
X100763500Y-126116800D01*
X101367300Y-126213500D02*
X101341600Y-126208100D01*
X101932500Y-126365300D02*
X101367300Y-126213500D01*
X102491200Y-126579800D02*
X101932500Y-126365300D01*
X103012800Y-126845100D02*
X102491200Y-126579800D01*
X103035500Y-126858300D02*
X103012800Y-126845100D01*
X103515400Y-127169900D02*
X103035500Y-126858300D01*
X103536600Y-127185400D02*
X103515400Y-127169900D01*
X103991300Y-127553900D02*
X103536600Y-127185400D01*
X104414300Y-127977100D02*
X103991300Y-127553900D01*
X104790800Y-128442000D02*
X104414300Y-127977100D01*
X105109900Y-128932700D02*
X104790800Y-128442000D01*
X105123000Y-128955400D02*
X105109900Y-128932700D01*
X105388400Y-129477000D02*
X105123000Y-128955400D01*
X105598500Y-130023300D02*
X105388400Y-129477000D01*
X105606700Y-130048300D02*
X105598500Y-130023300D01*
X105757700Y-130613700D02*
X105606700Y-130048300D01*
X105849600Y-131191700D02*
X105757700Y-130613700D01*
X105852400Y-131217800D02*
X105849600Y-131191700D01*
X105883000Y-131808700D02*
X105852400Y-131217800D01*
X105883000Y-143225600D02*
X105883000Y-131808700D01*
X105852400Y-143816600D02*
X105883000Y-143225600D01*
X105849600Y-143842700D02*
X105852400Y-143816600D01*
X105757700Y-144420900D02*
X105849600Y-143842700D01*
X105602800Y-144998800D02*
X105757700Y-144420900D01*
X105388400Y-145557500D02*
X105602800Y-144998800D01*
X105123000Y-146079000D02*
X105388400Y-145557500D01*
X105109900Y-146101700D02*
X105123000Y-146079000D01*
X104790800Y-146592400D02*
X105109900Y-146101700D01*
X104422800Y-147047400D02*
X104790800Y-146592400D01*
X104405300Y-147066900D02*
X104422800Y-147047400D01*
X103991200Y-147480500D02*
X104405300Y-147066900D01*
X103536500Y-147849100D02*
X103991200Y-147480500D01*
X103515300Y-147864600D02*
X103536500Y-147849100D01*
X103024300Y-148183000D02*
X103515300Y-147864600D01*
X102491100Y-148454600D02*
X103024300Y-148183000D01*
X101944900Y-148664700D02*
X102491100Y-148454600D01*
X101919900Y-148672900D02*
X101944900Y-148664700D01*
X101354500Y-148823900D02*
X101919900Y-148672900D01*
X100776500Y-148915800D02*
X101354500Y-148823900D01*
X100750400Y-148918600D02*
X100776500Y-148915800D01*
X100172600Y-148948900D02*
X100750400Y-148918600D01*
X55716000Y-148949000D02*
X100172600Y-148948900D01*
X55118500Y-148917500D02*
X55716000Y-148949000D01*
X54540400Y-148826200D02*
X55118500Y-148917500D01*
X54514700Y-148820800D02*
X54540400Y-148826200D01*
X53962100Y-148672800D02*
X54514700Y-148820800D01*
X53937100Y-148664600D02*
X53962100Y-148672800D01*
X53390900Y-148454500D02*
X53937100Y-148664600D01*
X52869300Y-148189100D02*
X53390900Y-148454500D01*
X52846600Y-148176000D02*
X52869300Y-148189100D01*
X52355800Y-147856900D02*
X52846600Y-148176000D01*
X51890700Y-147480400D02*
X52355800Y-147856900D01*
X51467700Y-147057200D02*
X51890700Y-147480400D01*
X51099200Y-146602800D02*
X51467700Y-147057200D01*
X51083700Y-146581500D02*
X51099200Y-146602800D01*
X50765300Y-146090500D02*
X51083700Y-146581500D01*
X50499300Y-145569100D02*
X50765300Y-146090500D01*
X50488600Y-145545100D02*
X50499300Y-145569100D01*
X50283600Y-145011100D02*
X50488600Y-145545100D01*
X50275400Y-144986100D02*
X50283600Y-145011100D01*
X50124300Y-144420800D02*
X50275400Y-144986100D01*
X50030600Y-143829700D02*
X50124300Y-144420800D01*
X49999000Y-143225700D02*
X50030600Y-143829700D01*
X49999100Y-131802100D02*
X49999000Y-143225700D01*
X50030700Y-131204600D02*
X49999100Y-131802100D01*
X50124300Y-130613600D02*
X50030700Y-131204600D01*
X50279100Y-130035700D02*
X50124300Y-130613600D01*
X50488600Y-129489200D02*
X50279100Y-130035700D01*
X50499200Y-129465200D02*
X50488600Y-129489200D01*
X50765200Y-128943800D02*
X50499200Y-129465200D01*
X51091200Y-128442000D02*
X50765200Y-128943800D01*
X51467700Y-127976900D02*
X51091200Y-128442000D01*
X51890900Y-127553900D02*
X51467700Y-127976900D01*
X52355800Y-127177400D02*
X51890900Y-127553900D01*
X52857700Y-126851400D02*
X52355800Y-127177400D01*
X53390800Y-126579800D02*
X52857700Y-126851400D01*
X53949400Y-126365400D02*
X53390800Y-126579800D01*
X54514700Y-126213500D02*
X53949400Y-126365400D01*
X54540400Y-126208100D02*
X54514700Y-126213500D01*
X55118600Y-126116800D02*
X54540400Y-126208100D01*
X55716000Y-126085300D02*
X55118600Y-126116800D01*
X63626400Y-126085200D02*
X55716000Y-126085300D01*
X63724400Y-126080400D02*
X63626400Y-126085200D01*
X63821400Y-126066000D02*
X63724400Y-126080400D01*
X63916600Y-126042100D02*
X63821400Y-126066000D01*
X64009000Y-126009100D02*
X63916600Y-126042100D01*
X64097700Y-125967100D02*
X64009000Y-126009100D01*
X64181900Y-125916700D02*
X64097700Y-125967100D01*
X64260700Y-125858200D02*
X64181900Y-125916700D01*
X64333500Y-125792300D02*
X64260700Y-125858200D01*
X64399400Y-125719600D02*
X64333500Y-125792300D01*
X64457800Y-125640800D02*
X64399400Y-125719600D01*
X64508300Y-125556600D02*
X64457800Y-125640800D01*
X64550200Y-125467900D02*
X64508300Y-125556600D01*
X64583300Y-125375500D02*
X64550200Y-125467900D01*
X64607100Y-125280300D02*
X64583300Y-125375500D01*
X64621500Y-125183200D02*
X64607100Y-125280300D01*
X64626400Y-125085200D02*
X64621500Y-125183200D01*
X64626400Y-124587000D02*
X64626400Y-125085200D01*
X64621500Y-124489000D02*
X64626400Y-124587000D01*
X64607100Y-124391900D02*
X64621500Y-124489000D01*
X64583300Y-124296700D02*
X64607100Y-124391900D01*
X64550200Y-124204300D02*
X64583300Y-124296700D01*
X64508300Y-124115600D02*
X64550200Y-124204300D01*
X64457800Y-124031400D02*
X64508300Y-124115600D01*
X64399400Y-123952600D02*
X64457800Y-124031400D01*
X64333500Y-123879900D02*
X64399400Y-123952600D01*
X64260700Y-123814000D02*
X64333500Y-123879900D01*
X64181900Y-123755500D02*
X64260700Y-123814000D01*
X64097700Y-123705100D02*
X64181900Y-123755500D01*
X64009000Y-123663100D02*
X64097700Y-123705100D01*
X63916600Y-123630100D02*
X64009000Y-123663100D01*
X63821400Y-123606200D02*
X63916600Y-123630100D01*
X63724400Y-123591800D02*
X63821400Y-123606200D01*
X63626400Y-123587000D02*
X63724400Y-123591800D01*
X55716000Y-123586900D02*
X63626400Y-123587000D01*
X55118500Y-123555400D02*
X55716000Y-123586900D01*
X54540400Y-123464100D02*
X55118500Y-123555400D01*
X54514700Y-123458700D02*
X54540400Y-123464100D01*
X53949500Y-123306900D02*
X54514700Y-123458700D01*
X53390900Y-123092400D02*
X53949500Y-123306900D01*
X52857700Y-122820800D02*
X53390900Y-123092400D01*
X52366700Y-122502300D02*
X52857700Y-122820800D01*
X52345400Y-122486800D02*
X52366700Y-122502300D01*
X51900800Y-122126800D02*
X52345400Y-122486800D01*
X51881200Y-122109200D02*
X51900800Y-122126800D01*
X51467700Y-121695100D02*
X51881200Y-122109200D01*
X51091200Y-121230300D02*
X51467700Y-121695100D01*
X50772200Y-120739600D02*
X51091200Y-121230300D01*
X50759100Y-120716900D02*
X50772200Y-120739600D01*
X50493600Y-120195100D02*
X50759100Y-120716900D01*
X50283600Y-119649000D02*
X50493600Y-120195100D01*
X50275400Y-119624000D02*
X50283600Y-119649000D01*
X50124300Y-119058700D02*
X50275400Y-119624000D01*
X50032400Y-118480700D02*
X50124300Y-119058700D01*
X50029600Y-118454600D02*
X50032400Y-118480700D01*
X49999000Y-117863600D02*
X50029600Y-118454600D01*
X49999000Y-106446600D02*
X49999000Y-117863600D01*
X50030700Y-105842500D02*
X49999000Y-106446600D01*
X50121900Y-105264500D02*
X50030700Y-105842500D01*
X50127300Y-105238800D02*
X50121900Y-105264500D01*
X50275300Y-104686200D02*
X50127300Y-105238800D01*
X50283500Y-104661200D02*
X50275300Y-104686200D01*
X50493600Y-104114900D02*
X50283500Y-104661200D01*
X50758900Y-103593300D02*
X50493600Y-104114900D01*
X50772100Y-103570600D02*
X50758900Y-103593300D01*
X51091200Y-103079900D02*
X50772100Y-103570600D01*
X51459200Y-102624900D02*
X51091200Y-103079900D01*
X51476800Y-102605300D02*
X51459200Y-102624900D01*
X51890900Y-102191800D02*
X51476800Y-102605300D01*
X52355800Y-101815300D02*
X51890900Y-102191800D01*
X52857700Y-101489300D02*
X52355800Y-101815300D01*
X53390800Y-101217700D02*
X52857700Y-101489300D01*
X53949400Y-101003300D02*
X53390800Y-101217700D01*
X54527500Y-100848400D02*
X53949400Y-101003300D01*
X55118600Y-100754700D02*
X54527500Y-100848400D01*
X55709400Y-100723400D02*
X55118600Y-100754700D01*
X63626400Y-100723100D02*
X55709400Y-100723400D01*
X63724400Y-100718300D02*
X63626400Y-100723100D01*
X63821400Y-100703900D02*
X63724400Y-100718300D01*
X63916600Y-100680000D02*
X63821400Y-100703900D01*
X64009000Y-100647000D02*
X63916600Y-100680000D01*
X64097700Y-100605000D02*
X64009000Y-100647000D01*
X64181900Y-100554600D02*
X64097700Y-100605000D01*
X64260700Y-100496100D02*
X64181900Y-100554600D01*
X64333500Y-100430200D02*
X64260700Y-100496100D01*
X64399400Y-100357500D02*
X64333500Y-100430200D01*
X64457800Y-100278700D02*
X64399400Y-100357500D01*
X64508300Y-100194500D02*
X64457800Y-100278700D01*
X64550200Y-100105800D02*
X64508300Y-100194500D01*
X64583300Y-100013400D02*
X64550200Y-100105800D01*
X64607100Y-99918200D02*
X64583300Y-100013400D01*
X64621500Y-99821100D02*
X64607100Y-99918200D01*
X64626400Y-99723100D02*
X64621500Y-99821100D01*
X64626400Y-99225000D02*
X64626400Y-99723100D01*
X64621500Y-99127000D02*
X64626400Y-99225000D01*
X64607100Y-99029900D02*
X64621500Y-99127000D01*
X64583300Y-98934700D02*
X64607100Y-99029900D01*
X64550200Y-98842300D02*
X64583300Y-98934700D01*
X64508300Y-98753600D02*
X64550200Y-98842300D01*
X64457800Y-98669400D02*
X64508300Y-98753600D01*
X64399400Y-98590600D02*
X64457800Y-98669400D01*
X64333500Y-98517900D02*
X64399400Y-98590600D01*
X64260700Y-98452000D02*
X64333500Y-98517900D01*
X64181900Y-98393500D02*
X64260700Y-98452000D01*
X64097700Y-98343100D02*
X64181900Y-98393500D01*
X64009000Y-98301100D02*
X64097700Y-98343100D01*
X63916600Y-98268100D02*
X64009000Y-98301100D01*
X63821400Y-98244200D02*
X63916600Y-98268100D01*
X63724400Y-98229800D02*
X63821400Y-98244200D01*
X63626400Y-98225000D02*
X63724400Y-98229800D01*
X55716000Y-98224900D02*
X63626400Y-98225000D01*
X55118500Y-98193400D02*
X55716000Y-98224900D01*
X54540400Y-98102100D02*
X55118500Y-98193400D01*
X54514700Y-98096700D02*
X54540400Y-98102100D01*
X53949500Y-97944900D02*
X54514700Y-98096700D01*
X53390900Y-97730400D02*
X53949500Y-97944900D01*
X52857700Y-97458800D02*
X53390900Y-97730400D01*
X52366700Y-97140300D02*
X52857700Y-97458800D01*
X52345400Y-97124800D02*
X52366700Y-97140300D01*
X51900800Y-96764800D02*
X52345400Y-97124800D01*
X51881200Y-96747200D02*
X51900800Y-96764800D01*
X51467700Y-96333100D02*
X51881200Y-96747200D01*
X51099200Y-95878700D02*
X51467700Y-96333100D01*
X51083700Y-95857400D02*
X51099200Y-95878700D01*
X50765300Y-95366400D02*
X51083700Y-95857400D01*
X50499300Y-94845000D02*
X50765300Y-95366400D01*
X50488600Y-94821000D02*
X50499300Y-94845000D01*
X50279200Y-94274600D02*
X50488600Y-94821000D01*
X50127300Y-93709500D02*
X50279200Y-94274600D01*
X50121900Y-93683800D02*
X50127300Y-93709500D01*
X50032400Y-93118700D02*
X50121900Y-93683800D01*
X50029600Y-93092600D02*
X50032400Y-93118700D01*
X49999000Y-92501600D02*
X50029600Y-93092600D01*
X49999000Y-81084600D02*
X49999000Y-92501600D01*
X50029600Y-80493700D02*
X49999000Y-81084600D01*
X50032400Y-80467500D02*
X50029600Y-80493700D01*
X50124300Y-79889500D02*
X50032400Y-80467500D01*
X50275300Y-79324200D02*
X50124300Y-79889500D01*
X50283500Y-79299200D02*
X50275300Y-79324200D01*
X50488600Y-78765100D02*
X50283500Y-79299200D01*
X50499200Y-78741100D02*
X50488600Y-78765100D01*
X50765200Y-78219700D02*
X50499200Y-78741100D01*
X51091200Y-77717900D02*
X50765200Y-78219700D01*
X51459200Y-77262900D02*
X51091200Y-77717900D01*
X51476800Y-77243300D02*
X51459200Y-77262900D01*
X51890900Y-76829800D02*
X51476800Y-77243300D01*
X52345400Y-76461300D02*
X51890900Y-76829800D01*
X52366600Y-76445800D02*
X52345400Y-76461300D01*
X52857700Y-76127300D02*
X52366600Y-76445800D01*
X53390800Y-75855700D02*
X52857700Y-76127300D01*
X53949400Y-75641300D02*
X53390800Y-75855700D01*
X54527500Y-75486400D02*
X53949400Y-75641300D01*
X55118600Y-75392700D02*
X54527500Y-75486400D01*
X55709400Y-75361400D02*
X55118600Y-75392700D01*
X63626400Y-75361100D02*
X55709400Y-75361400D01*
X63724400Y-75356300D02*
X63626400Y-75361100D01*
X63821400Y-75341900D02*
X63724400Y-75356300D01*
X63916600Y-75318000D02*
X63821400Y-75341900D01*
X64009000Y-75285000D02*
X63916600Y-75318000D01*
X64097700Y-75243000D02*
X64009000Y-75285000D01*
X64181900Y-75192600D02*
X64097700Y-75243000D01*
X64260700Y-75134100D02*
X64181900Y-75192600D01*
X64333500Y-75068200D02*
X64260700Y-75134100D01*
X64399400Y-74995500D02*
X64333500Y-75068200D01*
X64457800Y-74916700D02*
X64399400Y-74995500D01*
X64508300Y-74832500D02*
X64457800Y-74916700D01*
X64550200Y-74743800D02*
X64508300Y-74832500D01*
X64583300Y-74651400D02*
X64550200Y-74743800D01*
X64607100Y-74556200D02*
X64583300Y-74651400D01*
X64621500Y-74459100D02*
X64607100Y-74556200D01*
X64626400Y-74361100D02*
X64621500Y-74459100D01*
X64626400Y-73862900D02*
X64626400Y-74361100D01*
X64621500Y-73764900D02*
X64626400Y-73862900D01*
X64607100Y-73667800D02*
X64621500Y-73764900D01*
X64583300Y-73572600D02*
X64607100Y-73667800D01*
X64550200Y-73480200D02*
X64583300Y-73572600D01*
X64508300Y-73391500D02*
X64550200Y-73480200D01*
X64457800Y-73307300D02*
X64508300Y-73391500D01*
X64399400Y-73228500D02*
X64457800Y-73307300D01*
X64333500Y-73155800D02*
X64399400Y-73228500D01*
X64260700Y-73089900D02*
X64333500Y-73155800D01*
X64181900Y-73031400D02*
X64260700Y-73089900D01*
X64097700Y-72981000D02*
X64181900Y-73031400D01*
X64009000Y-72939000D02*
X64097700Y-72981000D01*
X63916600Y-72906000D02*
X64009000Y-72939000D01*
X63821400Y-72882100D02*
X63916600Y-72906000D01*
X63724400Y-72867700D02*
X63821400Y-72882100D01*
X63626400Y-72862900D02*
X63724400Y-72867700D01*
X55716000Y-72862800D02*
X63626400Y-72862900D01*
X55118500Y-72831300D02*
X55716000Y-72862800D01*
X54540400Y-72740000D02*
X55118500Y-72831300D01*
X54514700Y-72734600D02*
X54540400Y-72740000D01*
X53949500Y-72582800D02*
X54514700Y-72734600D01*
X53390900Y-72368300D02*
X53949500Y-72582800D01*
X52857700Y-72096700D02*
X53390900Y-72368300D01*
X52366700Y-71778200D02*
X52857700Y-72096700D01*
X52345400Y-71762700D02*
X52366700Y-71778200D01*
X51900800Y-71402700D02*
X52345400Y-71762700D01*
X51881200Y-71385100D02*
X51900800Y-71402700D01*
X51467700Y-70971000D02*
X51881200Y-71385100D01*
X51099200Y-70516600D02*
X51467700Y-70971000D01*
X51083700Y-70495300D02*
X51099200Y-70516600D01*
X50765300Y-70004300D02*
X51083700Y-70495300D01*
X50499300Y-69482900D02*
X50765300Y-70004300D01*
X50488600Y-69458900D02*
X50499300Y-69482900D01*
X50279200Y-68912500D02*
X50488600Y-69458900D01*
X50127300Y-68347400D02*
X50279200Y-68912500D01*
X50121900Y-68321700D02*
X50127300Y-68347400D01*
X50030600Y-67743500D02*
X50121900Y-68321700D01*
X49999100Y-67146000D02*
X50030600Y-67743500D01*
X49999000Y-55722500D02*
X49999100Y-67146000D01*
X50029600Y-55131600D02*
X49999000Y-55722500D01*
X50032400Y-55105400D02*
X50029600Y-55131600D01*
X50124300Y-54527400D02*
X50032400Y-55105400D01*
X50279100Y-53949500D02*
X50124300Y-54527400D01*
X50493600Y-53390800D02*
X50279100Y-53949500D01*
X50758900Y-52869200D02*
X50493600Y-53390800D01*
X50772100Y-52846500D02*
X50758900Y-52869200D01*
X51091200Y-52355800D02*
X50772100Y-52846500D01*
X51459200Y-51900800D02*
X51091200Y-52355800D01*
X51476800Y-51881200D02*
X51459200Y-51900800D01*
X51890900Y-51467700D02*
X51476800Y-51881200D01*
X52345400Y-51099200D02*
X51890900Y-51467700D01*
X52366600Y-51083700D02*
X52345400Y-51099200D01*
X52857700Y-50765200D02*
X52366600Y-51083700D01*
X53390800Y-50493600D02*
X52857700Y-50765200D01*
X53937000Y-50283600D02*
X53390800Y-50493600D01*
X53962000Y-50275400D02*
X53937000Y-50283600D01*
X54527500Y-50124300D02*
X53962000Y-50275400D01*
X55105500Y-50032400D02*
X54527500Y-50124300D01*
X55131600Y-50029600D02*
X55105500Y-50032400D01*
X55709400Y-49999300D02*
X55131600Y-50029600D01*
X100166000Y-49999100D02*
X55709400Y-49999300D01*
X100763500Y-50030600D02*
X100166000Y-49999100D01*
X101341600Y-50121900D02*
X100763500Y-50030600D01*
X101367300Y-50127300D02*
X101341600Y-50121900D01*
X101919900Y-50275300D02*
X101367300Y-50127300D01*
X101944900Y-50283500D02*
X101919900Y-50275300D01*
X102491200Y-50493600D02*
X101944900Y-50283500D01*
X103012800Y-50758900D02*
X102491200Y-50493600D01*
X103035500Y-50772100D02*
X103012800Y-50758900D01*
X103526200Y-51091200D02*
X103035500Y-50772100D01*
X103991300Y-51467700D02*
X103526200Y-51091200D01*
X104414300Y-51890900D02*
X103991300Y-51467700D01*
X104782800Y-52345400D02*
X104414300Y-51890900D01*
X104798300Y-52366600D02*
X104782800Y-52345400D01*
X105109900Y-52846500D02*
X104798300Y-52366600D01*
X105123000Y-52869200D02*
X105109900Y-52846500D01*
X105388400Y-53390800D02*
X105123000Y-52869200D01*
X105598500Y-53937100D02*
X105388400Y-53390800D01*
X105606700Y-53962100D02*
X105598500Y-53937100D01*
X105757700Y-54527500D02*
X105606700Y-53962100D01*
X105851400Y-55118600D02*
X105757700Y-54527500D01*
X105883000Y-55722500D02*
X105851400Y-55118600D01*
X105882900Y-67146000D02*
X105883000Y-55722500D01*
X105851400Y-67743500D02*
X105882900Y-67146000D01*
X105757700Y-68334700D02*
X105851400Y-67743500D01*
X105602800Y-68912600D02*
X105757700Y-68334700D01*
X105388400Y-69471300D02*
X105602800Y-68912600D01*
X105116800Y-70004400D02*
X105388400Y-69471300D01*
X104790800Y-70506200D02*
X105116800Y-70004400D01*
X104414300Y-70971200D02*
X104790800Y-70506200D01*
X104000800Y-71385200D02*
X104414300Y-70971200D01*
X103981200Y-71402800D02*
X104000800Y-71385200D01*
X103526100Y-71770900D02*
X103981200Y-71402800D01*
X103035500Y-72089900D02*
X103526100Y-71770900D01*
X103012800Y-72103000D02*
X103035500Y-72089900D01*
X102491100Y-72368400D02*
X103012800Y-72103000D01*
X101944900Y-72578500D02*
X102491100Y-72368400D01*
X101919900Y-72586700D02*
X101944900Y-72578500D01*
X101367300Y-72734700D02*
X101919900Y-72586700D01*
X101341600Y-72740100D02*
X101367300Y-72734700D01*
X100763400Y-72831400D02*
X101341600Y-72740100D01*
X100166000Y-72862900D02*
X100763400Y-72831400D01*
X92255700Y-72863000D02*
X100166000Y-72862900D01*
X92157700Y-72867800D02*
X92255700Y-72863000D01*
X92060600Y-72882200D02*
X92157700Y-72867800D01*
X91965400Y-72906000D02*
X92060600Y-72882200D01*
X91873000Y-72939100D02*
X91965400Y-72906000D01*
X91784300Y-72981100D02*
X91873000Y-72939100D01*
X91700100Y-73031500D02*
X91784300Y-72981100D01*
X91621300Y-73090000D02*
X91700100Y-73031500D01*
X91548600Y-73155900D02*
X91621300Y-73090000D01*
X91482700Y-73228600D02*
X91548600Y-73155900D01*
X91424200Y-73307400D02*
X91482700Y-73228600D01*
X91373800Y-73391600D02*
X91424200Y-73307400D01*
X91331800Y-73480300D02*
X91373800Y-73391600D01*
X91298800Y-73572700D02*
X91331800Y-73480300D01*
X91274900Y-73667900D02*
X91298800Y-73572700D01*
X91260500Y-73765000D02*
X91274900Y-73667900D01*
X91255700Y-73863000D02*
X91260500Y-73765000D01*
X91255700Y-74361100D02*
X91255700Y-73863000D01*
X91260500Y-74459100D02*
X91255700Y-74361100D01*
X91274900Y-74556200D02*
X91260500Y-74459100D01*
X91298800Y-74651400D02*
X91274900Y-74556200D01*
X91331800Y-74743800D02*
X91298800Y-74651400D01*
X91373800Y-74832500D02*
X91331800Y-74743800D01*
X91424200Y-74916700D02*
X91373800Y-74832500D01*
X91482700Y-74995500D02*
X91424200Y-74916700D01*
X91548600Y-75068200D02*
X91482700Y-74995500D01*
X91621300Y-75134100D02*
X91548600Y-75068200D01*
X91700100Y-75192600D02*
X91621300Y-75134100D01*
X91784300Y-75243000D02*
X91700100Y-75192600D01*
X91873000Y-75285000D02*
X91784300Y-75243000D01*
X91965400Y-75318000D02*
X91873000Y-75285000D01*
X92060600Y-75341900D02*
X91965400Y-75318000D01*
X92157700Y-75356300D02*
X92060600Y-75341900D01*
X92255700Y-75361100D02*
X92157700Y-75356300D01*
M02*
