G04 #@! TF.GenerationSoftware,KiCad,Pcbnew,(5.1.6)-1*
G04 #@! TF.CreationDate,2020-06-14T15:38:24+02:00*
G04 #@! TF.ProjectId,panel1,70616e65-6c31-42e6-9b69-6361645f7063,rev?*
G04 #@! TF.SameCoordinates,Original*
G04 #@! TF.FileFunction,Copper,L2,Bot*
G04 #@! TF.FilePolarity,Positive*
%FSLAX46Y46*%
G04 Gerber Fmt 4.6, Leading zero omitted, Abs format (unit mm)*
G04 Created by KiCad (PCBNEW (5.1.6)-1) date 2020-06-14 15:38:24*
%MOMM*%
%LPD*%
G01*
G04 APERTURE LIST*
G04 #@! TA.AperFunction,ComponentPad*
%ADD10O,1.700000X1.700000*%
G04 #@! TD*
G04 #@! TA.AperFunction,ComponentPad*
%ADD11R,1.700000X1.700000*%
G04 #@! TD*
G04 #@! TA.AperFunction,ComponentPad*
%ADD12C,1.800000*%
G04 #@! TD*
G04 #@! TA.AperFunction,ComponentPad*
%ADD13R,1.800000X1.800000*%
G04 #@! TD*
G04 #@! TA.AperFunction,ComponentPad*
%ADD14C,1.500000*%
G04 #@! TD*
G04 #@! TA.AperFunction,SMDPad,CuDef*
%ADD15R,0.800000X0.900000*%
G04 #@! TD*
G04 #@! TA.AperFunction,ComponentPad*
%ADD16O,1.900000X3.500000*%
G04 #@! TD*
G04 #@! TA.AperFunction,ComponentPad*
%ADD17C,1.524000*%
G04 #@! TD*
G04 #@! TA.AperFunction,SMDPad,CuDef*
%ADD18R,2.000000X1.500000*%
G04 #@! TD*
G04 #@! TA.AperFunction,SMDPad,CuDef*
%ADD19R,2.000000X3.800000*%
G04 #@! TD*
G04 #@! TA.AperFunction,ComponentPad*
%ADD20C,2.000000*%
G04 #@! TD*
G04 #@! TA.AperFunction,ComponentPad*
%ADD21C,1.600000*%
G04 #@! TD*
G04 #@! TA.AperFunction,ComponentPad*
%ADD22R,1.600000X1.600000*%
G04 #@! TD*
G04 #@! TA.AperFunction,ViaPad*
%ADD23C,0.800000*%
G04 #@! TD*
G04 #@! TA.AperFunction,Conductor*
%ADD24C,0.250000*%
G04 #@! TD*
G04 APERTURE END LIST*
D10*
X101436001Y-145772196D03*
D11*
X98896001Y-145772196D03*
D12*
X101436001Y-143232196D03*
D13*
X98896001Y-143232196D03*
D12*
X101436001Y-131802196D03*
D13*
X98896001Y-131802196D03*
D12*
X84926001Y-131802196D03*
D13*
X82386001Y-131802196D03*
D12*
X73496001Y-131802196D03*
D13*
X70956001Y-131802196D03*
D12*
X56986001Y-143232196D03*
D13*
X54446001Y-143232196D03*
D12*
X56986001Y-131802196D03*
D13*
X54446001Y-131802196D03*
D14*
X63971001Y-138787196D03*
X68851001Y-138787196D03*
G04 #@! TA.AperFunction,SMDPad,CuDef*
G36*
G01*
X79376001Y-143382196D02*
X79376001Y-143082196D01*
G75*
G02*
X79526001Y-142932196I150000J0D01*
G01*
X81176001Y-142932196D01*
G75*
G02*
X81326001Y-143082196I0J-150000D01*
G01*
X81326001Y-143382196D01*
G75*
G02*
X81176001Y-143532196I-150000J0D01*
G01*
X79526001Y-143532196D01*
G75*
G02*
X79376001Y-143382196I0J150000D01*
G01*
G37*
G04 #@! TD.AperFunction*
G04 #@! TA.AperFunction,SMDPad,CuDef*
G36*
G01*
X79376001Y-142112196D02*
X79376001Y-141812196D01*
G75*
G02*
X79526001Y-141662196I150000J0D01*
G01*
X81176001Y-141662196D01*
G75*
G02*
X81326001Y-141812196I0J-150000D01*
G01*
X81326001Y-142112196D01*
G75*
G02*
X81176001Y-142262196I-150000J0D01*
G01*
X79526001Y-142262196D01*
G75*
G02*
X79376001Y-142112196I0J150000D01*
G01*
G37*
G04 #@! TD.AperFunction*
G04 #@! TA.AperFunction,SMDPad,CuDef*
G36*
G01*
X79376001Y-140842196D02*
X79376001Y-140542196D01*
G75*
G02*
X79526001Y-140392196I150000J0D01*
G01*
X81176001Y-140392196D01*
G75*
G02*
X81326001Y-140542196I0J-150000D01*
G01*
X81326001Y-140842196D01*
G75*
G02*
X81176001Y-140992196I-150000J0D01*
G01*
X79526001Y-140992196D01*
G75*
G02*
X79376001Y-140842196I0J150000D01*
G01*
G37*
G04 #@! TD.AperFunction*
G04 #@! TA.AperFunction,SMDPad,CuDef*
G36*
G01*
X79376001Y-139572196D02*
X79376001Y-139272196D01*
G75*
G02*
X79526001Y-139122196I150000J0D01*
G01*
X81176001Y-139122196D01*
G75*
G02*
X81326001Y-139272196I0J-150000D01*
G01*
X81326001Y-139572196D01*
G75*
G02*
X81176001Y-139722196I-150000J0D01*
G01*
X79526001Y-139722196D01*
G75*
G02*
X79376001Y-139572196I0J150000D01*
G01*
G37*
G04 #@! TD.AperFunction*
G04 #@! TA.AperFunction,SMDPad,CuDef*
G36*
G01*
X79376001Y-138302196D02*
X79376001Y-138002196D01*
G75*
G02*
X79526001Y-137852196I150000J0D01*
G01*
X81176001Y-137852196D01*
G75*
G02*
X81326001Y-138002196I0J-150000D01*
G01*
X81326001Y-138302196D01*
G75*
G02*
X81176001Y-138452196I-150000J0D01*
G01*
X79526001Y-138452196D01*
G75*
G02*
X79376001Y-138302196I0J150000D01*
G01*
G37*
G04 #@! TD.AperFunction*
G04 #@! TA.AperFunction,SMDPad,CuDef*
G36*
G01*
X79376001Y-137032196D02*
X79376001Y-136732196D01*
G75*
G02*
X79526001Y-136582196I150000J0D01*
G01*
X81176001Y-136582196D01*
G75*
G02*
X81326001Y-136732196I0J-150000D01*
G01*
X81326001Y-137032196D01*
G75*
G02*
X81176001Y-137182196I-150000J0D01*
G01*
X79526001Y-137182196D01*
G75*
G02*
X79376001Y-137032196I0J150000D01*
G01*
G37*
G04 #@! TD.AperFunction*
G04 #@! TA.AperFunction,SMDPad,CuDef*
G36*
G01*
X79376001Y-135762196D02*
X79376001Y-135462196D01*
G75*
G02*
X79526001Y-135312196I150000J0D01*
G01*
X81176001Y-135312196D01*
G75*
G02*
X81326001Y-135462196I0J-150000D01*
G01*
X81326001Y-135762196D01*
G75*
G02*
X81176001Y-135912196I-150000J0D01*
G01*
X79526001Y-135912196D01*
G75*
G02*
X79376001Y-135762196I0J150000D01*
G01*
G37*
G04 #@! TD.AperFunction*
G04 #@! TA.AperFunction,SMDPad,CuDef*
G36*
G01*
X79376001Y-134492196D02*
X79376001Y-134192196D01*
G75*
G02*
X79526001Y-134042196I150000J0D01*
G01*
X81176001Y-134042196D01*
G75*
G02*
X81326001Y-134192196I0J-150000D01*
G01*
X81326001Y-134492196D01*
G75*
G02*
X81176001Y-134642196I-150000J0D01*
G01*
X79526001Y-134642196D01*
G75*
G02*
X79376001Y-134492196I0J150000D01*
G01*
G37*
G04 #@! TD.AperFunction*
G04 #@! TA.AperFunction,SMDPad,CuDef*
G36*
G01*
X74426001Y-134492196D02*
X74426001Y-134192196D01*
G75*
G02*
X74576001Y-134042196I150000J0D01*
G01*
X76226001Y-134042196D01*
G75*
G02*
X76376001Y-134192196I0J-150000D01*
G01*
X76376001Y-134492196D01*
G75*
G02*
X76226001Y-134642196I-150000J0D01*
G01*
X74576001Y-134642196D01*
G75*
G02*
X74426001Y-134492196I0J150000D01*
G01*
G37*
G04 #@! TD.AperFunction*
G04 #@! TA.AperFunction,SMDPad,CuDef*
G36*
G01*
X74426001Y-135762196D02*
X74426001Y-135462196D01*
G75*
G02*
X74576001Y-135312196I150000J0D01*
G01*
X76226001Y-135312196D01*
G75*
G02*
X76376001Y-135462196I0J-150000D01*
G01*
X76376001Y-135762196D01*
G75*
G02*
X76226001Y-135912196I-150000J0D01*
G01*
X74576001Y-135912196D01*
G75*
G02*
X74426001Y-135762196I0J150000D01*
G01*
G37*
G04 #@! TD.AperFunction*
G04 #@! TA.AperFunction,SMDPad,CuDef*
G36*
G01*
X74426001Y-137032196D02*
X74426001Y-136732196D01*
G75*
G02*
X74576001Y-136582196I150000J0D01*
G01*
X76226001Y-136582196D01*
G75*
G02*
X76376001Y-136732196I0J-150000D01*
G01*
X76376001Y-137032196D01*
G75*
G02*
X76226001Y-137182196I-150000J0D01*
G01*
X74576001Y-137182196D01*
G75*
G02*
X74426001Y-137032196I0J150000D01*
G01*
G37*
G04 #@! TD.AperFunction*
G04 #@! TA.AperFunction,SMDPad,CuDef*
G36*
G01*
X74426001Y-138302196D02*
X74426001Y-138002196D01*
G75*
G02*
X74576001Y-137852196I150000J0D01*
G01*
X76226001Y-137852196D01*
G75*
G02*
X76376001Y-138002196I0J-150000D01*
G01*
X76376001Y-138302196D01*
G75*
G02*
X76226001Y-138452196I-150000J0D01*
G01*
X74576001Y-138452196D01*
G75*
G02*
X74426001Y-138302196I0J150000D01*
G01*
G37*
G04 #@! TD.AperFunction*
G04 #@! TA.AperFunction,SMDPad,CuDef*
G36*
G01*
X74426001Y-139572196D02*
X74426001Y-139272196D01*
G75*
G02*
X74576001Y-139122196I150000J0D01*
G01*
X76226001Y-139122196D01*
G75*
G02*
X76376001Y-139272196I0J-150000D01*
G01*
X76376001Y-139572196D01*
G75*
G02*
X76226001Y-139722196I-150000J0D01*
G01*
X74576001Y-139722196D01*
G75*
G02*
X74426001Y-139572196I0J150000D01*
G01*
G37*
G04 #@! TD.AperFunction*
G04 #@! TA.AperFunction,SMDPad,CuDef*
G36*
G01*
X74426001Y-140842196D02*
X74426001Y-140542196D01*
G75*
G02*
X74576001Y-140392196I150000J0D01*
G01*
X76226001Y-140392196D01*
G75*
G02*
X76376001Y-140542196I0J-150000D01*
G01*
X76376001Y-140842196D01*
G75*
G02*
X76226001Y-140992196I-150000J0D01*
G01*
X74576001Y-140992196D01*
G75*
G02*
X74426001Y-140842196I0J150000D01*
G01*
G37*
G04 #@! TD.AperFunction*
G04 #@! TA.AperFunction,SMDPad,CuDef*
G36*
G01*
X74426001Y-142112196D02*
X74426001Y-141812196D01*
G75*
G02*
X74576001Y-141662196I150000J0D01*
G01*
X76226001Y-141662196D01*
G75*
G02*
X76376001Y-141812196I0J-150000D01*
G01*
X76376001Y-142112196D01*
G75*
G02*
X76226001Y-142262196I-150000J0D01*
G01*
X74576001Y-142262196D01*
G75*
G02*
X74426001Y-142112196I0J150000D01*
G01*
G37*
G04 #@! TD.AperFunction*
G04 #@! TA.AperFunction,SMDPad,CuDef*
G36*
G01*
X74426001Y-143382196D02*
X74426001Y-143082196D01*
G75*
G02*
X74576001Y-142932196I150000J0D01*
G01*
X76226001Y-142932196D01*
G75*
G02*
X76376001Y-143082196I0J-150000D01*
G01*
X76376001Y-143382196D01*
G75*
G02*
X76226001Y-143532196I-150000J0D01*
G01*
X74576001Y-143532196D01*
G75*
G02*
X74426001Y-143382196I0J150000D01*
G01*
G37*
G04 #@! TD.AperFunction*
G04 #@! TA.AperFunction,SMDPad,CuDef*
G36*
G01*
X88726001Y-128904696D02*
X87476001Y-128904696D01*
G75*
G02*
X87226001Y-128654696I0J250000D01*
G01*
X87226001Y-127729696D01*
G75*
G02*
X87476001Y-127479696I250000J0D01*
G01*
X88726001Y-127479696D01*
G75*
G02*
X88976001Y-127729696I0J-250000D01*
G01*
X88976001Y-128654696D01*
G75*
G02*
X88726001Y-128904696I-250000J0D01*
G01*
G37*
G04 #@! TD.AperFunction*
G04 #@! TA.AperFunction,SMDPad,CuDef*
G36*
G01*
X88726001Y-131879696D02*
X87476001Y-131879696D01*
G75*
G02*
X87226001Y-131629696I0J250000D01*
G01*
X87226001Y-130704696D01*
G75*
G02*
X87476001Y-130454696I250000J0D01*
G01*
X88726001Y-130454696D01*
G75*
G02*
X88976001Y-130704696I0J-250000D01*
G01*
X88976001Y-131629696D01*
G75*
G02*
X88726001Y-131879696I-250000J0D01*
G01*
G37*
G04 #@! TD.AperFunction*
D15*
X85241001Y-133612196D03*
X84291001Y-135612196D03*
X86191001Y-135612196D03*
X89051001Y-133612196D03*
X88101001Y-135612196D03*
X90001001Y-135612196D03*
G04 #@! TA.AperFunction,SMDPad,CuDef*
G36*
G01*
X76661001Y-130174696D02*
X75411001Y-130174696D01*
G75*
G02*
X75161001Y-129924696I0J250000D01*
G01*
X75161001Y-128999696D01*
G75*
G02*
X75411001Y-128749696I250000J0D01*
G01*
X76661001Y-128749696D01*
G75*
G02*
X76911001Y-128999696I0J-250000D01*
G01*
X76911001Y-129924696D01*
G75*
G02*
X76661001Y-130174696I-250000J0D01*
G01*
G37*
G04 #@! TD.AperFunction*
G04 #@! TA.AperFunction,SMDPad,CuDef*
G36*
G01*
X76661001Y-133149696D02*
X75411001Y-133149696D01*
G75*
G02*
X75161001Y-132899696I0J250000D01*
G01*
X75161001Y-131974696D01*
G75*
G02*
X75411001Y-131724696I250000J0D01*
G01*
X76661001Y-131724696D01*
G75*
G02*
X76911001Y-131974696I0J-250000D01*
G01*
X76911001Y-132899696D01*
G75*
G02*
X76661001Y-133149696I-250000J0D01*
G01*
G37*
G04 #@! TD.AperFunction*
G04 #@! TA.AperFunction,SMDPad,CuDef*
G36*
G01*
X79836001Y-130174696D02*
X78586001Y-130174696D01*
G75*
G02*
X78336001Y-129924696I0J250000D01*
G01*
X78336001Y-128999696D01*
G75*
G02*
X78586001Y-128749696I250000J0D01*
G01*
X79836001Y-128749696D01*
G75*
G02*
X80086001Y-128999696I0J-250000D01*
G01*
X80086001Y-129924696D01*
G75*
G02*
X79836001Y-130174696I-250000J0D01*
G01*
G37*
G04 #@! TD.AperFunction*
G04 #@! TA.AperFunction,SMDPad,CuDef*
G36*
G01*
X79836001Y-133149696D02*
X78586001Y-133149696D01*
G75*
G02*
X78336001Y-132899696I0J250000D01*
G01*
X78336001Y-131974696D01*
G75*
G02*
X78586001Y-131724696I250000J0D01*
G01*
X79836001Y-131724696D01*
G75*
G02*
X80086001Y-131974696I0J-250000D01*
G01*
X80086001Y-132899696D01*
G75*
G02*
X79836001Y-133149696I-250000J0D01*
G01*
G37*
G04 #@! TD.AperFunction*
G04 #@! TA.AperFunction,SMDPad,CuDef*
G36*
G01*
X83646001Y-138429696D02*
X82396001Y-138429696D01*
G75*
G02*
X82146001Y-138179696I0J250000D01*
G01*
X82146001Y-137254696D01*
G75*
G02*
X82396001Y-137004696I250000J0D01*
G01*
X83646001Y-137004696D01*
G75*
G02*
X83896001Y-137254696I0J-250000D01*
G01*
X83896001Y-138179696D01*
G75*
G02*
X83646001Y-138429696I-250000J0D01*
G01*
G37*
G04 #@! TD.AperFunction*
G04 #@! TA.AperFunction,SMDPad,CuDef*
G36*
G01*
X83646001Y-141404696D02*
X82396001Y-141404696D01*
G75*
G02*
X82146001Y-141154696I0J250000D01*
G01*
X82146001Y-140229696D01*
G75*
G02*
X82396001Y-139979696I250000J0D01*
G01*
X83646001Y-139979696D01*
G75*
G02*
X83896001Y-140229696I0J-250000D01*
G01*
X83896001Y-141154696D01*
G75*
G02*
X83646001Y-141404696I-250000J0D01*
G01*
G37*
G04 #@! TD.AperFunction*
G04 #@! TA.AperFunction,SMDPad,CuDef*
G36*
G01*
X92536001Y-128904696D02*
X91286001Y-128904696D01*
G75*
G02*
X91036001Y-128654696I0J250000D01*
G01*
X91036001Y-127729696D01*
G75*
G02*
X91286001Y-127479696I250000J0D01*
G01*
X92536001Y-127479696D01*
G75*
G02*
X92786001Y-127729696I0J-250000D01*
G01*
X92786001Y-128654696D01*
G75*
G02*
X92536001Y-128904696I-250000J0D01*
G01*
G37*
G04 #@! TD.AperFunction*
G04 #@! TA.AperFunction,SMDPad,CuDef*
G36*
G01*
X92536001Y-131879696D02*
X91286001Y-131879696D01*
G75*
G02*
X91036001Y-131629696I0J250000D01*
G01*
X91036001Y-130704696D01*
G75*
G02*
X91286001Y-130454696I250000J0D01*
G01*
X92536001Y-130454696D01*
G75*
G02*
X92786001Y-130704696I0J-250000D01*
G01*
X92786001Y-131629696D01*
G75*
G02*
X92536001Y-131879696I-250000J0D01*
G01*
G37*
G04 #@! TD.AperFunction*
X92866001Y-133612196D03*
X91916001Y-135612196D03*
X93816001Y-135612196D03*
X100486001Y-133612196D03*
X99536001Y-135612196D03*
X101436001Y-135612196D03*
X96676001Y-133612196D03*
X95726001Y-135612196D03*
X97626001Y-135612196D03*
D16*
X72226001Y-145772196D03*
X83626001Y-145772196D03*
D17*
X86196001Y-143867196D03*
X91276001Y-143867196D03*
X93816001Y-146407196D03*
X88736001Y-143867196D03*
X88736001Y-146407196D03*
X91276001Y-146407196D03*
X93816001Y-143867196D03*
X86196001Y-146407196D03*
D18*
X58841001Y-135217196D03*
X58841001Y-139817196D03*
X58841001Y-137517196D03*
D19*
X52541001Y-137517196D03*
D20*
X63186001Y-147042196D03*
X63186001Y-142542196D03*
X69686001Y-147042196D03*
X69686001Y-142542196D03*
G04 #@! TA.AperFunction,SMDPad,CuDef*
G36*
G01*
X89381001Y-139979696D02*
X90631001Y-139979696D01*
G75*
G02*
X90881001Y-140229696I0J-250000D01*
G01*
X90881001Y-141154696D01*
G75*
G02*
X90631001Y-141404696I-250000J0D01*
G01*
X89381001Y-141404696D01*
G75*
G02*
X89131001Y-141154696I0J250000D01*
G01*
X89131001Y-140229696D01*
G75*
G02*
X89381001Y-139979696I250000J0D01*
G01*
G37*
G04 #@! TD.AperFunction*
G04 #@! TA.AperFunction,SMDPad,CuDef*
G36*
G01*
X89381001Y-137004696D02*
X90631001Y-137004696D01*
G75*
G02*
X90881001Y-137254696I0J-250000D01*
G01*
X90881001Y-138179696D01*
G75*
G02*
X90631001Y-138429696I-250000J0D01*
G01*
X89381001Y-138429696D01*
G75*
G02*
X89131001Y-138179696I0J250000D01*
G01*
X89131001Y-137254696D01*
G75*
G02*
X89381001Y-137004696I250000J0D01*
G01*
G37*
G04 #@! TD.AperFunction*
G04 #@! TA.AperFunction,SMDPad,CuDef*
G36*
G01*
X86821001Y-138429696D02*
X85571001Y-138429696D01*
G75*
G02*
X85321001Y-138179696I0J250000D01*
G01*
X85321001Y-137254696D01*
G75*
G02*
X85571001Y-137004696I250000J0D01*
G01*
X86821001Y-137004696D01*
G75*
G02*
X87071001Y-137254696I0J-250000D01*
G01*
X87071001Y-138179696D01*
G75*
G02*
X86821001Y-138429696I-250000J0D01*
G01*
G37*
G04 #@! TD.AperFunction*
G04 #@! TA.AperFunction,SMDPad,CuDef*
G36*
G01*
X86821001Y-141404696D02*
X85571001Y-141404696D01*
G75*
G02*
X85321001Y-141154696I0J250000D01*
G01*
X85321001Y-140229696D01*
G75*
G02*
X85571001Y-139979696I250000J0D01*
G01*
X86821001Y-139979696D01*
G75*
G02*
X87071001Y-140229696I0J-250000D01*
G01*
X87071001Y-141154696D01*
G75*
G02*
X86821001Y-141404696I-250000J0D01*
G01*
G37*
G04 #@! TD.AperFunction*
G04 #@! TA.AperFunction,SMDPad,CuDef*
G36*
G01*
X99173001Y-128637196D02*
X99173001Y-129887196D01*
G75*
G02*
X98923001Y-130137196I-250000J0D01*
G01*
X97998001Y-130137196D01*
G75*
G02*
X97748001Y-129887196I0J250000D01*
G01*
X97748001Y-128637196D01*
G75*
G02*
X97998001Y-128387196I250000J0D01*
G01*
X98923001Y-128387196D01*
G75*
G02*
X99173001Y-128637196I0J-250000D01*
G01*
G37*
G04 #@! TD.AperFunction*
G04 #@! TA.AperFunction,SMDPad,CuDef*
G36*
G01*
X102148001Y-128637196D02*
X102148001Y-129887196D01*
G75*
G02*
X101898001Y-130137196I-250000J0D01*
G01*
X100973001Y-130137196D01*
G75*
G02*
X100723001Y-129887196I0J250000D01*
G01*
X100723001Y-128637196D01*
G75*
G02*
X100973001Y-128387196I250000J0D01*
G01*
X101898001Y-128387196D01*
G75*
G02*
X102148001Y-128637196I0J-250000D01*
G01*
G37*
G04 #@! TD.AperFunction*
G04 #@! TA.AperFunction,SMDPad,CuDef*
G36*
G01*
X81238001Y-129887196D02*
X81238001Y-128637196D01*
G75*
G02*
X81488001Y-128387196I250000J0D01*
G01*
X82413001Y-128387196D01*
G75*
G02*
X82663001Y-128637196I0J-250000D01*
G01*
X82663001Y-129887196D01*
G75*
G02*
X82413001Y-130137196I-250000J0D01*
G01*
X81488001Y-130137196D01*
G75*
G02*
X81238001Y-129887196I0J250000D01*
G01*
G37*
G04 #@! TD.AperFunction*
G04 #@! TA.AperFunction,SMDPad,CuDef*
G36*
G01*
X84213001Y-129887196D02*
X84213001Y-128637196D01*
G75*
G02*
X84463001Y-128387196I250000J0D01*
G01*
X85388001Y-128387196D01*
G75*
G02*
X85638001Y-128637196I0J-250000D01*
G01*
X85638001Y-129887196D01*
G75*
G02*
X85388001Y-130137196I-250000J0D01*
G01*
X84463001Y-130137196D01*
G75*
G02*
X84213001Y-129887196I0J250000D01*
G01*
G37*
G04 #@! TD.AperFunction*
G04 #@! TA.AperFunction,SMDPad,CuDef*
G36*
G01*
X95096001Y-130454696D02*
X96346001Y-130454696D01*
G75*
G02*
X96596001Y-130704696I0J-250000D01*
G01*
X96596001Y-131629696D01*
G75*
G02*
X96346001Y-131879696I-250000J0D01*
G01*
X95096001Y-131879696D01*
G75*
G02*
X94846001Y-131629696I0J250000D01*
G01*
X94846001Y-130704696D01*
G75*
G02*
X95096001Y-130454696I250000J0D01*
G01*
G37*
G04 #@! TD.AperFunction*
G04 #@! TA.AperFunction,SMDPad,CuDef*
G36*
G01*
X95096001Y-127479696D02*
X96346001Y-127479696D01*
G75*
G02*
X96596001Y-127729696I0J-250000D01*
G01*
X96596001Y-128654696D01*
G75*
G02*
X96346001Y-128904696I-250000J0D01*
G01*
X95096001Y-128904696D01*
G75*
G02*
X94846001Y-128654696I0J250000D01*
G01*
X94846001Y-127729696D01*
G75*
G02*
X95096001Y-127479696I250000J0D01*
G01*
G37*
G04 #@! TD.AperFunction*
G04 #@! TA.AperFunction,SMDPad,CuDef*
G36*
G01*
X60786001Y-144145196D02*
X59536001Y-144145196D01*
G75*
G02*
X59286001Y-143895196I0J250000D01*
G01*
X59286001Y-142970196D01*
G75*
G02*
X59536001Y-142720196I250000J0D01*
G01*
X60786001Y-142720196D01*
G75*
G02*
X61036001Y-142970196I0J-250000D01*
G01*
X61036001Y-143895196D01*
G75*
G02*
X60786001Y-144145196I-250000J0D01*
G01*
G37*
G04 #@! TD.AperFunction*
G04 #@! TA.AperFunction,SMDPad,CuDef*
G36*
G01*
X60786001Y-147120196D02*
X59536001Y-147120196D01*
G75*
G02*
X59286001Y-146870196I0J250000D01*
G01*
X59286001Y-145945196D01*
G75*
G02*
X59536001Y-145695196I250000J0D01*
G01*
X60786001Y-145695196D01*
G75*
G02*
X61036001Y-145945196I0J-250000D01*
G01*
X61036001Y-146870196D01*
G75*
G02*
X60786001Y-147120196I-250000J0D01*
G01*
G37*
G04 #@! TD.AperFunction*
G04 #@! TA.AperFunction,SMDPad,CuDef*
G36*
G01*
X94441001Y-138429696D02*
X93191001Y-138429696D01*
G75*
G02*
X92941001Y-138179696I0J250000D01*
G01*
X92941001Y-137254696D01*
G75*
G02*
X93191001Y-137004696I250000J0D01*
G01*
X94441001Y-137004696D01*
G75*
G02*
X94691001Y-137254696I0J-250000D01*
G01*
X94691001Y-138179696D01*
G75*
G02*
X94441001Y-138429696I-250000J0D01*
G01*
G37*
G04 #@! TD.AperFunction*
G04 #@! TA.AperFunction,SMDPad,CuDef*
G36*
G01*
X94441001Y-141404696D02*
X93191001Y-141404696D01*
G75*
G02*
X92941001Y-141154696I0J250000D01*
G01*
X92941001Y-140229696D01*
G75*
G02*
X93191001Y-139979696I250000J0D01*
G01*
X94441001Y-139979696D01*
G75*
G02*
X94691001Y-140229696I0J-250000D01*
G01*
X94691001Y-141154696D01*
G75*
G02*
X94441001Y-141404696I-250000J0D01*
G01*
G37*
G04 #@! TD.AperFunction*
G04 #@! TA.AperFunction,SMDPad,CuDef*
G36*
G01*
X100811001Y-139979696D02*
X102061001Y-139979696D01*
G75*
G02*
X102311001Y-140229696I0J-250000D01*
G01*
X102311001Y-141154696D01*
G75*
G02*
X102061001Y-141404696I-250000J0D01*
G01*
X100811001Y-141404696D01*
G75*
G02*
X100561001Y-141154696I0J250000D01*
G01*
X100561001Y-140229696D01*
G75*
G02*
X100811001Y-139979696I250000J0D01*
G01*
G37*
G04 #@! TD.AperFunction*
G04 #@! TA.AperFunction,SMDPad,CuDef*
G36*
G01*
X100811001Y-137004696D02*
X102061001Y-137004696D01*
G75*
G02*
X102311001Y-137254696I0J-250000D01*
G01*
X102311001Y-138179696D01*
G75*
G02*
X102061001Y-138429696I-250000J0D01*
G01*
X100811001Y-138429696D01*
G75*
G02*
X100561001Y-138179696I0J250000D01*
G01*
X100561001Y-137254696D01*
G75*
G02*
X100811001Y-137004696I250000J0D01*
G01*
G37*
G04 #@! TD.AperFunction*
G04 #@! TA.AperFunction,SMDPad,CuDef*
G36*
G01*
X97001001Y-139979696D02*
X98251001Y-139979696D01*
G75*
G02*
X98501001Y-140229696I0J-250000D01*
G01*
X98501001Y-141154696D01*
G75*
G02*
X98251001Y-141404696I-250000J0D01*
G01*
X97001001Y-141404696D01*
G75*
G02*
X96751001Y-141154696I0J250000D01*
G01*
X96751001Y-140229696D01*
G75*
G02*
X97001001Y-139979696I250000J0D01*
G01*
G37*
G04 #@! TD.AperFunction*
G04 #@! TA.AperFunction,SMDPad,CuDef*
G36*
G01*
X97001001Y-137004696D02*
X98251001Y-137004696D01*
G75*
G02*
X98501001Y-137254696I0J-250000D01*
G01*
X98501001Y-138179696D01*
G75*
G02*
X98251001Y-138429696I-250000J0D01*
G01*
X97001001Y-138429696D01*
G75*
G02*
X96751001Y-138179696I0J250000D01*
G01*
X96751001Y-137254696D01*
G75*
G02*
X97001001Y-137004696I250000J0D01*
G01*
G37*
G04 #@! TD.AperFunction*
D21*
X65201001Y-132437196D03*
D22*
X62701001Y-132437196D03*
D10*
X101436001Y-120410131D03*
D11*
X98896001Y-120410131D03*
D12*
X101436001Y-117870131D03*
D13*
X98896001Y-117870131D03*
D12*
X101436001Y-106440131D03*
D13*
X98896001Y-106440131D03*
D12*
X84926001Y-106440131D03*
D13*
X82386001Y-106440131D03*
D12*
X73496001Y-106440131D03*
D13*
X70956001Y-106440131D03*
D12*
X56986001Y-117870131D03*
D13*
X54446001Y-117870131D03*
D12*
X56986001Y-106440131D03*
D13*
X54446001Y-106440131D03*
D14*
X63971001Y-113425131D03*
X68851001Y-113425131D03*
G04 #@! TA.AperFunction,SMDPad,CuDef*
G36*
G01*
X79376001Y-118020131D02*
X79376001Y-117720131D01*
G75*
G02*
X79526001Y-117570131I150000J0D01*
G01*
X81176001Y-117570131D01*
G75*
G02*
X81326001Y-117720131I0J-150000D01*
G01*
X81326001Y-118020131D01*
G75*
G02*
X81176001Y-118170131I-150000J0D01*
G01*
X79526001Y-118170131D01*
G75*
G02*
X79376001Y-118020131I0J150000D01*
G01*
G37*
G04 #@! TD.AperFunction*
G04 #@! TA.AperFunction,SMDPad,CuDef*
G36*
G01*
X79376001Y-116750131D02*
X79376001Y-116450131D01*
G75*
G02*
X79526001Y-116300131I150000J0D01*
G01*
X81176001Y-116300131D01*
G75*
G02*
X81326001Y-116450131I0J-150000D01*
G01*
X81326001Y-116750131D01*
G75*
G02*
X81176001Y-116900131I-150000J0D01*
G01*
X79526001Y-116900131D01*
G75*
G02*
X79376001Y-116750131I0J150000D01*
G01*
G37*
G04 #@! TD.AperFunction*
G04 #@! TA.AperFunction,SMDPad,CuDef*
G36*
G01*
X79376001Y-115480131D02*
X79376001Y-115180131D01*
G75*
G02*
X79526001Y-115030131I150000J0D01*
G01*
X81176001Y-115030131D01*
G75*
G02*
X81326001Y-115180131I0J-150000D01*
G01*
X81326001Y-115480131D01*
G75*
G02*
X81176001Y-115630131I-150000J0D01*
G01*
X79526001Y-115630131D01*
G75*
G02*
X79376001Y-115480131I0J150000D01*
G01*
G37*
G04 #@! TD.AperFunction*
G04 #@! TA.AperFunction,SMDPad,CuDef*
G36*
G01*
X79376001Y-114210131D02*
X79376001Y-113910131D01*
G75*
G02*
X79526001Y-113760131I150000J0D01*
G01*
X81176001Y-113760131D01*
G75*
G02*
X81326001Y-113910131I0J-150000D01*
G01*
X81326001Y-114210131D01*
G75*
G02*
X81176001Y-114360131I-150000J0D01*
G01*
X79526001Y-114360131D01*
G75*
G02*
X79376001Y-114210131I0J150000D01*
G01*
G37*
G04 #@! TD.AperFunction*
G04 #@! TA.AperFunction,SMDPad,CuDef*
G36*
G01*
X79376001Y-112940131D02*
X79376001Y-112640131D01*
G75*
G02*
X79526001Y-112490131I150000J0D01*
G01*
X81176001Y-112490131D01*
G75*
G02*
X81326001Y-112640131I0J-150000D01*
G01*
X81326001Y-112940131D01*
G75*
G02*
X81176001Y-113090131I-150000J0D01*
G01*
X79526001Y-113090131D01*
G75*
G02*
X79376001Y-112940131I0J150000D01*
G01*
G37*
G04 #@! TD.AperFunction*
G04 #@! TA.AperFunction,SMDPad,CuDef*
G36*
G01*
X79376001Y-111670131D02*
X79376001Y-111370131D01*
G75*
G02*
X79526001Y-111220131I150000J0D01*
G01*
X81176001Y-111220131D01*
G75*
G02*
X81326001Y-111370131I0J-150000D01*
G01*
X81326001Y-111670131D01*
G75*
G02*
X81176001Y-111820131I-150000J0D01*
G01*
X79526001Y-111820131D01*
G75*
G02*
X79376001Y-111670131I0J150000D01*
G01*
G37*
G04 #@! TD.AperFunction*
G04 #@! TA.AperFunction,SMDPad,CuDef*
G36*
G01*
X79376001Y-110400131D02*
X79376001Y-110100131D01*
G75*
G02*
X79526001Y-109950131I150000J0D01*
G01*
X81176001Y-109950131D01*
G75*
G02*
X81326001Y-110100131I0J-150000D01*
G01*
X81326001Y-110400131D01*
G75*
G02*
X81176001Y-110550131I-150000J0D01*
G01*
X79526001Y-110550131D01*
G75*
G02*
X79376001Y-110400131I0J150000D01*
G01*
G37*
G04 #@! TD.AperFunction*
G04 #@! TA.AperFunction,SMDPad,CuDef*
G36*
G01*
X79376001Y-109130131D02*
X79376001Y-108830131D01*
G75*
G02*
X79526001Y-108680131I150000J0D01*
G01*
X81176001Y-108680131D01*
G75*
G02*
X81326001Y-108830131I0J-150000D01*
G01*
X81326001Y-109130131D01*
G75*
G02*
X81176001Y-109280131I-150000J0D01*
G01*
X79526001Y-109280131D01*
G75*
G02*
X79376001Y-109130131I0J150000D01*
G01*
G37*
G04 #@! TD.AperFunction*
G04 #@! TA.AperFunction,SMDPad,CuDef*
G36*
G01*
X74426001Y-109130131D02*
X74426001Y-108830131D01*
G75*
G02*
X74576001Y-108680131I150000J0D01*
G01*
X76226001Y-108680131D01*
G75*
G02*
X76376001Y-108830131I0J-150000D01*
G01*
X76376001Y-109130131D01*
G75*
G02*
X76226001Y-109280131I-150000J0D01*
G01*
X74576001Y-109280131D01*
G75*
G02*
X74426001Y-109130131I0J150000D01*
G01*
G37*
G04 #@! TD.AperFunction*
G04 #@! TA.AperFunction,SMDPad,CuDef*
G36*
G01*
X74426001Y-110400131D02*
X74426001Y-110100131D01*
G75*
G02*
X74576001Y-109950131I150000J0D01*
G01*
X76226001Y-109950131D01*
G75*
G02*
X76376001Y-110100131I0J-150000D01*
G01*
X76376001Y-110400131D01*
G75*
G02*
X76226001Y-110550131I-150000J0D01*
G01*
X74576001Y-110550131D01*
G75*
G02*
X74426001Y-110400131I0J150000D01*
G01*
G37*
G04 #@! TD.AperFunction*
G04 #@! TA.AperFunction,SMDPad,CuDef*
G36*
G01*
X74426001Y-111670131D02*
X74426001Y-111370131D01*
G75*
G02*
X74576001Y-111220131I150000J0D01*
G01*
X76226001Y-111220131D01*
G75*
G02*
X76376001Y-111370131I0J-150000D01*
G01*
X76376001Y-111670131D01*
G75*
G02*
X76226001Y-111820131I-150000J0D01*
G01*
X74576001Y-111820131D01*
G75*
G02*
X74426001Y-111670131I0J150000D01*
G01*
G37*
G04 #@! TD.AperFunction*
G04 #@! TA.AperFunction,SMDPad,CuDef*
G36*
G01*
X74426001Y-112940131D02*
X74426001Y-112640131D01*
G75*
G02*
X74576001Y-112490131I150000J0D01*
G01*
X76226001Y-112490131D01*
G75*
G02*
X76376001Y-112640131I0J-150000D01*
G01*
X76376001Y-112940131D01*
G75*
G02*
X76226001Y-113090131I-150000J0D01*
G01*
X74576001Y-113090131D01*
G75*
G02*
X74426001Y-112940131I0J150000D01*
G01*
G37*
G04 #@! TD.AperFunction*
G04 #@! TA.AperFunction,SMDPad,CuDef*
G36*
G01*
X74426001Y-114210131D02*
X74426001Y-113910131D01*
G75*
G02*
X74576001Y-113760131I150000J0D01*
G01*
X76226001Y-113760131D01*
G75*
G02*
X76376001Y-113910131I0J-150000D01*
G01*
X76376001Y-114210131D01*
G75*
G02*
X76226001Y-114360131I-150000J0D01*
G01*
X74576001Y-114360131D01*
G75*
G02*
X74426001Y-114210131I0J150000D01*
G01*
G37*
G04 #@! TD.AperFunction*
G04 #@! TA.AperFunction,SMDPad,CuDef*
G36*
G01*
X74426001Y-115480131D02*
X74426001Y-115180131D01*
G75*
G02*
X74576001Y-115030131I150000J0D01*
G01*
X76226001Y-115030131D01*
G75*
G02*
X76376001Y-115180131I0J-150000D01*
G01*
X76376001Y-115480131D01*
G75*
G02*
X76226001Y-115630131I-150000J0D01*
G01*
X74576001Y-115630131D01*
G75*
G02*
X74426001Y-115480131I0J150000D01*
G01*
G37*
G04 #@! TD.AperFunction*
G04 #@! TA.AperFunction,SMDPad,CuDef*
G36*
G01*
X74426001Y-116750131D02*
X74426001Y-116450131D01*
G75*
G02*
X74576001Y-116300131I150000J0D01*
G01*
X76226001Y-116300131D01*
G75*
G02*
X76376001Y-116450131I0J-150000D01*
G01*
X76376001Y-116750131D01*
G75*
G02*
X76226001Y-116900131I-150000J0D01*
G01*
X74576001Y-116900131D01*
G75*
G02*
X74426001Y-116750131I0J150000D01*
G01*
G37*
G04 #@! TD.AperFunction*
G04 #@! TA.AperFunction,SMDPad,CuDef*
G36*
G01*
X74426001Y-118020131D02*
X74426001Y-117720131D01*
G75*
G02*
X74576001Y-117570131I150000J0D01*
G01*
X76226001Y-117570131D01*
G75*
G02*
X76376001Y-117720131I0J-150000D01*
G01*
X76376001Y-118020131D01*
G75*
G02*
X76226001Y-118170131I-150000J0D01*
G01*
X74576001Y-118170131D01*
G75*
G02*
X74426001Y-118020131I0J150000D01*
G01*
G37*
G04 #@! TD.AperFunction*
G04 #@! TA.AperFunction,SMDPad,CuDef*
G36*
G01*
X88726001Y-103542631D02*
X87476001Y-103542631D01*
G75*
G02*
X87226001Y-103292631I0J250000D01*
G01*
X87226001Y-102367631D01*
G75*
G02*
X87476001Y-102117631I250000J0D01*
G01*
X88726001Y-102117631D01*
G75*
G02*
X88976001Y-102367631I0J-250000D01*
G01*
X88976001Y-103292631D01*
G75*
G02*
X88726001Y-103542631I-250000J0D01*
G01*
G37*
G04 #@! TD.AperFunction*
G04 #@! TA.AperFunction,SMDPad,CuDef*
G36*
G01*
X88726001Y-106517631D02*
X87476001Y-106517631D01*
G75*
G02*
X87226001Y-106267631I0J250000D01*
G01*
X87226001Y-105342631D01*
G75*
G02*
X87476001Y-105092631I250000J0D01*
G01*
X88726001Y-105092631D01*
G75*
G02*
X88976001Y-105342631I0J-250000D01*
G01*
X88976001Y-106267631D01*
G75*
G02*
X88726001Y-106517631I-250000J0D01*
G01*
G37*
G04 #@! TD.AperFunction*
D15*
X85241001Y-108250131D03*
X84291001Y-110250131D03*
X86191001Y-110250131D03*
X89051001Y-108250131D03*
X88101001Y-110250131D03*
X90001001Y-110250131D03*
G04 #@! TA.AperFunction,SMDPad,CuDef*
G36*
G01*
X76661001Y-104812631D02*
X75411001Y-104812631D01*
G75*
G02*
X75161001Y-104562631I0J250000D01*
G01*
X75161001Y-103637631D01*
G75*
G02*
X75411001Y-103387631I250000J0D01*
G01*
X76661001Y-103387631D01*
G75*
G02*
X76911001Y-103637631I0J-250000D01*
G01*
X76911001Y-104562631D01*
G75*
G02*
X76661001Y-104812631I-250000J0D01*
G01*
G37*
G04 #@! TD.AperFunction*
G04 #@! TA.AperFunction,SMDPad,CuDef*
G36*
G01*
X76661001Y-107787631D02*
X75411001Y-107787631D01*
G75*
G02*
X75161001Y-107537631I0J250000D01*
G01*
X75161001Y-106612631D01*
G75*
G02*
X75411001Y-106362631I250000J0D01*
G01*
X76661001Y-106362631D01*
G75*
G02*
X76911001Y-106612631I0J-250000D01*
G01*
X76911001Y-107537631D01*
G75*
G02*
X76661001Y-107787631I-250000J0D01*
G01*
G37*
G04 #@! TD.AperFunction*
G04 #@! TA.AperFunction,SMDPad,CuDef*
G36*
G01*
X79836001Y-104812631D02*
X78586001Y-104812631D01*
G75*
G02*
X78336001Y-104562631I0J250000D01*
G01*
X78336001Y-103637631D01*
G75*
G02*
X78586001Y-103387631I250000J0D01*
G01*
X79836001Y-103387631D01*
G75*
G02*
X80086001Y-103637631I0J-250000D01*
G01*
X80086001Y-104562631D01*
G75*
G02*
X79836001Y-104812631I-250000J0D01*
G01*
G37*
G04 #@! TD.AperFunction*
G04 #@! TA.AperFunction,SMDPad,CuDef*
G36*
G01*
X79836001Y-107787631D02*
X78586001Y-107787631D01*
G75*
G02*
X78336001Y-107537631I0J250000D01*
G01*
X78336001Y-106612631D01*
G75*
G02*
X78586001Y-106362631I250000J0D01*
G01*
X79836001Y-106362631D01*
G75*
G02*
X80086001Y-106612631I0J-250000D01*
G01*
X80086001Y-107537631D01*
G75*
G02*
X79836001Y-107787631I-250000J0D01*
G01*
G37*
G04 #@! TD.AperFunction*
G04 #@! TA.AperFunction,SMDPad,CuDef*
G36*
G01*
X83646001Y-113067631D02*
X82396001Y-113067631D01*
G75*
G02*
X82146001Y-112817631I0J250000D01*
G01*
X82146001Y-111892631D01*
G75*
G02*
X82396001Y-111642631I250000J0D01*
G01*
X83646001Y-111642631D01*
G75*
G02*
X83896001Y-111892631I0J-250000D01*
G01*
X83896001Y-112817631D01*
G75*
G02*
X83646001Y-113067631I-250000J0D01*
G01*
G37*
G04 #@! TD.AperFunction*
G04 #@! TA.AperFunction,SMDPad,CuDef*
G36*
G01*
X83646001Y-116042631D02*
X82396001Y-116042631D01*
G75*
G02*
X82146001Y-115792631I0J250000D01*
G01*
X82146001Y-114867631D01*
G75*
G02*
X82396001Y-114617631I250000J0D01*
G01*
X83646001Y-114617631D01*
G75*
G02*
X83896001Y-114867631I0J-250000D01*
G01*
X83896001Y-115792631D01*
G75*
G02*
X83646001Y-116042631I-250000J0D01*
G01*
G37*
G04 #@! TD.AperFunction*
G04 #@! TA.AperFunction,SMDPad,CuDef*
G36*
G01*
X92536001Y-103542631D02*
X91286001Y-103542631D01*
G75*
G02*
X91036001Y-103292631I0J250000D01*
G01*
X91036001Y-102367631D01*
G75*
G02*
X91286001Y-102117631I250000J0D01*
G01*
X92536001Y-102117631D01*
G75*
G02*
X92786001Y-102367631I0J-250000D01*
G01*
X92786001Y-103292631D01*
G75*
G02*
X92536001Y-103542631I-250000J0D01*
G01*
G37*
G04 #@! TD.AperFunction*
G04 #@! TA.AperFunction,SMDPad,CuDef*
G36*
G01*
X92536001Y-106517631D02*
X91286001Y-106517631D01*
G75*
G02*
X91036001Y-106267631I0J250000D01*
G01*
X91036001Y-105342631D01*
G75*
G02*
X91286001Y-105092631I250000J0D01*
G01*
X92536001Y-105092631D01*
G75*
G02*
X92786001Y-105342631I0J-250000D01*
G01*
X92786001Y-106267631D01*
G75*
G02*
X92536001Y-106517631I-250000J0D01*
G01*
G37*
G04 #@! TD.AperFunction*
X92866001Y-108250131D03*
X91916001Y-110250131D03*
X93816001Y-110250131D03*
X100486001Y-108250131D03*
X99536001Y-110250131D03*
X101436001Y-110250131D03*
X96676001Y-108250131D03*
X95726001Y-110250131D03*
X97626001Y-110250131D03*
D16*
X72226001Y-120410131D03*
X83626001Y-120410131D03*
D17*
X86196001Y-118505131D03*
X91276001Y-118505131D03*
X93816001Y-121045131D03*
X88736001Y-118505131D03*
X88736001Y-121045131D03*
X91276001Y-121045131D03*
X93816001Y-118505131D03*
X86196001Y-121045131D03*
D18*
X58841001Y-109855131D03*
X58841001Y-114455131D03*
X58841001Y-112155131D03*
D19*
X52541001Y-112155131D03*
D20*
X63186001Y-121680131D03*
X63186001Y-117180131D03*
X69686001Y-121680131D03*
X69686001Y-117180131D03*
G04 #@! TA.AperFunction,SMDPad,CuDef*
G36*
G01*
X89381001Y-114617631D02*
X90631001Y-114617631D01*
G75*
G02*
X90881001Y-114867631I0J-250000D01*
G01*
X90881001Y-115792631D01*
G75*
G02*
X90631001Y-116042631I-250000J0D01*
G01*
X89381001Y-116042631D01*
G75*
G02*
X89131001Y-115792631I0J250000D01*
G01*
X89131001Y-114867631D01*
G75*
G02*
X89381001Y-114617631I250000J0D01*
G01*
G37*
G04 #@! TD.AperFunction*
G04 #@! TA.AperFunction,SMDPad,CuDef*
G36*
G01*
X89381001Y-111642631D02*
X90631001Y-111642631D01*
G75*
G02*
X90881001Y-111892631I0J-250000D01*
G01*
X90881001Y-112817631D01*
G75*
G02*
X90631001Y-113067631I-250000J0D01*
G01*
X89381001Y-113067631D01*
G75*
G02*
X89131001Y-112817631I0J250000D01*
G01*
X89131001Y-111892631D01*
G75*
G02*
X89381001Y-111642631I250000J0D01*
G01*
G37*
G04 #@! TD.AperFunction*
G04 #@! TA.AperFunction,SMDPad,CuDef*
G36*
G01*
X86821001Y-113067631D02*
X85571001Y-113067631D01*
G75*
G02*
X85321001Y-112817631I0J250000D01*
G01*
X85321001Y-111892631D01*
G75*
G02*
X85571001Y-111642631I250000J0D01*
G01*
X86821001Y-111642631D01*
G75*
G02*
X87071001Y-111892631I0J-250000D01*
G01*
X87071001Y-112817631D01*
G75*
G02*
X86821001Y-113067631I-250000J0D01*
G01*
G37*
G04 #@! TD.AperFunction*
G04 #@! TA.AperFunction,SMDPad,CuDef*
G36*
G01*
X86821001Y-116042631D02*
X85571001Y-116042631D01*
G75*
G02*
X85321001Y-115792631I0J250000D01*
G01*
X85321001Y-114867631D01*
G75*
G02*
X85571001Y-114617631I250000J0D01*
G01*
X86821001Y-114617631D01*
G75*
G02*
X87071001Y-114867631I0J-250000D01*
G01*
X87071001Y-115792631D01*
G75*
G02*
X86821001Y-116042631I-250000J0D01*
G01*
G37*
G04 #@! TD.AperFunction*
G04 #@! TA.AperFunction,SMDPad,CuDef*
G36*
G01*
X99173001Y-103275131D02*
X99173001Y-104525131D01*
G75*
G02*
X98923001Y-104775131I-250000J0D01*
G01*
X97998001Y-104775131D01*
G75*
G02*
X97748001Y-104525131I0J250000D01*
G01*
X97748001Y-103275131D01*
G75*
G02*
X97998001Y-103025131I250000J0D01*
G01*
X98923001Y-103025131D01*
G75*
G02*
X99173001Y-103275131I0J-250000D01*
G01*
G37*
G04 #@! TD.AperFunction*
G04 #@! TA.AperFunction,SMDPad,CuDef*
G36*
G01*
X102148001Y-103275131D02*
X102148001Y-104525131D01*
G75*
G02*
X101898001Y-104775131I-250000J0D01*
G01*
X100973001Y-104775131D01*
G75*
G02*
X100723001Y-104525131I0J250000D01*
G01*
X100723001Y-103275131D01*
G75*
G02*
X100973001Y-103025131I250000J0D01*
G01*
X101898001Y-103025131D01*
G75*
G02*
X102148001Y-103275131I0J-250000D01*
G01*
G37*
G04 #@! TD.AperFunction*
G04 #@! TA.AperFunction,SMDPad,CuDef*
G36*
G01*
X81238001Y-104525131D02*
X81238001Y-103275131D01*
G75*
G02*
X81488001Y-103025131I250000J0D01*
G01*
X82413001Y-103025131D01*
G75*
G02*
X82663001Y-103275131I0J-250000D01*
G01*
X82663001Y-104525131D01*
G75*
G02*
X82413001Y-104775131I-250000J0D01*
G01*
X81488001Y-104775131D01*
G75*
G02*
X81238001Y-104525131I0J250000D01*
G01*
G37*
G04 #@! TD.AperFunction*
G04 #@! TA.AperFunction,SMDPad,CuDef*
G36*
G01*
X84213001Y-104525131D02*
X84213001Y-103275131D01*
G75*
G02*
X84463001Y-103025131I250000J0D01*
G01*
X85388001Y-103025131D01*
G75*
G02*
X85638001Y-103275131I0J-250000D01*
G01*
X85638001Y-104525131D01*
G75*
G02*
X85388001Y-104775131I-250000J0D01*
G01*
X84463001Y-104775131D01*
G75*
G02*
X84213001Y-104525131I0J250000D01*
G01*
G37*
G04 #@! TD.AperFunction*
G04 #@! TA.AperFunction,SMDPad,CuDef*
G36*
G01*
X95096001Y-105092631D02*
X96346001Y-105092631D01*
G75*
G02*
X96596001Y-105342631I0J-250000D01*
G01*
X96596001Y-106267631D01*
G75*
G02*
X96346001Y-106517631I-250000J0D01*
G01*
X95096001Y-106517631D01*
G75*
G02*
X94846001Y-106267631I0J250000D01*
G01*
X94846001Y-105342631D01*
G75*
G02*
X95096001Y-105092631I250000J0D01*
G01*
G37*
G04 #@! TD.AperFunction*
G04 #@! TA.AperFunction,SMDPad,CuDef*
G36*
G01*
X95096001Y-102117631D02*
X96346001Y-102117631D01*
G75*
G02*
X96596001Y-102367631I0J-250000D01*
G01*
X96596001Y-103292631D01*
G75*
G02*
X96346001Y-103542631I-250000J0D01*
G01*
X95096001Y-103542631D01*
G75*
G02*
X94846001Y-103292631I0J250000D01*
G01*
X94846001Y-102367631D01*
G75*
G02*
X95096001Y-102117631I250000J0D01*
G01*
G37*
G04 #@! TD.AperFunction*
G04 #@! TA.AperFunction,SMDPad,CuDef*
G36*
G01*
X60786001Y-118783131D02*
X59536001Y-118783131D01*
G75*
G02*
X59286001Y-118533131I0J250000D01*
G01*
X59286001Y-117608131D01*
G75*
G02*
X59536001Y-117358131I250000J0D01*
G01*
X60786001Y-117358131D01*
G75*
G02*
X61036001Y-117608131I0J-250000D01*
G01*
X61036001Y-118533131D01*
G75*
G02*
X60786001Y-118783131I-250000J0D01*
G01*
G37*
G04 #@! TD.AperFunction*
G04 #@! TA.AperFunction,SMDPad,CuDef*
G36*
G01*
X60786001Y-121758131D02*
X59536001Y-121758131D01*
G75*
G02*
X59286001Y-121508131I0J250000D01*
G01*
X59286001Y-120583131D01*
G75*
G02*
X59536001Y-120333131I250000J0D01*
G01*
X60786001Y-120333131D01*
G75*
G02*
X61036001Y-120583131I0J-250000D01*
G01*
X61036001Y-121508131D01*
G75*
G02*
X60786001Y-121758131I-250000J0D01*
G01*
G37*
G04 #@! TD.AperFunction*
G04 #@! TA.AperFunction,SMDPad,CuDef*
G36*
G01*
X94441001Y-113067631D02*
X93191001Y-113067631D01*
G75*
G02*
X92941001Y-112817631I0J250000D01*
G01*
X92941001Y-111892631D01*
G75*
G02*
X93191001Y-111642631I250000J0D01*
G01*
X94441001Y-111642631D01*
G75*
G02*
X94691001Y-111892631I0J-250000D01*
G01*
X94691001Y-112817631D01*
G75*
G02*
X94441001Y-113067631I-250000J0D01*
G01*
G37*
G04 #@! TD.AperFunction*
G04 #@! TA.AperFunction,SMDPad,CuDef*
G36*
G01*
X94441001Y-116042631D02*
X93191001Y-116042631D01*
G75*
G02*
X92941001Y-115792631I0J250000D01*
G01*
X92941001Y-114867631D01*
G75*
G02*
X93191001Y-114617631I250000J0D01*
G01*
X94441001Y-114617631D01*
G75*
G02*
X94691001Y-114867631I0J-250000D01*
G01*
X94691001Y-115792631D01*
G75*
G02*
X94441001Y-116042631I-250000J0D01*
G01*
G37*
G04 #@! TD.AperFunction*
G04 #@! TA.AperFunction,SMDPad,CuDef*
G36*
G01*
X100811001Y-114617631D02*
X102061001Y-114617631D01*
G75*
G02*
X102311001Y-114867631I0J-250000D01*
G01*
X102311001Y-115792631D01*
G75*
G02*
X102061001Y-116042631I-250000J0D01*
G01*
X100811001Y-116042631D01*
G75*
G02*
X100561001Y-115792631I0J250000D01*
G01*
X100561001Y-114867631D01*
G75*
G02*
X100811001Y-114617631I250000J0D01*
G01*
G37*
G04 #@! TD.AperFunction*
G04 #@! TA.AperFunction,SMDPad,CuDef*
G36*
G01*
X100811001Y-111642631D02*
X102061001Y-111642631D01*
G75*
G02*
X102311001Y-111892631I0J-250000D01*
G01*
X102311001Y-112817631D01*
G75*
G02*
X102061001Y-113067631I-250000J0D01*
G01*
X100811001Y-113067631D01*
G75*
G02*
X100561001Y-112817631I0J250000D01*
G01*
X100561001Y-111892631D01*
G75*
G02*
X100811001Y-111642631I250000J0D01*
G01*
G37*
G04 #@! TD.AperFunction*
G04 #@! TA.AperFunction,SMDPad,CuDef*
G36*
G01*
X97001001Y-114617631D02*
X98251001Y-114617631D01*
G75*
G02*
X98501001Y-114867631I0J-250000D01*
G01*
X98501001Y-115792631D01*
G75*
G02*
X98251001Y-116042631I-250000J0D01*
G01*
X97001001Y-116042631D01*
G75*
G02*
X96751001Y-115792631I0J250000D01*
G01*
X96751001Y-114867631D01*
G75*
G02*
X97001001Y-114617631I250000J0D01*
G01*
G37*
G04 #@! TD.AperFunction*
G04 #@! TA.AperFunction,SMDPad,CuDef*
G36*
G01*
X97001001Y-111642631D02*
X98251001Y-111642631D01*
G75*
G02*
X98501001Y-111892631I0J-250000D01*
G01*
X98501001Y-112817631D01*
G75*
G02*
X98251001Y-113067631I-250000J0D01*
G01*
X97001001Y-113067631D01*
G75*
G02*
X96751001Y-112817631I0J250000D01*
G01*
X96751001Y-111892631D01*
G75*
G02*
X97001001Y-111642631I250000J0D01*
G01*
G37*
G04 #@! TD.AperFunction*
D21*
X65201001Y-107075131D03*
D22*
X62701001Y-107075131D03*
D10*
X101436001Y-95048066D03*
D11*
X98896001Y-95048066D03*
D12*
X101436001Y-92508066D03*
D13*
X98896001Y-92508066D03*
D12*
X101436001Y-81078066D03*
D13*
X98896001Y-81078066D03*
D12*
X84926001Y-81078066D03*
D13*
X82386001Y-81078066D03*
D12*
X73496001Y-81078066D03*
D13*
X70956001Y-81078066D03*
D12*
X56986001Y-92508066D03*
D13*
X54446001Y-92508066D03*
D12*
X56986001Y-81078066D03*
D13*
X54446001Y-81078066D03*
D14*
X63971001Y-88063066D03*
X68851001Y-88063066D03*
G04 #@! TA.AperFunction,SMDPad,CuDef*
G36*
G01*
X79376001Y-92658066D02*
X79376001Y-92358066D01*
G75*
G02*
X79526001Y-92208066I150000J0D01*
G01*
X81176001Y-92208066D01*
G75*
G02*
X81326001Y-92358066I0J-150000D01*
G01*
X81326001Y-92658066D01*
G75*
G02*
X81176001Y-92808066I-150000J0D01*
G01*
X79526001Y-92808066D01*
G75*
G02*
X79376001Y-92658066I0J150000D01*
G01*
G37*
G04 #@! TD.AperFunction*
G04 #@! TA.AperFunction,SMDPad,CuDef*
G36*
G01*
X79376001Y-91388066D02*
X79376001Y-91088066D01*
G75*
G02*
X79526001Y-90938066I150000J0D01*
G01*
X81176001Y-90938066D01*
G75*
G02*
X81326001Y-91088066I0J-150000D01*
G01*
X81326001Y-91388066D01*
G75*
G02*
X81176001Y-91538066I-150000J0D01*
G01*
X79526001Y-91538066D01*
G75*
G02*
X79376001Y-91388066I0J150000D01*
G01*
G37*
G04 #@! TD.AperFunction*
G04 #@! TA.AperFunction,SMDPad,CuDef*
G36*
G01*
X79376001Y-90118066D02*
X79376001Y-89818066D01*
G75*
G02*
X79526001Y-89668066I150000J0D01*
G01*
X81176001Y-89668066D01*
G75*
G02*
X81326001Y-89818066I0J-150000D01*
G01*
X81326001Y-90118066D01*
G75*
G02*
X81176001Y-90268066I-150000J0D01*
G01*
X79526001Y-90268066D01*
G75*
G02*
X79376001Y-90118066I0J150000D01*
G01*
G37*
G04 #@! TD.AperFunction*
G04 #@! TA.AperFunction,SMDPad,CuDef*
G36*
G01*
X79376001Y-88848066D02*
X79376001Y-88548066D01*
G75*
G02*
X79526001Y-88398066I150000J0D01*
G01*
X81176001Y-88398066D01*
G75*
G02*
X81326001Y-88548066I0J-150000D01*
G01*
X81326001Y-88848066D01*
G75*
G02*
X81176001Y-88998066I-150000J0D01*
G01*
X79526001Y-88998066D01*
G75*
G02*
X79376001Y-88848066I0J150000D01*
G01*
G37*
G04 #@! TD.AperFunction*
G04 #@! TA.AperFunction,SMDPad,CuDef*
G36*
G01*
X79376001Y-87578066D02*
X79376001Y-87278066D01*
G75*
G02*
X79526001Y-87128066I150000J0D01*
G01*
X81176001Y-87128066D01*
G75*
G02*
X81326001Y-87278066I0J-150000D01*
G01*
X81326001Y-87578066D01*
G75*
G02*
X81176001Y-87728066I-150000J0D01*
G01*
X79526001Y-87728066D01*
G75*
G02*
X79376001Y-87578066I0J150000D01*
G01*
G37*
G04 #@! TD.AperFunction*
G04 #@! TA.AperFunction,SMDPad,CuDef*
G36*
G01*
X79376001Y-86308066D02*
X79376001Y-86008066D01*
G75*
G02*
X79526001Y-85858066I150000J0D01*
G01*
X81176001Y-85858066D01*
G75*
G02*
X81326001Y-86008066I0J-150000D01*
G01*
X81326001Y-86308066D01*
G75*
G02*
X81176001Y-86458066I-150000J0D01*
G01*
X79526001Y-86458066D01*
G75*
G02*
X79376001Y-86308066I0J150000D01*
G01*
G37*
G04 #@! TD.AperFunction*
G04 #@! TA.AperFunction,SMDPad,CuDef*
G36*
G01*
X79376001Y-85038066D02*
X79376001Y-84738066D01*
G75*
G02*
X79526001Y-84588066I150000J0D01*
G01*
X81176001Y-84588066D01*
G75*
G02*
X81326001Y-84738066I0J-150000D01*
G01*
X81326001Y-85038066D01*
G75*
G02*
X81176001Y-85188066I-150000J0D01*
G01*
X79526001Y-85188066D01*
G75*
G02*
X79376001Y-85038066I0J150000D01*
G01*
G37*
G04 #@! TD.AperFunction*
G04 #@! TA.AperFunction,SMDPad,CuDef*
G36*
G01*
X79376001Y-83768066D02*
X79376001Y-83468066D01*
G75*
G02*
X79526001Y-83318066I150000J0D01*
G01*
X81176001Y-83318066D01*
G75*
G02*
X81326001Y-83468066I0J-150000D01*
G01*
X81326001Y-83768066D01*
G75*
G02*
X81176001Y-83918066I-150000J0D01*
G01*
X79526001Y-83918066D01*
G75*
G02*
X79376001Y-83768066I0J150000D01*
G01*
G37*
G04 #@! TD.AperFunction*
G04 #@! TA.AperFunction,SMDPad,CuDef*
G36*
G01*
X74426001Y-83768066D02*
X74426001Y-83468066D01*
G75*
G02*
X74576001Y-83318066I150000J0D01*
G01*
X76226001Y-83318066D01*
G75*
G02*
X76376001Y-83468066I0J-150000D01*
G01*
X76376001Y-83768066D01*
G75*
G02*
X76226001Y-83918066I-150000J0D01*
G01*
X74576001Y-83918066D01*
G75*
G02*
X74426001Y-83768066I0J150000D01*
G01*
G37*
G04 #@! TD.AperFunction*
G04 #@! TA.AperFunction,SMDPad,CuDef*
G36*
G01*
X74426001Y-85038066D02*
X74426001Y-84738066D01*
G75*
G02*
X74576001Y-84588066I150000J0D01*
G01*
X76226001Y-84588066D01*
G75*
G02*
X76376001Y-84738066I0J-150000D01*
G01*
X76376001Y-85038066D01*
G75*
G02*
X76226001Y-85188066I-150000J0D01*
G01*
X74576001Y-85188066D01*
G75*
G02*
X74426001Y-85038066I0J150000D01*
G01*
G37*
G04 #@! TD.AperFunction*
G04 #@! TA.AperFunction,SMDPad,CuDef*
G36*
G01*
X74426001Y-86308066D02*
X74426001Y-86008066D01*
G75*
G02*
X74576001Y-85858066I150000J0D01*
G01*
X76226001Y-85858066D01*
G75*
G02*
X76376001Y-86008066I0J-150000D01*
G01*
X76376001Y-86308066D01*
G75*
G02*
X76226001Y-86458066I-150000J0D01*
G01*
X74576001Y-86458066D01*
G75*
G02*
X74426001Y-86308066I0J150000D01*
G01*
G37*
G04 #@! TD.AperFunction*
G04 #@! TA.AperFunction,SMDPad,CuDef*
G36*
G01*
X74426001Y-87578066D02*
X74426001Y-87278066D01*
G75*
G02*
X74576001Y-87128066I150000J0D01*
G01*
X76226001Y-87128066D01*
G75*
G02*
X76376001Y-87278066I0J-150000D01*
G01*
X76376001Y-87578066D01*
G75*
G02*
X76226001Y-87728066I-150000J0D01*
G01*
X74576001Y-87728066D01*
G75*
G02*
X74426001Y-87578066I0J150000D01*
G01*
G37*
G04 #@! TD.AperFunction*
G04 #@! TA.AperFunction,SMDPad,CuDef*
G36*
G01*
X74426001Y-88848066D02*
X74426001Y-88548066D01*
G75*
G02*
X74576001Y-88398066I150000J0D01*
G01*
X76226001Y-88398066D01*
G75*
G02*
X76376001Y-88548066I0J-150000D01*
G01*
X76376001Y-88848066D01*
G75*
G02*
X76226001Y-88998066I-150000J0D01*
G01*
X74576001Y-88998066D01*
G75*
G02*
X74426001Y-88848066I0J150000D01*
G01*
G37*
G04 #@! TD.AperFunction*
G04 #@! TA.AperFunction,SMDPad,CuDef*
G36*
G01*
X74426001Y-90118066D02*
X74426001Y-89818066D01*
G75*
G02*
X74576001Y-89668066I150000J0D01*
G01*
X76226001Y-89668066D01*
G75*
G02*
X76376001Y-89818066I0J-150000D01*
G01*
X76376001Y-90118066D01*
G75*
G02*
X76226001Y-90268066I-150000J0D01*
G01*
X74576001Y-90268066D01*
G75*
G02*
X74426001Y-90118066I0J150000D01*
G01*
G37*
G04 #@! TD.AperFunction*
G04 #@! TA.AperFunction,SMDPad,CuDef*
G36*
G01*
X74426001Y-91388066D02*
X74426001Y-91088066D01*
G75*
G02*
X74576001Y-90938066I150000J0D01*
G01*
X76226001Y-90938066D01*
G75*
G02*
X76376001Y-91088066I0J-150000D01*
G01*
X76376001Y-91388066D01*
G75*
G02*
X76226001Y-91538066I-150000J0D01*
G01*
X74576001Y-91538066D01*
G75*
G02*
X74426001Y-91388066I0J150000D01*
G01*
G37*
G04 #@! TD.AperFunction*
G04 #@! TA.AperFunction,SMDPad,CuDef*
G36*
G01*
X74426001Y-92658066D02*
X74426001Y-92358066D01*
G75*
G02*
X74576001Y-92208066I150000J0D01*
G01*
X76226001Y-92208066D01*
G75*
G02*
X76376001Y-92358066I0J-150000D01*
G01*
X76376001Y-92658066D01*
G75*
G02*
X76226001Y-92808066I-150000J0D01*
G01*
X74576001Y-92808066D01*
G75*
G02*
X74426001Y-92658066I0J150000D01*
G01*
G37*
G04 #@! TD.AperFunction*
G04 #@! TA.AperFunction,SMDPad,CuDef*
G36*
G01*
X88726001Y-78180566D02*
X87476001Y-78180566D01*
G75*
G02*
X87226001Y-77930566I0J250000D01*
G01*
X87226001Y-77005566D01*
G75*
G02*
X87476001Y-76755566I250000J0D01*
G01*
X88726001Y-76755566D01*
G75*
G02*
X88976001Y-77005566I0J-250000D01*
G01*
X88976001Y-77930566D01*
G75*
G02*
X88726001Y-78180566I-250000J0D01*
G01*
G37*
G04 #@! TD.AperFunction*
G04 #@! TA.AperFunction,SMDPad,CuDef*
G36*
G01*
X88726001Y-81155566D02*
X87476001Y-81155566D01*
G75*
G02*
X87226001Y-80905566I0J250000D01*
G01*
X87226001Y-79980566D01*
G75*
G02*
X87476001Y-79730566I250000J0D01*
G01*
X88726001Y-79730566D01*
G75*
G02*
X88976001Y-79980566I0J-250000D01*
G01*
X88976001Y-80905566D01*
G75*
G02*
X88726001Y-81155566I-250000J0D01*
G01*
G37*
G04 #@! TD.AperFunction*
D15*
X85241001Y-82888066D03*
X84291001Y-84888066D03*
X86191001Y-84888066D03*
X89051001Y-82888066D03*
X88101001Y-84888066D03*
X90001001Y-84888066D03*
G04 #@! TA.AperFunction,SMDPad,CuDef*
G36*
G01*
X76661001Y-79450566D02*
X75411001Y-79450566D01*
G75*
G02*
X75161001Y-79200566I0J250000D01*
G01*
X75161001Y-78275566D01*
G75*
G02*
X75411001Y-78025566I250000J0D01*
G01*
X76661001Y-78025566D01*
G75*
G02*
X76911001Y-78275566I0J-250000D01*
G01*
X76911001Y-79200566D01*
G75*
G02*
X76661001Y-79450566I-250000J0D01*
G01*
G37*
G04 #@! TD.AperFunction*
G04 #@! TA.AperFunction,SMDPad,CuDef*
G36*
G01*
X76661001Y-82425566D02*
X75411001Y-82425566D01*
G75*
G02*
X75161001Y-82175566I0J250000D01*
G01*
X75161001Y-81250566D01*
G75*
G02*
X75411001Y-81000566I250000J0D01*
G01*
X76661001Y-81000566D01*
G75*
G02*
X76911001Y-81250566I0J-250000D01*
G01*
X76911001Y-82175566D01*
G75*
G02*
X76661001Y-82425566I-250000J0D01*
G01*
G37*
G04 #@! TD.AperFunction*
G04 #@! TA.AperFunction,SMDPad,CuDef*
G36*
G01*
X79836001Y-79450566D02*
X78586001Y-79450566D01*
G75*
G02*
X78336001Y-79200566I0J250000D01*
G01*
X78336001Y-78275566D01*
G75*
G02*
X78586001Y-78025566I250000J0D01*
G01*
X79836001Y-78025566D01*
G75*
G02*
X80086001Y-78275566I0J-250000D01*
G01*
X80086001Y-79200566D01*
G75*
G02*
X79836001Y-79450566I-250000J0D01*
G01*
G37*
G04 #@! TD.AperFunction*
G04 #@! TA.AperFunction,SMDPad,CuDef*
G36*
G01*
X79836001Y-82425566D02*
X78586001Y-82425566D01*
G75*
G02*
X78336001Y-82175566I0J250000D01*
G01*
X78336001Y-81250566D01*
G75*
G02*
X78586001Y-81000566I250000J0D01*
G01*
X79836001Y-81000566D01*
G75*
G02*
X80086001Y-81250566I0J-250000D01*
G01*
X80086001Y-82175566D01*
G75*
G02*
X79836001Y-82425566I-250000J0D01*
G01*
G37*
G04 #@! TD.AperFunction*
G04 #@! TA.AperFunction,SMDPad,CuDef*
G36*
G01*
X83646001Y-87705566D02*
X82396001Y-87705566D01*
G75*
G02*
X82146001Y-87455566I0J250000D01*
G01*
X82146001Y-86530566D01*
G75*
G02*
X82396001Y-86280566I250000J0D01*
G01*
X83646001Y-86280566D01*
G75*
G02*
X83896001Y-86530566I0J-250000D01*
G01*
X83896001Y-87455566D01*
G75*
G02*
X83646001Y-87705566I-250000J0D01*
G01*
G37*
G04 #@! TD.AperFunction*
G04 #@! TA.AperFunction,SMDPad,CuDef*
G36*
G01*
X83646001Y-90680566D02*
X82396001Y-90680566D01*
G75*
G02*
X82146001Y-90430566I0J250000D01*
G01*
X82146001Y-89505566D01*
G75*
G02*
X82396001Y-89255566I250000J0D01*
G01*
X83646001Y-89255566D01*
G75*
G02*
X83896001Y-89505566I0J-250000D01*
G01*
X83896001Y-90430566D01*
G75*
G02*
X83646001Y-90680566I-250000J0D01*
G01*
G37*
G04 #@! TD.AperFunction*
G04 #@! TA.AperFunction,SMDPad,CuDef*
G36*
G01*
X92536001Y-78180566D02*
X91286001Y-78180566D01*
G75*
G02*
X91036001Y-77930566I0J250000D01*
G01*
X91036001Y-77005566D01*
G75*
G02*
X91286001Y-76755566I250000J0D01*
G01*
X92536001Y-76755566D01*
G75*
G02*
X92786001Y-77005566I0J-250000D01*
G01*
X92786001Y-77930566D01*
G75*
G02*
X92536001Y-78180566I-250000J0D01*
G01*
G37*
G04 #@! TD.AperFunction*
G04 #@! TA.AperFunction,SMDPad,CuDef*
G36*
G01*
X92536001Y-81155566D02*
X91286001Y-81155566D01*
G75*
G02*
X91036001Y-80905566I0J250000D01*
G01*
X91036001Y-79980566D01*
G75*
G02*
X91286001Y-79730566I250000J0D01*
G01*
X92536001Y-79730566D01*
G75*
G02*
X92786001Y-79980566I0J-250000D01*
G01*
X92786001Y-80905566D01*
G75*
G02*
X92536001Y-81155566I-250000J0D01*
G01*
G37*
G04 #@! TD.AperFunction*
X92866001Y-82888066D03*
X91916001Y-84888066D03*
X93816001Y-84888066D03*
X100486001Y-82888066D03*
X99536001Y-84888066D03*
X101436001Y-84888066D03*
X96676001Y-82888066D03*
X95726001Y-84888066D03*
X97626001Y-84888066D03*
D16*
X72226001Y-95048066D03*
X83626001Y-95048066D03*
D17*
X86196001Y-93143066D03*
X91276001Y-93143066D03*
X93816001Y-95683066D03*
X88736001Y-93143066D03*
X88736001Y-95683066D03*
X91276001Y-95683066D03*
X93816001Y-93143066D03*
X86196001Y-95683066D03*
D18*
X58841001Y-84493066D03*
X58841001Y-89093066D03*
X58841001Y-86793066D03*
D19*
X52541001Y-86793066D03*
D20*
X63186001Y-96318066D03*
X63186001Y-91818066D03*
X69686001Y-96318066D03*
X69686001Y-91818066D03*
G04 #@! TA.AperFunction,SMDPad,CuDef*
G36*
G01*
X89381001Y-89255566D02*
X90631001Y-89255566D01*
G75*
G02*
X90881001Y-89505566I0J-250000D01*
G01*
X90881001Y-90430566D01*
G75*
G02*
X90631001Y-90680566I-250000J0D01*
G01*
X89381001Y-90680566D01*
G75*
G02*
X89131001Y-90430566I0J250000D01*
G01*
X89131001Y-89505566D01*
G75*
G02*
X89381001Y-89255566I250000J0D01*
G01*
G37*
G04 #@! TD.AperFunction*
G04 #@! TA.AperFunction,SMDPad,CuDef*
G36*
G01*
X89381001Y-86280566D02*
X90631001Y-86280566D01*
G75*
G02*
X90881001Y-86530566I0J-250000D01*
G01*
X90881001Y-87455566D01*
G75*
G02*
X90631001Y-87705566I-250000J0D01*
G01*
X89381001Y-87705566D01*
G75*
G02*
X89131001Y-87455566I0J250000D01*
G01*
X89131001Y-86530566D01*
G75*
G02*
X89381001Y-86280566I250000J0D01*
G01*
G37*
G04 #@! TD.AperFunction*
G04 #@! TA.AperFunction,SMDPad,CuDef*
G36*
G01*
X86821001Y-87705566D02*
X85571001Y-87705566D01*
G75*
G02*
X85321001Y-87455566I0J250000D01*
G01*
X85321001Y-86530566D01*
G75*
G02*
X85571001Y-86280566I250000J0D01*
G01*
X86821001Y-86280566D01*
G75*
G02*
X87071001Y-86530566I0J-250000D01*
G01*
X87071001Y-87455566D01*
G75*
G02*
X86821001Y-87705566I-250000J0D01*
G01*
G37*
G04 #@! TD.AperFunction*
G04 #@! TA.AperFunction,SMDPad,CuDef*
G36*
G01*
X86821001Y-90680566D02*
X85571001Y-90680566D01*
G75*
G02*
X85321001Y-90430566I0J250000D01*
G01*
X85321001Y-89505566D01*
G75*
G02*
X85571001Y-89255566I250000J0D01*
G01*
X86821001Y-89255566D01*
G75*
G02*
X87071001Y-89505566I0J-250000D01*
G01*
X87071001Y-90430566D01*
G75*
G02*
X86821001Y-90680566I-250000J0D01*
G01*
G37*
G04 #@! TD.AperFunction*
G04 #@! TA.AperFunction,SMDPad,CuDef*
G36*
G01*
X99173001Y-77913066D02*
X99173001Y-79163066D01*
G75*
G02*
X98923001Y-79413066I-250000J0D01*
G01*
X97998001Y-79413066D01*
G75*
G02*
X97748001Y-79163066I0J250000D01*
G01*
X97748001Y-77913066D01*
G75*
G02*
X97998001Y-77663066I250000J0D01*
G01*
X98923001Y-77663066D01*
G75*
G02*
X99173001Y-77913066I0J-250000D01*
G01*
G37*
G04 #@! TD.AperFunction*
G04 #@! TA.AperFunction,SMDPad,CuDef*
G36*
G01*
X102148001Y-77913066D02*
X102148001Y-79163066D01*
G75*
G02*
X101898001Y-79413066I-250000J0D01*
G01*
X100973001Y-79413066D01*
G75*
G02*
X100723001Y-79163066I0J250000D01*
G01*
X100723001Y-77913066D01*
G75*
G02*
X100973001Y-77663066I250000J0D01*
G01*
X101898001Y-77663066D01*
G75*
G02*
X102148001Y-77913066I0J-250000D01*
G01*
G37*
G04 #@! TD.AperFunction*
G04 #@! TA.AperFunction,SMDPad,CuDef*
G36*
G01*
X81238001Y-79163066D02*
X81238001Y-77913066D01*
G75*
G02*
X81488001Y-77663066I250000J0D01*
G01*
X82413001Y-77663066D01*
G75*
G02*
X82663001Y-77913066I0J-250000D01*
G01*
X82663001Y-79163066D01*
G75*
G02*
X82413001Y-79413066I-250000J0D01*
G01*
X81488001Y-79413066D01*
G75*
G02*
X81238001Y-79163066I0J250000D01*
G01*
G37*
G04 #@! TD.AperFunction*
G04 #@! TA.AperFunction,SMDPad,CuDef*
G36*
G01*
X84213001Y-79163066D02*
X84213001Y-77913066D01*
G75*
G02*
X84463001Y-77663066I250000J0D01*
G01*
X85388001Y-77663066D01*
G75*
G02*
X85638001Y-77913066I0J-250000D01*
G01*
X85638001Y-79163066D01*
G75*
G02*
X85388001Y-79413066I-250000J0D01*
G01*
X84463001Y-79413066D01*
G75*
G02*
X84213001Y-79163066I0J250000D01*
G01*
G37*
G04 #@! TD.AperFunction*
G04 #@! TA.AperFunction,SMDPad,CuDef*
G36*
G01*
X95096001Y-79730566D02*
X96346001Y-79730566D01*
G75*
G02*
X96596001Y-79980566I0J-250000D01*
G01*
X96596001Y-80905566D01*
G75*
G02*
X96346001Y-81155566I-250000J0D01*
G01*
X95096001Y-81155566D01*
G75*
G02*
X94846001Y-80905566I0J250000D01*
G01*
X94846001Y-79980566D01*
G75*
G02*
X95096001Y-79730566I250000J0D01*
G01*
G37*
G04 #@! TD.AperFunction*
G04 #@! TA.AperFunction,SMDPad,CuDef*
G36*
G01*
X95096001Y-76755566D02*
X96346001Y-76755566D01*
G75*
G02*
X96596001Y-77005566I0J-250000D01*
G01*
X96596001Y-77930566D01*
G75*
G02*
X96346001Y-78180566I-250000J0D01*
G01*
X95096001Y-78180566D01*
G75*
G02*
X94846001Y-77930566I0J250000D01*
G01*
X94846001Y-77005566D01*
G75*
G02*
X95096001Y-76755566I250000J0D01*
G01*
G37*
G04 #@! TD.AperFunction*
G04 #@! TA.AperFunction,SMDPad,CuDef*
G36*
G01*
X60786001Y-93421066D02*
X59536001Y-93421066D01*
G75*
G02*
X59286001Y-93171066I0J250000D01*
G01*
X59286001Y-92246066D01*
G75*
G02*
X59536001Y-91996066I250000J0D01*
G01*
X60786001Y-91996066D01*
G75*
G02*
X61036001Y-92246066I0J-250000D01*
G01*
X61036001Y-93171066D01*
G75*
G02*
X60786001Y-93421066I-250000J0D01*
G01*
G37*
G04 #@! TD.AperFunction*
G04 #@! TA.AperFunction,SMDPad,CuDef*
G36*
G01*
X60786001Y-96396066D02*
X59536001Y-96396066D01*
G75*
G02*
X59286001Y-96146066I0J250000D01*
G01*
X59286001Y-95221066D01*
G75*
G02*
X59536001Y-94971066I250000J0D01*
G01*
X60786001Y-94971066D01*
G75*
G02*
X61036001Y-95221066I0J-250000D01*
G01*
X61036001Y-96146066D01*
G75*
G02*
X60786001Y-96396066I-250000J0D01*
G01*
G37*
G04 #@! TD.AperFunction*
G04 #@! TA.AperFunction,SMDPad,CuDef*
G36*
G01*
X94441001Y-87705566D02*
X93191001Y-87705566D01*
G75*
G02*
X92941001Y-87455566I0J250000D01*
G01*
X92941001Y-86530566D01*
G75*
G02*
X93191001Y-86280566I250000J0D01*
G01*
X94441001Y-86280566D01*
G75*
G02*
X94691001Y-86530566I0J-250000D01*
G01*
X94691001Y-87455566D01*
G75*
G02*
X94441001Y-87705566I-250000J0D01*
G01*
G37*
G04 #@! TD.AperFunction*
G04 #@! TA.AperFunction,SMDPad,CuDef*
G36*
G01*
X94441001Y-90680566D02*
X93191001Y-90680566D01*
G75*
G02*
X92941001Y-90430566I0J250000D01*
G01*
X92941001Y-89505566D01*
G75*
G02*
X93191001Y-89255566I250000J0D01*
G01*
X94441001Y-89255566D01*
G75*
G02*
X94691001Y-89505566I0J-250000D01*
G01*
X94691001Y-90430566D01*
G75*
G02*
X94441001Y-90680566I-250000J0D01*
G01*
G37*
G04 #@! TD.AperFunction*
G04 #@! TA.AperFunction,SMDPad,CuDef*
G36*
G01*
X100811001Y-89255566D02*
X102061001Y-89255566D01*
G75*
G02*
X102311001Y-89505566I0J-250000D01*
G01*
X102311001Y-90430566D01*
G75*
G02*
X102061001Y-90680566I-250000J0D01*
G01*
X100811001Y-90680566D01*
G75*
G02*
X100561001Y-90430566I0J250000D01*
G01*
X100561001Y-89505566D01*
G75*
G02*
X100811001Y-89255566I250000J0D01*
G01*
G37*
G04 #@! TD.AperFunction*
G04 #@! TA.AperFunction,SMDPad,CuDef*
G36*
G01*
X100811001Y-86280566D02*
X102061001Y-86280566D01*
G75*
G02*
X102311001Y-86530566I0J-250000D01*
G01*
X102311001Y-87455566D01*
G75*
G02*
X102061001Y-87705566I-250000J0D01*
G01*
X100811001Y-87705566D01*
G75*
G02*
X100561001Y-87455566I0J250000D01*
G01*
X100561001Y-86530566D01*
G75*
G02*
X100811001Y-86280566I250000J0D01*
G01*
G37*
G04 #@! TD.AperFunction*
G04 #@! TA.AperFunction,SMDPad,CuDef*
G36*
G01*
X97001001Y-89255566D02*
X98251001Y-89255566D01*
G75*
G02*
X98501001Y-89505566I0J-250000D01*
G01*
X98501001Y-90430566D01*
G75*
G02*
X98251001Y-90680566I-250000J0D01*
G01*
X97001001Y-90680566D01*
G75*
G02*
X96751001Y-90430566I0J250000D01*
G01*
X96751001Y-89505566D01*
G75*
G02*
X97001001Y-89255566I250000J0D01*
G01*
G37*
G04 #@! TD.AperFunction*
G04 #@! TA.AperFunction,SMDPad,CuDef*
G36*
G01*
X97001001Y-86280566D02*
X98251001Y-86280566D01*
G75*
G02*
X98501001Y-86530566I0J-250000D01*
G01*
X98501001Y-87455566D01*
G75*
G02*
X98251001Y-87705566I-250000J0D01*
G01*
X97001001Y-87705566D01*
G75*
G02*
X96751001Y-87455566I0J250000D01*
G01*
X96751001Y-86530566D01*
G75*
G02*
X97001001Y-86280566I250000J0D01*
G01*
G37*
G04 #@! TD.AperFunction*
D21*
X65201001Y-81713066D03*
D22*
X62701001Y-81713066D03*
D10*
X101436001Y-69686001D03*
D11*
X98896001Y-69686001D03*
D12*
X101436001Y-67146001D03*
D13*
X98896001Y-67146001D03*
D12*
X101436001Y-55716001D03*
D13*
X98896001Y-55716001D03*
D12*
X84926001Y-55716001D03*
D13*
X82386001Y-55716001D03*
D12*
X73496001Y-55716001D03*
D13*
X70956001Y-55716001D03*
D12*
X56986001Y-67146001D03*
D13*
X54446001Y-67146001D03*
D12*
X56986001Y-55716001D03*
D13*
X54446001Y-55716001D03*
D14*
X63971001Y-62701001D03*
X68851001Y-62701001D03*
G04 #@! TA.AperFunction,SMDPad,CuDef*
G36*
G01*
X79376001Y-67296001D02*
X79376001Y-66996001D01*
G75*
G02*
X79526001Y-66846001I150000J0D01*
G01*
X81176001Y-66846001D01*
G75*
G02*
X81326001Y-66996001I0J-150000D01*
G01*
X81326001Y-67296001D01*
G75*
G02*
X81176001Y-67446001I-150000J0D01*
G01*
X79526001Y-67446001D01*
G75*
G02*
X79376001Y-67296001I0J150000D01*
G01*
G37*
G04 #@! TD.AperFunction*
G04 #@! TA.AperFunction,SMDPad,CuDef*
G36*
G01*
X79376001Y-66026001D02*
X79376001Y-65726001D01*
G75*
G02*
X79526001Y-65576001I150000J0D01*
G01*
X81176001Y-65576001D01*
G75*
G02*
X81326001Y-65726001I0J-150000D01*
G01*
X81326001Y-66026001D01*
G75*
G02*
X81176001Y-66176001I-150000J0D01*
G01*
X79526001Y-66176001D01*
G75*
G02*
X79376001Y-66026001I0J150000D01*
G01*
G37*
G04 #@! TD.AperFunction*
G04 #@! TA.AperFunction,SMDPad,CuDef*
G36*
G01*
X79376001Y-64756001D02*
X79376001Y-64456001D01*
G75*
G02*
X79526001Y-64306001I150000J0D01*
G01*
X81176001Y-64306001D01*
G75*
G02*
X81326001Y-64456001I0J-150000D01*
G01*
X81326001Y-64756001D01*
G75*
G02*
X81176001Y-64906001I-150000J0D01*
G01*
X79526001Y-64906001D01*
G75*
G02*
X79376001Y-64756001I0J150000D01*
G01*
G37*
G04 #@! TD.AperFunction*
G04 #@! TA.AperFunction,SMDPad,CuDef*
G36*
G01*
X79376001Y-63486001D02*
X79376001Y-63186001D01*
G75*
G02*
X79526001Y-63036001I150000J0D01*
G01*
X81176001Y-63036001D01*
G75*
G02*
X81326001Y-63186001I0J-150000D01*
G01*
X81326001Y-63486001D01*
G75*
G02*
X81176001Y-63636001I-150000J0D01*
G01*
X79526001Y-63636001D01*
G75*
G02*
X79376001Y-63486001I0J150000D01*
G01*
G37*
G04 #@! TD.AperFunction*
G04 #@! TA.AperFunction,SMDPad,CuDef*
G36*
G01*
X79376001Y-62216001D02*
X79376001Y-61916001D01*
G75*
G02*
X79526001Y-61766001I150000J0D01*
G01*
X81176001Y-61766001D01*
G75*
G02*
X81326001Y-61916001I0J-150000D01*
G01*
X81326001Y-62216001D01*
G75*
G02*
X81176001Y-62366001I-150000J0D01*
G01*
X79526001Y-62366001D01*
G75*
G02*
X79376001Y-62216001I0J150000D01*
G01*
G37*
G04 #@! TD.AperFunction*
G04 #@! TA.AperFunction,SMDPad,CuDef*
G36*
G01*
X79376001Y-60946001D02*
X79376001Y-60646001D01*
G75*
G02*
X79526001Y-60496001I150000J0D01*
G01*
X81176001Y-60496001D01*
G75*
G02*
X81326001Y-60646001I0J-150000D01*
G01*
X81326001Y-60946001D01*
G75*
G02*
X81176001Y-61096001I-150000J0D01*
G01*
X79526001Y-61096001D01*
G75*
G02*
X79376001Y-60946001I0J150000D01*
G01*
G37*
G04 #@! TD.AperFunction*
G04 #@! TA.AperFunction,SMDPad,CuDef*
G36*
G01*
X79376001Y-59676001D02*
X79376001Y-59376001D01*
G75*
G02*
X79526001Y-59226001I150000J0D01*
G01*
X81176001Y-59226001D01*
G75*
G02*
X81326001Y-59376001I0J-150000D01*
G01*
X81326001Y-59676001D01*
G75*
G02*
X81176001Y-59826001I-150000J0D01*
G01*
X79526001Y-59826001D01*
G75*
G02*
X79376001Y-59676001I0J150000D01*
G01*
G37*
G04 #@! TD.AperFunction*
G04 #@! TA.AperFunction,SMDPad,CuDef*
G36*
G01*
X79376001Y-58406001D02*
X79376001Y-58106001D01*
G75*
G02*
X79526001Y-57956001I150000J0D01*
G01*
X81176001Y-57956001D01*
G75*
G02*
X81326001Y-58106001I0J-150000D01*
G01*
X81326001Y-58406001D01*
G75*
G02*
X81176001Y-58556001I-150000J0D01*
G01*
X79526001Y-58556001D01*
G75*
G02*
X79376001Y-58406001I0J150000D01*
G01*
G37*
G04 #@! TD.AperFunction*
G04 #@! TA.AperFunction,SMDPad,CuDef*
G36*
G01*
X74426001Y-58406001D02*
X74426001Y-58106001D01*
G75*
G02*
X74576001Y-57956001I150000J0D01*
G01*
X76226001Y-57956001D01*
G75*
G02*
X76376001Y-58106001I0J-150000D01*
G01*
X76376001Y-58406001D01*
G75*
G02*
X76226001Y-58556001I-150000J0D01*
G01*
X74576001Y-58556001D01*
G75*
G02*
X74426001Y-58406001I0J150000D01*
G01*
G37*
G04 #@! TD.AperFunction*
G04 #@! TA.AperFunction,SMDPad,CuDef*
G36*
G01*
X74426001Y-59676001D02*
X74426001Y-59376001D01*
G75*
G02*
X74576001Y-59226001I150000J0D01*
G01*
X76226001Y-59226001D01*
G75*
G02*
X76376001Y-59376001I0J-150000D01*
G01*
X76376001Y-59676001D01*
G75*
G02*
X76226001Y-59826001I-150000J0D01*
G01*
X74576001Y-59826001D01*
G75*
G02*
X74426001Y-59676001I0J150000D01*
G01*
G37*
G04 #@! TD.AperFunction*
G04 #@! TA.AperFunction,SMDPad,CuDef*
G36*
G01*
X74426001Y-60946001D02*
X74426001Y-60646001D01*
G75*
G02*
X74576001Y-60496001I150000J0D01*
G01*
X76226001Y-60496001D01*
G75*
G02*
X76376001Y-60646001I0J-150000D01*
G01*
X76376001Y-60946001D01*
G75*
G02*
X76226001Y-61096001I-150000J0D01*
G01*
X74576001Y-61096001D01*
G75*
G02*
X74426001Y-60946001I0J150000D01*
G01*
G37*
G04 #@! TD.AperFunction*
G04 #@! TA.AperFunction,SMDPad,CuDef*
G36*
G01*
X74426001Y-62216001D02*
X74426001Y-61916001D01*
G75*
G02*
X74576001Y-61766001I150000J0D01*
G01*
X76226001Y-61766001D01*
G75*
G02*
X76376001Y-61916001I0J-150000D01*
G01*
X76376001Y-62216001D01*
G75*
G02*
X76226001Y-62366001I-150000J0D01*
G01*
X74576001Y-62366001D01*
G75*
G02*
X74426001Y-62216001I0J150000D01*
G01*
G37*
G04 #@! TD.AperFunction*
G04 #@! TA.AperFunction,SMDPad,CuDef*
G36*
G01*
X74426001Y-63486001D02*
X74426001Y-63186001D01*
G75*
G02*
X74576001Y-63036001I150000J0D01*
G01*
X76226001Y-63036001D01*
G75*
G02*
X76376001Y-63186001I0J-150000D01*
G01*
X76376001Y-63486001D01*
G75*
G02*
X76226001Y-63636001I-150000J0D01*
G01*
X74576001Y-63636001D01*
G75*
G02*
X74426001Y-63486001I0J150000D01*
G01*
G37*
G04 #@! TD.AperFunction*
G04 #@! TA.AperFunction,SMDPad,CuDef*
G36*
G01*
X74426001Y-64756001D02*
X74426001Y-64456001D01*
G75*
G02*
X74576001Y-64306001I150000J0D01*
G01*
X76226001Y-64306001D01*
G75*
G02*
X76376001Y-64456001I0J-150000D01*
G01*
X76376001Y-64756001D01*
G75*
G02*
X76226001Y-64906001I-150000J0D01*
G01*
X74576001Y-64906001D01*
G75*
G02*
X74426001Y-64756001I0J150000D01*
G01*
G37*
G04 #@! TD.AperFunction*
G04 #@! TA.AperFunction,SMDPad,CuDef*
G36*
G01*
X74426001Y-66026001D02*
X74426001Y-65726001D01*
G75*
G02*
X74576001Y-65576001I150000J0D01*
G01*
X76226001Y-65576001D01*
G75*
G02*
X76376001Y-65726001I0J-150000D01*
G01*
X76376001Y-66026001D01*
G75*
G02*
X76226001Y-66176001I-150000J0D01*
G01*
X74576001Y-66176001D01*
G75*
G02*
X74426001Y-66026001I0J150000D01*
G01*
G37*
G04 #@! TD.AperFunction*
G04 #@! TA.AperFunction,SMDPad,CuDef*
G36*
G01*
X74426001Y-67296001D02*
X74426001Y-66996001D01*
G75*
G02*
X74576001Y-66846001I150000J0D01*
G01*
X76226001Y-66846001D01*
G75*
G02*
X76376001Y-66996001I0J-150000D01*
G01*
X76376001Y-67296001D01*
G75*
G02*
X76226001Y-67446001I-150000J0D01*
G01*
X74576001Y-67446001D01*
G75*
G02*
X74426001Y-67296001I0J150000D01*
G01*
G37*
G04 #@! TD.AperFunction*
G04 #@! TA.AperFunction,SMDPad,CuDef*
G36*
G01*
X88726001Y-52818501D02*
X87476001Y-52818501D01*
G75*
G02*
X87226001Y-52568501I0J250000D01*
G01*
X87226001Y-51643501D01*
G75*
G02*
X87476001Y-51393501I250000J0D01*
G01*
X88726001Y-51393501D01*
G75*
G02*
X88976001Y-51643501I0J-250000D01*
G01*
X88976001Y-52568501D01*
G75*
G02*
X88726001Y-52818501I-250000J0D01*
G01*
G37*
G04 #@! TD.AperFunction*
G04 #@! TA.AperFunction,SMDPad,CuDef*
G36*
G01*
X88726001Y-55793501D02*
X87476001Y-55793501D01*
G75*
G02*
X87226001Y-55543501I0J250000D01*
G01*
X87226001Y-54618501D01*
G75*
G02*
X87476001Y-54368501I250000J0D01*
G01*
X88726001Y-54368501D01*
G75*
G02*
X88976001Y-54618501I0J-250000D01*
G01*
X88976001Y-55543501D01*
G75*
G02*
X88726001Y-55793501I-250000J0D01*
G01*
G37*
G04 #@! TD.AperFunction*
D15*
X85241001Y-57526001D03*
X84291001Y-59526001D03*
X86191001Y-59526001D03*
X89051001Y-57526001D03*
X88101001Y-59526001D03*
X90001001Y-59526001D03*
G04 #@! TA.AperFunction,SMDPad,CuDef*
G36*
G01*
X76661001Y-54088501D02*
X75411001Y-54088501D01*
G75*
G02*
X75161001Y-53838501I0J250000D01*
G01*
X75161001Y-52913501D01*
G75*
G02*
X75411001Y-52663501I250000J0D01*
G01*
X76661001Y-52663501D01*
G75*
G02*
X76911001Y-52913501I0J-250000D01*
G01*
X76911001Y-53838501D01*
G75*
G02*
X76661001Y-54088501I-250000J0D01*
G01*
G37*
G04 #@! TD.AperFunction*
G04 #@! TA.AperFunction,SMDPad,CuDef*
G36*
G01*
X76661001Y-57063501D02*
X75411001Y-57063501D01*
G75*
G02*
X75161001Y-56813501I0J250000D01*
G01*
X75161001Y-55888501D01*
G75*
G02*
X75411001Y-55638501I250000J0D01*
G01*
X76661001Y-55638501D01*
G75*
G02*
X76911001Y-55888501I0J-250000D01*
G01*
X76911001Y-56813501D01*
G75*
G02*
X76661001Y-57063501I-250000J0D01*
G01*
G37*
G04 #@! TD.AperFunction*
G04 #@! TA.AperFunction,SMDPad,CuDef*
G36*
G01*
X79836001Y-54088501D02*
X78586001Y-54088501D01*
G75*
G02*
X78336001Y-53838501I0J250000D01*
G01*
X78336001Y-52913501D01*
G75*
G02*
X78586001Y-52663501I250000J0D01*
G01*
X79836001Y-52663501D01*
G75*
G02*
X80086001Y-52913501I0J-250000D01*
G01*
X80086001Y-53838501D01*
G75*
G02*
X79836001Y-54088501I-250000J0D01*
G01*
G37*
G04 #@! TD.AperFunction*
G04 #@! TA.AperFunction,SMDPad,CuDef*
G36*
G01*
X79836001Y-57063501D02*
X78586001Y-57063501D01*
G75*
G02*
X78336001Y-56813501I0J250000D01*
G01*
X78336001Y-55888501D01*
G75*
G02*
X78586001Y-55638501I250000J0D01*
G01*
X79836001Y-55638501D01*
G75*
G02*
X80086001Y-55888501I0J-250000D01*
G01*
X80086001Y-56813501D01*
G75*
G02*
X79836001Y-57063501I-250000J0D01*
G01*
G37*
G04 #@! TD.AperFunction*
G04 #@! TA.AperFunction,SMDPad,CuDef*
G36*
G01*
X83646001Y-62343501D02*
X82396001Y-62343501D01*
G75*
G02*
X82146001Y-62093501I0J250000D01*
G01*
X82146001Y-61168501D01*
G75*
G02*
X82396001Y-60918501I250000J0D01*
G01*
X83646001Y-60918501D01*
G75*
G02*
X83896001Y-61168501I0J-250000D01*
G01*
X83896001Y-62093501D01*
G75*
G02*
X83646001Y-62343501I-250000J0D01*
G01*
G37*
G04 #@! TD.AperFunction*
G04 #@! TA.AperFunction,SMDPad,CuDef*
G36*
G01*
X83646001Y-65318501D02*
X82396001Y-65318501D01*
G75*
G02*
X82146001Y-65068501I0J250000D01*
G01*
X82146001Y-64143501D01*
G75*
G02*
X82396001Y-63893501I250000J0D01*
G01*
X83646001Y-63893501D01*
G75*
G02*
X83896001Y-64143501I0J-250000D01*
G01*
X83896001Y-65068501D01*
G75*
G02*
X83646001Y-65318501I-250000J0D01*
G01*
G37*
G04 #@! TD.AperFunction*
G04 #@! TA.AperFunction,SMDPad,CuDef*
G36*
G01*
X92536001Y-52818501D02*
X91286001Y-52818501D01*
G75*
G02*
X91036001Y-52568501I0J250000D01*
G01*
X91036001Y-51643501D01*
G75*
G02*
X91286001Y-51393501I250000J0D01*
G01*
X92536001Y-51393501D01*
G75*
G02*
X92786001Y-51643501I0J-250000D01*
G01*
X92786001Y-52568501D01*
G75*
G02*
X92536001Y-52818501I-250000J0D01*
G01*
G37*
G04 #@! TD.AperFunction*
G04 #@! TA.AperFunction,SMDPad,CuDef*
G36*
G01*
X92536001Y-55793501D02*
X91286001Y-55793501D01*
G75*
G02*
X91036001Y-55543501I0J250000D01*
G01*
X91036001Y-54618501D01*
G75*
G02*
X91286001Y-54368501I250000J0D01*
G01*
X92536001Y-54368501D01*
G75*
G02*
X92786001Y-54618501I0J-250000D01*
G01*
X92786001Y-55543501D01*
G75*
G02*
X92536001Y-55793501I-250000J0D01*
G01*
G37*
G04 #@! TD.AperFunction*
X92866001Y-57526001D03*
X91916001Y-59526001D03*
X93816001Y-59526001D03*
X100486001Y-57526001D03*
X99536001Y-59526001D03*
X101436001Y-59526001D03*
X96676001Y-57526001D03*
X95726001Y-59526001D03*
X97626001Y-59526001D03*
D16*
X72226001Y-69686001D03*
X83626001Y-69686001D03*
D17*
X86196001Y-67781001D03*
X91276001Y-67781001D03*
X93816001Y-70321001D03*
X88736001Y-67781001D03*
X88736001Y-70321001D03*
X91276001Y-70321001D03*
X93816001Y-67781001D03*
X86196001Y-70321001D03*
D18*
X58841001Y-59131001D03*
X58841001Y-63731001D03*
X58841001Y-61431001D03*
D19*
X52541001Y-61431001D03*
D20*
X63186001Y-70956001D03*
X63186001Y-66456001D03*
X69686001Y-70956001D03*
X69686001Y-66456001D03*
G04 #@! TA.AperFunction,SMDPad,CuDef*
G36*
G01*
X89381001Y-63893501D02*
X90631001Y-63893501D01*
G75*
G02*
X90881001Y-64143501I0J-250000D01*
G01*
X90881001Y-65068501D01*
G75*
G02*
X90631001Y-65318501I-250000J0D01*
G01*
X89381001Y-65318501D01*
G75*
G02*
X89131001Y-65068501I0J250000D01*
G01*
X89131001Y-64143501D01*
G75*
G02*
X89381001Y-63893501I250000J0D01*
G01*
G37*
G04 #@! TD.AperFunction*
G04 #@! TA.AperFunction,SMDPad,CuDef*
G36*
G01*
X89381001Y-60918501D02*
X90631001Y-60918501D01*
G75*
G02*
X90881001Y-61168501I0J-250000D01*
G01*
X90881001Y-62093501D01*
G75*
G02*
X90631001Y-62343501I-250000J0D01*
G01*
X89381001Y-62343501D01*
G75*
G02*
X89131001Y-62093501I0J250000D01*
G01*
X89131001Y-61168501D01*
G75*
G02*
X89381001Y-60918501I250000J0D01*
G01*
G37*
G04 #@! TD.AperFunction*
G04 #@! TA.AperFunction,SMDPad,CuDef*
G36*
G01*
X86821001Y-62343501D02*
X85571001Y-62343501D01*
G75*
G02*
X85321001Y-62093501I0J250000D01*
G01*
X85321001Y-61168501D01*
G75*
G02*
X85571001Y-60918501I250000J0D01*
G01*
X86821001Y-60918501D01*
G75*
G02*
X87071001Y-61168501I0J-250000D01*
G01*
X87071001Y-62093501D01*
G75*
G02*
X86821001Y-62343501I-250000J0D01*
G01*
G37*
G04 #@! TD.AperFunction*
G04 #@! TA.AperFunction,SMDPad,CuDef*
G36*
G01*
X86821001Y-65318501D02*
X85571001Y-65318501D01*
G75*
G02*
X85321001Y-65068501I0J250000D01*
G01*
X85321001Y-64143501D01*
G75*
G02*
X85571001Y-63893501I250000J0D01*
G01*
X86821001Y-63893501D01*
G75*
G02*
X87071001Y-64143501I0J-250000D01*
G01*
X87071001Y-65068501D01*
G75*
G02*
X86821001Y-65318501I-250000J0D01*
G01*
G37*
G04 #@! TD.AperFunction*
G04 #@! TA.AperFunction,SMDPad,CuDef*
G36*
G01*
X99173001Y-52551001D02*
X99173001Y-53801001D01*
G75*
G02*
X98923001Y-54051001I-250000J0D01*
G01*
X97998001Y-54051001D01*
G75*
G02*
X97748001Y-53801001I0J250000D01*
G01*
X97748001Y-52551001D01*
G75*
G02*
X97998001Y-52301001I250000J0D01*
G01*
X98923001Y-52301001D01*
G75*
G02*
X99173001Y-52551001I0J-250000D01*
G01*
G37*
G04 #@! TD.AperFunction*
G04 #@! TA.AperFunction,SMDPad,CuDef*
G36*
G01*
X102148001Y-52551001D02*
X102148001Y-53801001D01*
G75*
G02*
X101898001Y-54051001I-250000J0D01*
G01*
X100973001Y-54051001D01*
G75*
G02*
X100723001Y-53801001I0J250000D01*
G01*
X100723001Y-52551001D01*
G75*
G02*
X100973001Y-52301001I250000J0D01*
G01*
X101898001Y-52301001D01*
G75*
G02*
X102148001Y-52551001I0J-250000D01*
G01*
G37*
G04 #@! TD.AperFunction*
G04 #@! TA.AperFunction,SMDPad,CuDef*
G36*
G01*
X81238001Y-53801001D02*
X81238001Y-52551001D01*
G75*
G02*
X81488001Y-52301001I250000J0D01*
G01*
X82413001Y-52301001D01*
G75*
G02*
X82663001Y-52551001I0J-250000D01*
G01*
X82663001Y-53801001D01*
G75*
G02*
X82413001Y-54051001I-250000J0D01*
G01*
X81488001Y-54051001D01*
G75*
G02*
X81238001Y-53801001I0J250000D01*
G01*
G37*
G04 #@! TD.AperFunction*
G04 #@! TA.AperFunction,SMDPad,CuDef*
G36*
G01*
X84213001Y-53801001D02*
X84213001Y-52551001D01*
G75*
G02*
X84463001Y-52301001I250000J0D01*
G01*
X85388001Y-52301001D01*
G75*
G02*
X85638001Y-52551001I0J-250000D01*
G01*
X85638001Y-53801001D01*
G75*
G02*
X85388001Y-54051001I-250000J0D01*
G01*
X84463001Y-54051001D01*
G75*
G02*
X84213001Y-53801001I0J250000D01*
G01*
G37*
G04 #@! TD.AperFunction*
G04 #@! TA.AperFunction,SMDPad,CuDef*
G36*
G01*
X95096001Y-54368501D02*
X96346001Y-54368501D01*
G75*
G02*
X96596001Y-54618501I0J-250000D01*
G01*
X96596001Y-55543501D01*
G75*
G02*
X96346001Y-55793501I-250000J0D01*
G01*
X95096001Y-55793501D01*
G75*
G02*
X94846001Y-55543501I0J250000D01*
G01*
X94846001Y-54618501D01*
G75*
G02*
X95096001Y-54368501I250000J0D01*
G01*
G37*
G04 #@! TD.AperFunction*
G04 #@! TA.AperFunction,SMDPad,CuDef*
G36*
G01*
X95096001Y-51393501D02*
X96346001Y-51393501D01*
G75*
G02*
X96596001Y-51643501I0J-250000D01*
G01*
X96596001Y-52568501D01*
G75*
G02*
X96346001Y-52818501I-250000J0D01*
G01*
X95096001Y-52818501D01*
G75*
G02*
X94846001Y-52568501I0J250000D01*
G01*
X94846001Y-51643501D01*
G75*
G02*
X95096001Y-51393501I250000J0D01*
G01*
G37*
G04 #@! TD.AperFunction*
G04 #@! TA.AperFunction,SMDPad,CuDef*
G36*
G01*
X60786001Y-68059001D02*
X59536001Y-68059001D01*
G75*
G02*
X59286001Y-67809001I0J250000D01*
G01*
X59286001Y-66884001D01*
G75*
G02*
X59536001Y-66634001I250000J0D01*
G01*
X60786001Y-66634001D01*
G75*
G02*
X61036001Y-66884001I0J-250000D01*
G01*
X61036001Y-67809001D01*
G75*
G02*
X60786001Y-68059001I-250000J0D01*
G01*
G37*
G04 #@! TD.AperFunction*
G04 #@! TA.AperFunction,SMDPad,CuDef*
G36*
G01*
X60786001Y-71034001D02*
X59536001Y-71034001D01*
G75*
G02*
X59286001Y-70784001I0J250000D01*
G01*
X59286001Y-69859001D01*
G75*
G02*
X59536001Y-69609001I250000J0D01*
G01*
X60786001Y-69609001D01*
G75*
G02*
X61036001Y-69859001I0J-250000D01*
G01*
X61036001Y-70784001D01*
G75*
G02*
X60786001Y-71034001I-250000J0D01*
G01*
G37*
G04 #@! TD.AperFunction*
G04 #@! TA.AperFunction,SMDPad,CuDef*
G36*
G01*
X94441001Y-62343501D02*
X93191001Y-62343501D01*
G75*
G02*
X92941001Y-62093501I0J250000D01*
G01*
X92941001Y-61168501D01*
G75*
G02*
X93191001Y-60918501I250000J0D01*
G01*
X94441001Y-60918501D01*
G75*
G02*
X94691001Y-61168501I0J-250000D01*
G01*
X94691001Y-62093501D01*
G75*
G02*
X94441001Y-62343501I-250000J0D01*
G01*
G37*
G04 #@! TD.AperFunction*
G04 #@! TA.AperFunction,SMDPad,CuDef*
G36*
G01*
X94441001Y-65318501D02*
X93191001Y-65318501D01*
G75*
G02*
X92941001Y-65068501I0J250000D01*
G01*
X92941001Y-64143501D01*
G75*
G02*
X93191001Y-63893501I250000J0D01*
G01*
X94441001Y-63893501D01*
G75*
G02*
X94691001Y-64143501I0J-250000D01*
G01*
X94691001Y-65068501D01*
G75*
G02*
X94441001Y-65318501I-250000J0D01*
G01*
G37*
G04 #@! TD.AperFunction*
G04 #@! TA.AperFunction,SMDPad,CuDef*
G36*
G01*
X100811001Y-63893501D02*
X102061001Y-63893501D01*
G75*
G02*
X102311001Y-64143501I0J-250000D01*
G01*
X102311001Y-65068501D01*
G75*
G02*
X102061001Y-65318501I-250000J0D01*
G01*
X100811001Y-65318501D01*
G75*
G02*
X100561001Y-65068501I0J250000D01*
G01*
X100561001Y-64143501D01*
G75*
G02*
X100811001Y-63893501I250000J0D01*
G01*
G37*
G04 #@! TD.AperFunction*
G04 #@! TA.AperFunction,SMDPad,CuDef*
G36*
G01*
X100811001Y-60918501D02*
X102061001Y-60918501D01*
G75*
G02*
X102311001Y-61168501I0J-250000D01*
G01*
X102311001Y-62093501D01*
G75*
G02*
X102061001Y-62343501I-250000J0D01*
G01*
X100811001Y-62343501D01*
G75*
G02*
X100561001Y-62093501I0J250000D01*
G01*
X100561001Y-61168501D01*
G75*
G02*
X100811001Y-60918501I250000J0D01*
G01*
G37*
G04 #@! TD.AperFunction*
G04 #@! TA.AperFunction,SMDPad,CuDef*
G36*
G01*
X97001001Y-63893501D02*
X98251001Y-63893501D01*
G75*
G02*
X98501001Y-64143501I0J-250000D01*
G01*
X98501001Y-65068501D01*
G75*
G02*
X98251001Y-65318501I-250000J0D01*
G01*
X97001001Y-65318501D01*
G75*
G02*
X96751001Y-65068501I0J250000D01*
G01*
X96751001Y-64143501D01*
G75*
G02*
X97001001Y-63893501I250000J0D01*
G01*
G37*
G04 #@! TD.AperFunction*
G04 #@! TA.AperFunction,SMDPad,CuDef*
G36*
G01*
X97001001Y-60918501D02*
X98251001Y-60918501D01*
G75*
G02*
X98501001Y-61168501I0J-250000D01*
G01*
X98501001Y-62093501D01*
G75*
G02*
X98251001Y-62343501I-250000J0D01*
G01*
X97001001Y-62343501D01*
G75*
G02*
X96751001Y-62093501I0J250000D01*
G01*
X96751001Y-61168501D01*
G75*
G02*
X97001001Y-60918501I250000J0D01*
G01*
G37*
G04 #@! TD.AperFunction*
D21*
X65201001Y-56351001D03*
D22*
X62701001Y-56351001D03*
D23*
X78767701Y-62898101D03*
X77293101Y-63813601D03*
X78876501Y-64042101D03*
X83078401Y-60301701D03*
X97216901Y-54869101D03*
X86437801Y-53073001D03*
X73818301Y-64300401D03*
X88094701Y-62672101D03*
X78767701Y-88260166D03*
X77293101Y-89175666D03*
X78876501Y-89404166D03*
X83078401Y-85663766D03*
X97216901Y-80231166D03*
X86437801Y-78435066D03*
X73818301Y-89662466D03*
X88094701Y-88034166D03*
X78767701Y-113622231D03*
X77293101Y-114537731D03*
X78876501Y-114766231D03*
X83078401Y-111025831D03*
X97216901Y-105593231D03*
X86437801Y-103797131D03*
X73818301Y-115024531D03*
X88094701Y-113396231D03*
X78767701Y-138984296D03*
X77293101Y-139899796D03*
X78876501Y-140128296D03*
X83078401Y-136387896D03*
X97216901Y-130955296D03*
X86437801Y-129159196D03*
X73818301Y-140386596D03*
X88094701Y-138758296D03*
D24*
X75401001Y-63336001D02*
X75786401Y-63336001D01*
X75786401Y-63336001D02*
X79596401Y-67146001D01*
X79596401Y-67146001D02*
X80351001Y-67146001D01*
X58841001Y-61431001D02*
X58841001Y-62506301D01*
X52541001Y-61431001D02*
X52541001Y-59205701D01*
X58841001Y-60893301D02*
X55553901Y-60893301D01*
X55553901Y-60893301D02*
X53866301Y-59205701D01*
X53866301Y-59205701D02*
X52541001Y-59205701D01*
X58841001Y-60893301D02*
X58841001Y-60355701D01*
X58841001Y-61431001D02*
X58841001Y-60893301D01*
X74099301Y-63336001D02*
X73757001Y-63336001D01*
X73757001Y-63336001D02*
X72896401Y-64196601D01*
X72896401Y-64196601D02*
X72896401Y-65090801D01*
X72896401Y-65090801D02*
X74316601Y-66511001D01*
X74316601Y-66511001D02*
X76438601Y-66511001D01*
X76438601Y-66511001D02*
X78191201Y-68263601D01*
X78191201Y-68263601D02*
X81951701Y-68263601D01*
X81951701Y-68263601D02*
X82636801Y-67578501D01*
X82636801Y-67578501D02*
X84146201Y-67578501D01*
X84146201Y-67578501D02*
X86196001Y-69628301D01*
X60161001Y-67346501D02*
X60615501Y-67801001D01*
X60615501Y-67801001D02*
X65271901Y-67801001D01*
X65271901Y-67801001D02*
X67982101Y-65090801D01*
X67982101Y-65090801D02*
X72896401Y-65090801D01*
X80351001Y-67146001D02*
X80755901Y-67146001D01*
X80755901Y-67146001D02*
X83021001Y-64880901D01*
X83021001Y-64880901D02*
X83021001Y-64606001D01*
X86196001Y-69628301D02*
X86196001Y-70321001D01*
X86196001Y-69628301D02*
X86627801Y-69196501D01*
X86627801Y-69196501D02*
X90151501Y-69196501D01*
X90151501Y-69196501D02*
X91276001Y-70321001D01*
X62701001Y-56351001D02*
X62701001Y-57494001D01*
X62701001Y-57494001D02*
X59839301Y-60355701D01*
X59839301Y-60355701D02*
X58841001Y-60355701D01*
X74099301Y-63336001D02*
X74099301Y-60390701D01*
X74099301Y-60390701D02*
X74329001Y-60161001D01*
X74329001Y-60161001D02*
X77527001Y-60161001D01*
X77527001Y-60161001D02*
X78797001Y-58891001D01*
X78797001Y-58891001D02*
X81471101Y-58891001D01*
X81471101Y-58891001D02*
X83668001Y-56694101D01*
X83668001Y-56694101D02*
X83668001Y-55187101D01*
X83668001Y-55187101D02*
X84421001Y-54434101D01*
X84421001Y-54434101D02*
X86102501Y-54434101D01*
X86102501Y-54434101D02*
X88101001Y-52435601D01*
X88101001Y-52435601D02*
X88101001Y-52106001D01*
X74099301Y-63336001D02*
X75401001Y-63336001D01*
X58841001Y-62506301D02*
X59916301Y-62506301D01*
X59916301Y-62506301D02*
X60201501Y-62791501D01*
X60201501Y-62791501D02*
X60201501Y-67306001D01*
X60201501Y-67306001D02*
X60161001Y-67346501D01*
X58841001Y-63731001D02*
X58841001Y-64806301D01*
X58841001Y-64806301D02*
X56986001Y-66661301D01*
X56986001Y-66661301D02*
X56986001Y-67146001D01*
X78767701Y-62898101D02*
X78767701Y-60678801D01*
X78767701Y-60678801D02*
X79285501Y-60161001D01*
X79285501Y-60161001D02*
X81369501Y-60161001D01*
X81369501Y-60161001D02*
X84004501Y-57526001D01*
X84004501Y-57526001D02*
X85241001Y-57526001D01*
X63186001Y-70956001D02*
X60795501Y-70956001D01*
X60795501Y-70956001D02*
X60161001Y-70321501D01*
X75401001Y-62066001D02*
X75825401Y-62066001D01*
X75825401Y-62066001D02*
X77293101Y-63533701D01*
X77293101Y-63533701D02*
X77293101Y-63813601D01*
X75401001Y-60796001D02*
X75782401Y-60796001D01*
X75782401Y-60796001D02*
X77788401Y-62802001D01*
X77788401Y-62802001D02*
X77788401Y-62954001D01*
X77788401Y-62954001D02*
X78876501Y-64042101D01*
X84291001Y-59526001D02*
X85016301Y-59526001D01*
X90001001Y-59526001D02*
X89275701Y-59526001D01*
X89275701Y-59526001D02*
X89275701Y-59344701D01*
X89275701Y-59344701D02*
X88681601Y-58750601D01*
X88681601Y-58750601D02*
X85610401Y-58750601D01*
X85610401Y-58750601D02*
X85016301Y-59344701D01*
X85016301Y-59344701D02*
X85016301Y-59526001D01*
X84291001Y-59526001D02*
X82801401Y-59526001D01*
X82801401Y-59526001D02*
X81735901Y-60591501D01*
X81735901Y-60591501D02*
X81735901Y-62352601D01*
X81735901Y-62352601D02*
X80752501Y-63336001D01*
X80752501Y-63336001D02*
X80351001Y-63336001D01*
X83078401Y-60301701D02*
X83078401Y-61573601D01*
X83078401Y-61573601D02*
X83021001Y-61631001D01*
X65201001Y-56351001D02*
X68176001Y-53376001D01*
X68176001Y-53376001D02*
X76036001Y-53376001D01*
X65201001Y-56351001D02*
X64036501Y-55186501D01*
X64036501Y-55186501D02*
X61710201Y-55186501D01*
X61710201Y-55186501D02*
X58841001Y-58055701D01*
X65201001Y-56351001D02*
X62844001Y-58708001D01*
X62844001Y-58708001D02*
X62844001Y-66114001D01*
X62844001Y-66114001D02*
X63186001Y-66456001D01*
X75401001Y-67607401D02*
X72229301Y-67607401D01*
X72229301Y-67607401D02*
X72226001Y-67610701D01*
X83626001Y-69686001D02*
X82715101Y-68775101D01*
X82715101Y-68775101D02*
X76568701Y-68775101D01*
X76568701Y-68775101D02*
X75401001Y-67607401D01*
X75401001Y-67146001D02*
X75401001Y-67607401D01*
X72226001Y-69686001D02*
X72226001Y-67610701D01*
X69686001Y-66456001D02*
X70840701Y-67610701D01*
X70840701Y-67610701D02*
X72226001Y-67610701D01*
X99536001Y-59526001D02*
X98810701Y-59526001D01*
X95726001Y-59526001D02*
X96451301Y-59526001D01*
X96451301Y-59526001D02*
X96451301Y-59344701D01*
X96451301Y-59344701D02*
X97045401Y-58750601D01*
X97045401Y-58750601D02*
X98216601Y-58750601D01*
X98216601Y-58750601D02*
X98810701Y-59344701D01*
X98810701Y-59344701D02*
X98810701Y-59526001D01*
X93816001Y-67781001D02*
X95726001Y-65871001D01*
X95726001Y-65871001D02*
X95726001Y-59526001D01*
X92140601Y-58750701D02*
X92140601Y-56754801D01*
X92140601Y-56754801D02*
X93112401Y-55783001D01*
X93112401Y-55783001D02*
X93112401Y-53307401D01*
X93112401Y-53307401D02*
X91911001Y-52106001D01*
X91916001Y-58750701D02*
X92140601Y-58750701D01*
X95000701Y-59526001D02*
X95000701Y-59344701D01*
X95000701Y-59344701D02*
X94406701Y-58750701D01*
X94406701Y-58750701D02*
X92140601Y-58750701D01*
X91916001Y-59526001D02*
X91916001Y-58750701D01*
X95726001Y-59526001D02*
X95000701Y-59526001D01*
X76036001Y-53376001D02*
X79211001Y-53376001D01*
X58841001Y-59131001D02*
X58841001Y-58055701D01*
X93816001Y-69719101D02*
X92577201Y-69719101D01*
X92577201Y-69719101D02*
X91909101Y-69051001D01*
X91909101Y-69051001D02*
X90992501Y-69051001D01*
X90992501Y-69051001D02*
X90006001Y-68064501D01*
X90006001Y-68064501D02*
X90006001Y-67505501D01*
X90006001Y-67505501D02*
X87106501Y-64606001D01*
X87106501Y-64606001D02*
X86196001Y-64606001D01*
X97626001Y-64606001D02*
X97626001Y-66210001D01*
X97626001Y-66210001D02*
X94116901Y-69719101D01*
X94116901Y-69719101D02*
X93816001Y-69719101D01*
X93816001Y-70321001D02*
X93816001Y-69719101D01*
X101436001Y-64606001D02*
X100376901Y-63546901D01*
X100376901Y-63546901D02*
X96727101Y-63546901D01*
X96727101Y-63546901D02*
X96176401Y-64097601D01*
X96176401Y-64097601D02*
X96176401Y-66958501D01*
X96176401Y-66958501D02*
X94242701Y-68892201D01*
X94242701Y-68892201D02*
X92387201Y-68892201D01*
X92387201Y-68892201D02*
X91276001Y-67781001D01*
X86196001Y-67781001D02*
X84988501Y-66573501D01*
X84988501Y-66573501D02*
X84988501Y-63887301D01*
X84988501Y-63887301D02*
X85598001Y-63277801D01*
X85598001Y-63277801D02*
X86458901Y-63277801D01*
X86458901Y-63277801D02*
X88105701Y-61631001D01*
X88105701Y-61631001D02*
X90006001Y-61631001D01*
X90006001Y-61631001D02*
X93816001Y-61631001D01*
X68851001Y-62701001D02*
X72026001Y-59526001D01*
X72026001Y-59526001D02*
X75401001Y-59526001D01*
X79211001Y-56351001D02*
X76036001Y-59526001D01*
X76036001Y-59526001D02*
X75401001Y-59526001D01*
X75401001Y-58256001D02*
X68416001Y-58256001D01*
X68416001Y-58256001D02*
X63971001Y-62701001D01*
X76036001Y-56351001D02*
X76036001Y-57621001D01*
X76036001Y-57621001D02*
X75401001Y-58256001D01*
X95721001Y-52106001D02*
X94189901Y-50574901D01*
X94189901Y-50574901D02*
X60352901Y-50574901D01*
X60352901Y-50574901D02*
X55671301Y-55256501D01*
X55671301Y-55256501D02*
X55671301Y-55716001D01*
X54446001Y-55716001D02*
X55671301Y-55716001D01*
X81510901Y-53615601D02*
X81950501Y-53176001D01*
X72181301Y-55716001D02*
X72181301Y-55256401D01*
X72181301Y-55256401D02*
X72947001Y-54490701D01*
X72947001Y-54490701D02*
X80635801Y-54490701D01*
X80635801Y-54490701D02*
X81510901Y-53615601D01*
X81510901Y-53615601D02*
X82386001Y-54490701D01*
X82386001Y-55716001D02*
X82386001Y-54490701D01*
X70956001Y-55716001D02*
X72181301Y-55716001D01*
X101089601Y-53521901D02*
X100120801Y-54490701D01*
X100120801Y-54490701D02*
X98896001Y-54490701D01*
X101435501Y-53176001D02*
X101089601Y-53521901D01*
X101089601Y-53521901D02*
X102663001Y-55095301D01*
X102663001Y-55095301D02*
X102663001Y-65338501D01*
X102663001Y-65338501D02*
X102080801Y-65920701D01*
X102080801Y-65920701D02*
X100887001Y-65920701D01*
X100887001Y-65920701D02*
X100121301Y-66686401D01*
X100121301Y-66686401D02*
X100121301Y-67146001D01*
X98896001Y-67146001D02*
X100121301Y-67146001D01*
X98896001Y-55716001D02*
X98896001Y-54490701D01*
X97626001Y-59526001D02*
X97626001Y-61631001D01*
X96676001Y-57526001D02*
X96676001Y-56036001D01*
X96676001Y-56036001D02*
X95721001Y-55081001D01*
X101436001Y-59526001D02*
X101436001Y-61631001D01*
X100486001Y-57526001D02*
X98422901Y-57526001D01*
X98422901Y-57526001D02*
X97216901Y-56320001D01*
X97216901Y-56320001D02*
X97216901Y-54869101D01*
X84925501Y-53176001D02*
X86334801Y-53176001D01*
X86334801Y-53176001D02*
X86437801Y-53073001D01*
X93816001Y-59526001D02*
X94541301Y-59526001D01*
X94541301Y-59526001D02*
X94541301Y-60251301D01*
X94541301Y-60251301D02*
X95024101Y-60734101D01*
X95024101Y-60734101D02*
X95024101Y-63397901D01*
X95024101Y-63397901D02*
X93816001Y-64606001D01*
X92866001Y-57526001D02*
X93591301Y-57526001D01*
X93591301Y-57526001D02*
X93591301Y-55285501D01*
X93591301Y-55285501D02*
X95102001Y-53774801D01*
X95102001Y-53774801D02*
X97861701Y-53774801D01*
X97861701Y-53774801D02*
X98460501Y-53176001D01*
X86196001Y-61631001D02*
X84531901Y-63295101D01*
X84531901Y-63295101D02*
X84531901Y-65004101D01*
X84531901Y-65004101D02*
X81757001Y-67779001D01*
X81757001Y-67779001D02*
X79304501Y-67779001D01*
X79304501Y-67779001D02*
X76131501Y-64606001D01*
X76131501Y-64606001D02*
X75401001Y-64606001D01*
X90006001Y-64606001D02*
X88094701Y-62694701D01*
X88094701Y-62694701D02*
X88094701Y-62672101D01*
X75401001Y-65876001D02*
X75007701Y-65876001D01*
X75007701Y-65876001D02*
X73818301Y-64686601D01*
X73818301Y-64686601D02*
X73818301Y-64300401D01*
X98896001Y-69686001D02*
X97720701Y-69686001D01*
X88736001Y-70321001D02*
X89864301Y-71449301D01*
X89864301Y-71449301D02*
X95957401Y-71449301D01*
X95957401Y-71449301D02*
X97720701Y-69686001D01*
X90666001Y-55081001D02*
X90001001Y-55081001D01*
X90001001Y-55081001D02*
X89051001Y-56031001D01*
X91911001Y-55081001D02*
X90666001Y-55081001D01*
X100071301Y-69686001D02*
X100071301Y-69318601D01*
X100071301Y-69318601D02*
X100879201Y-68510701D01*
X100879201Y-68510701D02*
X101842301Y-68510701D01*
X101842301Y-68510701D02*
X103148301Y-67204701D01*
X103148301Y-67204701D02*
X103148301Y-52923201D01*
X103148301Y-52923201D02*
X102137001Y-51911901D01*
X102137001Y-51911901D02*
X97815901Y-51911901D01*
X97815901Y-51911901D02*
X97421601Y-52306201D01*
X97421601Y-52306201D02*
X97421601Y-52383901D01*
X97421601Y-52383901D02*
X96636201Y-53169301D01*
X96636201Y-53169301D02*
X94794201Y-53169301D01*
X94794201Y-53169301D02*
X93337501Y-51712601D01*
X93337501Y-51712601D02*
X93337501Y-51607601D01*
X93337501Y-51607601D02*
X92776101Y-51046201D01*
X92776101Y-51046201D02*
X91062001Y-51046201D01*
X91062001Y-51046201D02*
X90666001Y-51442201D01*
X90666001Y-51442201D02*
X90666001Y-55081001D01*
X98896001Y-69686001D02*
X100071301Y-69686001D01*
X89051001Y-57526001D02*
X89051001Y-56031001D01*
X89051001Y-56031001D02*
X88101001Y-55081001D01*
X86191001Y-59526001D02*
X84520201Y-61196801D01*
X84520201Y-61196801D02*
X84520201Y-62097001D01*
X84520201Y-62097001D02*
X83658001Y-62959201D01*
X83658001Y-62959201D02*
X82697601Y-62959201D01*
X82697601Y-62959201D02*
X81050801Y-64606001D01*
X81050801Y-64606001D02*
X80351001Y-64606001D01*
X88101001Y-59526001D02*
X86191001Y-59526001D01*
X75401001Y-88698066D02*
X75786401Y-88698066D01*
X75786401Y-88698066D02*
X79596401Y-92508066D01*
X79596401Y-92508066D02*
X80351001Y-92508066D01*
X58841001Y-86793066D02*
X58841001Y-87868366D01*
X52541001Y-86793066D02*
X52541001Y-84567766D01*
X58841001Y-86255366D02*
X55553901Y-86255366D01*
X55553901Y-86255366D02*
X53866301Y-84567766D01*
X53866301Y-84567766D02*
X52541001Y-84567766D01*
X58841001Y-86255366D02*
X58841001Y-85717766D01*
X58841001Y-86793066D02*
X58841001Y-86255366D01*
X74099301Y-88698066D02*
X73757001Y-88698066D01*
X73757001Y-88698066D02*
X72896401Y-89558666D01*
X72896401Y-89558666D02*
X72896401Y-90452866D01*
X72896401Y-90452866D02*
X74316601Y-91873066D01*
X74316601Y-91873066D02*
X76438601Y-91873066D01*
X76438601Y-91873066D02*
X78191201Y-93625666D01*
X78191201Y-93625666D02*
X81951701Y-93625666D01*
X81951701Y-93625666D02*
X82636801Y-92940566D01*
X82636801Y-92940566D02*
X84146201Y-92940566D01*
X84146201Y-92940566D02*
X86196001Y-94990366D01*
X60161001Y-92708566D02*
X60615501Y-93163066D01*
X60615501Y-93163066D02*
X65271901Y-93163066D01*
X65271901Y-93163066D02*
X67982101Y-90452866D01*
X67982101Y-90452866D02*
X72896401Y-90452866D01*
X80351001Y-92508066D02*
X80755901Y-92508066D01*
X80755901Y-92508066D02*
X83021001Y-90242966D01*
X83021001Y-90242966D02*
X83021001Y-89968066D01*
X86196001Y-94990366D02*
X86196001Y-95683066D01*
X86196001Y-94990366D02*
X86627801Y-94558566D01*
X86627801Y-94558566D02*
X90151501Y-94558566D01*
X90151501Y-94558566D02*
X91276001Y-95683066D01*
X62701001Y-81713066D02*
X62701001Y-82856066D01*
X62701001Y-82856066D02*
X59839301Y-85717766D01*
X59839301Y-85717766D02*
X58841001Y-85717766D01*
X74099301Y-88698066D02*
X74099301Y-85752766D01*
X74099301Y-85752766D02*
X74329001Y-85523066D01*
X74329001Y-85523066D02*
X77527001Y-85523066D01*
X77527001Y-85523066D02*
X78797001Y-84253066D01*
X78797001Y-84253066D02*
X81471101Y-84253066D01*
X81471101Y-84253066D02*
X83668001Y-82056166D01*
X83668001Y-82056166D02*
X83668001Y-80549166D01*
X83668001Y-80549166D02*
X84421001Y-79796166D01*
X84421001Y-79796166D02*
X86102501Y-79796166D01*
X86102501Y-79796166D02*
X88101001Y-77797666D01*
X88101001Y-77797666D02*
X88101001Y-77468066D01*
X74099301Y-88698066D02*
X75401001Y-88698066D01*
X58841001Y-87868366D02*
X59916301Y-87868366D01*
X59916301Y-87868366D02*
X60201501Y-88153566D01*
X60201501Y-88153566D02*
X60201501Y-92668066D01*
X60201501Y-92668066D02*
X60161001Y-92708566D01*
X58841001Y-89093066D02*
X58841001Y-90168366D01*
X58841001Y-90168366D02*
X56986001Y-92023366D01*
X56986001Y-92023366D02*
X56986001Y-92508066D01*
X78767701Y-88260166D02*
X78767701Y-86040866D01*
X78767701Y-86040866D02*
X79285501Y-85523066D01*
X79285501Y-85523066D02*
X81369501Y-85523066D01*
X81369501Y-85523066D02*
X84004501Y-82888066D01*
X84004501Y-82888066D02*
X85241001Y-82888066D01*
X63186001Y-96318066D02*
X60795501Y-96318066D01*
X60795501Y-96318066D02*
X60161001Y-95683566D01*
X75401001Y-87428066D02*
X75825401Y-87428066D01*
X75825401Y-87428066D02*
X77293101Y-88895766D01*
X77293101Y-88895766D02*
X77293101Y-89175666D01*
X75401001Y-86158066D02*
X75782401Y-86158066D01*
X75782401Y-86158066D02*
X77788401Y-88164066D01*
X77788401Y-88164066D02*
X77788401Y-88316066D01*
X77788401Y-88316066D02*
X78876501Y-89404166D01*
X84291001Y-84888066D02*
X85016301Y-84888066D01*
X90001001Y-84888066D02*
X89275701Y-84888066D01*
X89275701Y-84888066D02*
X89275701Y-84706766D01*
X89275701Y-84706766D02*
X88681601Y-84112666D01*
X88681601Y-84112666D02*
X85610401Y-84112666D01*
X85610401Y-84112666D02*
X85016301Y-84706766D01*
X85016301Y-84706766D02*
X85016301Y-84888066D01*
X84291001Y-84888066D02*
X82801401Y-84888066D01*
X82801401Y-84888066D02*
X81735901Y-85953566D01*
X81735901Y-85953566D02*
X81735901Y-87714666D01*
X81735901Y-87714666D02*
X80752501Y-88698066D01*
X80752501Y-88698066D02*
X80351001Y-88698066D01*
X83078401Y-85663766D02*
X83078401Y-86935666D01*
X83078401Y-86935666D02*
X83021001Y-86993066D01*
X65201001Y-81713066D02*
X68176001Y-78738066D01*
X68176001Y-78738066D02*
X76036001Y-78738066D01*
X65201001Y-81713066D02*
X64036501Y-80548566D01*
X64036501Y-80548566D02*
X61710201Y-80548566D01*
X61710201Y-80548566D02*
X58841001Y-83417766D01*
X65201001Y-81713066D02*
X62844001Y-84070066D01*
X62844001Y-84070066D02*
X62844001Y-91476066D01*
X62844001Y-91476066D02*
X63186001Y-91818066D01*
X75401001Y-92969466D02*
X72229301Y-92969466D01*
X72229301Y-92969466D02*
X72226001Y-92972766D01*
X83626001Y-95048066D02*
X82715101Y-94137166D01*
X82715101Y-94137166D02*
X76568701Y-94137166D01*
X76568701Y-94137166D02*
X75401001Y-92969466D01*
X75401001Y-92508066D02*
X75401001Y-92969466D01*
X72226001Y-95048066D02*
X72226001Y-92972766D01*
X69686001Y-91818066D02*
X70840701Y-92972766D01*
X70840701Y-92972766D02*
X72226001Y-92972766D01*
X99536001Y-84888066D02*
X98810701Y-84888066D01*
X95726001Y-84888066D02*
X96451301Y-84888066D01*
X96451301Y-84888066D02*
X96451301Y-84706766D01*
X96451301Y-84706766D02*
X97045401Y-84112666D01*
X97045401Y-84112666D02*
X98216601Y-84112666D01*
X98216601Y-84112666D02*
X98810701Y-84706766D01*
X98810701Y-84706766D02*
X98810701Y-84888066D01*
X93816001Y-93143066D02*
X95726001Y-91233066D01*
X95726001Y-91233066D02*
X95726001Y-84888066D01*
X92140601Y-84112766D02*
X92140601Y-82116866D01*
X92140601Y-82116866D02*
X93112401Y-81145066D01*
X93112401Y-81145066D02*
X93112401Y-78669466D01*
X93112401Y-78669466D02*
X91911001Y-77468066D01*
X91916001Y-84112766D02*
X92140601Y-84112766D01*
X95000701Y-84888066D02*
X95000701Y-84706766D01*
X95000701Y-84706766D02*
X94406701Y-84112766D01*
X94406701Y-84112766D02*
X92140601Y-84112766D01*
X91916001Y-84888066D02*
X91916001Y-84112766D01*
X95726001Y-84888066D02*
X95000701Y-84888066D01*
X76036001Y-78738066D02*
X79211001Y-78738066D01*
X58841001Y-84493066D02*
X58841001Y-83417766D01*
X93816001Y-95081166D02*
X92577201Y-95081166D01*
X92577201Y-95081166D02*
X91909101Y-94413066D01*
X91909101Y-94413066D02*
X90992501Y-94413066D01*
X90992501Y-94413066D02*
X90006001Y-93426566D01*
X90006001Y-93426566D02*
X90006001Y-92867566D01*
X90006001Y-92867566D02*
X87106501Y-89968066D01*
X87106501Y-89968066D02*
X86196001Y-89968066D01*
X97626001Y-89968066D02*
X97626001Y-91572066D01*
X97626001Y-91572066D02*
X94116901Y-95081166D01*
X94116901Y-95081166D02*
X93816001Y-95081166D01*
X93816001Y-95683066D02*
X93816001Y-95081166D01*
X101436001Y-89968066D02*
X100376901Y-88908966D01*
X100376901Y-88908966D02*
X96727101Y-88908966D01*
X96727101Y-88908966D02*
X96176401Y-89459666D01*
X96176401Y-89459666D02*
X96176401Y-92320566D01*
X96176401Y-92320566D02*
X94242701Y-94254266D01*
X94242701Y-94254266D02*
X92387201Y-94254266D01*
X92387201Y-94254266D02*
X91276001Y-93143066D01*
X86196001Y-93143066D02*
X84988501Y-91935566D01*
X84988501Y-91935566D02*
X84988501Y-89249366D01*
X84988501Y-89249366D02*
X85598001Y-88639866D01*
X85598001Y-88639866D02*
X86458901Y-88639866D01*
X86458901Y-88639866D02*
X88105701Y-86993066D01*
X88105701Y-86993066D02*
X90006001Y-86993066D01*
X90006001Y-86993066D02*
X93816001Y-86993066D01*
X68851001Y-88063066D02*
X72026001Y-84888066D01*
X72026001Y-84888066D02*
X75401001Y-84888066D01*
X79211001Y-81713066D02*
X76036001Y-84888066D01*
X76036001Y-84888066D02*
X75401001Y-84888066D01*
X75401001Y-83618066D02*
X68416001Y-83618066D01*
X68416001Y-83618066D02*
X63971001Y-88063066D01*
X76036001Y-81713066D02*
X76036001Y-82983066D01*
X76036001Y-82983066D02*
X75401001Y-83618066D01*
X95721001Y-77468066D02*
X94189901Y-75936966D01*
X94189901Y-75936966D02*
X60352901Y-75936966D01*
X60352901Y-75936966D02*
X55671301Y-80618566D01*
X55671301Y-80618566D02*
X55671301Y-81078066D01*
X54446001Y-81078066D02*
X55671301Y-81078066D01*
X81510901Y-78977666D02*
X81950501Y-78538066D01*
X72181301Y-81078066D02*
X72181301Y-80618466D01*
X72181301Y-80618466D02*
X72947001Y-79852766D01*
X72947001Y-79852766D02*
X80635801Y-79852766D01*
X80635801Y-79852766D02*
X81510901Y-78977666D01*
X81510901Y-78977666D02*
X82386001Y-79852766D01*
X82386001Y-81078066D02*
X82386001Y-79852766D01*
X70956001Y-81078066D02*
X72181301Y-81078066D01*
X101089601Y-78883966D02*
X100120801Y-79852766D01*
X100120801Y-79852766D02*
X98896001Y-79852766D01*
X101435501Y-78538066D02*
X101089601Y-78883966D01*
X101089601Y-78883966D02*
X102663001Y-80457366D01*
X102663001Y-80457366D02*
X102663001Y-90700566D01*
X102663001Y-90700566D02*
X102080801Y-91282766D01*
X102080801Y-91282766D02*
X100887001Y-91282766D01*
X100887001Y-91282766D02*
X100121301Y-92048466D01*
X100121301Y-92048466D02*
X100121301Y-92508066D01*
X98896001Y-92508066D02*
X100121301Y-92508066D01*
X98896001Y-81078066D02*
X98896001Y-79852766D01*
X97626001Y-84888066D02*
X97626001Y-86993066D01*
X96676001Y-82888066D02*
X96676001Y-81398066D01*
X96676001Y-81398066D02*
X95721001Y-80443066D01*
X101436001Y-84888066D02*
X101436001Y-86993066D01*
X100486001Y-82888066D02*
X98422901Y-82888066D01*
X98422901Y-82888066D02*
X97216901Y-81682066D01*
X97216901Y-81682066D02*
X97216901Y-80231166D01*
X84925501Y-78538066D02*
X86334801Y-78538066D01*
X86334801Y-78538066D02*
X86437801Y-78435066D01*
X93816001Y-84888066D02*
X94541301Y-84888066D01*
X94541301Y-84888066D02*
X94541301Y-85613366D01*
X94541301Y-85613366D02*
X95024101Y-86096166D01*
X95024101Y-86096166D02*
X95024101Y-88759966D01*
X95024101Y-88759966D02*
X93816001Y-89968066D01*
X92866001Y-82888066D02*
X93591301Y-82888066D01*
X93591301Y-82888066D02*
X93591301Y-80647566D01*
X93591301Y-80647566D02*
X95102001Y-79136866D01*
X95102001Y-79136866D02*
X97861701Y-79136866D01*
X97861701Y-79136866D02*
X98460501Y-78538066D01*
X86196001Y-86993066D02*
X84531901Y-88657166D01*
X84531901Y-88657166D02*
X84531901Y-90366166D01*
X84531901Y-90366166D02*
X81757001Y-93141066D01*
X81757001Y-93141066D02*
X79304501Y-93141066D01*
X79304501Y-93141066D02*
X76131501Y-89968066D01*
X76131501Y-89968066D02*
X75401001Y-89968066D01*
X90006001Y-89968066D02*
X88094701Y-88056766D01*
X88094701Y-88056766D02*
X88094701Y-88034166D01*
X75401001Y-91238066D02*
X75007701Y-91238066D01*
X75007701Y-91238066D02*
X73818301Y-90048666D01*
X73818301Y-90048666D02*
X73818301Y-89662466D01*
X98896001Y-95048066D02*
X97720701Y-95048066D01*
X88736001Y-95683066D02*
X89864301Y-96811366D01*
X89864301Y-96811366D02*
X95957401Y-96811366D01*
X95957401Y-96811366D02*
X97720701Y-95048066D01*
X90666001Y-80443066D02*
X90001001Y-80443066D01*
X90001001Y-80443066D02*
X89051001Y-81393066D01*
X91911001Y-80443066D02*
X90666001Y-80443066D01*
X100071301Y-95048066D02*
X100071301Y-94680666D01*
X100071301Y-94680666D02*
X100879201Y-93872766D01*
X100879201Y-93872766D02*
X101842301Y-93872766D01*
X101842301Y-93872766D02*
X103148301Y-92566766D01*
X103148301Y-92566766D02*
X103148301Y-78285266D01*
X103148301Y-78285266D02*
X102137001Y-77273966D01*
X102137001Y-77273966D02*
X97815901Y-77273966D01*
X97815901Y-77273966D02*
X97421601Y-77668266D01*
X97421601Y-77668266D02*
X97421601Y-77745966D01*
X97421601Y-77745966D02*
X96636201Y-78531366D01*
X96636201Y-78531366D02*
X94794201Y-78531366D01*
X94794201Y-78531366D02*
X93337501Y-77074666D01*
X93337501Y-77074666D02*
X93337501Y-76969666D01*
X93337501Y-76969666D02*
X92776101Y-76408266D01*
X92776101Y-76408266D02*
X91062001Y-76408266D01*
X91062001Y-76408266D02*
X90666001Y-76804266D01*
X90666001Y-76804266D02*
X90666001Y-80443066D01*
X98896001Y-95048066D02*
X100071301Y-95048066D01*
X89051001Y-82888066D02*
X89051001Y-81393066D01*
X89051001Y-81393066D02*
X88101001Y-80443066D01*
X86191001Y-84888066D02*
X84520201Y-86558866D01*
X84520201Y-86558866D02*
X84520201Y-87459066D01*
X84520201Y-87459066D02*
X83658001Y-88321266D01*
X83658001Y-88321266D02*
X82697601Y-88321266D01*
X82697601Y-88321266D02*
X81050801Y-89968066D01*
X81050801Y-89968066D02*
X80351001Y-89968066D01*
X88101001Y-84888066D02*
X86191001Y-84888066D01*
X75401001Y-114060131D02*
X75786401Y-114060131D01*
X75786401Y-114060131D02*
X79596401Y-117870131D01*
X79596401Y-117870131D02*
X80351001Y-117870131D01*
X58841001Y-112155131D02*
X58841001Y-113230431D01*
X52541001Y-112155131D02*
X52541001Y-109929831D01*
X58841001Y-111617431D02*
X55553901Y-111617431D01*
X55553901Y-111617431D02*
X53866301Y-109929831D01*
X53866301Y-109929831D02*
X52541001Y-109929831D01*
X58841001Y-111617431D02*
X58841001Y-111079831D01*
X58841001Y-112155131D02*
X58841001Y-111617431D01*
X74099301Y-114060131D02*
X73757001Y-114060131D01*
X73757001Y-114060131D02*
X72896401Y-114920731D01*
X72896401Y-114920731D02*
X72896401Y-115814931D01*
X72896401Y-115814931D02*
X74316601Y-117235131D01*
X74316601Y-117235131D02*
X76438601Y-117235131D01*
X76438601Y-117235131D02*
X78191201Y-118987731D01*
X78191201Y-118987731D02*
X81951701Y-118987731D01*
X81951701Y-118987731D02*
X82636801Y-118302631D01*
X82636801Y-118302631D02*
X84146201Y-118302631D01*
X84146201Y-118302631D02*
X86196001Y-120352431D01*
X60161001Y-118070631D02*
X60615501Y-118525131D01*
X60615501Y-118525131D02*
X65271901Y-118525131D01*
X65271901Y-118525131D02*
X67982101Y-115814931D01*
X67982101Y-115814931D02*
X72896401Y-115814931D01*
X80351001Y-117870131D02*
X80755901Y-117870131D01*
X80755901Y-117870131D02*
X83021001Y-115605031D01*
X83021001Y-115605031D02*
X83021001Y-115330131D01*
X86196001Y-120352431D02*
X86196001Y-121045131D01*
X86196001Y-120352431D02*
X86627801Y-119920631D01*
X86627801Y-119920631D02*
X90151501Y-119920631D01*
X90151501Y-119920631D02*
X91276001Y-121045131D01*
X62701001Y-107075131D02*
X62701001Y-108218131D01*
X62701001Y-108218131D02*
X59839301Y-111079831D01*
X59839301Y-111079831D02*
X58841001Y-111079831D01*
X74099301Y-114060131D02*
X74099301Y-111114831D01*
X74099301Y-111114831D02*
X74329001Y-110885131D01*
X74329001Y-110885131D02*
X77527001Y-110885131D01*
X77527001Y-110885131D02*
X78797001Y-109615131D01*
X78797001Y-109615131D02*
X81471101Y-109615131D01*
X81471101Y-109615131D02*
X83668001Y-107418231D01*
X83668001Y-107418231D02*
X83668001Y-105911231D01*
X83668001Y-105911231D02*
X84421001Y-105158231D01*
X84421001Y-105158231D02*
X86102501Y-105158231D01*
X86102501Y-105158231D02*
X88101001Y-103159731D01*
X88101001Y-103159731D02*
X88101001Y-102830131D01*
X74099301Y-114060131D02*
X75401001Y-114060131D01*
X58841001Y-113230431D02*
X59916301Y-113230431D01*
X59916301Y-113230431D02*
X60201501Y-113515631D01*
X60201501Y-113515631D02*
X60201501Y-118030131D01*
X60201501Y-118030131D02*
X60161001Y-118070631D01*
X58841001Y-114455131D02*
X58841001Y-115530431D01*
X58841001Y-115530431D02*
X56986001Y-117385431D01*
X56986001Y-117385431D02*
X56986001Y-117870131D01*
X78767701Y-113622231D02*
X78767701Y-111402931D01*
X78767701Y-111402931D02*
X79285501Y-110885131D01*
X79285501Y-110885131D02*
X81369501Y-110885131D01*
X81369501Y-110885131D02*
X84004501Y-108250131D01*
X84004501Y-108250131D02*
X85241001Y-108250131D01*
X63186001Y-121680131D02*
X60795501Y-121680131D01*
X60795501Y-121680131D02*
X60161001Y-121045631D01*
X75401001Y-112790131D02*
X75825401Y-112790131D01*
X75825401Y-112790131D02*
X77293101Y-114257831D01*
X77293101Y-114257831D02*
X77293101Y-114537731D01*
X75401001Y-111520131D02*
X75782401Y-111520131D01*
X75782401Y-111520131D02*
X77788401Y-113526131D01*
X77788401Y-113526131D02*
X77788401Y-113678131D01*
X77788401Y-113678131D02*
X78876501Y-114766231D01*
X84291001Y-110250131D02*
X85016301Y-110250131D01*
X90001001Y-110250131D02*
X89275701Y-110250131D01*
X89275701Y-110250131D02*
X89275701Y-110068831D01*
X89275701Y-110068831D02*
X88681601Y-109474731D01*
X88681601Y-109474731D02*
X85610401Y-109474731D01*
X85610401Y-109474731D02*
X85016301Y-110068831D01*
X85016301Y-110068831D02*
X85016301Y-110250131D01*
X84291001Y-110250131D02*
X82801401Y-110250131D01*
X82801401Y-110250131D02*
X81735901Y-111315631D01*
X81735901Y-111315631D02*
X81735901Y-113076731D01*
X81735901Y-113076731D02*
X80752501Y-114060131D01*
X80752501Y-114060131D02*
X80351001Y-114060131D01*
X83078401Y-111025831D02*
X83078401Y-112297731D01*
X83078401Y-112297731D02*
X83021001Y-112355131D01*
X65201001Y-107075131D02*
X68176001Y-104100131D01*
X68176001Y-104100131D02*
X76036001Y-104100131D01*
X65201001Y-107075131D02*
X64036501Y-105910631D01*
X64036501Y-105910631D02*
X61710201Y-105910631D01*
X61710201Y-105910631D02*
X58841001Y-108779831D01*
X65201001Y-107075131D02*
X62844001Y-109432131D01*
X62844001Y-109432131D02*
X62844001Y-116838131D01*
X62844001Y-116838131D02*
X63186001Y-117180131D01*
X75401001Y-118331531D02*
X72229301Y-118331531D01*
X72229301Y-118331531D02*
X72226001Y-118334831D01*
X83626001Y-120410131D02*
X82715101Y-119499231D01*
X82715101Y-119499231D02*
X76568701Y-119499231D01*
X76568701Y-119499231D02*
X75401001Y-118331531D01*
X75401001Y-117870131D02*
X75401001Y-118331531D01*
X72226001Y-120410131D02*
X72226001Y-118334831D01*
X69686001Y-117180131D02*
X70840701Y-118334831D01*
X70840701Y-118334831D02*
X72226001Y-118334831D01*
X99536001Y-110250131D02*
X98810701Y-110250131D01*
X95726001Y-110250131D02*
X96451301Y-110250131D01*
X96451301Y-110250131D02*
X96451301Y-110068831D01*
X96451301Y-110068831D02*
X97045401Y-109474731D01*
X97045401Y-109474731D02*
X98216601Y-109474731D01*
X98216601Y-109474731D02*
X98810701Y-110068831D01*
X98810701Y-110068831D02*
X98810701Y-110250131D01*
X93816001Y-118505131D02*
X95726001Y-116595131D01*
X95726001Y-116595131D02*
X95726001Y-110250131D01*
X92140601Y-109474831D02*
X92140601Y-107478931D01*
X92140601Y-107478931D02*
X93112401Y-106507131D01*
X93112401Y-106507131D02*
X93112401Y-104031531D01*
X93112401Y-104031531D02*
X91911001Y-102830131D01*
X91916001Y-109474831D02*
X92140601Y-109474831D01*
X95000701Y-110250131D02*
X95000701Y-110068831D01*
X95000701Y-110068831D02*
X94406701Y-109474831D01*
X94406701Y-109474831D02*
X92140601Y-109474831D01*
X91916001Y-110250131D02*
X91916001Y-109474831D01*
X95726001Y-110250131D02*
X95000701Y-110250131D01*
X76036001Y-104100131D02*
X79211001Y-104100131D01*
X58841001Y-109855131D02*
X58841001Y-108779831D01*
X93816001Y-120443231D02*
X92577201Y-120443231D01*
X92577201Y-120443231D02*
X91909101Y-119775131D01*
X91909101Y-119775131D02*
X90992501Y-119775131D01*
X90992501Y-119775131D02*
X90006001Y-118788631D01*
X90006001Y-118788631D02*
X90006001Y-118229631D01*
X90006001Y-118229631D02*
X87106501Y-115330131D01*
X87106501Y-115330131D02*
X86196001Y-115330131D01*
X97626001Y-115330131D02*
X97626001Y-116934131D01*
X97626001Y-116934131D02*
X94116901Y-120443231D01*
X94116901Y-120443231D02*
X93816001Y-120443231D01*
X93816001Y-121045131D02*
X93816001Y-120443231D01*
X101436001Y-115330131D02*
X100376901Y-114271031D01*
X100376901Y-114271031D02*
X96727101Y-114271031D01*
X96727101Y-114271031D02*
X96176401Y-114821731D01*
X96176401Y-114821731D02*
X96176401Y-117682631D01*
X96176401Y-117682631D02*
X94242701Y-119616331D01*
X94242701Y-119616331D02*
X92387201Y-119616331D01*
X92387201Y-119616331D02*
X91276001Y-118505131D01*
X86196001Y-118505131D02*
X84988501Y-117297631D01*
X84988501Y-117297631D02*
X84988501Y-114611431D01*
X84988501Y-114611431D02*
X85598001Y-114001931D01*
X85598001Y-114001931D02*
X86458901Y-114001931D01*
X86458901Y-114001931D02*
X88105701Y-112355131D01*
X88105701Y-112355131D02*
X90006001Y-112355131D01*
X90006001Y-112355131D02*
X93816001Y-112355131D01*
X68851001Y-113425131D02*
X72026001Y-110250131D01*
X72026001Y-110250131D02*
X75401001Y-110250131D01*
X79211001Y-107075131D02*
X76036001Y-110250131D01*
X76036001Y-110250131D02*
X75401001Y-110250131D01*
X75401001Y-108980131D02*
X68416001Y-108980131D01*
X68416001Y-108980131D02*
X63971001Y-113425131D01*
X76036001Y-107075131D02*
X76036001Y-108345131D01*
X76036001Y-108345131D02*
X75401001Y-108980131D01*
X95721001Y-102830131D02*
X94189901Y-101299031D01*
X94189901Y-101299031D02*
X60352901Y-101299031D01*
X60352901Y-101299031D02*
X55671301Y-105980631D01*
X55671301Y-105980631D02*
X55671301Y-106440131D01*
X54446001Y-106440131D02*
X55671301Y-106440131D01*
X81510901Y-104339731D02*
X81950501Y-103900131D01*
X72181301Y-106440131D02*
X72181301Y-105980531D01*
X72181301Y-105980531D02*
X72947001Y-105214831D01*
X72947001Y-105214831D02*
X80635801Y-105214831D01*
X80635801Y-105214831D02*
X81510901Y-104339731D01*
X81510901Y-104339731D02*
X82386001Y-105214831D01*
X82386001Y-106440131D02*
X82386001Y-105214831D01*
X70956001Y-106440131D02*
X72181301Y-106440131D01*
X101089601Y-104246031D02*
X100120801Y-105214831D01*
X100120801Y-105214831D02*
X98896001Y-105214831D01*
X101435501Y-103900131D02*
X101089601Y-104246031D01*
X101089601Y-104246031D02*
X102663001Y-105819431D01*
X102663001Y-105819431D02*
X102663001Y-116062631D01*
X102663001Y-116062631D02*
X102080801Y-116644831D01*
X102080801Y-116644831D02*
X100887001Y-116644831D01*
X100887001Y-116644831D02*
X100121301Y-117410531D01*
X100121301Y-117410531D02*
X100121301Y-117870131D01*
X98896001Y-117870131D02*
X100121301Y-117870131D01*
X98896001Y-106440131D02*
X98896001Y-105214831D01*
X97626001Y-110250131D02*
X97626001Y-112355131D01*
X96676001Y-108250131D02*
X96676001Y-106760131D01*
X96676001Y-106760131D02*
X95721001Y-105805131D01*
X101436001Y-110250131D02*
X101436001Y-112355131D01*
X100486001Y-108250131D02*
X98422901Y-108250131D01*
X98422901Y-108250131D02*
X97216901Y-107044131D01*
X97216901Y-107044131D02*
X97216901Y-105593231D01*
X84925501Y-103900131D02*
X86334801Y-103900131D01*
X86334801Y-103900131D02*
X86437801Y-103797131D01*
X93816001Y-110250131D02*
X94541301Y-110250131D01*
X94541301Y-110250131D02*
X94541301Y-110975431D01*
X94541301Y-110975431D02*
X95024101Y-111458231D01*
X95024101Y-111458231D02*
X95024101Y-114122031D01*
X95024101Y-114122031D02*
X93816001Y-115330131D01*
X92866001Y-108250131D02*
X93591301Y-108250131D01*
X93591301Y-108250131D02*
X93591301Y-106009631D01*
X93591301Y-106009631D02*
X95102001Y-104498931D01*
X95102001Y-104498931D02*
X97861701Y-104498931D01*
X97861701Y-104498931D02*
X98460501Y-103900131D01*
X86196001Y-112355131D02*
X84531901Y-114019231D01*
X84531901Y-114019231D02*
X84531901Y-115728231D01*
X84531901Y-115728231D02*
X81757001Y-118503131D01*
X81757001Y-118503131D02*
X79304501Y-118503131D01*
X79304501Y-118503131D02*
X76131501Y-115330131D01*
X76131501Y-115330131D02*
X75401001Y-115330131D01*
X90006001Y-115330131D02*
X88094701Y-113418831D01*
X88094701Y-113418831D02*
X88094701Y-113396231D01*
X75401001Y-116600131D02*
X75007701Y-116600131D01*
X75007701Y-116600131D02*
X73818301Y-115410731D01*
X73818301Y-115410731D02*
X73818301Y-115024531D01*
X98896001Y-120410131D02*
X97720701Y-120410131D01*
X88736001Y-121045131D02*
X89864301Y-122173431D01*
X89864301Y-122173431D02*
X95957401Y-122173431D01*
X95957401Y-122173431D02*
X97720701Y-120410131D01*
X90666001Y-105805131D02*
X90001001Y-105805131D01*
X90001001Y-105805131D02*
X89051001Y-106755131D01*
X91911001Y-105805131D02*
X90666001Y-105805131D01*
X100071301Y-120410131D02*
X100071301Y-120042731D01*
X100071301Y-120042731D02*
X100879201Y-119234831D01*
X100879201Y-119234831D02*
X101842301Y-119234831D01*
X101842301Y-119234831D02*
X103148301Y-117928831D01*
X103148301Y-117928831D02*
X103148301Y-103647331D01*
X103148301Y-103647331D02*
X102137001Y-102636031D01*
X102137001Y-102636031D02*
X97815901Y-102636031D01*
X97815901Y-102636031D02*
X97421601Y-103030331D01*
X97421601Y-103030331D02*
X97421601Y-103108031D01*
X97421601Y-103108031D02*
X96636201Y-103893431D01*
X96636201Y-103893431D02*
X94794201Y-103893431D01*
X94794201Y-103893431D02*
X93337501Y-102436731D01*
X93337501Y-102436731D02*
X93337501Y-102331731D01*
X93337501Y-102331731D02*
X92776101Y-101770331D01*
X92776101Y-101770331D02*
X91062001Y-101770331D01*
X91062001Y-101770331D02*
X90666001Y-102166331D01*
X90666001Y-102166331D02*
X90666001Y-105805131D01*
X98896001Y-120410131D02*
X100071301Y-120410131D01*
X89051001Y-108250131D02*
X89051001Y-106755131D01*
X89051001Y-106755131D02*
X88101001Y-105805131D01*
X86191001Y-110250131D02*
X84520201Y-111920931D01*
X84520201Y-111920931D02*
X84520201Y-112821131D01*
X84520201Y-112821131D02*
X83658001Y-113683331D01*
X83658001Y-113683331D02*
X82697601Y-113683331D01*
X82697601Y-113683331D02*
X81050801Y-115330131D01*
X81050801Y-115330131D02*
X80351001Y-115330131D01*
X88101001Y-110250131D02*
X86191001Y-110250131D01*
X75401001Y-139422196D02*
X75786401Y-139422196D01*
X75786401Y-139422196D02*
X79596401Y-143232196D01*
X79596401Y-143232196D02*
X80351001Y-143232196D01*
X58841001Y-137517196D02*
X58841001Y-138592496D01*
X52541001Y-137517196D02*
X52541001Y-135291896D01*
X58841001Y-136979496D02*
X55553901Y-136979496D01*
X55553901Y-136979496D02*
X53866301Y-135291896D01*
X53866301Y-135291896D02*
X52541001Y-135291896D01*
X58841001Y-136979496D02*
X58841001Y-136441896D01*
X58841001Y-137517196D02*
X58841001Y-136979496D01*
X74099301Y-139422196D02*
X73757001Y-139422196D01*
X73757001Y-139422196D02*
X72896401Y-140282796D01*
X72896401Y-140282796D02*
X72896401Y-141176996D01*
X72896401Y-141176996D02*
X74316601Y-142597196D01*
X74316601Y-142597196D02*
X76438601Y-142597196D01*
X76438601Y-142597196D02*
X78191201Y-144349796D01*
X78191201Y-144349796D02*
X81951701Y-144349796D01*
X81951701Y-144349796D02*
X82636801Y-143664696D01*
X82636801Y-143664696D02*
X84146201Y-143664696D01*
X84146201Y-143664696D02*
X86196001Y-145714496D01*
X60161001Y-143432696D02*
X60615501Y-143887196D01*
X60615501Y-143887196D02*
X65271901Y-143887196D01*
X65271901Y-143887196D02*
X67982101Y-141176996D01*
X67982101Y-141176996D02*
X72896401Y-141176996D01*
X80351001Y-143232196D02*
X80755901Y-143232196D01*
X80755901Y-143232196D02*
X83021001Y-140967096D01*
X83021001Y-140967096D02*
X83021001Y-140692196D01*
X86196001Y-145714496D02*
X86196001Y-146407196D01*
X86196001Y-145714496D02*
X86627801Y-145282696D01*
X86627801Y-145282696D02*
X90151501Y-145282696D01*
X90151501Y-145282696D02*
X91276001Y-146407196D01*
X62701001Y-132437196D02*
X62701001Y-133580196D01*
X62701001Y-133580196D02*
X59839301Y-136441896D01*
X59839301Y-136441896D02*
X58841001Y-136441896D01*
X74099301Y-139422196D02*
X74099301Y-136476896D01*
X74099301Y-136476896D02*
X74329001Y-136247196D01*
X74329001Y-136247196D02*
X77527001Y-136247196D01*
X77527001Y-136247196D02*
X78797001Y-134977196D01*
X78797001Y-134977196D02*
X81471101Y-134977196D01*
X81471101Y-134977196D02*
X83668001Y-132780296D01*
X83668001Y-132780296D02*
X83668001Y-131273296D01*
X83668001Y-131273296D02*
X84421001Y-130520296D01*
X84421001Y-130520296D02*
X86102501Y-130520296D01*
X86102501Y-130520296D02*
X88101001Y-128521796D01*
X88101001Y-128521796D02*
X88101001Y-128192196D01*
X74099301Y-139422196D02*
X75401001Y-139422196D01*
X58841001Y-138592496D02*
X59916301Y-138592496D01*
X59916301Y-138592496D02*
X60201501Y-138877696D01*
X60201501Y-138877696D02*
X60201501Y-143392196D01*
X60201501Y-143392196D02*
X60161001Y-143432696D01*
X58841001Y-139817196D02*
X58841001Y-140892496D01*
X58841001Y-140892496D02*
X56986001Y-142747496D01*
X56986001Y-142747496D02*
X56986001Y-143232196D01*
X78767701Y-138984296D02*
X78767701Y-136764996D01*
X78767701Y-136764996D02*
X79285501Y-136247196D01*
X79285501Y-136247196D02*
X81369501Y-136247196D01*
X81369501Y-136247196D02*
X84004501Y-133612196D01*
X84004501Y-133612196D02*
X85241001Y-133612196D01*
X63186001Y-147042196D02*
X60795501Y-147042196D01*
X60795501Y-147042196D02*
X60161001Y-146407696D01*
X75401001Y-138152196D02*
X75825401Y-138152196D01*
X75825401Y-138152196D02*
X77293101Y-139619896D01*
X77293101Y-139619896D02*
X77293101Y-139899796D01*
X75401001Y-136882196D02*
X75782401Y-136882196D01*
X75782401Y-136882196D02*
X77788401Y-138888196D01*
X77788401Y-138888196D02*
X77788401Y-139040196D01*
X77788401Y-139040196D02*
X78876501Y-140128296D01*
X84291001Y-135612196D02*
X85016301Y-135612196D01*
X90001001Y-135612196D02*
X89275701Y-135612196D01*
X89275701Y-135612196D02*
X89275701Y-135430896D01*
X89275701Y-135430896D02*
X88681601Y-134836796D01*
X88681601Y-134836796D02*
X85610401Y-134836796D01*
X85610401Y-134836796D02*
X85016301Y-135430896D01*
X85016301Y-135430896D02*
X85016301Y-135612196D01*
X84291001Y-135612196D02*
X82801401Y-135612196D01*
X82801401Y-135612196D02*
X81735901Y-136677696D01*
X81735901Y-136677696D02*
X81735901Y-138438796D01*
X81735901Y-138438796D02*
X80752501Y-139422196D01*
X80752501Y-139422196D02*
X80351001Y-139422196D01*
X83078401Y-136387896D02*
X83078401Y-137659796D01*
X83078401Y-137659796D02*
X83021001Y-137717196D01*
X65201001Y-132437196D02*
X68176001Y-129462196D01*
X68176001Y-129462196D02*
X76036001Y-129462196D01*
X65201001Y-132437196D02*
X64036501Y-131272696D01*
X64036501Y-131272696D02*
X61710201Y-131272696D01*
X61710201Y-131272696D02*
X58841001Y-134141896D01*
X65201001Y-132437196D02*
X62844001Y-134794196D01*
X62844001Y-134794196D02*
X62844001Y-142200196D01*
X62844001Y-142200196D02*
X63186001Y-142542196D01*
X75401001Y-143693596D02*
X72229301Y-143693596D01*
X72229301Y-143693596D02*
X72226001Y-143696896D01*
X83626001Y-145772196D02*
X82715101Y-144861296D01*
X82715101Y-144861296D02*
X76568701Y-144861296D01*
X76568701Y-144861296D02*
X75401001Y-143693596D01*
X75401001Y-143232196D02*
X75401001Y-143693596D01*
X72226001Y-145772196D02*
X72226001Y-143696896D01*
X69686001Y-142542196D02*
X70840701Y-143696896D01*
X70840701Y-143696896D02*
X72226001Y-143696896D01*
X99536001Y-135612196D02*
X98810701Y-135612196D01*
X95726001Y-135612196D02*
X96451301Y-135612196D01*
X96451301Y-135612196D02*
X96451301Y-135430896D01*
X96451301Y-135430896D02*
X97045401Y-134836796D01*
X97045401Y-134836796D02*
X98216601Y-134836796D01*
X98216601Y-134836796D02*
X98810701Y-135430896D01*
X98810701Y-135430896D02*
X98810701Y-135612196D01*
X93816001Y-143867196D02*
X95726001Y-141957196D01*
X95726001Y-141957196D02*
X95726001Y-135612196D01*
X92140601Y-134836896D02*
X92140601Y-132840996D01*
X92140601Y-132840996D02*
X93112401Y-131869196D01*
X93112401Y-131869196D02*
X93112401Y-129393596D01*
X93112401Y-129393596D02*
X91911001Y-128192196D01*
X91916001Y-134836896D02*
X92140601Y-134836896D01*
X95000701Y-135612196D02*
X95000701Y-135430896D01*
X95000701Y-135430896D02*
X94406701Y-134836896D01*
X94406701Y-134836896D02*
X92140601Y-134836896D01*
X91916001Y-135612196D02*
X91916001Y-134836896D01*
X95726001Y-135612196D02*
X95000701Y-135612196D01*
X76036001Y-129462196D02*
X79211001Y-129462196D01*
X58841001Y-135217196D02*
X58841001Y-134141896D01*
X93816001Y-145805296D02*
X92577201Y-145805296D01*
X92577201Y-145805296D02*
X91909101Y-145137196D01*
X91909101Y-145137196D02*
X90992501Y-145137196D01*
X90992501Y-145137196D02*
X90006001Y-144150696D01*
X90006001Y-144150696D02*
X90006001Y-143591696D01*
X90006001Y-143591696D02*
X87106501Y-140692196D01*
X87106501Y-140692196D02*
X86196001Y-140692196D01*
X97626001Y-140692196D02*
X97626001Y-142296196D01*
X97626001Y-142296196D02*
X94116901Y-145805296D01*
X94116901Y-145805296D02*
X93816001Y-145805296D01*
X93816001Y-146407196D02*
X93816001Y-145805296D01*
X101436001Y-140692196D02*
X100376901Y-139633096D01*
X100376901Y-139633096D02*
X96727101Y-139633096D01*
X96727101Y-139633096D02*
X96176401Y-140183796D01*
X96176401Y-140183796D02*
X96176401Y-143044696D01*
X96176401Y-143044696D02*
X94242701Y-144978396D01*
X94242701Y-144978396D02*
X92387201Y-144978396D01*
X92387201Y-144978396D02*
X91276001Y-143867196D01*
X86196001Y-143867196D02*
X84988501Y-142659696D01*
X84988501Y-142659696D02*
X84988501Y-139973496D01*
X84988501Y-139973496D02*
X85598001Y-139363996D01*
X85598001Y-139363996D02*
X86458901Y-139363996D01*
X86458901Y-139363996D02*
X88105701Y-137717196D01*
X88105701Y-137717196D02*
X90006001Y-137717196D01*
X90006001Y-137717196D02*
X93816001Y-137717196D01*
X68851001Y-138787196D02*
X72026001Y-135612196D01*
X72026001Y-135612196D02*
X75401001Y-135612196D01*
X79211001Y-132437196D02*
X76036001Y-135612196D01*
X76036001Y-135612196D02*
X75401001Y-135612196D01*
X75401001Y-134342196D02*
X68416001Y-134342196D01*
X68416001Y-134342196D02*
X63971001Y-138787196D01*
X76036001Y-132437196D02*
X76036001Y-133707196D01*
X76036001Y-133707196D02*
X75401001Y-134342196D01*
X95721001Y-128192196D02*
X94189901Y-126661096D01*
X94189901Y-126661096D02*
X60352901Y-126661096D01*
X60352901Y-126661096D02*
X55671301Y-131342696D01*
X55671301Y-131342696D02*
X55671301Y-131802196D01*
X54446001Y-131802196D02*
X55671301Y-131802196D01*
X81510901Y-129701796D02*
X81950501Y-129262196D01*
X72181301Y-131802196D02*
X72181301Y-131342596D01*
X72181301Y-131342596D02*
X72947001Y-130576896D01*
X72947001Y-130576896D02*
X80635801Y-130576896D01*
X80635801Y-130576896D02*
X81510901Y-129701796D01*
X81510901Y-129701796D02*
X82386001Y-130576896D01*
X82386001Y-131802196D02*
X82386001Y-130576896D01*
X70956001Y-131802196D02*
X72181301Y-131802196D01*
X101089601Y-129608096D02*
X100120801Y-130576896D01*
X100120801Y-130576896D02*
X98896001Y-130576896D01*
X101435501Y-129262196D02*
X101089601Y-129608096D01*
X101089601Y-129608096D02*
X102663001Y-131181496D01*
X102663001Y-131181496D02*
X102663001Y-141424696D01*
X102663001Y-141424696D02*
X102080801Y-142006896D01*
X102080801Y-142006896D02*
X100887001Y-142006896D01*
X100887001Y-142006896D02*
X100121301Y-142772596D01*
X100121301Y-142772596D02*
X100121301Y-143232196D01*
X98896001Y-143232196D02*
X100121301Y-143232196D01*
X98896001Y-131802196D02*
X98896001Y-130576896D01*
X97626001Y-135612196D02*
X97626001Y-137717196D01*
X96676001Y-133612196D02*
X96676001Y-132122196D01*
X96676001Y-132122196D02*
X95721001Y-131167196D01*
X101436001Y-135612196D02*
X101436001Y-137717196D01*
X100486001Y-133612196D02*
X98422901Y-133612196D01*
X98422901Y-133612196D02*
X97216901Y-132406196D01*
X97216901Y-132406196D02*
X97216901Y-130955296D01*
X84925501Y-129262196D02*
X86334801Y-129262196D01*
X86334801Y-129262196D02*
X86437801Y-129159196D01*
X93816001Y-135612196D02*
X94541301Y-135612196D01*
X94541301Y-135612196D02*
X94541301Y-136337496D01*
X94541301Y-136337496D02*
X95024101Y-136820296D01*
X95024101Y-136820296D02*
X95024101Y-139484096D01*
X95024101Y-139484096D02*
X93816001Y-140692196D01*
X92866001Y-133612196D02*
X93591301Y-133612196D01*
X93591301Y-133612196D02*
X93591301Y-131371696D01*
X93591301Y-131371696D02*
X95102001Y-129860996D01*
X95102001Y-129860996D02*
X97861701Y-129860996D01*
X97861701Y-129860996D02*
X98460501Y-129262196D01*
X86196001Y-137717196D02*
X84531901Y-139381296D01*
X84531901Y-139381296D02*
X84531901Y-141090296D01*
X84531901Y-141090296D02*
X81757001Y-143865196D01*
X81757001Y-143865196D02*
X79304501Y-143865196D01*
X79304501Y-143865196D02*
X76131501Y-140692196D01*
X76131501Y-140692196D02*
X75401001Y-140692196D01*
X90006001Y-140692196D02*
X88094701Y-138780896D01*
X88094701Y-138780896D02*
X88094701Y-138758296D01*
X75401001Y-141962196D02*
X75007701Y-141962196D01*
X75007701Y-141962196D02*
X73818301Y-140772796D01*
X73818301Y-140772796D02*
X73818301Y-140386596D01*
X98896001Y-145772196D02*
X97720701Y-145772196D01*
X88736001Y-146407196D02*
X89864301Y-147535496D01*
X89864301Y-147535496D02*
X95957401Y-147535496D01*
X95957401Y-147535496D02*
X97720701Y-145772196D01*
X90666001Y-131167196D02*
X90001001Y-131167196D01*
X90001001Y-131167196D02*
X89051001Y-132117196D01*
X91911001Y-131167196D02*
X90666001Y-131167196D01*
X100071301Y-145772196D02*
X100071301Y-145404796D01*
X100071301Y-145404796D02*
X100879201Y-144596896D01*
X100879201Y-144596896D02*
X101842301Y-144596896D01*
X101842301Y-144596896D02*
X103148301Y-143290896D01*
X103148301Y-143290896D02*
X103148301Y-129009396D01*
X103148301Y-129009396D02*
X102137001Y-127998096D01*
X102137001Y-127998096D02*
X97815901Y-127998096D01*
X97815901Y-127998096D02*
X97421601Y-128392396D01*
X97421601Y-128392396D02*
X97421601Y-128470096D01*
X97421601Y-128470096D02*
X96636201Y-129255496D01*
X96636201Y-129255496D02*
X94794201Y-129255496D01*
X94794201Y-129255496D02*
X93337501Y-127798796D01*
X93337501Y-127798796D02*
X93337501Y-127693796D01*
X93337501Y-127693796D02*
X92776101Y-127132396D01*
X92776101Y-127132396D02*
X91062001Y-127132396D01*
X91062001Y-127132396D02*
X90666001Y-127528396D01*
X90666001Y-127528396D02*
X90666001Y-131167196D01*
X98896001Y-145772196D02*
X100071301Y-145772196D01*
X89051001Y-133612196D02*
X89051001Y-132117196D01*
X89051001Y-132117196D02*
X88101001Y-131167196D01*
X86191001Y-135612196D02*
X84520201Y-137282996D01*
X84520201Y-137282996D02*
X84520201Y-138183196D01*
X84520201Y-138183196D02*
X83658001Y-139045396D01*
X83658001Y-139045396D02*
X82697601Y-139045396D01*
X82697601Y-139045396D02*
X81050801Y-140692196D01*
X81050801Y-140692196D02*
X80351001Y-140692196D01*
X88101001Y-135612196D02*
X86191001Y-135612196D01*
M02*
